<svg width="110" height="26" viewBox="0 0 110 26" fill="none" xmlns="http://www.w3.org/2000/svg">
<path d="M18.1644 13.4945C18.177 12.5218 18.4379 11.5682 18.9227 10.7223C19.4076 9.87633 20.1006 9.16559 20.9374 8.65616C20.4058 7.90437 19.7046 7.28568 18.8893 6.84922C18.074 6.41277 17.1672 6.17057 16.2409 6.14187C14.2649 5.93648 12.3492 7.31277 11.3423 7.31277C10.3159 7.31277 8.76552 6.16226 7.09606 6.19628C6.01621 6.23082 4.96381 6.54178 4.0414 7.09885C3.11898 7.65592 2.35802 8.4401 1.83265 9.37499C-0.44314 13.2768 1.25439 19.0112 3.43441 22.1651C4.52512 23.7095 5.79985 25.4347 7.4678 25.3735C9.09999 25.3065 9.70959 24.3428 11.6798 24.3428C13.6317 24.3428 14.2036 25.3735 15.9054 25.3346C17.6568 25.3064 18.7603 23.7833 19.8127 22.2243C20.5964 21.1239 21.1995 19.9077 21.5995 18.6207C20.582 18.1945 19.7137 17.4812 19.1028 16.5696C18.4919 15.658 18.1656 14.5885 18.1644 13.4945Z" fill="white"/>
<path d="M14.9531 4.06753C15.9081 2.93231 16.3785 1.47318 16.2646 0C14.8057 0.151743 13.458 0.842237 12.4902 1.9339C12.017 2.46721 11.6545 3.08764 11.4236 3.75974C11.1927 4.43183 11.0978 5.14241 11.1443 5.85085C11.8741 5.85829 12.596 5.70166 13.2557 5.39276C13.9155 5.08386 14.4959 4.63074 14.9531 4.06753Z" fill="white"/>
<path d="M37.8934 16.7483H32.866L31.6587 20.2785H29.5293L34.2912 7.21765H36.5035L41.2654 20.2785H39.0997L37.8934 16.7483ZM33.3867 15.1193H37.3717L35.4072 9.39003H35.3523L33.3867 15.1193Z" fill="white"/>
<path d="M51.5502 15.518C51.5502 18.4772 49.9508 20.3784 47.5372 20.3784C46.9258 20.41 46.3178 20.2706 45.7827 19.9759C45.2476 19.6813 44.8071 19.2434 44.5117 18.7124H44.466V23.4289H42.4922V10.7563H44.4028V12.3401H44.4391C44.7481 11.8116 45.196 11.376 45.7352 11.0796C46.2743 10.7831 46.8846 10.637 47.5009 10.6567C49.9414 10.6567 51.5502 12.5671 51.5502 15.518ZM49.5214 15.518C49.5214 13.5901 48.5153 12.3227 46.9802 12.3227C45.4721 12.3227 44.4577 13.6168 44.4577 15.518C44.4577 17.4367 45.4721 18.7216 46.9802 18.7216C48.5153 18.7216 49.5214 17.4634 49.5214 15.518Z" fill="white"/>
<path d="M62.1342 15.518C62.1342 18.4772 60.5348 20.3783 58.1212 20.3783C57.5098 20.41 56.9018 20.2705 56.3667 19.9759C55.8316 19.6813 55.3911 19.2434 55.0957 18.7123H55.05V23.4289H53.0762V10.7563H54.9867V12.3401H55.023C55.332 11.8116 55.78 11.376 56.3191 11.0796C56.8583 10.7831 57.4685 10.637 58.0849 10.6567C60.5255 10.6567 62.1342 12.5671 62.1342 15.518ZM60.1054 15.518C60.1054 13.5901 59.0993 12.3226 57.5642 12.3226C56.0561 12.3226 55.0417 13.6168 55.0417 15.518C55.0417 17.4367 56.0561 18.7216 57.5642 18.7216C59.0993 18.7216 60.1054 17.4634 60.1054 15.518H60.1054Z" fill="white"/>
<path d="M69.1279 16.6396C69.2742 17.9348 70.5448 18.7852 72.2811 18.7852C73.9448 18.7852 75.1417 17.9347 75.1417 16.7669C75.1417 15.7531 74.4198 15.1461 72.7105 14.7301L71.0012 14.3223C68.5793 13.743 67.4549 12.6214 67.4549 10.8014C67.4549 8.54787 69.4381 7 72.2541 7C75.0411 7 76.9516 8.54787 77.016 10.8014H75.0234C74.9042 9.49795 73.8161 8.71119 72.2261 8.71119C70.636 8.71119 69.548 9.50721 69.548 10.6658C69.548 11.5892 70.2429 12.1325 71.9429 12.5485L73.3961 12.9018C76.1021 13.5355 77.2265 14.612 77.2265 16.5224C77.2265 18.9659 75.261 20.4963 72.1348 20.4963C69.2099 20.4963 67.235 19.0019 67.1074 16.6395L69.1279 16.6396Z" fill="white"/>
<path d="M81.4907 8.50269V10.7562H83.3193V12.3041H81.4907V17.5537C81.4907 18.3692 81.8568 18.7492 82.6607 18.7492C82.8777 18.7455 83.0945 18.7304 83.31 18.704V20.2426C82.9486 20.3095 82.5812 20.3398 82.2136 20.333C80.2668 20.333 79.5075 19.6089 79.5075 17.7621V12.3041H78.1094V10.7562H79.5075V8.50269H81.4907Z" fill="white"/>
<path d="M84.373 15.5179C84.373 12.5217 86.155 10.639 88.9337 10.639C91.7217 10.639 93.4953 12.5217 93.4953 15.5179C93.4953 18.5222 91.731 20.3967 88.9337 20.3967C86.1373 20.3967 84.373 18.5222 84.373 15.5179ZM91.4842 15.5179C91.4842 13.4626 90.5331 12.2496 88.9337 12.2496C87.3343 12.2496 86.3842 13.4718 86.3842 15.5179C86.3842 17.5813 87.3343 18.7851 88.9337 18.7851C90.5331 18.7851 91.4841 17.5813 91.4841 15.5179H91.4842Z" fill="white"/>
<path d="M95.1231 10.7563H97.0056V12.3771H97.0513C97.1786 11.8709 97.4781 11.4236 97.8993 11.1102C98.3205 10.7969 98.8378 10.6368 99.3643 10.6567C99.5917 10.6559 99.8186 10.6804 100.041 10.7296V12.5579C99.7534 12.471 99.4538 12.4311 99.1537 12.4398C98.8669 12.4283 98.581 12.4783 98.3157 12.5865C98.0503 12.6947 97.8118 12.8585 97.6164 13.0667C97.421 13.2748 97.2734 13.5224 97.1837 13.7923C97.094 14.0623 97.0644 14.3482 97.0969 14.6306V20.2787H95.123L95.1231 10.7563Z" fill="white"/>
<path d="M109.143 17.4817C108.877 19.2103 107.177 20.3967 105.002 20.3967C102.205 20.3967 100.469 18.5407 100.469 15.563C100.469 12.5762 102.214 10.639 104.919 10.639C107.58 10.639 109.253 12.4488 109.253 15.3361V16.0057H102.461V16.1239C102.43 16.4743 102.474 16.8273 102.591 17.1595C102.708 17.4917 102.895 17.7955 103.14 18.0506C103.385 18.3057 103.681 18.5063 104.01 18.6392C104.339 18.772 104.693 18.834 105.048 18.8211C105.514 18.8643 105.983 18.7574 106.383 18.516C106.783 18.2747 107.094 17.912 107.269 17.4817L109.143 17.4817ZM102.471 14.6397H107.278C107.296 14.3246 107.248 14.0092 107.136 13.7135C107.025 13.4177 106.853 13.1479 106.632 12.9209C106.411 12.694 106.144 12.5148 105.849 12.3947C105.555 12.2746 105.238 12.2161 104.919 12.2229C104.598 12.221 104.279 12.2821 103.982 12.4028C103.685 12.5235 103.414 12.7013 103.186 12.926C102.959 13.1507 102.778 13.4178 102.655 13.7119C102.533 14.0061 102.47 14.3214 102.471 14.6397V14.6397Z" fill="white"/>
</svg>
