<?xml version="1.0" encoding="utf-8"?>
<!-- Generator: Adobe Illustrator 19.1.1, SVG Export Plug-In . SVG Version: 6.00 Build 0)  -->
<svg version="1.1" id="Слой_1" xmlns="http://www.w3.org/2000/svg" xmlns:xlink="http://www.w3.org/1999/xlink" x="0px" y="0px"
	 viewBox="-277 369 56 56" style="enable-background:new -277 369 56 56;" xml:space="preserve">
<style type="text/css">
	.st0{fill:#01C38D;}
</style>
<path class="st0" d="M-249.4,372.6c-0.2,0.2-0.2,0.5,0,0.7l3.2,3.2c0.2,0.2,0.5,0.2,0.7,0c0.2-0.2,0.2-0.5,0-0.7l-2.8-2.8l2.8-2.8
	c0.2-0.2,0.2-0.5,0-0.7c-0.2-0.2-0.5-0.2-0.7,0L-249.4,372.6z M-225.5,397c0,0.3,0.2,0.5,0.5,0.5s0.5-0.2,0.5-0.5H-225.5z
	 M-249,373.5c13,0,23.5,10.5,23.5,23.5h1c0-13.5-11-24.5-24.5-24.5V373.5z"/>
<path class="st0" d="M-248.6,421.4c0.2-0.2,0.2-0.5,0-0.7l-3.2-3.2c-0.2-0.2-0.5-0.2-0.7,0c-0.2,0.2-0.2,0.5,0,0.7l2.8,2.8l-2.8,2.8
	c-0.2,0.2-0.2,0.5,0,0.7c0.2,0.2,0.5,0.2,0.7,0L-248.6,421.4z M-272.5,397c0-0.3-0.2-0.5-0.5-0.5s-0.5,0.2-0.5,0.5H-272.5z
	 M-249,420.5c-13,0-23.5-10.5-23.5-23.5h-1c0,13.5,11,24.5,24.5,24.5V420.5z"/>
<g>
	<path class="st0" d="M-263,397c-7.7,0-14-6.3-14-14s6.3-14,14-14s14,6.3,14,14S-255.3,397-263,397z M-263,370c-7.2,0-13,5.8-13,13
		s5.8,13,13,13s13-5.8,13-13S-255.8,370-263,370z"/>
</g>
<g>
	<path class="st0" d="M-263,394c-6.1,0-11-4.9-11-11s4.9-11,11-11s11,4.9,11,11S-256.9,394-263,394z M-263,373c-5.5,0-10,4.5-10,10
		s4.5,10,10,10s10-4.5,10-10S-257.5,373-263,373z"/>
</g>
<path class="st0" d="M-263.5,387c-0.4,0-0.7-0.1-1-0.3c-0.3-0.2-0.6-0.3-0.8-0.6c-0.2-0.2-0.4-0.5-0.5-0.8c-0.1-0.3-0.2-0.6-0.2-1
	h1.1c0,0.5,0.2,0.9,0.5,1.2c0.3,0.3,0.8,0.4,1.4,0.4c0.6,0,1-0.1,1.4-0.4c0.3-0.3,0.5-0.6,0.5-1c0-0.4-0.1-0.6-0.3-0.8
	c-0.2-0.2-0.5-0.4-0.9-0.5c-0.3-0.1-0.7-0.3-1.1-0.4c-0.4-0.1-0.8-0.3-1.1-0.5c-0.3-0.2-0.6-0.4-0.9-0.8c-0.2-0.3-0.3-0.7-0.3-1.3
	c0-0.3,0.1-0.5,0.2-0.8c0.1-0.3,0.3-0.5,0.5-0.7c0.2-0.2,0.5-0.4,0.8-0.5c0.3-0.2,0.6-0.2,1-0.3v-1.2h1v1.2c0.3,0.1,0.6,0.2,0.9,0.3
	c0.3,0.2,0.5,0.4,0.7,0.6c0.2,0.2,0.4,0.5,0.5,0.8c0.1,0.3,0.2,0.6,0.2,0.9h-1.1c0-0.5-0.2-0.9-0.5-1.2c-0.3-0.3-0.7-0.5-1.1-0.5
	c-0.3,0-0.5,0-0.7,0.1c-0.2,0.1-0.4,0.2-0.6,0.3c-0.2,0.1-0.3,0.3-0.4,0.4c-0.1,0.2-0.1,0.3-0.1,0.5c0,0.4,0.1,0.6,0.3,0.8
	c0.2,0.2,0.5,0.4,0.9,0.5c0.3,0.1,0.7,0.3,1.1,0.4c0.4,0.1,0.8,0.3,1.1,0.5c0.3,0.2,0.6,0.4,0.9,0.8c0.2,0.3,0.3,0.7,0.3,1.3
	c0,0.3-0.1,0.6-0.2,0.8c-0.1,0.3-0.3,0.5-0.5,0.7c-0.2,0.2-0.5,0.4-0.8,0.5c-0.3,0.1-0.6,0.2-1,0.3v1.2h-1V387z"/>
<g>
	<path class="st0" d="M-235,425c-7.7,0-14-6.3-14-14s6.3-14,14-14s14,6.3,14,14S-227.3,425-235,425z M-235,398c-7.2,0-13,5.8-13,13
		s5.8,13,13,13s13-5.8,13-13S-227.8,398-235,398z"/>
</g>
<g>
	<path class="st0" d="M-235,422c-6.1,0-11-4.9-11-11s4.9-11,11-11s11,4.9,11,11S-228.9,422-235,422z M-235,401c-5.5,0-10,4.5-10,10
		s4.5,10,10,10s10-4.5,10-10S-229.5,401-235,401z"/>
</g>
</svg>
