<?xml version="1.0" encoding="utf-8"?>
<!-- Generator: Adobe Illustrator 19.1.1, SVG Export Plug-In . SVG Version: 6.00 Build 0)  -->
<svg version="1.1" id="Слой_1" xmlns="http://www.w3.org/2000/svg" xmlns:xlink="http://www.w3.org/1999/xlink" x="0px" y="0px"
	 viewBox="-277 368 57 57" style="enable-background:new -277 368 57 57;" xml:space="preserve">
<style type="text/css">
	.st0{fill:#01C38D;}
	.st1{fill:#FFFFFF;filter:url(#Adobe_OpacityMaskFilter);}
	.st2{mask:url(#path-4-inside-1_1_);}
</style>
<g>
	<path class="st0" d="M-276,410v-41h13.4l3.4,5.9c0.4,0.6,1,1,1.7,1h24.4v23.6c0.4,0.2,0.7,0.4,1,0.7v-24.3c0-0.6-0.4-1-1-1h-24.4
		c-0.4,0-0.7-0.2-0.9-0.5l-3.4-5.9c-0.2-0.3-0.5-0.5-0.9-0.5H-276c-0.6,0-1,0.4-1,1v41c0,0.6,0.4,1,1,1h30.1c-0.1-0.3-0.2-0.7-0.2-1
		H-276z"/>
</g>
<rect x="-277" y="379" class="st0" width="45" height="1"/>
<g>
	<path class="st0" d="M-258,388h-14c-0.6,0-1-0.4-1-1v-3c0-0.6,0.4-1,1-1h14c0.6,0,1,0.4,1,1v3C-257,387.6-257.4,388-258,388z
		 M-272,384v3h14v-3H-272z"/>
</g>
<defs>
	<filter id="Adobe_OpacityMaskFilter" filterUnits="userSpaceOnUse" x="-248.2" y="396.8" width="22.5" height="22.4">
		<feColorMatrix  type="matrix" values="1 0 0 0 0  0 1 0 0 0  0 0 1 0 0  0 0 0 1 0"/>
	</filter>
</defs>
<mask maskUnits="userSpaceOnUse" x="-248.2" y="396.8" width="22.5" height="22.4" id="path-4-inside-1_1_">
	<path class="st1" d="M-227,408c0-2.6-1-5.1-2.8-7c-1.8-1.9-4.3-2.9-6.9-3c-2.6-0.1-5.1,0.9-7.1,2.7c-1.9,1.8-3.1,4.2-3.2,6.8
		c-0.1,2.6,0.8,5.2,2.5,7.1c1.7,2,4.2,3.2,6.8,3.3c2.6,0.2,5.2-0.7,7.2-2.3c2-1.7,3.2-4.1,3.5-6.7l-10-1H-227z"/>
</mask>
<g class="st2">
	<path class="st0" d="M-237,419.2c-0.3,0-0.5,0-0.8,0c-2.9-0.2-5.6-1.5-7.6-3.7c-2-2.2-2.9-5-2.8-8c0.1-2.9,1.4-5.7,3.6-7.7
		c2.2-2,5-3,7.9-3c2.9,0.1,5.7,1.3,7.7,3.4c2,2.1,3.2,4.8,3.2,7.7l0.1,0l-0.1,0.7v0.7h-0.1c-0.3,2.9-1.7,5.5-3.9,7.4
		C-231.8,418.3-234.3,419.2-237,419.2z M-237,399.2c-2.2,0-4.4,0.8-6,2.4c-1.7,1.6-2.7,3.7-2.8,6c-0.1,2.3,0.7,4.5,2.2,6.3
		c1.5,1.7,3.6,2.8,6,2.9c2.3,0.2,4.5-0.6,6.3-2.1c1.5-1.2,2.5-2.9,2.9-4.7l-8.7-0.8l0.1-2.4h8.7c-0.3-1.9-1.1-3.6-2.4-4.9
		c-1.6-1.7-3.8-2.6-6.1-2.6C-236.9,399.2-236.9,399.2-237,399.2z"/>
</g>
<g>
	<path class="st0" d="M-221.5,424c-0.1,0-0.3,0-0.4-0.1l-8.5-8.5c-0.2-0.2-0.2-0.5,0-0.7s0.5-0.2,0.7,0l8.5,8.5
		c0.2,0.2,0.2,0.5,0,0.7C-221.2,424-221.4,424-221.5,424z"/>
</g>
</svg>
