<svg width="124" height="28" viewBox="0 0 124 28" fill="none" xmlns="http://www.w3.org/2000/svg">
<path d="M61.5405 11.0286C58.9692 11.0286 56.9335 12.9573 56.9335 15.6361C56.9335 18.2077 58.9692 20.2436 61.5405 20.2436C64.1118 20.2436 66.1474 18.3148 66.1474 15.6361C66.1474 12.8501 64.1118 11.0286 61.5405 11.0286ZM61.5405 18.3148C60.1477 18.3148 58.9692 17.1362 58.9692 15.5289C58.9692 13.9216 60.1477 12.743 61.5405 12.743C62.9333 12.743 64.1118 13.8145 64.1118 15.5289C64.1118 17.1362 62.9333 18.3148 61.5405 18.3148ZM51.5767 11.0286C49.0054 11.0286 46.9697 12.9573 46.9697 15.6361C46.9697 18.2077 49.0054 20.2436 51.5767 20.2436C54.148 20.2436 56.1836 18.3148 56.1836 15.6361C56.1836 12.8501 54.148 11.0286 51.5767 11.0286ZM51.5767 18.3148C50.1839 18.3148 49.0054 17.1362 49.0054 15.5289C49.0054 13.9216 50.1839 12.743 51.5767 12.743C52.9694 12.743 54.148 13.8145 54.148 15.5289C54.148 17.1362 52.9694 18.3148 51.5767 18.3148ZM39.6844 12.4215V14.3502H44.2913C44.1842 15.4218 43.7556 16.279 43.2199 16.8147C42.5771 17.4576 41.5057 18.2077 39.6844 18.2077C36.7917 18.2077 34.6489 15.9575 34.6489 13.0644C34.6489 10.1713 36.8988 7.92116 39.6844 7.92116C41.1843 7.92116 42.3628 8.56407 43.2199 9.31413L44.6127 7.92116C43.4342 6.84964 41.9343 5.99243 39.7915 5.99243C35.9346 5.99243 32.6133 9.20698 32.6133 13.0644C32.6133 16.9219 35.9346 20.1364 39.7915 20.1364C41.9343 20.1364 43.4342 19.4935 44.7198 18.1005C46.0055 16.8147 46.4341 14.9932 46.4341 13.6002C46.4341 13.1716 46.4341 12.743 46.3269 12.4215H39.6844ZM88.3249 13.9216C87.8964 12.8501 86.825 11.0286 84.4679 11.0286C82.1109 11.0286 80.1824 12.8501 80.1824 15.6361C80.1824 18.2077 82.1109 20.2436 84.6822 20.2436C86.7178 20.2436 88.0035 18.9578 88.432 18.2077L86.9321 17.1362C86.3964 17.8862 85.7536 18.422 84.6822 18.422C83.6108 18.422 82.968 17.9934 82.4323 17.029L88.5392 14.4574L88.3249 13.9216ZM82.1109 15.4218C82.1109 13.7073 83.5037 12.743 84.4679 12.743C85.2179 12.743 85.9679 13.1716 86.1822 13.7073L82.1109 15.4218ZM77.0754 19.815H79.1111V6.42104H77.0754V19.815ZM73.8613 11.9929C73.3256 11.4572 72.4685 10.9214 71.3971 10.9214C69.1473 10.9214 67.0045 12.9573 67.0045 15.5289C67.0045 18.1005 69.0401 20.0293 71.3971 20.0293C72.4685 20.0293 73.3256 19.4935 73.7542 18.9578H73.8613V19.6007C73.8613 21.3151 72.8971 22.2795 71.3971 22.2795C70.2186 22.2795 69.3615 21.4222 69.1473 20.6722L67.433 21.4222C67.9687 22.6009 69.2544 24.101 71.5043 24.101C73.8613 24.101 75.7898 22.7081 75.7898 19.3864V11.2429H73.8613V11.9929ZM71.5043 18.3148C70.1115 18.3148 68.933 17.1362 68.933 15.5289C68.933 13.9216 70.1115 12.743 71.5043 12.743C72.8971 12.743 73.9684 13.9216 73.9684 15.5289C73.9684 17.1362 72.8971 18.3148 71.5043 18.3148ZM97.6459 6.42104H92.8247V19.815H94.8603V14.7788H97.6459C99.8958 14.7788 102.039 13.1716 102.039 10.5999C102.039 8.02831 99.8958 6.42104 97.6459 6.42104ZM97.753 12.8501H94.8603V8.24261H97.753C99.253 8.24261 100.11 9.52843 100.11 10.4928C100.003 11.6715 99.1458 12.8501 97.753 12.8501ZM110.074 10.9214C108.574 10.9214 107.074 11.5643 106.538 12.9573L108.36 13.7073C108.788 12.9573 109.431 12.743 110.181 12.743C111.252 12.743 112.217 13.3859 112.324 14.4574V14.5645C112.002 14.3502 111.145 14.0288 110.288 14.0288C108.36 14.0288 106.431 15.1003 106.431 17.029C106.431 18.8506 108.038 20.0293 109.752 20.0293C111.145 20.0293 111.788 19.3864 112.324 18.7435H112.431V19.815H114.359V14.6717C114.145 12.3144 112.324 10.9214 110.074 10.9214ZM109.86 18.3148C109.217 18.3148 108.253 17.9934 108.253 17.1362C108.253 16.0647 109.431 15.7432 110.395 15.7432C111.252 15.7432 111.681 15.9575 112.217 16.1718C112.002 17.4576 110.931 18.3148 109.86 18.3148ZM121.109 11.2429L118.859 17.029H118.752L116.395 11.2429H114.252L117.788 19.3864L115.752 23.8867H117.788L123.252 11.2429H121.109ZM103.11 19.815H105.146V6.42104H103.11V19.815Z" fill="white"/>
<path d="M0.751953 1.98828V25.8464C0.751953 26.0014 0.767897 26.1469 0.796625 26.2789L12.7818 13.9729L0.76671 1.73486C0.757063 1.81581 0.751953 1.90052 0.751953 1.98828Z" fill="white"/>
<path d="M18.1387 17.7094L22.8929 15.0736C23.8867 14.4905 23.8867 13.7763 22.8929 13.1931L18.1001 10.3811L14.5508 14.0254L18.1387 17.7094Z" fill="white"/>
<path d="M13.6949 15.0127L1.89844 27.1249C2.04385 27.0898 2.20659 27.0317 2.38923 26.9496L16.9457 18.3505L13.6949 15.0127Z" fill="white"/>
<path d="M2.39899 1.1066C2.19374 0.989522 2.01449 0.913479 1.85547 0.875L13.693 12.9322L16.9424 9.59579L2.39899 1.1066Z" fill="white"/>
</svg>
