<?xml version="1.0" encoding="utf-8"?>
<!-- Generator: Adobe Illustrator 19.1.1, SVG Export Plug-In . SVG Version: 6.00 Build 0)  -->
<svg version="1.1" id="Слой_1" xmlns="http://www.w3.org/2000/svg" xmlns:xlink="http://www.w3.org/1999/xlink" x="0px" y="0px"
	 viewBox="-277 369 56 56" style="enable-background:new -277 369 56 56;" xml:space="preserve">
<style type="text/css">
	.st0{fill:#01C38D;}
</style>
<g>
	<path class="st0" d="M-223,378h-29.1c-0.3,0.2-0.6,0.4-0.9,0.5c0.3,0.1,0.7,0.3,1,0.5h29c0.6,0,1,0.4,1,1v37c0,0.6-0.4,1-1,1h-52
		c-0.6,0-1-0.4-1-1v-37c0-0.6,0.4-1,1-1h17.3c0.3-0.2,0.6-0.4,0.9-0.5c-0.3-0.1-0.7-0.3-0.9-0.5H-275c-1.1,0-2,0.9-2,2v37
		c0,1.1,0.9,2,2,2h52c1.1,0,2-0.9,2-2v-37C-221,378.9-221.9,378-223,378z"/>
</g>
<g>
	<path class="st0" d="M-221.5,412h-55c-0.3,0-0.5-0.2-0.5-0.5s0.2-0.5,0.5-0.5h55c0.3,0,0.5,0.2,0.5,0.5S-221.2,412-221.5,412z
		 M-276.5,411.5L-276.5,411.5h55H-276.5z"/>
</g>
<g>
	<path class="st0" d="M-264,412h-6c-0.6,0-1-0.4-1-1v-11c0-0.6,0.4-1,1-1h6c0.6,0,1,0.4,1,1v11C-263,411.6-263.4,412-264,412z
		 M-270,400v11h6v-11H-270z"/>
</g>
<g>
	<path class="st0" d="M-252,412h-6c-0.6,0-1-0.4-1-1v-19c0-0.6,0.4-1,1-1h6c0.6,0,1,0.4,1,1v19C-251,411.6-251.4,412-252,412z
		 M-258,392v19h6v-19L-258,392z"/>
</g>
<g>
	<path class="st0" d="M-240,412h-6c-0.6,0-1-0.4-1-1v-7c0-0.6,0.4-1,1-1h6c0.6,0,1,0.4,1,1v7C-239,411.6-239.4,412-240,412z
		 M-246,404v7h6v-7H-246z"/>
</g>
<g>
	<path class="st0" d="M-228,412h-6c-0.6,0-1-0.4-1-1v-23c0-0.6,0.4-1,1-1h6c0.6,0,1,0.4,1,1v23C-227,411.6-227.4,412-228,412z
		 M-234,388v23h6v-23L-234,388z"/>
</g>
<g>
	<path class="st0" d="M-239.5,425h-19c-0.3,0-0.5-0.2-0.5-0.5s0.2-0.5,0.5-0.5h19c0.3,0,0.5,0.2,0.5,0.5S-239.2,425-239.5,425z
		 M-258.5,424.5L-258.5,424.5h19H-258.5z"/>
</g>
<g>
	<path class="st0" d="M-241.9,425h-14.2c-0.3,0-0.6-0.2-0.8-0.4s-0.2-0.6-0.1-0.9l1.8-5c0,0,0,0,0,0l0.2-0.5l0.1,0
		c0.2-0.2,0.4-0.2,0.6-0.2h10.6c0.4,0,0.8,0.3,0.9,0.7l1.8,5c0.1,0.3,0.1,0.6-0.1,0.9C-241.3,424.8-241.6,425-241.9,425z
		 M-254.4,419.4l-1.7,4.6h14.2l-1.8-5h-10.6L-254.4,419.4z"/>
</g>
<g>
	<path class="st0" d="M-265.2,388.7c-0.1,0-0.3,0-0.4-0.1c-0.2-0.2-0.2-0.5,0-0.7l8.2-8.2c0.2-0.2,0.5-0.2,0.7,0s0.2,0.5,0,0.7
		l-8.2,8.2C-264.9,388.6-265,388.7-265.2,388.7z"/>
</g>
<g>
	<path class="st0" d="M-245.5,383.3c-0.1,0-0.2,0-0.2-0.1l-6.8-3.4c-0.2-0.1-0.3-0.4-0.2-0.7c0.1-0.2,0.4-0.3,0.7-0.2l6.8,3.4
		c0.2,0.1,0.3,0.4,0.2,0.7C-245.1,383.2-245.3,383.3-245.5,383.3z"/>
</g>
<g>
	<path class="st0" d="M-240.9,382.4c-0.1,0-0.3,0-0.4-0.1c-0.2-0.2-0.2-0.5,0-0.7l7.9-7.9c0.2-0.2,0.5-0.2,0.7,0s0.2,0.5,0,0.7
		l-7.9,7.9C-240.6,382.3-240.7,382.4-240.9,382.4z"/>
</g>
<g>
	<path class="st0" d="M-267,393c-1.7,0-3-1.3-3-3s1.3-3,3-3s3,1.3,3,3S-265.3,393-267,393z M-267,388c-1.1,0-2,0.9-2,2s0.9,2,2,2
		s2-0.9,2-2S-265.9,388-267,388z"/>
</g>
<g>
	<path class="st0" d="M-255,381c-1.7,0-3-1.3-3-3s1.3-3,3-3s3,1.3,3,3S-253.3,381-255,381z M-255,376c-1.1,0-2,0.9-2,2s0.9,2,2,2
		s2-0.9,2-2S-253.9,376-255,376z"/>
</g>
<g>
	<path class="st0" d="M-243,387c-1.7,0-3-1.3-3-3s1.3-3,3-3s3,1.3,3,3S-241.3,387-243,387z M-243,382c-1.1,0-2,0.9-2,2s0.9,2,2,2
		s2-0.9,2-2S-241.9,382-243,382z"/>
</g>
<g>
	<path class="st0" d="M-231,375c-1.7,0-3-1.3-3-3s1.3-3,3-3s3,1.3,3,3S-229.3,375-231,375z M-231,370c-1.1,0-2,0.9-2,2s0.9,2,2,2
		s2-0.9,2-2S-229.9,370-231,370z"/>
</g>
</svg>
