<?xml version="1.0" encoding="utf-8"?>
<!-- Generator: Adobe Illustrator 19.1.1, SVG Export Plug-In . SVG Version: 6.00 Build 0)  -->
<svg version="1.1" id="Слой_1" xmlns="http://www.w3.org/2000/svg" xmlns:xlink="http://www.w3.org/1999/xlink" x="0px" y="0px"
	 viewBox="-277 369 56 56" style="enable-background:new -277 369 56 56;" xml:space="preserve">
<style type="text/css">
	.st0{fill:#01C38D;}
</style>
<g>
	<path class="st0" d="M-231,371h-30c-0.6,0-1,0.4-1,1v6.6c0.3-0.1,0.7-0.1,1-0.1V372l30,0v45h-7.1c0,0.3,0,0.7-0.1,1h7.1
		c0.6,0,1-0.4,1-1v-45C-230,371.4-230.4,371-231,371z"/>
</g>
<g>
	<path class="st0" d="M-238,425h-30c-0.6,0-1-0.4-1-1v-45c0-0.6,0.4-1,1-1h23.6c0.3,0,0.5,0.1,0.7,0.3l6.4,6.4
		c0.2,0.2,0.3,0.4,0.3,0.7V424C-237,424.6-237.4,425-238,425z M-268,379v45h30v-38.6l-6.4-6.4H-268z"/>
</g>
<g>
	<path class="st0" d="M-237.5,386h-6.5c-0.6,0-1-0.4-1-1v-7h0.6c0.3,0,0.5,0.1,0.7,0.3l6.4,6.4c0.2,0.2,0.3,0.4,0.3,0.7v0.5
		L-237.5,386z M-244,379.4v5.6h5.5l-2.7-2.8L-244,379.4z"/>
</g>
<path class="st0" d="M-261.5,386h6c0.3,0,0.5,0.2,0.5,0.5l0,0c0,0.3-0.2,0.5-0.5,0.5h-6c-0.3,0-0.5-0.2-0.5-0.5l0,0
	C-262,386.2-261.8,386-261.5,386z"/>
<path class="st0" d="M-261.5,411h17c0.3,0,0.5,0.2,0.5,0.5l0,0c0,0.3-0.2,0.5-0.5,0.5h-17c-0.3,0-0.5-0.2-0.5-0.5l0,0
	C-262,411.2-261.8,411-261.5,411z"/>
<g>
	<path class="st0" d="M-238,407h-30c-0.6,0-1-0.4-1-1v-14c0-0.6,0.4-1,1-1h30c0.6,0,1,0.4,1,1v14C-237,406.6-237.4,407-238,407z
		 M-268,392v14h30v-14L-268,392z"/>
</g>
<g>
	<path class="st0" d="M-253,403c-2.2,0-4-1.8-4-4c0-2.2,1.8-4,4-4s4,1.8,4,4C-249,401.2-250.8,403-253,403z M-253,396
		c-1.7,0-3,1.3-3,3s1.3,3,3,3s3-1.3,3-3S-251.3,396-253,396z"/>
</g>
<path class="st0" d="M-255.5,416h11c0.3,0,0.5,0.2,0.5,0.5l0,0c0,0.3-0.2,0.5-0.5,0.5h-11c-0.3,0-0.5-0.2-0.5-0.5l0,0
	C-256,416.2-255.8,416-255.5,416z"/>
<path class="st0" d="M-261.5,416h3c0.3,0,0.5,0.2,0.5,0.5l0,0c0,0.3-0.2,0.5-0.5,0.5h-3c-0.3,0-0.5-0.2-0.5-0.5l0,0
	C-262,416.2-261.8,416-261.5,416z"/>
</svg>
