<?xml version="1.0" encoding="utf-8"?>
<!-- Generator: Adobe Illustrator 19.1.1, SVG Export Plug-In . SVG Version: 6.00 Build 0)  -->
<svg version="1.1" id="Слой_1" xmlns="http://www.w3.org/2000/svg" xmlns:xlink="http://www.w3.org/1999/xlink" x="0px" y="0px"
	 viewBox="-550 738 48 56" style="enable-background:new -550 738 48 56;" xml:space="preserve">
<style type="text/css">
	.st0{fill:#01C38D;}
</style>
<g>
	<path class="st0" d="M-503,794h-46c-0.6,0-1-0.4-1-1v-54c0-0.6,0.4-1,1-1h46c0.6,0,1,0.4,1,1v54C-502,793.6-502.4,794-503,794z
		 M-549,739v54h46v-54H-549z"/>
</g>
<g>
	<path class="st0" d="M-507,790h-38c-0.6,0-1-0.4-1-1v-46c0-0.6,0.4-1,1-1h38c0.6,0,1,0.4,1,1v46C-506,789.6-506.4,790-507,790z
		 M-545,743v46h38v-46H-545z"/>
</g>
<rect x="-528" y="778" class="st0" width="1" height="11"/>
<g>
	<circle class="st0" cx="-525" cy="782" r="1"/>
</g>
<g>
	<circle class="st0" cx="-525" cy="786" r="1"/>
</g>
<g>
	<path class="st0" d="M-518,788c-1.7,0-3-1.3-3-3v-3.2c0-0.4,0.3-0.8,0.8-0.8h4.4c0.4,0,0.8,0.3,0.8,0.8v3.2
		C-515,786.7-516.3,788-518,788z M-520,782v3c0,1.1,0.9,2,2,2s2-0.9,2-2v-3H-520z"/>
</g>
<g>
	<path class="st0" d="M-526,778.5c-4.1,0-5.5-3-5.5-5.5h1c0,2.2,1.2,4.5,4.5,4.5s4.5-2.3,4.5-4.5h1
		C-520.5,775.5-521.9,778.5-526,778.5z"/>
</g>
<g>
	<path class="st0" d="M-520.3,754.3c-1.4-1.5-3.4-2.3-5.7-2.3s-4.3,0.8-5.7,2.3c-1.5,1.7-2.3,4-2.3,6.9c0,2.5,0.3,6.2,1.7,9.3
		c1.4,2.9,3.6,4.5,6.3,4.5c2.7,0,4.9-1.6,6.3-4.5c1.5-3.3,1.7-7.2,1.7-9.3C-518,758.3-518.8,755.9-520.3,754.3z M-520.7,770.1
		c-0.3,0.7-0.7,1.2-1,1.7c-0.8,1.3-2.1,2.3-4.1,2.3c-1,0-1.9-0.3-2.6-0.7c-0.1,0-0.2-0.1-0.2-0.1c-0.1,0-0.1-0.1-0.2-0.1
		c-0.1,0-0.1-0.1-0.2-0.1c-1.1-0.8-1.8-1.9-2.3-2.9c-1.1-2.3-1.7-5.5-1.7-8.9c0-2.7,0.7-4.8,2.1-6.3c1.2-1.3,2.9-1.9,4.9-1.9
		s3.8,0.7,4.9,1.9c1.4,1.5,2.1,3.6,2.1,6.3C-519,764.6-519.6,767.8-520.7,770.1z"/>
</g>
<path class="st0" d="M-523.5,757.6c0.1-0.3,0-0.6-0.3-0.6c-0.3-0.1-0.5,0-0.6,0.3L-523.5,757.6z M-524.5,757.3
	c-0.3,0.9-1,1.6-1.9,2.1c-0.9,0.5-2,0.8-3,1c-1.1,0.2-2.1,0.3-2.8,0.3c-0.4,0-0.7,0-0.9,0c-0.1,0-0.2,0-0.2,0s0,0-0.1,0l0,0l0,0l0,0
	l0,0c0,0,0,0,0,0.5s0,0.5,0,0.5l0,0l0,0l0,0l0,0c0,0,0,0,0.1,0c0.1,0,0.2,0,0.3,0c0.2,0,0.6,0,0.9,0c0.8,0,1.9-0.1,3-0.3
	c1.1-0.2,2.3-0.6,3.4-1.2c1-0.6,1.9-1.4,2.4-2.6L-524.5,757.3z"/>
<path class="st0" d="M-524.4,757.7c-0.1-0.2-0.1-0.6,0.2-0.7c0.2-0.1,0.5,0,0.7,0.2L-524.4,757.7z M-518.6,760.8
	c0.3,0,0.5,0.1,0.6,0.4c0.1,0.3-0.1,0.5-0.4,0.6L-518.6,760.8z M-523.6,757.2c1.2,2.1,2.5,3,3.4,3.3c0.5,0.2,0.9,0.2,1.2,0.3
	c0.1,0,0.2,0,0.3,0h0.1l0,0l0,0l0,0l0,0l0,0c0,0,0,0,0.1,0.5s0.1,0.5,0.1,0.5l0,0l0,0l0,0l0,0l0,0h-0.1c-0.1,0-0.3,0-0.4,0
	c-0.4,0-0.9-0.1-1.5-0.3c-1.2-0.5-2.6-1.5-4-3.8L-523.6,757.2z"/>
<g>
	<path class="st0" d="M-509.2,780.8c-0.5-3.4-3.1-6.2-6.5-6.8l-6.7-1.3c-0.3,0.3-0.6,0.5-1,0.8l7.5,1.4c2.9,0.6,5.2,3,5.6,6l1.1,8.1
		h-33.7l1.1-8.1c0.4-3,2.7-5.4,5.7-6l7.7-1.5c-0.4-0.2-0.7-0.4-1-0.7l-6.8,1.3c-3.4,0.6-6,3.4-6.5,6.8l-1.1,8.1
		c-0.1,0.3,0,0.6,0.2,0.8c0.2,0.2,0.5,0.3,0.8,0.3h33.7c0.2,0,0.5-0.1,0.8-0.3c0.2-0.2,0.2-0.5,0.2-0.8L-509.2,780.8z"/>
</g>
</svg>
