<svg width="53" height="53" viewBox="0 0 53 53" fill="none" xmlns="http://www.w3.org/2000/svg">
<path d="M46.0528 15.0333V7.70713L32.6195 0L28.0931 2.46159V23.3265L30.5753 24.8211V8.93793L39.9494 14.2714L41.4095 13.4509V12.308L30.5461 6.03677V3.95613L32.5319 2.72534L43.7165 9.11376V15.0626L38.4892 17.9345C38.1388 17.7586 37.7592 17.6414 37.3211 17.6414C35.9486 17.6414 34.8389 18.755 34.8389 20.1323C34.8389 21.5096 35.9486 22.6232 37.3211 22.6232C38.6937 22.6232 39.8034 21.5096 39.8034 20.1323C39.8034 20.103 39.8034 20.0737 39.8034 20.0444L44.9723 17.0846L50.1119 19.8393V21.2459V32.7919L45.0891 35.6345L24.2675 23.8247V8.90863V2.46159L19.9455 0L6.3078 7.73644V14.8575L0 18.4913V34.3158L6.24939 37.7444V44.8948L20.0039 52.6312L24.2675 50.1696V29.334L21.8729 27.9567V30.008V43.7226L12.2652 38.3012L11.0386 39.0338L11.0678 40.3526L21.8145 46.4772L21.7561 48.8802L20.0039 49.9352L8.55641 43.3123V38.0082L14.1633 34.7847C14.5138 34.9605 14.8934 35.0777 15.3022 35.0777C16.6748 35.0777 17.7845 33.9641 17.7845 32.5868C17.7845 31.2095 16.6748 30.0959 15.3022 30.0959C13.9297 30.0959 12.82 31.2095 12.82 32.5868V32.6161L7.4175 35.6931L2.33622 32.8799V19.9858L7.47591 16.8795L28.2683 28.953V49.9645L32.6195 52.6898L46.0528 44.9534V37.803L52.5066 34.2865V18.5499L46.0528 15.0333ZM21.8729 22.6232L9.89974 15.5901L21.9021 8.7328V22.6232H21.8729ZM21.8729 6.00746L8.64402 13.5681V13.4215V9.26028L19.9163 2.72534L21.9021 3.83891V6.00746H21.8729ZM30.5461 30.0959L42.6652 37.0411L30.5461 43.8105V30.0959ZM43.8333 43.4296L32.6195 49.8473L30.5753 48.5579V46.7117L43.8625 39.0632V43.4296H43.8333Z" fill="#01C38D"/>
</svg>
