<svg width="16" height="14" viewBox="0 0 16 14" fill="none" xmlns="http://www.w3.org/2000/svg">
<path d="M15.75 0.65625V4.15625C15.75 4.33854 15.6862 4.49349 15.5586 4.62109C15.431 4.7487 15.276 4.8125 15.0938 4.8125C14.9115 4.8125 14.7565 4.7487 14.6289 4.62109L13.6445 3.63672L7 10.3086C6.8724 10.4362 6.71745 10.5 6.53516 10.5C6.35286 10.5 6.19792 10.4362 6.07031 10.3086L5.44141 9.67969C5.3138 9.55208 5.25 9.39714 5.25 9.21484C5.25 9.03255 5.3138 8.8776 5.44141 8.75L12.1133 2.10547L11.1289 1.12109C11.0013 0.99349 10.9375 0.838542 10.9375 0.65625C10.9375 0.473958 11.0013 0.31901 11.1289 0.191406C11.2565 0.0638021 11.4115 0 11.5938 0H15.0938C15.276 0 15.431 0.0638021 15.5586 0.191406C15.6862 0.31901 15.75 0.473958 15.75 0.65625ZM11.1289 7.41016L10.6914 7.84766C10.5638 7.97526 10.5 8.13021 10.5 8.3125V12.25H1.75V3.5H8.96875C9.15104 3.5 9.30599 3.4362 9.43359 3.30859L9.87109 2.87109C9.9987 2.74349 10.0625 2.58854 10.0625 2.40625C10.0625 2.22396 9.9987 2.06901 9.87109 1.94141C9.74349 1.8138 9.58854 1.75 9.40625 1.75H1.3125C0.947917 1.75 0.638021 1.8776 0.382812 2.13281C0.127604 2.38802 0 2.69792 0 3.0625V12.6875C0 13.0521 0.127604 13.362 0.382812 13.6172C0.638021 13.8724 0.947917 14 1.3125 14H10.9375C11.3021 14 11.612 13.8724 11.8672 13.6172C12.1224 13.362 12.25 13.0521 12.25 12.6875V7.875C12.25 7.67448 12.1862 7.51953 12.0586 7.41016C11.931 7.28255 11.776 7.21875 11.5938 7.21875C11.4115 7.20052 11.2565 7.26432 11.1289 7.41016Z" fill="#01C38D"/>
</svg>
