<?xml version="1.0" encoding="utf-8"?>
<!-- Generator: Adobe Illustrator 19.1.1, SVG Export Plug-In . SVG Version: 6.00 Build 0)  -->
<svg version="1.1" id="Слой_1" xmlns="http://www.w3.org/2000/svg" xmlns:xlink="http://www.w3.org/1999/xlink" x="0px" y="0px"
	 viewBox="-277 369 56 56" style="enable-background:new -277 369 56 56;" xml:space="preserve">
<style type="text/css">
	.st0{fill:#01C38D;}
</style>
<g>
	<path class="st0" d="M-230.5,370h-30c-0.6,0-1,0.4-1,1v6.8c0.2,0,0.4,0,0.6,0c0.1,0,0.2,0,0.4,0l0-6.8c0,0,0,0,0,0h30v45h-6.9
		c0,0.3,0.1,0.7,0.1,1h6.8c0.6,0,1-0.4,1-1v-45C-229.5,370.4-229.9,370-230.5,370z"/>
</g>
<g>
	<path class="st0" d="M-237.5,424h-30c-0.6,0-1-0.4-1-1v-45c0-0.6,0.4-1,1-1h23.6c0.1,0,0.3,0,0.4,0.1h0.2l0.2,0.2l6.4,6.4
		c0.2,0.2,0.2,0.5,0.2,0.8V423C-236.5,423.6-236.9,424-237.5,424z M-267.5,378v45h30v-38.6c0,0,0-0.1,0-0.1l-6.2-6.2
		c0,0-0.1,0-0.1,0L-267.5,378z"/>
</g>
<g>
	<path class="st0" d="M-236.6,385h-7c-0.6,0-1-0.4-1-1v-7h0.6c0.2,0,0.4,0.1,0.5,0.1h0.2l0.1,0.1l6.4,6.4c0.2,0.2,0.2,0.5,0.2,0.8
		V385z M-243.6,378.3v5.7h5.7L-243.6,378.3z"/>
</g>
<path class="st0" d="M-261,385h6c0.3,0,0.5,0.2,0.5,0.5l0,0c0,0.3-0.2,0.5-0.5,0.5h-6c-0.3,0-0.5-0.2-0.5-0.5l0,0
	C-261.5,385.2-261.3,385-261,385z"/>
<path class="st0" d="M-261,390h17c0.3,0,0.5,0.2,0.5,0.5l0,0c0,0.3-0.2,0.5-0.5,0.5h-17c-0.3,0-0.5-0.2-0.5-0.5l0,0
	C-261.5,390.2-261.3,390-261,390z"/>
<path class="st0" d="M-261,400h17c0.3,0,0.5,0.2,0.5,0.5l0,0c0,0.3-0.2,0.5-0.5,0.5h-17c-0.3,0-0.5-0.2-0.5-0.5l0,0
	C-261.5,400.2-261.3,400-261,400z"/>
<path class="st0" d="M-261,410h17c0.3,0,0.5,0.2,0.5,0.5l0,0c0,0.3-0.2,0.5-0.5,0.5h-17c-0.3,0-0.5-0.2-0.5-0.5l0,0
	C-261.5,410.2-261.3,410-261,410z"/>
<path class="st0" d="M-261,395h10c0.3,0,0.5,0.2,0.5,0.5l0,0c0,0.3-0.2,0.5-0.5,0.5h-10c-0.3,0-0.5-0.2-0.5-0.5l0,0
	C-261.5,395.2-261.3,395-261,395z"/>
<path class="st0" d="M-248,395h4c0.3,0,0.5,0.2,0.5,0.5l0,0c0,0.3-0.2,0.5-0.5,0.5h-4c-0.3,0-0.5-0.2-0.5-0.5l0,0
	C-248.5,395.2-248.3,395-248,395z"/>
<path class="st0" d="M-254,405h10c0.3,0,0.5,0.2,0.5,0.5l0,0c0,0.3-0.2,0.5-0.5,0.5h-10c-0.3,0-0.5-0.2-0.5-0.5l0,0
	C-254.5,405.2-254.3,405-254,405z"/>
<path class="st0" d="M-261,405h4c0.3,0,0.5,0.2,0.5,0.5l0,0c0,0.3-0.2,0.5-0.5,0.5h-4c-0.3,0-0.5-0.2-0.5-0.5l0,0
	C-261.5,405.2-261.3,405-261,405z"/>
<path class="st0" d="M-255,415h11c0.3,0,0.5,0.2,0.5,0.5l0,0c0,0.3-0.2,0.5-0.5,0.5h-11c-0.3,0-0.5-0.2-0.5-0.5l0,0
	C-255.5,415.2-255.3,415-255,415z"/>
<path class="st0" d="M-261,415h3c0.3,0,0.5,0.2,0.5,0.5l0,0c0,0.3-0.2,0.5-0.5,0.5h-3c-0.3,0-0.5-0.2-0.5-0.5l0,0
	C-261.5,415.2-261.3,415-261,415z"/>
</svg>
