<?xml version="1.0" encoding="utf-8"?>
<!-- Generator: Adobe Illustrator 19.1.1, SVG Export Plug-In . SVG Version: 6.00 Build 0)  -->
<svg version="1.1" id="Слой_1" xmlns="http://www.w3.org/2000/svg" xmlns:xlink="http://www.w3.org/1999/xlink" x="0px" y="0px"
	 viewBox="-277 369 56 56" style="enable-background:new -277 369 56 56;" xml:space="preserve">
<style type="text/css">
	.st0{fill:#01C38D;}
</style>
<g>
	<path class="st0" d="M-268.2,407h-7.8v-30l46,0v16.8c0.3,0,0.7,0,1,0.1V377c0-0.6-0.4-1-1-1h-46c-0.6,0-1,0.4-1,1v30
		c0,0.6,0.4,1,1,1h7.9C-268.2,407.7-268.2,407.3-268.2,407z"/>
</g>
<g>
	<path class="st0" d="M-240.3,388.2c-0.6,0.5-1.4,0.8-2.2,0.8c-1.9,0-3.5-1.6-3.5-3.5s1.6-3.5,3.5-3.5c0.8,0,1.6,0.3,2.1,0.8
		c0.2-0.3,0.3-0.6,0.6-0.8c-0.8-0.6-1.7-0.9-2.7-0.9c-2.5,0-4.5,2-4.5,4.5s2,4.5,4.5,4.5c1.1,0,2-0.4,2.8-1
		C-239.9,388.7-240.1,388.5-240.3,388.2z"/>
</g>
<g>
	<path class="st0" d="M-237.5,390c-2.5,0-4.5-2-4.5-4.5s2-4.5,4.5-4.5s4.5,2,4.5,4.5S-235,390-237.5,390z M-237.5,382
		c-1.9,0-3.5,1.6-3.5,3.5s1.6,3.5,3.5,3.5s3.5-1.6,3.5-3.5S-235.6,382-237.5,382z"/>
</g>
<g>
	<path class="st0" d="M-265,390h-7c-0.6,0-1-0.4-1-1v-7c0-0.6,0.4-1,1-1h7c0.6,0,1,0.4,1,1v7C-264,389.6-264.4,390-265,390z
		 M-272,382v7h7v-7H-272z"/>
</g>
<path class="st0" d="M-272.5,384h3c0.3,0,0.5,0.2,0.5,0.5l0,0c0,0.3-0.2,0.5-0.5,0.5h-3c-0.3,0-0.5-0.2-0.5-0.5l0,0
	C-273,384.2-272.8,384-272.5,384z"/>
<path class="st0" d="M-272.5,386h3c0.3,0,0.5,0.2,0.5,0.5l0,0c0,0.3-0.2,0.5-0.5,0.5h-3c-0.3,0-0.5-0.2-0.5-0.5l0,0
	C-273,386.2-272.8,386-272.5,386z"/>
<path class="st0" d="M-267.5,384h3c0.3,0,0.5,0.2,0.5,0.5l0,0c0,0.3-0.2,0.5-0.5,0.5h-3c-0.3,0-0.5-0.2-0.5-0.5l0,0
	C-268,384.2-267.8,384-267.5,384z"/>
<path class="st0" d="M-267.5,386h3c0.3,0,0.5,0.2,0.5,0.5l0,0c0,0.3-0.2,0.5-0.5,0.5h-3c-0.3,0-0.5-0.2-0.5-0.5l0,0
	C-268,386.2-267.8,386-267.5,386z"/>
<path class="st0" d="M-268.2,397h-4.3c-0.3,0-0.5,0.2-0.5,0.5c0,0.3,0.2,0.5,0.5,0.5h4.2C-268.3,397.7-268.3,397.3-268.2,397z"/>
<path class="st0" d="M-272.5,402h4c0.3,0,0.5,0.2,0.5,0.5l0,0c0,0.3-0.2,0.5-0.5,0.5h-4c-0.3,0-0.5-0.2-0.5-0.5l0,0
	C-273,402.2-272.8,402-272.5,402z"/>
<g>
	<path class="st0" d="M-222,425h-46c-0.6,0-1-0.4-1-1v-30c0-0.6,0.4-1,1-1h46c0.6,0,1,0.4,1,1v30C-221,424.6-221.4,425-222,425z
		 M-268,394v30h46v-30L-268,394z"/>
</g>
<g>
	<path class="st0" d="M-232.2,405.1c-0.6,0.6-1.4,0.9-2.3,0.9c-1.9,0-3.5-1.6-3.5-3.5s1.6-3.5,3.5-3.5c0.9,0,1.7,0.3,2.3,0.9
		c0.2-0.3,0.3-0.6,0.6-0.8c-0.8-0.6-1.8-1-2.8-1c-2.5,0-4.5,2-4.5,4.5s2,4.5,4.5,4.5c1.1,0,2.1-0.4,2.9-1.1
		C-231.8,405.7-232,405.4-232.2,405.1z"/>
</g>
<g>
	<path class="st0" d="M-229.5,407c-2.5,0-4.5-2-4.5-4.5s2-4.5,4.5-4.5s4.5,2,4.5,4.5S-227,407-229.5,407z M-229.5,399
		c-1.9,0-3.5,1.6-3.5,3.5s1.6,3.5,3.5,3.5s3.5-1.6,3.5-3.5S-227.6,399-229.5,399z"/>
</g>
<g>
	<path class="st0" d="M-257,407h-7c-0.6,0-1-0.4-1-1v-7c0-0.6,0.4-1,1-1h7c0.6,0,1,0.4,1,1v7C-256,406.6-256.4,407-257,407z
		 M-264,399v7h7v-7H-264z"/>
</g>
<path class="st0" d="M-264.5,401h3c0.3,0,0.5,0.2,0.5,0.5l0,0c0,0.3-0.2,0.5-0.5,0.5h-3c-0.3,0-0.5-0.2-0.5-0.5l0,0
	C-265,401.2-264.8,401-264.5,401z"/>
<path class="st0" d="M-264.5,403h3c0.3,0,0.5,0.2,0.5,0.5l0,0c0,0.3-0.2,0.5-0.5,0.5h-3c-0.3,0-0.5-0.2-0.5-0.5l0,0
	C-265,403.2-264.8,403-264.5,403z"/>
<path class="st0" d="M-259.5,401h3c0.3,0,0.5,0.2,0.5,0.5l0,0c0,0.3-0.2,0.5-0.5,0.5h-3c-0.3,0-0.5-0.2-0.5-0.5l0,0
	C-260,401.2-259.8,401-259.5,401z"/>
<path class="st0" d="M-259.5,403h3c0.3,0,0.5,0.2,0.5,0.5l0,0c0,0.3-0.2,0.5-0.5,0.5h-3c-0.3,0-0.5-0.2-0.5-0.5l0,0
	C-260,403.2-259.8,403-259.5,403z"/>
<path class="st0" d="M-264.5,414h5c0.3,0,0.5,0.2,0.5,0.5l0,0c0,0.3-0.2,0.5-0.5,0.5h-5c-0.3,0-0.5-0.2-0.5-0.5l0,0
	C-265,414.2-264.8,414-264.5,414z"/>
<path class="st0" d="M-264.5,419h4c0.3,0,0.5,0.2,0.5,0.5l0,0c0,0.3-0.2,0.5-0.5,0.5h-4c-0.3,0-0.5-0.2-0.5-0.5l0,0
	C-265,419.2-264.8,419-264.5,419z"/>
<path class="st0" d="M-255.5,419h20c0.3,0,0.5,0.2,0.5,0.5l0,0c0,0.3-0.2,0.5-0.5,0.5h-20c-0.3,0-0.5-0.2-0.5-0.5l0,0
	C-256,419.2-255.8,419-255.5,419z"/>
<path class="st0" d="M-253.5,414h5c0.3,0,0.5,0.2,0.5,0.5l0,0c0,0.3-0.2,0.5-0.5,0.5h-5c-0.3,0-0.5-0.2-0.5-0.5l0,0
	C-254,414.2-253.8,414-253.5,414z"/>
<path class="st0" d="M-242.5,414h5c0.3,0,0.5,0.2,0.5,0.5l0,0c0,0.3-0.2,0.5-0.5,0.5h-5c-0.3,0-0.5-0.2-0.5-0.5l0,0
	C-243,414.2-242.8,414-242.5,414z"/>
<path class="st0" d="M-231.5,414h5c0.3,0,0.5,0.2,0.5,0.5l0,0c0,0.3-0.2,0.5-0.5,0.5h-5c-0.3,0-0.5-0.2-0.5-0.5l0,0
	C-232,414.2-231.8,414-231.5,414z"/>
</svg>
