<?xml version="1.0" encoding="utf-8"?>
<!-- Generator: Adobe Illustrator 19.1.1, SVG Export Plug-In . SVG Version: 6.00 Build 0)  -->
<svg version="1.1" id="Слой_1" xmlns="http://www.w3.org/2000/svg" xmlns:xlink="http://www.w3.org/1999/xlink" x="0px" y="0px"
	 viewBox="-277 369 56 56" style="enable-background:new -277 369 56 56;" xml:space="preserve">
<style type="text/css">
	.st0{fill:#01C38D;}
</style>
<g>
	<path class="st0" d="M-234.4,382.4c-0.2-0.2-0.6-0.2-0.8,0l-13.3,13.3c0.4,0.1,0.8,0.3,1.1,0.6l13-13
		C-234.2,383-234.2,382.7-234.4,382.4z"/>
</g>
<g>
	<path class="st0" d="M-249.8,395.9c0.1-0.1,0.2-0.2,0.3-0.3l-7.5-7.5c-0.2-0.2-0.6-0.2-0.8,0s-0.2,0.6,0,0.8l7.3,7.3
		C-250.4,396.1-250.1,396-249.8,395.9z"/>
</g>
<g>
	<path class="st0" d="M-249,399c-1.1,0-2-0.9-2-2c0-1.1,0.9-2,2-2c1.1,0,2,0.9,2,2C-247,398.1-247.9,399-249,399z M-249,396
		c-0.6,0-1,0.4-1,1s0.4,1,1,1s1-0.4,1-1S-248.4,396-249,396z"/>
</g>
<path class="st0" d="M-242,412.9v1.1h-6.2v-1l4-4.4c0.2-0.2,0.3-0.4,0.5-0.6c0.1-0.2,0.2-0.4,0.3-0.6c0.1-0.2,0.1-0.5,0.1-0.8
	c0-0.5-0.2-0.9-0.5-1.2c-0.3-0.3-0.8-0.5-1.3-0.5c-0.6,0-1,0.2-1.4,0.5c-0.4,0.4-0.5,0.8-0.5,1.4h-1.3c0-0.4,0.1-0.8,0.2-1.2
	c0.2-0.4,0.4-0.7,0.7-1c0.3-0.3,0.6-0.5,1-0.6c0.4-0.2,0.8-0.2,1.3-0.2c0.5,0,0.9,0.1,1.3,0.2c0.4,0.1,0.7,0.3,1,0.6
	c0.3,0.3,0.5,0.6,0.6,0.9c0.2,0.3,0.2,0.7,0.2,1.1c0,0.4-0.1,0.7-0.2,1c-0.1,0.3-0.3,0.6-0.5,0.9c-0.2,0.3-0.4,0.6-0.7,0.8l-3.2,3.5
	H-242z M-234,411.8h-1.1v2.2h-1.3v-2.2h-4.5v-1l4.2-6.9h1.5v6.8h1.1V411.8z M-236.4,410.7v-5l-3,5H-236.4z M-232.5,416.9h-1.1
	l4.2-13h1.1L-232.5,416.9z M-221.7,403.9v0.9l-4.2,9.2h-1.4l4.2-9h-4.6v-1.1H-221.7z"/>
<path class="st0" d="M-249,421.1c0.3,0,0.6-0.3,0.6-0.6s-0.3-0.6-0.6-0.6V421.1z M-225.9,397.4c0.2,0.2,0.6,0.2,0.8,0l3.8-3.8
	c0.2-0.2,0.2-0.6,0-0.8c-0.2-0.2-0.6-0.2-0.8,0l-3.4,3.4l-3.4-3.4c-0.2-0.2-0.6-0.2-0.8,0c-0.2,0.2-0.2,0.6,0,0.8L-225.9,397.4z
	 M-249,419.9c-12.9,0-22.9-10-22.9-22.9h-1.2c0,13.6,10.5,24.1,24.1,24.1V419.9z M-271.9,397c0-12.9,10-22.9,22.9-22.9v-1.2
	c-13.6,0-24.1,10.5-24.1,24.1H-271.9z M-249,374.1c12.9,0,22.9,10,22.9,22.9h1.2c0-13.6-10.5-24.1-24.1-24.1V374.1z"/>
</svg>
