<?xml version="1.0" encoding="utf-8"?>
<!-- Generator: Adobe Illustrator 20.1.0, SVG Export Plug-In . SVG Version: 6.00 Build 0)  -->
<svg version="1.1" id="Layer_1" xmlns="http://www.w3.org/2000/svg" xmlns:xlink="http://www.w3.org/1999/xlink" x="0px" y="0px"
	 viewBox="0 0 1440 1814" style="enable-background:new 0 0 1440 1814;" xml:space="preserve">
<style type="text/css">
	.st0{fill:url(#SVGID_1_);}
	.st1{fill:url(#SVGID_2_);}
	.st2{fill:url(#SVGID_3_);}
	.st3{fill:#FFFFFF;}
	.st4{fill:none;stroke:#000000;stroke-miterlimit:10;}
</style>
<linearGradient id="SVGID_1_" gradientUnits="userSpaceOnUse" x1="719.4279" y1="1445.6686" x2="719.4279" y2="3108.6418" gradientTransform="matrix(1 0 0 1 0 1)">
	<stop  offset="0" style="stop-color:#7395BB"/>
	<stop  offset="1" style="stop-color:#FFFFFF;stop-opacity:0"/>
</linearGradient>
<path class="st0" d="M1398.3,1558c10.9,3.9,24.3,8.7,40.5,11.2l1.3,245.4H-1.2v-385.4c3.4,1.6,6.3,3.2,9.2,4.8
	c7.2,4.1,14.5,8.2,31.2,11.1c28.2,4.9,37.6,13.2,50.8,24.9c4.7,4.1,9.8,8.7,16.5,13.6c16.6,12.4,40.8,16.2,70.6,20.8
	c19.8,3.1,42.1,6.5,66.4,13.2c32.4,8.9,73.4,6.8,110.1,5c14.1-0.7,27.6-1.4,39.7-1.4c25.4,0,46.7,8.9,70,18.6
	c16.6,6.9,34.2,14.3,55,19.1c26.8,6.3,54,8,78.2,9.6c23.1,1.5,43.4,2.8,58,7.7c24.5,8.2,55.4,8.7,97.3,8.7
	c20.6,0,29.6-6.3,38.4-12.4c9-6.3,17.8-12.5,38.8-11.2c12,0.7,32.9-15.3,57.2-34c33.6-25.8,73.6-56.6,107-56.6
	c27.7,0,38.2-3.3,45.7-5.7c8-2.5,12.3-3.9,30.7,1.4c16.3,4.7,26.8,10.3,36.1,15.3c12.9,6.9,23.3,12.6,43.3,12.3
	c19.9-0.3,36.7,12.5,52.5,24.6c11.6,8.9,22.8,17.3,34.3,20.1c13.9,3.3,23.2,7.7,31.5,11.7c15.1,7.1,26.9,12.7,56.9,7.8
	c7.2-1.2,13.4-2.5,18.9-3.6c15.2-3.2,25.6-5.4,41-1.3C1388.3,1554.4,1393,1556.1,1398.3,1558z"/>
<linearGradient id="SVGID_2_" gradientUnits="userSpaceOnUse" x1="699.2285" y1="1391.8627" x2="724.6182" y2="1816.7036" gradientTransform="matrix(1 0 0 1 0 1)">
	<stop  offset="0" style="stop-color:#7395BB"/>
	<stop  offset="1" style="stop-color:#FFFFFF;stop-opacity:0"/>
</linearGradient>
<path class="st1" d="M-1.2,1568.8v245.8h1441.3l-1.3-189.2c-11.5-2.8-18.8-7-25.9-11c-10.8-6.1-20.9-11.8-43.7-11.8
	c-21.7,0-62.2,10.1-95.1,19.2c-4.4,1.2-8.5,2.4-12.3,3.5c-3.1,0.9-6,1.7-8.9,2.6c-20.5,6-34.7,10.1-59,13.2c-15.7,2-34.1,0.1-54.6-2
	c-16.7-1.7-34.8-3.5-54-3.5h-99.6c-35.9,0-52.7-12.6-67.1-23.5c-8.7-6.6-16.6-12.5-27.4-14.6c-36.5-7-67.6,1.9-95.8,9.9
	c-18.2,5.2-35.2,10-51.7,10c-50.2,0-61.4-3.9-81.2-10.8c-7.1-2.5-15.2-5.3-26.7-8.5c-19.7-5.5-49.9-4.6-79.6-3.8
	c-20,0.5-39.7,1.1-56-0.3c-30.6-2.6-42.3-5-51.1-6.8c-9.4-1.9-15.5-3.2-38-3.2c-28.9,0-55.7-3.9-87.1-8.4
	c-15.7-2.3-32.6-4.7-51.4-6.9c-39-4.5-58.7-9.1-76.5-13.1c-12.6-2.9-24.3-5.6-41-7.8c-41.6-5.6-66.4-1.3-92.1,3.3
	c-4.2,0.7-8.5,1.5-12.9,2.2l-3,0.5c-1.4,0.2-2.9,0.4-4.3,0.7c-21,3.1-27,6.1-34.9,10C5.4,1565.8,2.5,1567.2-1.2,1568.8z"/>
<linearGradient id="SVGID_3_" gradientUnits="userSpaceOnUse" x1="724.4723" y1="1411.4056" x2="717.7184" y2="1842.7699" gradientTransform="matrix(1 0 0 1 0 1)">
	<stop  offset="0" style="stop-color:#7395BB"/>
	<stop  offset="1" style="stop-color:#FFFFFF"/>
</linearGradient>
<path class="st2" d="M1438.8,1648.5c-2.4-0.4-4.6-0.7-6.7-0.9c-12-1.5-21.2-3.3-29.5-4.9c-20.1-3.9-34-6.7-66.4-0.1
	c-30.7,6.3-42.8,6.5-57.6,6.8c-7.3,0.2-15.2,0.3-26.3,1.2c-16,1.3-23,4.3-29.7,7.1c-7.4,3.1-14.3,6-32.4,6.3
	c-16.1,0.2-26.4-1.5-37.9-3.3c-13.1-2.1-27.5-4.4-53.5-4.4c-23.3,0-38.4,1.8-54.1,3.6c-17.1,2-35,4.1-65,4.1
	c-57.7,0-74.9-0.7-94.4-5.9c-19.5-5.2-62.2-7.4-108.6-7.4c-41.9,0-69.7-3.1-110.8-12.7c-12.6-2.9-21.7-8.2-30.9-13.5
	c-19.2-11.1-38.9-22.5-92.7-13.5c-22,3.7-44.4,7.6-66.1,11.3c-38,6.5-73.5,12.7-99.5,16.6c-39.7,6.1-62.8,8.7-94.4,3.7
	c-22.5-3.5-42.8-9-62.2-14.2c-36.7-9.9-69.9-18.8-107.7-11.8c-52,9.7-62.6,15.3-80.6,25.1c-2,1.1-4,2.2-6.2,3.3
	c-5.2,2.8-9.6,5.6-13.9,8.3s-8.4,5.4-13,7.7l0.1,153.6h1441.3L1438.8,1648.5z"/>
<path class="st3" d="M1438.8,1690c-4.7,1.6-8.9,3.6-13.7,6l0,0c-4,1.9-8.5,4.1-14.3,6.5c-26.7,11.2-46.3,5-81-6.1
	c-4.2-1.4-8.7-2.8-13.4-4.2c-5.4-1.7-10.1-3.2-14.2-4.5c-29.3-9.3-29.7-9.4-59.2-6.3c-15,1.6-23.2,3.8-30.7,5.8
	c-9.4,2.5-17.8,4.7-36.9,5.1c-16,0.3-29.7-2.8-44.6-6.1c-17.1-3.8-35.8-8-61.8-8c-23.3,0-36,3.2-49.2,6.6
	c-14.4,3.7-29.4,7.5-59.4,7.5c-57.7,0-95.1-0.6-114.6-7.3c-19.5-6.7-46.4-14.3-88.4-14.3c-16.7,0-29.2,1.1-41.5,2.1
	c-18.6,1.6-36.7,3.1-67.8,0.8c-16.7-1.2-26.5-5.4-36.4-9.7c-14.8-6.4-29.9-12.8-68.5-9.5c-27.4,2.4-48.1,5.2-66.3,7.7
	c-24.6,3.4-44.3,6.1-69.3,6.1c-18.9,0-37.2,5.8-58.6,12.6c-27.8,8.8-60.7,19.3-106.9,20.8c-39.7,1.3-61.6-5.9-80.2-11.9
	c-19.6-6.4-35.6-11.6-65.2-4.6c-28.9,6.9-44.8,6.1-56.3,5.6c-11.4-0.5-18.5-0.9-29.7,6.7c-5.1,3.4-8.8,6.7-12.1,9.8l0.2,107.4
	h1441.3L1438.8,1690z"/>
<line class="st4" x1="-1.2" y1="1814.6" x2="1445.2" y2="1814.6"/>
</svg>
