<?xml version="1.0" encoding="utf-8"?>
<!-- Generator: Adobe Illustrator 20.1.0, SVG Export Plug-In . SVG Version: 6.00 Build 0)  -->
<svg version="1.1" id="Layer_1" xmlns="http://www.w3.org/2000/svg" xmlns:xlink="http://www.w3.org/1999/xlink" x="0px" y="0px"
	 viewBox="0 0 1441 283.7" style="enable-background:new 0 0 1441 283.7;" xml:space="preserve">
<style type="text/css">
	.st0{fill:url(#SVGID_1_);}
	.st1{fill:url(#SVGID_2_);}
	.st2{fill:url(#SVGID_3_);}
	.st3{fill:url(#SVGID_4_);}
	.st4{fill:#FFFFFF;}
	.st5{fill:none;}
</style>
<linearGradient id="SVGID_1_" gradientUnits="userSpaceOnUse" x1="720.5" y1="215.1324" x2="720.5" y2="-1009.1334" gradientTransform="matrix(1 0 0 -1 0 228)">
	<stop  offset="0" style="stop-color:#7395BB"/>
	<stop  offset="1" style="stop-color:#FFFFFF;stop-opacity:0"/>
</linearGradient>
<path class="st0" d="M0,283.7v-134c6.3,2,14.2,3.2,25.3,2.7c41.9-1.7,72.8-3.4,96.9-11.1c14.4-4.7,34.7-6.6,57.7-8.8
	c24.1-2.3,51.2-4.9,77.8-11.2c20.6-4.9,37.8-11.7,54.1-18.1c22.9-9,43.8-17.3,69.1-18.3c12.1-0.5,25.6-0.5,39.8-0.5l3.1,0
	c114.8,0,209.6,0.1,321.5,17c27.1,4.1,54.4,4.5,78.7,4.8c23.2,0.3,43.6,0.6,58.4,4c24.9,5.8,55.8,4.9,97.8,3.2
	c20.6-0.8,29.3-6.4,37.8-11.9c8.7-5.6,17.2-11.1,38.3-10.9c12.1,0.1,32.1-14,55.6-30.6c32.1-22.7,70.7-49.8,104-51.2
	c27.7-1.1,38.1-4.3,45.4-6.6c7.9-2.4,12.2-3.8,30.8-0.1c16.5,3.2,27.3,7.5,36.8,11.2c13.2,5.2,23.9,9.5,43.9,8.4
	c19.9-1,37.3,8.9,53.8,18.3c4.9,2.8,9.6,5.5,14.4,7.9v235.7"/>
<linearGradient id="SVGID_2_" gradientUnits="userSpaceOnUse" x1="720.4651" y1="208.6833" x2="720.5078" y2="-10.0584" gradientTransform="matrix(1 0 0 -1 0 228)">
	<stop  offset="0" style="stop-color:#7395BB;stop-opacity:0.96"/>
	<stop  offset="1" style="stop-color:#FFFFFF;stop-opacity:0"/>
</linearGradient>
<path class="st1" d="M0,283.7V162.6c6.3,0.9,13,1.3,20.7,1c70.4-2.9,81.5-5.7,108.8-13.5c16.9-4.8,41.7-7,71-9.6
	c12.4-1.1,25.6-2.3,39.3-3.7c21.9-2.3,42-6.8,61.7-11.1c8.9-2,18.1-5.3,27.4-8.7l0,0c13.7-4.9,27.6-10,41.1-10.9
	c12.3-0.8,22.4-0.2,31.9,0.4c11.8,0.8,22.9,1.5,36.9-0.7c43.8-6.8,86.3-5.2,129.2-3.6c22.1,0.8,44.4,1.7,67,1.4
	c22.8-0.3,44.7,2.7,67.2,5.7c20.1,2.7,40.7,5.5,62.7,6c13.9,0.3,27.1,0.4,39.6,0.5c29.5,0.2,54.4,0.3,71.8,3.7
	c28.1,5.5,39.5,7.4,109.9,4.5c18.1-0.7,30.8-5.2,44-9.8c16.8-5.9,34.4-12.1,65-11.3c14.5,0.4,27.1-5.8,41.7-12.9
	c18.1-8.9,39.4-19.3,71.3-20.6c45.9-1.9,72.5,9.5,93.8,18.6c9,3.8,16.9,7.2,25,9.1c10.5,2.4,19.1,5,27,7.4
	c18.4,5.5,33.3,10,61.1,8.9l5.1-0.2c6.9-0.3,13.8-0.6,20.8-0.9v171.3"/>
<linearGradient id="SVGID_3_" gradientUnits="userSpaceOnUse" x1="721.5437" y1="262.9505" x2="720.2213" y2="-72.5451" gradientTransform="matrix(1 0 0 -1 0 228)">
	<stop  offset="0" style="stop-color:#7395BB"/>
	<stop  offset="1" style="stop-color:#FFFFFF"/>
</linearGradient>
<path class="st2" d="M0,283.7V176c12.2,2.1,23.8,3.5,35.1,3.1c50.2-2,61.2-5.7,80.7-12.2l0,0c6.9-2.3,15-5,26.2-8.1
	c19.4-5.3,49.6-5.9,79.4-6.4c20-0.4,39.8-0.7,55.9-2.5c32.7-3.6,67.9-6.1,100.9-7.5c25.2-1,49.6-4.3,74-7.6
	c36.8-5,73.4-9.9,111.9-6.9c31.6,2.5,58.6,4.6,87.5,3.4c26.4-1.1,49.9-0.6,77.3,0.2c16.3,0.5,36-0.8,56-2
	c29.7-1.9,59.9-3.8,79.8-0.1c11.6,2.2,19.9,4.2,27.1,5.9c20.1,4.9,31.5,7.7,81.7,5.6c16.5-0.7,33.2-5.4,51.2-10.4
	c27.8-7.8,58.5-16.4,95.3-12.1c10.8,1.3,19,5.9,28.1,11c15,8.4,32.4,18.2,68.3,16.7l99.6-4.1c19.2-0.8,37.4,0,54.2,0.7
	c20.6,0.9,39.1,1.7,54.7-0.6c5.8-0.9,11.1-1.8,16-2.7v144.4"/>
<linearGradient id="SVGID_4_" gradientUnits="userSpaceOnUse" x1="720.4777" y1="228.8582" x2="720.4978" y2="28.4671" gradientTransform="matrix(1 0 0 -1 0 228)">
	<stop  offset="0" style="stop-color:#7395BB"/>
	<stop  offset="1" style="stop-color:#FFFFFF;stop-opacity:0.41"/>
</linearGradient>
<path class="st3" d="M0,283.7V208l3.8-0.2c41.9-1.7,69.5-5.4,110.2-15.1c12.5-3,21.3-7.7,30.2-12.5c18.7-10,37.8-20.3,92.1-15
	c22,2.2,44.6,4.4,66.4,6.6l0.2,0c38.3,3.9,74.2,7.5,100.3,9.7c63.9,5.4,141.1,2.3,204.4-8.3c25.8-4.3,61-10.9,98.7-17.8l0.2,0
	c21.4-4,43.6-8.1,65.3-12c53.3-9.7,73.6-1,93.4,7.4c9.4,4,18.8,8,31.5,9.9c41.7,6.3,69.6,7.7,111.5,6c46.4-1.9,89.2-1.8,109,1.7
	c19.7,3.5,37,3.4,94.7,1c30-1.2,47.8-3.7,64.8-6.1c15.6-2.2,30.6-4.3,53.9-5.2c26-1.1,40.5,0.3,53.7,1.5c11.5,1.1,22,2,38.1,1.2
	c8.1-0.4,14-1.2,18.6-2.2v124.8"/>
<path class="st4" d="M1441,283.7V177.2c-7.7,2-16.1,3.6-32,4.5c-16,0.9-29.8-1.1-44.9-3.2c-17.2-2.5-36.2-5.1-62.2-4.1
	c-23.3,1-35.8,4.1-48.8,7.5c-14.2,3.6-29,7.4-59.1,8.6c-57.7,2.4-95.2,3.4-115-1.4c-19.8-4.8-47.1-10-89.1-8.3
	c-16.7,0.7-29.2,2.1-41.4,3.4c-18.5,2.1-36.5,4.1-67.8,3.5c-16.7-0.3-26.7-3.4-36.9-6.5c-15.1-4.7-30.5-9.4-69-5.1
	c-27.3,3.1-47.9,6.3-65.9,9.1c-24.4,3.8-44.1,6.8-69,7.8c-18.9,0.8-36.9,6.3-58,12.8c-47.9,14.8-87.7,9.4-128.7,3.8
	c-25.4-3.4-51.2-6.9-79.6-5.8c-25,1-44.9-0.4-69.6-2.2c-18.3-1.3-39.2-2.8-66.7-3.7c-38.8-1.2-53.5,4.8-68,10.7
	c-9.7,3.9-19.3,7.8-35.9,9.5c-31,3.1-49.2,2.6-67.9,2.1c-12.3-0.4-24.9-0.7-41.6,0c-8.6,0.4-16.6,0.9-24,1.7v61.9"/>
<line class="st5" x1="0" y1="283.7" x2="1441" y2="283.7"/>
</svg>
