<?xml version="1.0" encoding="utf-8"?>
<!-- Generator: Adobe Illustrator 20.1.0, SVG Export Plug-In . SVG Version: 6.00 Build 0)  -->
<svg version="1.1" id="Layer_1" xmlns="http://www.w3.org/2000/svg" xmlns:xlink="http://www.w3.org/1999/xlink" x="0px" y="0px"
	 viewBox="0 0 1443.4 331.4" style="enable-background:new 0 0 1443.4 331.4;" xml:space="preserve">
<linearGradient id="SVGID_1_" gradientUnits="userSpaceOnUse" x1="715.4657" y1="178.804" x2="741.3967" y2="-1117.196" gradientTransform="matrix(1 0 0 -1 0 -25.5934)">
	<stop  offset="0" style="stop-color:#7395BB"/>
	<stop  offset="1" style="stop-color:#FFFFFF;stop-opacity:0"/>
</linearGradient>
<path style="fill:url(#SVGID_1_);fill-opacity:0.1;" d="M0.2,13.9c0.3,0.3,0.5,0.4,0.8,0.4c15.5,0,39.2-0.8,58.3-5.7l3.4-0.9
	C78.6,3.6,101.8-2.4,154.5,1c17.1,1.1,31.6,7.6,47.1,14.6c14.7,6.6,30.2,13.6,49.9,16.9c21.4,3.6,29.1-2,37.5-8
	c7.5-5.3,15.4-11,33.9-10.9c29,0.2,34.9,6.7,43.2,15.7c0.8,0.9,1.7,1.8,2.6,2.8c2.3,2.4,4.9,5,8.3,7.6c8.9,7,14.5,6.7,23.6,6.2
	s21.8-1.2,44.7,5.1c23.5,6.5,36.2,1.7,51.8-4.2c14.8-5.6,32.1-12.1,63.7-11c36.6,1.4,62.8,11,84.9,19.1c17,6.2,31.5,11.6,46.5,11.6
	c19.8,0,35.6,2.5,55.1,5.6c7.3,1.2,15.1,2.4,23.9,3.6c8.6,1.2,18,2.4,28.8,3.4c30.7,3.1,42.6-2.9,54.4-8.7
	c7.9-3.9,15.7-7.8,28.9-8.9c24.7-2.1,39.1-0.7,53.9,0.8c9.8,1,19.7,1.9,33,1.9c33.3,0,54.7-7,70.2-13.2s45.2-6.7,91-6.7
	c23.9,0,35.8,3.5,47.2,6.9c10.5,3.1,20.6,6,39.1,6c20.6,0,35.5-3.8,49.1-7.3c11.8-3,22.7-5.8,35.4-5.6c15.2,0.3,21.8,2.3,29.3,4.7
	c6,1.8,12.5,3.9,24.4,5.3c23.5,2.8,23.8,2.7,47.1-5.8c3.3-1.2,7-2.6,11.3-4.1c2-0.7,3.9-1.4,5.7-2.1l4.9-1.8
	c6.3-2.3,12-4.4,17.3-6.2v70.3c-6.7,0.4-14.4-0.5-23.8-3.4c-17.3-5.3-27.7-11.4-36.8-16.8c-9.9-5.9-18.3-10.8-32.3-12.5
	c-12.5-1.5-17.9-4.2-22.9-6.7c-5.7-2.9-10.8-5.4-25.3-5.7c-12.7-0.2-19.9,2.4-27.8,5.3c-9.2,3.4-19.3,7.1-40.1,7.1
	c-18.5,0-34.2-2.4-50.5-4.8c-17.8-2.7-36.3-5.5-60.2-5.5c-38.2,0-60.3,10-75.6,16.9h-0.1c-3,1.4-5.7,2.6-8.3,3.6
	c-15.5,6.2-32.7,12.8-63.1,12.8h-2.1c-32.8,0-69.7,0-86.6,10.3c-3.5,2.1-6.5,4.5-9.6,7c-12.2,9.6-24.8,19.6-66.6,13.2
	c-50.3-7.7-115.5-12.5-150-12.5s-66.1,7.3-99.9,28.6c-45.5,28.6-58.4,29.2-104.2,16.5c-45.8-12.6-64.3-23.8-82.1-37.8
	c-12.7-9.9-26-13.3-44.7-18.2c-7.7-2-16.3-4.2-26.1-7.1c-7.3-2.2-12.8-3.9-17.2-5.3c-16.8-5.3-18.6-5.8-50.6-11.2
	c-27.3-4.5-45.6-5-64.9-5.4c-9.3-0.2-18.9-0.5-29.7-1.2c-39.2-2.5-57.8,14.9-70.9,27.1c-5.8,5.4-10.5,9.8-15.4,11
	c-17.9,4.5-39.4,9.6-54.8,10.2V13.9H0.2z"/>
<linearGradient id="SVGID_2_" gradientUnits="userSpaceOnUse" x1="720.4098" y1="-96.4098" x2="730.6738" y2="-911.8708" gradientTransform="matrix(1 0 0 -1 0 -25.5934)">
	<stop  offset="0" style="stop-color:#7395BB"/>
	<stop  offset="1" style="stop-color:#FFFFFF;stop-opacity:0"/>
</linearGradient>
<path style="fill:url(#SVGID_2_);fill-opacity:0.3;" d="M0.2,178.3v-58c15.4-0.6,36.8-5.7,54.8-10.2c4.9-1.2,9.6-5.6,15.4-11
	c13.1-12.2,31.7-29.6,70.9-27.1c10.9,0.7,20.4,0.9,29.7,1.2c19.3,0.5,37.6,0.9,64.9,5.4c32,5.3,33.8,5.9,50.6,11.2
	c4.4,1.4,9.9,3.1,17.2,5.3c4.3,1.3,8.3,2.4,12.2,3.5c5,1.4,9.6,2.5,13.9,3.6c18.8,4.8,32.1,8.2,44.7,18.2
	c17.8,14,36.3,25.1,82.1,37.8c45.8,12.6,58.7,12,104.2-16.5c33.9-21.2,65.4-28.6,99.9-28.6s99.7,4.7,150,12.5
	c41.8,6.4,54.4-3.6,66.6-13.2c3.1-2.4,6.1-4.9,9.6-7c16.9-10.3,53.8-10.3,86.6-10.3h2.1c30.4,0,47.6-6.6,63.1-12.8
	c2.5-1,5.3-2.3,8.3-3.6h0.1c15.3-6.9,37.3-16.9,75.6-16.9c23.9,0,42.4,2.8,60.2,5.5c16.3,2.5,32,4.8,50.5,4.8
	c20.8,0,30.9-3.7,40.1-7.1c7.9-2.9,15.1-5.6,27.8-5.3c14.6,0.3,19.7,2.9,25.3,5.7c5,2.5,10.3,5.2,22.9,6.7
	c14,1.7,22.3,6.6,32.3,12.5c9.1,5.4,19.5,11.6,36.8,16.8c9.4,2.9,17.1,3.7,23.8,3.4v30c-11-3-25.3-10.2-39.8-17.5
	c-10-5.1-20.1-10.2-29.2-13.9c-26.9-11.1-38.1-14.5-70.2-14.5c-5.9,0-11.2-0.1-16.1-0.2c-21.6-0.5-34.8-0.8-57.1,10.2
	c-5.4,2.7-11.3,6-17.5,9.5c-18.4,10.4-39.4,22.2-57.6,22.2c-45.8,0-70.8,1.5-97,4c-31,3-47.5-5.2-63.5-13.1
	c-12.9-6.4-25.4-12.5-44.8-12.5c-40.5,0-49.8,4.2-64.1,10.6c-5.4,2.4-11.6,5.2-20.4,8.1c-17.6,5.9-34.3,5.8-53.4,5.7
	c-11.8-0.1-24.5-0.1-38.8,1.2c-18.4,1.7-31.6,6.6-44.3,11.2c-13.1,4.8-25.7,9.5-43.1,10.3c-20.1,1-36.6,4.8-56.4,9.4
	c-13,3-27.5,6.4-45.3,9.4c-20.9,3.6-35.6,6.3-47.8,8.6h-0.1c-18.5,3.4-31.2,5.8-51.5,8.6c-38.7,5.4-61.3,1.1-88.6-4.8
	c-16.7-3.6-23.1-3-31.8-2.2c-8.1,0.7-18.1,1.6-40.2-0.4c-19.4-1.8-34.8-10.8-49.9-19.4c-15.8-9.2-31.2-18-50.3-18
	c-20,0-32,4-43.9,7.9c-14.8,4.9-29.4,9.7-59.1,6.4c-18-2-35.8,4.4-52,10.3c-12.2,4.4-23.5,8.5-33.5,8.5
	C20.1,180.3,9.4,179.3,0.2,178.3L0.2,178.3z"/>
<linearGradient id="SVGID_3_" gradientUnits="userSpaceOnUse" x1="720.0756" y1="-122.8152" x2="724.9951" y2="-538.8924" gradientTransform="matrix(1 0 0 -1 0 -25.5934)">
	<stop  offset="0" style="stop-color:#7395BB"/>
	<stop  offset="1" style="stop-color:#FFFFFF;stop-opacity:0"/>
</linearGradient>
<path style="fill:url(#SVGID_3_);fill-opacity:0.6;" d="M0.2,178.3c9.2,1,19.9,2.1,34.7,2.1c9.9,0,21.3-4.1,33.5-8.5
	c16.2-5.9,34-12.3,52-10.3c29.7,3.3,44.3-1.5,59.1-6.4c11.8-3.9,23.8-7.9,43.9-7.9c19.1,0,34.4,8.9,50.3,18
	c15,8.7,30.5,17.6,49.9,19.4c22.1,2.1,32.1,1.2,40.2,0.4c8.7-0.8,15.1-1.4,31.8,2.2c27.4,5.9,50,10.2,88.6,4.8
	c20.3-2.8,33-5.2,51.5-8.6h0.1c12.2-2.3,26.8-5,47.8-8.6c17.8-3.1,32.2-6.4,45.3-9.4c19.8-4.6,36.3-8.4,56.4-9.4
	c17.4-0.8,30-5.5,43.1-10.3c12.7-4.7,26.4-9.6,44.8-11.3c13.8-1.3,25.7-1.2,37.1-1.2h1.2c19.1,0.1,35.8,0.2,53.4-5.7
	c8.9-3,15-5.7,20.4-8.1c14.3-6.4,23.6-10.6,64.1-10.6c19.4,0,31.9,6.2,44.8,12.5c16,7.9,32.5,16,63.5,13.1c26.2-2.5,51.2-4,97-4
	c18.2,0,39.2-11.9,57.6-22.2c6.2-3.5,12.1-6.8,17.5-9.5c22.3-11,35.5-10.7,57.1-10.2c4.9,0.1,10.2,0.2,16.1,0.2
	c32.1,0,43.3,3.4,70.2,14.5c9.1,3.7,19.2,8.8,29.2,13.9c14.5,7.3,28.8,14.6,39.8,17.5v23.4h1l-0.1,173.3L0.4,331L0.2,178.3z"/>
<linearGradient id="SVGID_4_" gradientUnits="userSpaceOnUse" x1="720.5532" y1="-147.4095" x2="724.6978" y2="-520.371" gradientTransform="matrix(1 0 0 -1 0 -25.5934)">
	<stop  offset="0" style="stop-color:#7395BB"/>
	<stop  offset="1" style="stop-color:#FFFFFF;stop-opacity:0"/>
</linearGradient>
<path style="fill:url(#SVGID_4_);" d="M0.2,221.3c9.6-0.4,19.9-0.1,30.4,2.2l6.3,1.4c30.3,6.7,46.7,10.3,99.9,4.1
	c28.6-3.3,49.6,14.5,69.9,31.8c17.5,14.9,34.5,29.4,55.5,29.4c23,0,38.1-4.1,55.3-8.7c10.6-2.8,22-5.9,36.5-8.4
	c24-4.1,35.2-20.1,45.6-34.7c9.4-13.3,18-25.6,34.8-26.9c18-1.4,27.1-1.5,34.7-1.5c10.1-0.1,17.6-0.1,39.6-3.2
	c15.3-2.1,21.2-5.1,28.2-8.6c8.3-4.2,18-9,46.8-14c39.8-6.9,59.6-7.8,86.9-9c3.4-0.2,7-0.3,10.7-0.5c17.7-0.9,35-8.4,52.7-16
	c16.6-7.2,33.6-14.5,51.4-16.6c4.3-0.5,8.6-1,12.8-1.4c2.5-0.2,5.1-0.5,7.5-0.7l9.9-0.9c24.1-2.1,44.6-3.9,58.4-9.9
	c5.6-2.4,9-4.5,11.9-6.2c8.4-5.1,12.3-7.5,54-7.5c43.3,0,80.3,32.3,115.8,63.3c32.7,28.5,64,55.9,97.8,55.9
	c24.4,0,44.1-0.8,65.4-11.3c11.4-5.6,23.2-20.3,35.3-35.4c16.8-21.1,34.4-43,53.1-43c15.3,0,26.5-4.5,37.2-8.8
	c11.8-4.7,23.1-9.2,38.4-7.1c20,2.8,35.4,10.1,47.4,15.8c3.5,1.7,6.7,3.2,9.7,4.4c0.8,0.3,1.6,0.7,2.4,0.9v8h1l-0.3,173.2L0.4,331
	L0.2,221.3z"/>
<path style="fill:#FFFFFF;" d="M0.2,238.7L0.4,331l1442.7,0.4l-2.9-168.7c-5.8,2.7-12.9,5.3-22.6,7.3c-39.7,8.3-60.1,14-91,25
	c-9.2,3.3-16,11.3-22.8,19.4c-9.2,10.9-18.5,22-34.3,21.7c-15.5-0.3-22.6,6-31.5,14c-6.8,6.1-14.5,13-27.9,18.7
	c-18.8,8-25.2,5.3-40-0.8c-1.1-0.5-2.2-0.9-3.4-1.4c-6.2-2.6-12.6-5.4-24.5-8.7c-32.2-8.9-65.2-38.2-95.9-67.2
	c-50.5-47.9-102.9-97.4-169.5-64.3c-10.7,5.3-26.2,6.8-43.4,8.4c-20.9,2-44.4,4.2-64.9,13.9c-12.9,6.1-24.8,14.1-36.4,21.9
	c-20.7,13.9-40.2,27.1-62.4,27.1c-8.3,0-17.5-0.4-27.4-0.9c-31.1-1.5-67.5-3.2-94.6,7.9c-20.6,8.4-37.1,11.2-50.9,13.5
	c-18.6,3.2-32.3,5.5-44.9,19.6c-20.2,22.5-33.9,37.7-64.3,45.5c-13.3,3.4-19,8.4-24.6,13.5c-7.5,6.7-15.1,13.4-40.8,16.7
	c-14.3,1.8-25.5,5.3-36,8.6c-17.3,5.5-32.9,10.4-58,6.2c-27.4-4.6-39.8-14.2-58.4-28.8c-8.9-6.9-19.2-15-33.2-24.2
	c-25.4-16.6-51.6-20.5-70.9-23.4c-9.1-1.4-16.7-2.5-21.9-4.6C24.2,239,15.7,238.7,0.2,238.7L0.2,238.7z"/>
</svg>
