<?xml version="1.0" encoding="utf-8"?>
<!-- Generator: Adobe Illustrator 20.1.0, SVG Export Plug-In . SVG Version: 6.00 Build 0)  -->
<svg version="1.1" id="Layer_1" xmlns="http://www.w3.org/2000/svg" xmlns:xlink="http://www.w3.org/1999/xlink" x="0px" y="0px"
	 viewBox="0 0 1440 924" style="enable-background:new 0 0 1440 924;" xml:space="preserve" preserveAspectRatio="none">
<style type="text/css">
	.st0{fill:url(#SVGID_1_);fill-opacity:0.3;}
	.st1{fill:url(#SVGID_2_);fill-opacity:0.6;}
	.st2{fill:url(#SVGID_3_);}
	.st3{fill:url(#SVGID_4_);}
	.st4{fill:none;stroke:#000000;stroke-miterlimit:10;}
</style>
<linearGradient id="SVGID_1_" gradientUnits="userSpaceOnUse" x1="720.3472" y1="539.9954" x2="720.3472" y2="2279.3733" gradientTransform="matrix(1 0 0 1 0 1)">
	<stop  offset="0" style="stop-color:#7395BB"/>
	<stop  offset="1" style="stop-color:#FFFFFF;stop-opacity:0"/>
</linearGradient>
<path class="st0" d="M0,627.1l-0.4,297.7l1441.5,1l-1.1-289.6c-3.9-0.8-7.6-1.8-11.7-3l0,0c-4-1.1-8.5-2.3-14.3-3.7
	c-26.7-6.3-46.3-2.8-81.1,3.4c-4.2,0.8-8.7,1.6-13.4,2.4c-5.4,0.9-10,1.8-14.1,2.5h-0.1c-29.3,5.3-29.7,5.3-59.3,3.6
	c-15-0.9-23.2-2.1-30.7-3.3c-9.4-1.4-17.8-2.7-37-2.9c-16.1-0.2-29.7,1.6-44.6,3.4c-17.1,2.1-35.8,4.5-61.9,4.5
	c-23.3,0-36-1.8-49.2-3.7c-14.4-2.1-29.4-4.2-59.5-4.2c-57.7,0-95.2,0.3-114.7,4.1s-46.5,8.1-88.5,8.1c-16.7,0-29.2-0.6-41.5-1.2
	c-18.6-0.9-36.7-1.7-67.9-0.5c-16.7,0.7-26.5,3.1-36.4,5.5c-14.8,3.6-29.9,7.3-68.6,5.4c-27.4-1.3-48.2-2.9-66.4-4.3
	c-24.6-1.9-44.4-3.4-69.4-3.4c-18.9,0-37.2-3.3-58.7-7.1l0,0c-27.8-5-60.8-10.9-107-11.7c-39.8-0.7-61.7,3.3-80.3,6.7
	c-19.6,3.6-35.7,6.6-65.3,2.6c-29-3.9-44.9-3.5-56.4-3.2c-11.6,0.6-18.7,0.8-29.9-3.5C7,630.7,3.3,628.9,0,627.1z"/>
<linearGradient id="SVGID_2_" gradientUnits="userSpaceOnUse" x1="720.3472" y1="656.0634" x2="720.3472" y2="1870.5518" gradientTransform="matrix(1 0 0 1 0 1)">
	<stop  offset="0" style="stop-color:#7395BB"/>
	<stop  offset="1" style="stop-color:#FFFFFF;stop-opacity:0"/>
</linearGradient>
<path class="st1" d="M1440,653.2l1.1,272.6l-1441.5-1L0,646c4.6,1.3,8.7,2.8,13,4.3l0,0c4.2,1.5,8.7,3.1,13.9,4.7
	c2.2,0.7,4.3,1.3,6.2,1.9c18.1,5.5,28.7,8.7,80.7,14.2c37.8,4,71-1.1,107.8-6.7c19.4-2.9,39.8-6,62.3-8c31.6-2.8,54.8-1.3,94.5,2.1
	c26,2.2,61.5,5.7,99.5,9.4h0.2c21.6,2.1,44.1,4.3,66,6.4c53.8,5.1,73.6-1.3,92.8-7.6c9.2-3,18.3-6,30.9-7.6c41.2-5.4,69-7.2,111-7.2
	c46.5,0,89.3-1.2,108.8-4.2s36.8-3.3,94.5-3.3c30.1,0,48,1.2,65.1,2.3c15.7,1,30.8,2.1,54.2,2.1c26,0,40.5-1.3,53.6-2.5
	c11.5-1,21.8-2,37.9-1.9c18.1,0.1,25.1,1.8,32.5,3.5c6.7,1.6,13.8,3.3,29.8,4c11.1,0.5,19,0.6,26.3,0.7c14.9,0.2,27,0.3,57.7,3.9
	c32.4,3.7,46.4,2.2,66.5,0c8.2-0.9,17.5-1.9,29.5-2.8C1436.8,653.5,1438.3,653.3,1440,653.2z"/>
<linearGradient id="SVGID_3_" gradientUnits="userSpaceOnUse" x1="720.3472" y1="664.4215" x2="720.3472" y2="1841.1249" gradientTransform="matrix(1 0 0 1 0 1)">
	<stop  offset="0" style="stop-color:#7395BB"/>
	<stop  offset="1" style="stop-color:#FFFFFF;stop-opacity:0"/>
</linearGradient>
<path class="st2" d="M0,692.5l-0.4,232.3l1441.5,1l-1.1-263c-10.3,1.6-17.3,3.8-24,5.9l0,0l0,0c-10.8,3.4-20.9,6.7-43.8,6.7
	c-21.8,0-62.3-5.7-95.2-10.9c-4.4-0.7-8.5-1.3-12.3-2c-3-0.5-5.8-1-8.5-1.4l-0.3-0.1c-20.5-3.4-34.8-5.7-59.1-7.5
	c-15.7-1.1-34.1-0.1-54.7,1.1l0,0c-16.7,1-34.9,2-54.1,2h-99.8c-35.9,0-52.8,7.1-67.2,13.3l0,0c-8.8,3.7-16.6,7.1-27.4,8.2
	c-36.6,4-67.7-1.1-95.9-5.6l0,0c-18.2-2.9-35.3-5.7-51.7-5.7c-50.3,0-61.5,2.2-81.3,6.1c-7.1,1.4-15.3,3-26.7,4.8
	c-19.7,3.1-49.9,2.6-79.7,2.2l0,0c-20-0.3-39.8-0.6-56,0.2c-30.7,1.5-42.4,2.8-51.2,3.9c-9.4,1.1-15.5,1.8-38,1.8
	c-29,0-55.8,2.2-87.2,4.7c-15.7,1.3-32.6,2.7-51.5,3.9c-39,2.6-58.8,5.1-76.6,7.4c-12.6,1.6-24.3,3.1-41.1,4.4
	c-41.7,3.2-66.5,0.7-92.2-1.8l0,0l0,0c-4.2-0.4-8.5-0.8-12.9-1.2l-3-0.3c-1.4-0.1-2.9-0.3-4.3-0.4c-21.2-1.7-27.2-3.3-35.1-5.6l0,0
	c-2.6-0.7-5.5-1.6-9.2-2.4V692.5z"/>
<linearGradient id="SVGID_4_" gradientUnits="userSpaceOnUse" x1="1065.1899" y1="1232.9364" x2="364.4677" y2="378.2595" gradientTransform="matrix(1 0 0 1 0 1)">
	<stop  offset="0" style="stop-color:#191F29"/>
	<stop  offset="1" style="stop-color:#191F29"/>
</linearGradient>
<path class="st3" d="M0,678.1V779c3.5-0.9,6.3-1.8,9.2-2.7c7.3-2.3,14.5-4.7,31.2-6.3c28.3-2.8,37.7-7.4,51-14.1l0,0
	c4.7-2.3,9.9-4.9,16.5-7.7c16.7-7,40.8-9.1,70.7-11.7l0,0l0,0l0,0l0,0l0,0c19.8-1.7,42.2-3.7,66.5-7.4c32.5-5,73.5-3.9,110.2-2.8
	l0,0c14.1,0.4,27.6,0.8,39.7,0.8c25.4,0,46.8-5,70.1-10.5c16.6-3.9,34.3-8.1,55.1-10.8c26.9-3.5,54.1-4.5,78.3-5.4l0,0l0,0
	c23.1-0.8,43.5-1.6,58.1-4.4c24.5-4.6,55.5-4.9,97.5-4.9c20.6,0,29.7,3.6,38.4,7l0,0c9.1,3.6,17.8,7.1,38.9,6.4
	c12.1-0.4,32.9,8.7,57.3,19.3l0,0l0,0c33.4,14.5,73.6,31.9,106.9,31.9c27.7,0,38.3,1.9,45.7,3.2c8,1.4,12.4,2.2,30.8-0.8
	c16.3-2.6,26.8-5.8,36.1-8.7l0,0l0,0c12.9-3.9,23.3-7.1,43.4-6.9c19.9,0.1,36.7-7.1,52.6-13.9l0,0l0,0c11.6-5,22.8-9.8,34.4-11.4
	c13.9-1.9,23.2-4.4,31.6-6.6c15.1-4,27-7.2,56.9-4.4c7.2,0.7,13.4,1.4,18.9,2.1l0,0c15.2,1.8,25.7,3.1,41,0.7
	c4.2-0.6,8.9-1.6,14.2-2.7l0,0c10.5-2.1,23.3-4.7,38.5-6.1l1.4,225.6l-1441.5-1L0,678.1z"/>
<line class="st4" x1="-0.4" y1="924.8" x2="1483.1" y2="924.8"/>
</svg>
