<svg width="140" height="140" viewBox="0 0 140 140" fill="none" xmlns="http://www.w3.org/2000/svg">
<path d="M135.602 69H119.102V71H135.602V69Z" fill="#03DD99"/>
<path d="M49.7 10.2999H34.5V12.2999H49.7V10.2999Z" fill="#03DD99"/>
<path d="M71.7 16.2H10V119.8H71.7V16.2Z" fill="url(#paint0_linear)"/>
<path d="M135.698 56.9744L109.398 57.0258L109.402 59.0258L135.702 58.9744L135.698 56.9744Z" fill="#03DD99"/>
<path d="M76.9 136H5C4.4 136 4 135.6 4 135V5.19995C4 4.59995 4.4 4.19995 5 4.19995H76.9C77.5 4.19995 77.9 4.59995 77.9 5.19995V36.2C77.9 36.4 77.8 36.5999 77.7 36.7999C77.5 37.0999 77.2 37.2 76.9 37.2C59 37.7 44.9 52.1 44.9 70C44.9 88.1 59.6 102.8 77.7 102.8C91.2 102.8 103.5 94.2999 108.4 81.7C108.5 81.2999 108.9 81.1 109.3 81.1H135.6V83.1H110C104.7 96.1 91.8 104.8 77.7 104.8C58.5 104.8 42.9 89.2 42.9 70C42.9 51.3 57.3 36.2 75.8 35.2V6.19995H6V134H75.9V119.8H77.9V135C77.9 135.5 77.4 136 76.9 136Z" fill="#03DD99"/>
<path d="M77.8008 98.6C93.5409 98.6 106.301 85.8401 106.301 70.1C106.301 54.3599 93.5409 41.6 77.8008 41.6C62.0607 41.6 49.3008 54.3599 49.3008 70.1C49.3008 85.8401 62.0607 98.6 77.8008 98.6Z" fill="url(#paint1_linear)"/>
<path d="M53.7016 125.6H30.6016V127.6H53.7016V125.6Z" fill="#03DD99"/>
<defs>
<linearGradient id="paint0_linear" x1="-0.507301" y1="26.6576" x2="82.1209" y2="109.286" gradientUnits="userSpaceOnUse">
<stop stop-color="#02C38D"/>
<stop offset="0.1518" stop-color="#34CFA4"/>
<stop offset="0.385" stop-color="#7BE0C4"/>
<stop offset="0.595" stop-color="#B4EDDD"/>
<stop offset="0.7738" stop-color="#DDF7F0"/>
<stop offset="0.9147" stop-color="#F6FDFB"/>
<stop offset="1" stop-color="white"/>
</linearGradient>
<linearGradient id="paint1_linear" x1="57.6111" y1="49.9546" x2="97.9163" y2="90.2598" gradientUnits="userSpaceOnUse">
<stop stop-color="#00DE97"/>
<stop offset="0.1562" stop-color="#0ACCA3"/>
<stop offset="0.4714" stop-color="#269CC2"/>
<stop offset="0.9131" stop-color="#514FF5"/>
<stop offset="1" stop-color="#5A3FFF"/>
</linearGradient>
</defs>
</svg>
