<svg width="140" height="140" viewBox="0 0 140 140" fill="none" xmlns="http://www.w3.org/2000/svg">
<path d="M89.1016 16.7001H87.1016V30.0001H89.1016V16.7001Z" fill="#03DD99"/>
<path d="M101.398 5.20007H99.3984V59.5001H101.398V5.20007Z" fill="#03DD99"/>
<path d="M113.398 16.7001H111.398V30.0001H113.398V16.7001Z" fill="#03DD99"/>
<path d="M27.1992 110H25.1992V123.3H27.1992V110Z" fill="#03DD99"/>
<path d="M39.3984 80.4H37.3984V134.7H39.3984V80.4Z" fill="#03DD99"/>
<path d="M51.5 110H49.5V123.3H51.5V110Z" fill="#03DD99"/>
<path d="M100.3 135.8C81.1 135.8 65.5 120.2 65.5 101C65.5 86.9001 74.2 74.0001 87.2 68.7001V39.1001H89.2V69.4001C89.2 69.8001 88.9 70.2001 88.6 70.3001C76 75.1001 67.5 87.5001 67.5 101C67.5 119.1 82.2 133.8 100.3 133.8C118.4 133.8 133.1 119.1 133.1 101C133.1 87.5001 124.6 75.2001 112 70.3001C111.6 70.2001 111.4 69.8001 111.4 69.4001V39.1001H113.4V68.7001C126.4 74.0001 135.1 86.9001 135.1 101C135.1 120.1 119.5 135.8 100.3 135.8Z" fill="#03DD99"/>
<path d="M100.301 129.4C116.041 129.4 128.801 116.64 128.801 100.9C128.801 85.1599 116.041 72.4 100.301 72.4C84.5607 72.4 71.8008 85.1599 71.8008 100.9C71.8008 116.64 84.5607 129.4 100.301 129.4Z" fill="url(#paint0_linear)"/>
<path d="M49.5 101V70.7C49.5 70.3 49.8 69.9 50.1 69.8C62.7 65 71.2 52.6 71.2 39.1C71.2 21 56.4 6.20005 38.3 6.20005C20.2 6.20005 5.5 21 5.5 39.1C5.5 52.6 14 64.9 26.6 69.8C27 69.9 27.2 70.3 27.2 70.7V101H25.2V71.4C12.2 66.1 3.5 53.2001 3.5 39.1C3.5 19.9 19.1 4.30005 38.3 4.30005C57.5 4.30005 73.1 19.9 73.1 39.1C73.1 53.2001 64.4 66.1 51.4 71.4V101H49.5Z" fill="#03DD99"/>
<path d="M38.3008 67.6001C54.0409 67.6001 66.8008 54.8402 66.8008 39.1001C66.8008 23.36 54.0409 10.6001 38.3008 10.6001C22.5607 10.6001 9.80078 23.36 9.80078 39.1001C9.80078 54.8402 22.5607 67.6001 38.3008 67.6001Z" fill="url(#paint1_linear)"/>
<defs>
<linearGradient id="paint0_linear" x1="80.1182" y1="80.7785" x2="120.423" y2="121.084" gradientUnits="userSpaceOnUse">
<stop stop-color="#00DE97"/>
<stop offset="0.1562" stop-color="#0ACCA3"/>
<stop offset="0.4714" stop-color="#269CC2"/>
<stop offset="0.9131" stop-color="#514FF5"/>
<stop offset="1" stop-color="#5A3FFF"/>
</linearGradient>
<linearGradient id="paint1_linear" x1="18.1581" y1="18.9161" x2="58.4631" y2="59.2217" gradientUnits="userSpaceOnUse">
<stop stop-color="#02C38D"/>
<stop offset="0.5493" stop-color="#8BE4CB"/>
<stop offset="1" stop-color="white"/>
</linearGradient>
</defs>
</svg>
