<svg width="32" height="32" viewBox="0 0 32 32" fill="none" xmlns="http://www.w3.org/2000/svg">
<mask id="mask0" mask-type="alpha" maskUnits="userSpaceOnUse" x="0" y="0" width="32" height="32">
<rect width="32" height="32" rx="8" fill="#EDEFF1"/>
</mask>
<g mask="url(#mask0)">
<path d="M30.2337 0H1.76625C1.29781 0 0.848559 0.186087 0.517323 0.517323C0.186087 0.848559 0 1.29781 0 1.76625L0 30.2337C0 30.7022 0.186087 31.1514 0.517323 31.4827C0.848559 31.8139 1.29781 32 1.76625 32H17.0938V19.625H12.9375V14.7812H17.0938V11.2188C17.0938 7.08563 19.6181 4.835 23.305 4.835C25.0706 4.835 26.5888 4.96625 27.0312 5.0225V9.34188H24.4888C22.4825 9.34188 22.0938 10.295 22.0938 11.6944V14.7812H26.89L26.265 19.625H22.0938V32H30.2337C30.7022 32 31.1514 31.8139 31.4827 31.4827C31.8139 31.1514 32 30.7022 32 30.2337V1.76625C32 1.29781 31.8139 0.848559 31.4827 0.517323C31.1514 0.186087 30.7022 0 30.2337 0V0Z" fill="#4267B2"/>
<path d="M22.0938 32.0001V19.6251H26.2656L26.8906 14.7813H22.0938V11.6963C22.0938 10.2969 22.4825 9.34382 24.4888 9.34382H27.0312V5.02319C26.5887 4.96444 25.0706 4.83569 23.305 4.83569C19.6175 4.83569 17.0938 7.08569 17.0938 11.2194V14.7819H12.9375V19.6251H17.0938V32.0001H22.0938Z" fill="white"/>
</g>
</svg>
