<svg width="131" height="131" viewBox="0 0 131 131" fill="none" xmlns="http://www.w3.org/2000/svg">
<g clip-path="url(#clip0)">
<path d="M46.5996 103.2H44.5996V130.8H46.5996V103.2Z" fill="#03DD99"/>
<path d="M64.0008 0H22.8008V2H64.0008V0Z" fill="#03DD99"/>
<path d="M23.2992 66.3C12.7992 66.3 4.19922 57.7 4.19922 47.2C4.19922 36.7 12.7992 28.1 23.2992 28.1C33.7992 28.1 42.3992 36.7 42.3992 47.2C42.3992 57.7 33.7992 66.3 23.2992 66.3ZM23.2992 30.1C13.8992 30.1 6.19922 37.8 6.19922 47.2C6.19922 56.6 13.8992 64.3 23.2992 64.3C32.6992 64.3 40.3992 56.6 40.3992 47.2C40.3992 37.8 32.6992 30.1 23.2992 30.1Z" fill="#03DD99"/>
<path d="M23.3008 60.7C30.7566 60.7 36.8008 54.6559 36.8008 47.2C36.8008 39.7442 30.7566 33.7 23.3008 33.7C15.8449 33.7 9.80078 39.7442 9.80078 47.2C9.80078 54.6559 15.8449 60.7 23.3008 60.7Z" fill="url(#paint0_linear)"/>
<path d="M2 130.7H0V92.7C0 79.9 10.4 69.4 23.3 69.4C36 69.4 46.3 79.6 46.6 92.2H128.5V11.7H23.7V22.1H21.7V10.7C21.7 10.1 22.1 9.70001 22.7 9.70001H129.4C130 9.70001 130.4 10.1 130.4 10.7V93.2C130.4 93.8 130 94.2 129.4 94.2H45.6C45 94.2 44.6 93.8 44.6 93.2V92.7C44.6 81 35 71.4 23.3 71.4C11.6 71.4 2 80.9 2 92.6V130.7Z" fill="#03DD99"/>
<path d="M23.9992 75.6H22.4992C13.4992 75.6 6.19922 82.9 6.19922 91.9V130.9H40.1992V91.9C40.2992 82.9 32.9992 75.6 23.9992 75.6Z" fill="url(#paint1_linear)"/>
<path d="M54.1992 67.5L46.6992 60L76.3992 30.3L89.8992 43.6L105.899 27.5L113.499 35L89.9992 58.6L76.4992 45.3L54.1992 67.5Z" fill="url(#paint2_linear)"/>
<path d="M117.1 39.8L101 23.6H117.1V39.8Z" fill="url(#paint3_linear)"/>
<path d="M104 58H102V77H104V58Z" fill="#03DD99"/>
<path d="M91.0996 66.2H89.0996V77H91.0996V66.2Z" fill="#03DD99"/>
<path d="M78.0996 58H76.0996V77H78.0996V58Z" fill="#03DD99"/>
<path d="M115.999 79H64.1992C63.5992 79 63.1992 78.6 63.1992 78V66.2H65.1992V77H114.999V49.8H116.999V78C116.999 78.5 116.499 79 115.999 79Z" fill="#03DD99"/>
</g>
<defs>
<linearGradient id="paint0_linear" x1="13.7481" y1="37.6668" x2="32.84" y2="56.7587" gradientUnits="userSpaceOnUse">
<stop stop-color="#00DE97"/>
<stop offset="0.1562" stop-color="#0ACCA3"/>
<stop offset="0.4714" stop-color="#269CC2"/>
<stop offset="0.9131" stop-color="#514FF5"/>
<stop offset="1" stop-color="#5A3FFF"/>
</linearGradient>
<linearGradient id="paint1_linear" x1="3.36532" y1="88.0714" x2="43.2197" y2="127.926" gradientUnits="userSpaceOnUse">
<stop stop-color="#00DE97"/>
<stop offset="0.1562" stop-color="#0ACCA3"/>
<stop offset="0.4714" stop-color="#269CC2"/>
<stop offset="0.9131" stop-color="#514FF5"/>
<stop offset="1" stop-color="#5A3FFF"/>
</linearGradient>
<linearGradient id="paint2_linear" x1="72.3124" y1="32.6485" x2="88.3124" y2="63.3151" gradientUnits="userSpaceOnUse">
<stop stop-color="#02C38D"/>
<stop offset="0.5493" stop-color="#8BE4CB"/>
<stop offset="1" stop-color="white"/>
</linearGradient>
<linearGradient id="paint3_linear" x1="104.915" y1="15.6386" x2="120.915" y2="46.3053" gradientUnits="userSpaceOnUse">
<stop stop-color="#02C38D"/>
<stop offset="0.5493" stop-color="#8BE4CB"/>
<stop offset="1" stop-color="white"/>
</linearGradient>
<clipPath id="clip0">
<rect width="130.5" height="130.9" fill="white"/>
</clipPath>
</defs>
</svg>
