<svg width="300" height="54" viewBox="0 0 300 54" fill="none" xmlns="http://www.w3.org/2000/svg">
<g clip-path="url(#clip0)">
<path d="M46.0528 14.981V7.68033L32.6195 0L28.0931 2.45303V23.2454L30.5753 24.7347V8.90684L39.9494 14.2217L41.4095 13.4041V12.2652L30.5461 6.01577V3.94237L32.5319 2.71586L43.7165 9.08206V15.0102L38.4892 17.8721C38.1388 17.6969 37.7592 17.5801 37.3211 17.5801C35.9486 17.5801 34.8389 18.6898 34.8389 20.0623C34.8389 21.4348 35.9486 22.5445 37.3211 22.5445C38.6937 22.5445 39.8034 21.4348 39.8034 20.0623C39.8034 20.0331 39.8034 20.0039 39.8034 19.9747L44.9723 17.0252L50.1119 19.7703V21.172V32.6779L45.0891 35.5106L24.2675 23.7418V8.87764V2.45303L19.9455 0L6.3078 7.70953V14.8058L0 18.4269V34.1964L6.24939 37.6132V44.7386L20.0039 52.4482L24.2675 49.9951V29.232L21.8729 27.8594V29.9036V43.5705L12.2652 38.168L11.0386 38.8981L11.0678 40.2122L21.8145 46.3156L21.7561 48.7102L20.0039 49.7615L8.55641 43.1617V37.876L14.1633 34.6637C14.5138 34.8389 14.8934 34.9557 15.3022 34.9557C16.6748 34.9557 17.7845 33.846 17.7845 32.4735C17.7845 31.1009 16.6748 29.9912 15.3022 29.9912C13.9297 29.9912 12.82 31.1009 12.82 32.4735V32.5027L7.4175 35.569L2.33622 32.7655V19.9163L7.47591 16.8208L28.2683 28.8523V49.7907L32.6195 52.5066L46.0528 44.797V37.6716L52.5066 34.1672V18.4853L46.0528 14.981ZM21.8729 22.5445L9.89974 15.5359L21.9021 8.70242V22.5445H21.8729ZM21.8729 5.98657L8.64402 13.5209V13.3749V9.22807L19.9163 2.71586L21.9021 3.82556V5.98657H21.8729ZM30.5461 29.9912L42.6652 36.9123L30.5461 43.6581V29.9912ZM43.8333 43.2785L32.6195 49.6739L30.5753 48.389V46.5492L43.8625 38.9273V43.2785H43.8333Z" fill="#01C38D"/>
<path d="M65.3545 16.7916C65.3545 15.3606 65.6466 14.0173 66.2598 12.7324C66.8731 11.4475 67.7492 10.3378 68.8881 9.34487C70.027 8.38118 71.4287 7.59271 73.0641 7.00865C74.6994 6.4246 76.5684 6.13257 78.671 6.13257C80.686 6.13257 82.4966 6.4246 84.1027 7.00865C85.7089 7.59271 87.0522 8.43959 88.1911 9.49089C89.33 10.5422 90.1769 11.7979 90.7901 13.258C91.4034 14.689 91.6954 16.2659 91.6954 17.9597L83.4018 18.5437C83.4018 17.0544 82.993 15.8863 82.1461 15.0394C81.2992 14.1925 80.1603 13.7837 78.6418 13.7837C77.2985 13.7837 76.218 14.1633 75.4003 14.8934C74.5826 15.6235 74.1738 16.4411 74.1738 17.3464C74.1738 18.2517 74.641 18.9526 75.5463 19.4198C76.4516 19.8871 77.5905 20.3251 78.963 20.7632C80.3355 21.172 81.7957 21.61 83.3726 22.1065C84.9496 22.5737 86.4097 23.2454 87.7823 24.1215C89.1548 24.9976 90.2937 26.1365 91.199 27.5674C92.1043 28.9983 92.5715 30.8381 92.5715 33.0867C92.5715 34.5761 92.2795 36.007 91.6662 37.3211C91.053 38.6352 90.1477 39.8034 88.9796 40.7962C87.7823 41.7891 86.3221 42.5776 84.5992 43.1617C82.847 43.7457 80.8904 44.0378 78.671 44.0378C76.5392 44.0378 74.6118 43.7457 72.918 43.1617C71.2243 42.5776 69.7933 41.7307 68.6252 40.6502C67.4571 39.5697 66.581 38.2848 65.9678 36.7955C65.3545 35.3061 65.0625 33.7 65.0625 31.9186L73.3561 31.3346C73.3561 34.6929 75.1375 36.3574 78.7002 36.3574C80.3648 36.3574 81.6205 35.9778 82.4673 35.1893C83.3142 34.43 83.7523 33.5248 83.7523 32.5027C83.7523 31.5682 83.285 30.8381 82.3797 30.3125C81.4745 29.7868 80.3355 29.3196 78.963 28.8815C77.5905 28.4435 76.1304 28.0054 74.5534 27.509C72.9765 27.0417 71.5163 26.3701 70.1438 25.5232C68.7713 24.6763 67.6323 23.5666 66.7271 22.1649C65.8218 20.7924 65.3545 18.9818 65.3545 16.7916Z" fill="white"/>
<path d="M112.869 28.6186L108.138 43.7164H101.334L92.1641 16.4703H100.458L105.188 32.4734L110.211 16.4703H115.555L120.578 32.4734L125.309 16.4703H133.603L124.433 43.7164H117.629L112.869 28.6186Z" fill="white"/>
<path d="M134.301 9.08201C134.301 7.8847 134.739 6.8626 135.644 5.98652C136.549 5.11043 137.571 4.64319 138.74 4.64319C139.908 4.64319 140.959 5.08123 141.835 5.98652C142.711 6.8918 143.178 7.9139 143.178 9.08201C143.178 10.2501 142.74 11.3014 141.835 12.1775C140.959 13.0536 139.908 13.5208 138.74 13.5208C137.571 13.5208 136.52 13.0828 135.644 12.1775C134.739 11.3014 134.301 10.2501 134.301 9.08201ZM142.594 43.7165H134.593V16.4703H142.594V43.7165Z" fill="white"/>
<path d="M153.374 34.8388C153.52 35.7441 153.899 36.4742 154.512 36.9998C155.097 37.5255 155.914 37.7883 156.936 37.7883C157.958 37.7883 158.776 37.5547 159.331 37.0582C159.915 36.5618 160.178 36.0361 160.178 35.4229C160.178 34.9556 159.827 34.576 159.156 34.2548C158.455 33.9627 157.608 33.6707 156.586 33.3787C155.564 33.0867 154.454 32.7362 153.228 32.3566C152.03 31.9477 150.921 31.4513 149.869 30.7796C148.847 30.1372 147.971 29.2611 147.299 28.2098C146.599 27.1293 146.277 25.8152 146.277 24.1798C146.277 23.0701 146.511 22.0188 146.978 20.9967C147.445 20.0038 148.146 19.0985 149.022 18.3685C149.898 17.6092 151.008 17.0251 152.293 16.5579C153.578 16.0906 155.038 15.8862 156.644 15.8862C160.207 15.8862 162.894 16.6747 164.763 18.2517C166.632 19.8286 167.771 21.8144 168.209 24.1798L160.499 24.7639C160.353 24.1798 159.973 23.625 159.419 23.1285C158.864 22.6321 158.134 22.3984 157.228 22.3984C156.323 22.3984 155.651 22.6029 155.213 22.9825C154.775 23.3913 154.571 23.8586 154.571 24.4718C154.571 24.9975 154.921 25.3771 155.593 25.6692C156.294 25.932 157.141 26.224 158.163 26.516C159.185 26.8081 160.295 27.1585 161.521 27.5381C162.718 27.947 163.828 28.4434 164.879 29.1151C165.902 29.7575 166.778 30.6336 167.449 31.6849C168.15 32.7654 168.471 34.0795 168.471 35.7149C168.471 36.8246 168.238 37.8759 167.741 38.9272C167.245 39.9493 166.515 40.8838 165.58 41.6723C164.646 42.4899 163.478 43.1324 162.105 43.5996C160.733 44.0669 159.214 44.3005 157.52 44.3005C153.812 44.3005 151.008 43.4828 149.139 41.8767C147.27 40.2705 146.102 38.1095 145.664 35.4229L153.374 34.8388Z" fill="white"/>
<path d="M177.493 34.8388C177.639 35.7441 178.018 36.4742 178.632 36.9998C179.216 37.5255 180.033 37.7883 181.056 37.7883C182.078 37.7883 182.895 37.5547 183.45 37.0582C184.034 36.5618 184.297 36.0361 184.297 35.4229C184.297 34.9556 183.947 34.576 183.275 34.2548C182.574 33.9627 181.727 33.6707 180.705 33.3787C179.683 33.0867 178.573 32.7362 177.347 32.3566C176.149 31.9477 175.04 31.4513 173.988 30.7796C172.966 30.1372 172.09 29.2611 171.419 28.2098C170.718 27.1293 170.397 25.8152 170.397 24.1798C170.397 23.0701 170.63 22.0188 171.097 20.9967C171.565 19.9746 172.266 19.0985 173.142 18.3685C174.018 17.6092 175.127 17.0251 176.412 16.5579C177.697 16.0906 179.157 15.8862 180.764 15.8862C184.326 15.8862 187.013 16.6747 188.882 18.2517C190.751 19.8286 191.89 21.8144 192.328 24.1798L184.618 24.7639C184.472 24.1798 184.093 23.625 183.538 23.1285C182.983 22.6321 182.253 22.3984 181.348 22.3984C180.442 22.3984 179.771 22.6029 179.333 22.9825C178.895 23.3913 178.69 23.8586 178.69 24.4718C178.69 24.9975 179.041 25.3771 179.712 25.6692C180.413 25.932 181.26 26.224 182.282 26.516C183.304 26.8081 184.414 27.1585 185.64 27.5381C186.838 27.947 187.947 28.4434 188.999 29.1151C190.021 29.7575 190.897 30.6336 191.569 31.6849C192.269 32.7654 192.62 34.0795 192.62 35.7149C192.62 36.8246 192.386 37.8759 191.89 38.9272C191.393 39.9493 190.663 40.8838 189.729 41.6723C188.794 42.4899 187.626 43.1324 186.254 43.5996C184.881 44.0669 183.363 44.3005 181.669 44.3005C177.96 44.3005 175.157 43.4828 173.288 41.8767C171.419 40.2705 170.251 38.1095 169.812 35.4229L177.493 34.8388Z" fill="white"/>
<path d="M218.787 23.8878C219.897 24.4135 220.889 25.0851 221.736 25.9028C222.496 26.6037 223.167 27.509 223.781 28.6187C224.394 29.7284 224.686 31.1009 224.686 32.7655C224.686 34.2548 224.394 35.6857 223.81 36.9999C223.226 38.314 222.379 39.4821 221.298 40.475C220.218 41.4679 218.933 42.2564 217.444 42.8404C215.954 43.4245 214.348 43.7165 212.567 43.7165H195.688V6.42456H211.691C213.384 6.42456 214.961 6.68739 216.363 7.24224C217.794 7.79709 218.991 8.55636 220.013 9.49085C221.036 10.4253 221.824 11.535 222.379 12.7908C222.963 14.0465 223.226 15.3606 223.226 16.7915C223.226 18.0473 222.992 19.1278 222.525 20.0623C222.058 20.9675 221.532 21.6976 220.977 22.2525C220.305 22.8949 219.575 23.4498 218.787 23.8878ZM204.273 21.2304H210.785C211.983 21.2304 212.946 20.8507 213.735 20.0623C214.523 19.303 214.932 18.3977 214.932 17.3756C214.932 16.3535 214.523 15.4482 213.735 14.6889C212.946 13.9297 211.953 13.5208 210.785 13.5208H204.273V21.2304ZM211.661 36.6202C213.005 36.6202 214.114 36.1822 215.049 35.2769C215.954 34.4008 216.421 33.3495 216.421 32.1814C216.421 30.9841 215.954 29.962 215.049 29.0859C214.144 28.2098 213.005 27.7426 211.661 27.7426H204.244V36.6202H211.661Z" fill="white"/>
<path d="M225.996 30.108C225.996 28.093 226.347 26.224 227.106 24.501C227.836 22.7781 228.829 21.2887 230.084 20.0038C231.34 18.7189 232.83 17.726 234.494 16.9959C236.159 16.2659 237.969 15.8862 239.926 15.8862C241.853 15.8862 243.664 16.2659 245.358 16.9959C247.022 17.726 248.511 18.7481 249.767 20.0038C251.023 21.2887 252.016 22.7781 252.746 24.501C253.476 26.224 253.856 28.093 253.856 30.108C253.856 32.123 253.476 33.9919 252.746 35.7149C252.016 37.4379 251.023 38.9272 249.767 40.2121C248.511 41.497 247.022 42.4899 245.358 43.22C243.693 43.9501 241.882 44.3297 239.926 44.3297C237.998 44.3297 236.188 43.9501 234.494 43.22C232.83 42.4899 231.34 41.497 230.084 40.2121C228.829 38.9272 227.836 37.4379 227.106 35.7149C226.376 33.9919 225.996 32.123 225.996 30.108ZM245.854 30.108C245.854 28.0054 245.27 26.37 244.131 25.1435C242.992 23.917 241.59 23.3037 239.926 23.3037C238.261 23.3037 236.86 23.917 235.721 25.1435C234.582 26.37 233.998 28.0346 233.998 30.108C233.998 32.2106 234.582 33.8459 235.721 35.0724C236.86 36.299 238.261 36.9122 239.926 36.9122C241.59 36.9122 242.992 36.299 244.131 35.0724C245.27 33.8459 245.854 32.2106 245.854 30.108Z" fill="white"/>
<path d="M269.948 16.1783C270.299 16.1783 270.62 16.2075 270.912 16.2367C271.204 16.2659 271.467 16.3243 271.642 16.3535C271.876 16.3827 272.109 16.4411 272.284 16.4703V24.7639C272.051 24.6763 271.759 24.5887 271.467 24.4719C271.204 24.3843 270.883 24.3259 270.532 24.2674C270.182 24.209 269.773 24.1798 269.335 24.1798C267.846 24.1798 266.619 24.6763 265.685 25.6692C264.75 26.6621 264.283 28.0346 264.283 29.816V43.7457H256.281V16.4703H262.239L263.436 19.4198C263.903 18.8357 264.487 18.2809 265.159 17.8136C265.714 17.3756 266.385 16.996 267.203 16.6455C268.021 16.3535 268.926 16.1783 269.948 16.1783Z" fill="white"/>
<path d="M285.165 16.1783C286.363 16.1783 287.414 16.3243 288.378 16.6455C289.312 16.9668 290.13 17.288 290.801 17.6384C291.561 18.0765 292.232 18.5729 292.875 19.1278L294.072 16.4703H300V41.3511C300 43.1324 299.679 44.7678 299.037 46.2863C298.394 47.8049 297.46 49.119 296.292 50.2287C295.094 51.3384 293.663 52.2145 291.999 52.8278C290.334 53.4702 288.465 53.7622 286.392 53.7622C283.851 53.7622 281.778 53.295 280.142 52.3313C278.507 51.3968 277.222 50.3455 276.258 49.1774C275.12 47.8341 274.243 46.2863 273.659 44.5634L281.661 43.9793C281.895 44.505 282.245 44.943 282.654 45.3518C283.004 45.6731 283.501 45.9651 284.114 46.2279C284.727 46.4908 285.487 46.6368 286.392 46.6368C288.056 46.6368 289.4 46.1111 290.451 45.089C291.502 44.0669 292.028 42.8112 292.028 41.2927V39.8033C291.59 40.2414 291.035 40.621 290.363 41.0006C289.809 41.3219 289.108 41.5847 288.261 41.8183C287.414 42.0519 286.392 42.1687 285.224 42.1687C283.53 42.1687 281.924 41.8475 280.405 41.1758C278.887 40.5042 277.573 39.5989 276.434 38.4308C275.295 37.2627 274.419 35.8902 273.776 34.3132C273.134 32.7363 272.812 31.0133 272.812 29.1735C272.812 27.3045 273.134 25.6108 273.776 24.0338C274.419 22.4569 275.324 21.0843 276.434 19.9162C277.573 18.7481 278.887 17.8428 280.405 17.1712C281.865 16.5287 283.472 16.1783 285.165 16.1783ZM280.726 29.2027C280.726 30.8673 281.252 32.2106 282.303 33.2619C283.355 34.3132 284.698 34.8389 286.363 34.8389C288.027 34.8389 289.37 34.3132 290.422 33.2619C291.473 32.2106 291.999 30.8673 291.999 29.2027C291.999 27.5382 291.473 26.1948 290.422 25.1435C289.37 24.0922 288.027 23.5666 286.363 23.5666C284.698 23.5666 283.355 24.0922 282.303 25.1435C281.252 26.1948 280.726 27.5674 280.726 29.2027Z" fill="white"/>
</g>
<defs>
<clipPath id="clip0">
<rect width="300" height="53.7915" fill="white"/>
</clipPath>
</defs>
</svg>
