<svg width="300" height="54" viewBox="0 0 300 54" fill="none" xmlns="http://www.w3.org/2000/svg">
<g clip-path="url(#clip0)">
<path d="M46.0528 15.0333V7.70713L32.6195 0L28.0931 2.46159V23.3265L30.5753 24.8211V8.93793L39.9494 14.2714L41.4095 13.4509V12.308L30.5461 6.03677V3.95613L32.5319 2.72534L43.7165 9.11376V15.0626L38.4892 17.9345C38.1388 17.7586 37.7592 17.6414 37.3211 17.6414C35.9486 17.6414 34.8389 18.755 34.8389 20.1323C34.8389 21.5096 35.9486 22.6232 37.3211 22.6232C38.6937 22.6232 39.8034 21.5096 39.8034 20.1323C39.8034 20.103 39.8034 20.0737 39.8034 20.0444L44.9723 17.0846L50.1119 19.8393V21.2459V32.7919L45.0891 35.6345L24.2675 23.8247V8.90863V2.46159L19.9455 0L6.3078 7.73644V14.8575L0 18.4913V34.3158L6.24939 37.7444V44.8948L20.0039 52.6312L24.2675 50.1696V29.334L21.8729 27.9567V30.008V43.7226L12.2652 38.3012L11.0386 39.0338L11.0678 40.3526L21.8145 46.4772L21.7561 48.8802L20.0039 49.9352L8.55641 43.3123V38.0082L14.1633 34.7847C14.5138 34.9605 14.8934 35.0777 15.3022 35.0777C16.6748 35.0777 17.7845 33.9641 17.7845 32.5868C17.7845 31.2095 16.6748 30.0959 15.3022 30.0959C13.9297 30.0959 12.82 31.2095 12.82 32.5868V32.6161L7.4175 35.6931L2.33622 32.8799V19.9858L7.47591 16.8795L28.2683 28.953V49.9645L32.6195 52.6898L46.0528 44.9534V37.803L52.5066 34.2865V18.5499L46.0528 15.0333ZM21.8729 22.6232L9.89974 15.5901L21.9021 8.7328V22.6232H21.8729ZM21.8729 6.00746L8.64402 13.5681V13.4215V9.26028L19.9163 2.72534L21.9021 3.83891V6.00746H21.8729ZM30.5461 30.0959L42.6652 37.0411L30.5461 43.8105V30.0959ZM43.8333 43.4296L32.6195 49.8473L30.5753 48.5579V46.7117L43.8625 39.0632V43.4296H43.8333Z" fill="#01C38D"/>
<path d="M65.3545 16.8501C65.3545 15.4142 65.6466 14.0662 66.2598 12.7768C66.8731 11.4874 67.7492 10.3738 68.8881 9.37745C70.027 8.41039 71.4287 7.61917 73.0641 7.03307C74.6994 6.44698 76.5684 6.15393 78.671 6.15393C80.686 6.15393 82.4966 6.44698 84.1027 7.03307C85.7089 7.61917 87.0522 8.469 88.1911 9.52397C89.33 10.5789 90.1769 11.839 90.7901 13.3043C91.4034 14.7402 91.6954 16.3227 91.6954 18.0223L83.4018 18.6084C83.4018 17.1139 82.993 15.9417 82.1461 15.0919C81.2992 14.242 80.1603 13.8318 78.6418 13.8318C77.2985 13.8318 76.218 14.2127 75.4003 14.9453C74.5826 15.678 74.1738 16.4985 74.1738 17.4069C74.1738 18.3154 74.641 19.0187 75.5463 19.4876C76.4516 19.9564 77.5905 20.396 78.963 20.8356C80.3356 21.2458 81.7957 21.6854 83.3726 22.1836C84.9496 22.6525 86.4097 23.3265 87.7823 24.2056C89.1548 25.0848 90.2937 26.2276 91.199 27.6636C92.1043 29.0995 92.5715 30.9457 92.5715 33.2022C92.5715 34.6967 92.2795 36.1326 91.6662 37.4513C91.053 38.7701 90.1477 39.9422 88.9796 40.9386C87.7823 41.935 86.3221 42.7262 84.5992 43.3123C82.847 43.8984 80.8904 44.1914 78.671 44.1914C76.5392 44.1914 74.6118 43.8984 72.918 43.3123C71.2243 42.7262 69.7933 41.8764 68.6252 40.7921C67.4571 39.7078 66.581 38.4184 65.9678 36.9239C65.3545 35.4293 65.0625 33.8176 65.0625 32.03L73.3561 31.4439C73.3561 34.8139 75.1375 36.4843 78.7002 36.4843C80.3648 36.4843 81.6205 36.1033 82.4674 35.3121C83.3142 34.5502 83.7523 33.6417 83.7523 32.6161C83.7523 31.6783 83.285 30.9457 82.3797 30.4182C81.4745 29.8907 80.3356 29.4219 78.963 28.9823C77.5905 28.5427 76.1304 28.1031 74.5534 27.605C72.9765 27.1361 71.5163 26.4621 70.1438 25.6122C68.7713 24.7624 67.6323 23.6488 66.7271 22.2422C65.8218 20.8649 65.3545 19.048 65.3545 16.8501Z" fill="#132D46"/>
<path d="M112.865 28.7186L108.134 43.8691H101.33L92.1602 16.5278H100.454L105.185 32.5868L110.207 16.5278H115.552L120.574 32.5868L125.305 16.5278H133.599L124.429 43.8691H117.625L112.865 28.7186Z" fill="#132D46"/>
<path d="M134.301 9.11374C134.301 7.91224 134.739 6.88658 135.644 6.00744C136.549 5.1283 137.571 4.65942 138.74 4.65942C139.908 4.65942 140.959 5.09899 141.835 6.00744C142.711 6.91588 143.178 7.94155 143.178 9.11374C143.178 10.2859 142.74 11.3409 141.835 12.22C140.959 13.0992 139.908 13.568 138.74 13.568C137.571 13.568 136.52 13.1285 135.644 12.22C134.739 11.3409 134.301 10.2859 134.301 9.11374ZM142.594 43.8691H134.593V16.5278H142.594V43.8691Z" fill="#132D46"/>
<path d="M153.374 34.9605C153.52 35.869 153.899 36.6016 154.512 37.1291C155.097 37.6565 155.914 37.9203 156.936 37.9203C157.958 37.9203 158.776 37.6858 159.331 37.1877C159.915 36.6895 160.178 36.162 160.178 35.5466C160.178 35.0777 159.827 34.6968 159.156 34.3744C158.455 34.0814 157.608 33.7883 156.586 33.4953C155.564 33.2022 154.454 32.8506 153.228 32.4696C152.03 32.0593 150.921 31.5612 149.869 30.8872C148.847 30.2425 147.971 29.3633 147.299 28.3083C146.599 27.2241 146.277 25.9054 146.277 24.2643C146.277 23.1507 146.511 22.0958 146.978 21.0701C147.445 20.0737 148.146 19.1653 149.022 18.4327C149.898 17.6707 151.008 17.0847 152.293 16.6158C153.578 16.1469 155.038 15.9418 156.644 15.9418C160.207 15.9418 162.894 16.733 164.763 18.3155C166.632 19.8979 167.771 21.8906 168.209 24.2643L160.499 24.8504C160.353 24.2643 159.973 23.7075 159.419 23.2093C158.864 22.7112 158.134 22.4767 157.228 22.4767C156.323 22.4767 155.651 22.6818 155.213 23.0628C154.775 23.4731 154.571 23.942 154.571 24.5574C154.571 25.0848 154.921 25.4658 155.593 25.7588C156.294 26.0226 157.141 26.3156 158.163 26.6087C159.185 26.9017 160.295 27.2534 161.521 27.6343C162.718 28.0446 163.828 28.5428 164.879 29.2168C165.902 29.8615 166.778 30.7406 167.449 31.7956C168.15 32.8799 168.471 34.1986 168.471 35.8397C168.471 36.9532 168.238 38.0082 167.741 39.0632C167.245 40.0888 166.515 41.0266 165.58 41.8178C164.646 42.6383 163.478 43.283 162.105 43.7519C160.733 44.2208 159.214 44.4552 157.52 44.4552C153.812 44.4552 151.008 43.6347 149.139 42.0229C147.27 40.4112 146.102 38.2426 145.664 35.5466L153.374 34.9605Z" fill="#132D46"/>
<path d="M177.493 34.9605C177.639 35.869 178.018 36.6016 178.632 37.1291C179.216 37.6565 180.033 37.9203 181.056 37.9203C182.078 37.9203 182.895 37.6858 183.45 37.1877C184.034 36.6895 184.297 36.162 184.297 35.5466C184.297 35.0777 183.947 34.6968 183.275 34.3744C182.574 34.0814 181.727 33.7883 180.705 33.4953C179.683 33.2022 178.573 32.8506 177.347 32.4696C176.149 32.0593 175.04 31.5612 173.988 30.8872C172.966 30.2425 172.09 29.3633 171.419 28.3083C170.718 27.2241 170.397 25.9054 170.397 24.2643C170.397 23.1507 170.63 22.0958 171.097 21.0701C171.565 20.0444 172.266 19.1653 173.142 18.4327C174.018 17.6707 175.127 17.0847 176.412 16.6158C177.697 16.1469 179.157 15.9418 180.764 15.9418C184.326 15.9418 187.013 16.733 188.882 18.3155C190.751 19.8979 191.89 21.8906 192.328 24.2643L184.618 24.8504C184.472 24.2643 184.093 23.7075 183.538 23.2093C182.983 22.7112 182.253 22.4767 181.348 22.4767C180.442 22.4767 179.771 22.6818 179.333 23.0628C178.895 23.4731 178.69 23.942 178.69 24.5574C178.69 25.0848 179.041 25.4658 179.712 25.7588C180.413 26.0226 181.26 26.3156 182.282 26.6087C183.304 26.9017 184.414 27.2534 185.64 27.6343C186.838 28.0446 187.947 28.5428 188.999 29.2168C190.021 29.8615 190.897 30.7406 191.569 31.7956C192.269 32.8799 192.62 34.1986 192.62 35.8397C192.62 36.9532 192.386 38.0082 191.89 39.0632C191.393 40.0888 190.663 41.0266 189.729 41.8178C188.794 42.6383 187.626 43.283 186.254 43.7519C184.881 44.2208 183.363 44.4552 181.669 44.4552C177.96 44.4552 175.157 43.6347 173.288 42.0229C171.419 40.4112 170.251 38.2426 169.812 35.5466L177.493 34.9605Z" fill="#132D46"/>
<path d="M218.787 23.9712C219.897 24.4987 220.889 25.1727 221.736 25.9932C222.496 26.6966 223.167 27.605 223.781 28.7186C224.394 29.8322 224.686 31.2095 224.686 32.8799C224.686 34.3744 224.394 35.8103 223.81 37.129C223.226 38.4477 222.379 39.6199 221.298 40.6163C220.218 41.6127 218.933 42.4039 217.444 42.99C215.954 43.5761 214.348 43.8691 212.567 43.8691H195.688V6.44702H211.691C213.384 6.44702 214.961 6.71076 216.363 7.26755C217.794 7.82434 218.991 8.58626 220.013 9.52401C221.036 10.4618 221.824 11.5753 222.379 12.8354C222.963 14.0955 223.226 15.4143 223.226 16.8502C223.226 18.1103 222.992 19.1946 222.525 20.1323C222.058 21.0408 221.532 21.7734 220.977 22.3302C220.305 22.9749 219.575 23.5317 218.787 23.9712ZM204.273 21.3045H210.785C211.983 21.3045 212.946 20.9235 213.735 20.1323C214.523 19.3704 214.932 18.4619 214.932 17.4363C214.932 16.4106 214.523 15.5022 213.735 14.7402C212.946 13.9783 211.953 13.5681 210.785 13.5681H204.273V21.3045ZM211.661 36.7481C213.005 36.7481 214.114 36.3085 215.049 35.4001C215.954 34.5209 216.421 33.4659 216.421 32.2938C216.421 31.0923 215.954 30.0666 215.049 29.1875C214.144 28.3083 213.005 27.8394 211.661 27.8394H204.244V36.7481H211.661Z" fill="#132D46"/>
<path d="M225.996 30.2132C225.996 28.1911 226.347 26.3156 227.106 24.5867C227.836 22.8577 228.829 21.3631 230.084 20.0737C231.34 18.7843 232.83 17.788 234.494 17.0554C236.159 16.3227 237.969 15.9418 239.926 15.9418C241.853 15.9418 243.664 16.3227 245.358 17.0554C247.022 17.788 248.511 18.8136 249.767 20.0737C251.023 21.3631 252.016 22.8577 252.746 24.5867C253.476 26.3156 253.855 28.1911 253.855 30.2132C253.855 32.2352 253.476 34.1107 252.746 35.8397C252.016 37.5686 251.023 39.0632 249.767 40.3526C248.511 41.642 247.022 42.6384 245.358 43.371C243.693 44.1036 241.882 44.4845 239.926 44.4845C237.998 44.4845 236.188 44.1036 234.494 43.371C232.83 42.6384 231.34 41.642 230.084 40.3526C228.829 39.0632 227.836 37.5686 227.106 35.8397C226.376 34.1107 225.996 32.2352 225.996 30.2132ZM245.854 30.2132C245.854 28.1032 245.27 26.4622 244.131 25.2314C242.992 24.0006 241.59 23.3852 239.926 23.3852C238.261 23.3852 236.86 24.0006 235.721 25.2314C234.582 26.4622 233.998 28.1325 233.998 30.2132C233.998 32.3231 234.582 33.9642 235.721 35.195C236.86 36.4258 238.261 37.0412 239.926 37.0412C241.59 37.0412 242.992 36.4258 244.131 35.195C245.27 33.9642 245.854 32.3231 245.854 30.2132Z" fill="#132D46"/>
<path d="M269.948 16.2347C270.299 16.2347 270.62 16.264 270.912 16.2933C271.204 16.3227 271.467 16.3813 271.642 16.4106C271.876 16.4399 272.109 16.4985 272.284 16.5278V24.8503C272.051 24.7624 271.759 24.6745 271.467 24.5573C271.204 24.4694 270.883 24.4107 270.532 24.3521C270.182 24.2935 269.773 24.2642 269.335 24.2642C267.846 24.2642 266.619 24.7624 265.685 25.7588C264.75 26.7551 264.283 28.1324 264.283 29.92V43.8984H256.281V16.5278H262.239L263.436 19.4876C263.903 18.9015 264.487 18.3447 265.159 17.8758C265.714 17.4362 266.385 17.0553 267.203 16.7036C268.021 16.4106 268.926 16.2347 269.948 16.2347Z" fill="#132D46"/>
<path d="M285.165 16.2347C286.363 16.2347 287.414 16.3813 288.378 16.7036C289.312 17.026 290.13 17.3483 290.801 17.7C291.561 18.1395 292.232 18.6377 292.875 19.1945L294.072 16.5278H300V41.4954C300 43.283 299.679 44.924 299.037 46.4479C298.394 47.9717 297.46 49.2904 296.292 50.404C295.094 51.5176 293.663 52.3967 291.999 53.0121C290.334 53.6568 288.465 53.9499 286.392 53.9499C283.851 53.9499 281.778 53.481 280.142 52.514C278.507 51.5762 277.222 50.5212 276.258 49.349C275.12 48.001 274.243 46.4479 273.659 44.7189L281.661 44.1328C281.895 44.6603 282.245 45.0999 282.654 45.5101C283.004 45.8325 283.501 46.1255 284.114 46.3893C284.727 46.653 285.487 46.7995 286.392 46.7995C288.056 46.7995 289.4 46.272 290.451 45.2464C291.502 44.2207 292.028 42.9606 292.028 41.4368V39.9422C291.59 40.3818 291.035 40.7628 290.363 41.1437C289.809 41.4661 289.108 41.7298 288.261 41.9643C287.414 42.1987 286.392 42.3159 285.224 42.3159C283.53 42.3159 281.924 41.9936 280.405 41.3196C278.887 40.6455 277.573 39.7371 276.434 38.5649C275.295 37.3927 274.419 36.0154 273.776 34.433C273.134 32.8505 272.812 31.1215 272.812 29.2753C272.812 27.3998 273.134 25.7002 273.776 24.1177C274.419 22.5353 275.324 21.1579 276.434 19.9857C277.573 18.8136 278.887 17.9051 280.405 17.2311C281.865 16.5864 283.472 16.2347 285.165 16.2347ZM280.726 29.3046C280.726 30.975 281.252 32.323 282.303 33.378C283.355 34.433 284.698 34.9604 286.363 34.9604C288.027 34.9604 289.371 34.433 290.422 33.378C291.473 32.323 291.999 30.975 291.999 29.3046C291.999 27.6343 291.473 26.2863 290.422 25.2313C289.371 24.1763 288.027 23.6488 286.363 23.6488C284.698 23.6488 283.355 24.1763 282.303 25.2313C281.252 26.2863 280.726 27.6636 280.726 29.3046Z" fill="#132D46"/>
</g>
<defs>
<clipPath id="clip0">
<rect width="300" height="53.9792" fill="white"/>
</clipPath>
</defs>
</svg>
