<svg width="265" height="159" viewBox="0 0 265 159" fill="none" xmlns="http://www.w3.org/2000/svg">
<rect x="0.00195312" width="264" height="159" fill="url(#paint0_linear)"/>
<mask id="mask0" mask-type="alpha" maskUnits="userSpaceOnUse" x="0" y="0" width="265" height="159">
<rect x="0.00195312" width="264" height="159" fill="url(#paint1_linear)"/>
</mask>
<g mask="url(#mask0)">
<path d="M435.002 -20.5C435.278 -20.5 435.502 -20.2761 435.502 -20V686C435.502 686.276 435.278 686.5 435.002 686.5H-1005C-1005.13 686.5 -1005.26 686.447 -1005.35 686.353C-1005.45 686.26 -1005.5 686.133 -1005.5 686L-1005.5 421C-1005.5 420.845 -1005.43 420.698 -1005.3 420.604C-1005.18 420.509 -1005.02 420.477 -1004.87 420.516C-1000.01 421.795 -996.013 421.663 -992.507 420.757C-988.992 419.848 -985.945 418.157 -982.986 416.278C-982.16 415.754 -981.341 415.214 -980.519 414.672C-975.491 411.359 -970.395 408 -963.498 408C-957.167 408 -952.574 409.443 -948.995 411.71C-945.424 413.971 -942.899 417.028 -940.67 420.189C-939.969 421.183 -939.298 422.184 -938.635 423.174C-935.043 428.532 -931.662 433.576 -924.86 435.519C-919.462 437.062 -915.684 440.596 -912.701 444.968C-910.062 448.835 -908.021 453.396 -906.026 457.853C-905.773 458.419 -905.521 458.984 -905.268 459.544C-903.01 464.551 -900.723 469.295 -897.597 472.792C-894.494 476.263 -890.57 478.5 -884.998 478.5C-873.438 478.5 -868.34 486.457 -863.677 494.416C-863.481 494.751 -863.285 495.087 -863.089 495.422C-858.603 503.108 -854.304 510.472 -844.943 511.503C-836.852 512.394 -831.161 508.752 -825.317 504.772C-825.098 504.623 -824.879 504.473 -824.66 504.323C-819.044 500.49 -813.197 496.5 -804.998 496.5C-802.324 496.5 -800.559 495.239 -799.224 493.281C-797.866 491.289 -796.979 488.613 -796.099 485.848L-795.972 485.447C-795.146 482.847 -794.305 480.197 -793.048 478.174C-791.706 476.014 -789.848 474.5 -786.998 474.5C-781.597 474.5 -778.101 476.562 -774.939 478.702C-774.614 478.922 -774.293 479.143 -773.974 479.362C-771.187 481.275 -768.587 483.06 -764.938 483.504C-759.992 484.104 -756.778 482.57 -754.236 479.935C-752.062 477.681 -750.386 474.634 -748.574 471.34C-748.229 470.713 -747.879 470.077 -747.52 469.437C-745.294 465.462 -742.733 461.342 -738.81 458.223C-734.872 455.093 -729.6 453 -721.998 453C-714.613 453 -709.54 450.789 -705.633 447.493C-701.704 444.178 -698.93 439.748 -696.175 435.239L-695.876 434.75C-693.236 430.426 -690.571 426.062 -686.895 422.753C-683.054 419.297 -678.123 417 -670.998 417C-663.928 417 -658.35 418.358 -653.382 420.866C-648.423 423.37 -644.098 427.006 -639.522 431.519C-637.11 433.898 -634.626 436.522 -631.939 439.361C-624.416 447.308 -615.299 456.94 -601.69 467.606C-592.507 474.804 -584.489 477.437 -577.313 477.398C-570.129 477.36 -563.721 474.644 -557.758 471.01C-554.777 469.194 -551.917 467.154 -549.13 465.111C-548.522 464.666 -547.918 464.221 -547.317 463.777C-545.164 462.19 -543.05 460.632 -540.966 459.219C-535.647 455.613 -530.41 452.874 -524.994 453C-494.811 452.874 -476.704 446.4 -465.369 436.695C-454.032 426.988 -449.385 413.981 -446.273 400.585C-445.495 397.237 -444.815 393.87 -444.148 390.525L-443.929 389.425C-443.338 386.454 -442.752 383.505 -442.113 380.617C-440.678 374.129 -438.972 367.916 -436.336 362.383C-433.697 356.844 -430.121 351.979 -424.943 348.194C-419.767 344.409 -413.018 341.725 -404.066 340.505C-387.678 338.27 -376.831 331.761 -368.984 323.27C-361.121 314.762 -356.25 304.241 -351.858 293.929C-351.368 292.778 -350.883 291.629 -350.401 290.485C-346.579 281.418 -342.902 272.695 -337.621 266.018C-331.64 258.454 -323.596 253.5 -310.998 253.5C-286.194 253.5 -267.666 257.196 -252.66 260.937C-249.308 261.772 -246.138 262.608 -243.116 263.404C-232.582 266.181 -223.861 268.48 -215.577 268.625C-204.987 268.81 -195.112 265.464 -183.178 254.891C-171.22 244.298 -157.221 226.471 -138.416 197.726C-129.616 184.274 -119.667 176.521 -109.296 171.887C-98.936 167.259 -88.1799 165.753 -77.7954 164.752C-75.9527 164.575 -74.1228 164.413 -72.3094 164.252C-53.6125 162.597 -36.6624 161.097 -25.4134 144.223C-12.8911 125.439 -2.08585 114.989 8.64108 109.247C19.3756 103.501 29.9756 102.5 42.002 102.5C54.1727 102.5 62.2084 107.964 69.8593 113.341C70.0307 113.461 70.2019 113.582 70.373 113.702C77.8508 118.961 85.0155 124 95.502 124C111.405 124 119.855 115.292 128.068 106.828C128.633 106.246 129.197 105.665 129.762 105.088C134.138 100.619 138.605 96.3826 144.233 93.8791C149.884 91.3657 156.661 90.6164 165.631 93.017C174.398 95.363 180.164 94.0476 184.323 90.8609C188.521 87.644 191.167 82.4611 193.542 76.8671C194.048 75.6744 194.542 74.4621 195.037 73.2486C196.843 68.819 198.656 64.3729 201.089 60.8043C204.217 56.215 208.419 53 215.002 53C223.587 53 230.287 48.8921 236.119 42.9353C240.913 38.0398 245.08 31.9388 249.206 25.8981C250.114 24.5691 251.02 23.2431 251.93 21.9334C256.952 14.7065 262.11 7.96845 268.405 4.23777C271.566 2.3651 275.017 1.24626 278.881 1.20066C282.741 1.1551 286.983 2.18142 291.726 4.55274C297.322 7.35098 302.88 5.23635 308.693 0.203991C314.505 -4.82775 320.41 -12.6455 326.609 -20.8942L326.87 -21.2413C332.973 -29.3618 339.352 -37.8498 346.149 -44.3344C353.038 -50.9066 360.437 -55.5 368.502 -55.5C376.479 -55.5 381.989 -53.278 386.428 -49.9304C390.153 -47.1208 393.119 -43.5171 396.141 -39.8457C396.696 -39.1715 397.252 -38.495 397.816 -37.8207C401.465 -33.4563 405.435 -29.139 411.144 -25.9038C416.848 -22.6718 424.324 -20.5 435.002 -20.5Z" fill="url(#paint2_linear)" stroke="#2D95FF" stroke-linecap="round" stroke-linejoin="round"/>
</g>
<defs>
<linearGradient id="paint0_linear" x1="132.002" y1="0" x2="132.002" y2="159" gradientUnits="userSpaceOnUse">
<stop stop-color="#FBFDFD"/>
<stop offset="1" stop-color="#EFF8F7"/>
</linearGradient>
<linearGradient id="paint1_linear" x1="132.002" y1="97" x2="132.002" y2="165.5" gradientUnits="userSpaceOnUse">
<stop stop-color="white"/>
<stop offset="0.712707" stop-color="#FBFDFD" stop-opacity="0"/>
</linearGradient>
<linearGradient id="paint2_linear" x1="-285.001" y1="-55" x2="-285.001" y2="1476.09" gradientUnits="userSpaceOnUse">
<stop stop-color="#0057AF" stop-opacity="0.08"/>
<stop offset="1" stop-color="#152C5D" stop-opacity="0"/>
</linearGradient>
</defs>
</svg>
