<svg width="307" height="608" viewBox="0 0 307 608" fill="none" xmlns="http://www.w3.org/2000/svg">
<rect x="4.00195" y="1" width="298" height="606" rx="45" stroke="#2D95FF" stroke-width="2"/>
<rect x="20.002" y="16.9443" width="266" height="48.8393" fill="#FDFDFD"/>
<path d="M21.002 46.9442C21.002 30.928 33.9857 17.9442 50.002 17.9442H74.0187C76.7709 17.9442 79.002 20.1753 79.002 22.9275V27.9135C79.002 33.9733 83.9143 38.8857 89.9741 38.8857H153.002H216.03C222.09 38.8857 227.002 33.9733 227.002 27.9135V22.9275C227.002 20.1753 229.233 17.9442 231.985 17.9442H256.002C272.018 17.9442 285.002 30.928 285.002 46.9442V561.056C285.002 577.072 272.018 590.056 256.002 590.056H50.0019C33.9857 590.056 21.002 577.072 21.002 561.056V46.9442Z" stroke="#2D95FF" stroke-width="2"/>
<path d="M4.00195 102.533C2.27673 102.089 1.00195 100.523 1.00195 98.6591L1.00195 83.741C1.00195 81.8772 2.27673 80.3111 4.00195 79.867L4.00195 102.533Z" stroke="#2D95FF" stroke-width="2"/>
<path d="M4.00195 166.323C2.27673 165.879 1.00195 164.313 1.00195 162.449L1.00195 126.6C1.00195 124.736 2.27673 123.17 4.00195 122.726L4.00195 166.323Z" stroke="#2D95FF" stroke-width="2"/>
<path d="M4.00195 222.14C2.27673 221.696 1.00195 220.129 1.00195 218.266L1.00195 182.416C1.00195 180.553 2.27673 178.987 4.00195 178.542L4.00195 222.14Z" stroke="#2D95FF" stroke-width="2"/>
<path d="M302.059 138.674C303.784 139.118 305.059 140.684 305.059 142.548L305.059 202.318C305.059 204.182 303.784 205.748 302.059 206.192L302.059 138.674Z" stroke="#2D95FF" stroke-width="2"/>
</svg>
