<?xml version="1.0" encoding="utf-8"?>
<!-- Generator: Adobe Illustrator 20.1.0, SVG Export Plug-In . SVG Version: 6.00 Build 0)  -->
<svg version="1.1" id="Layer_1" xmlns="http://www.w3.org/2000/svg" xmlns:xlink="http://www.w3.org/1999/xlink" x="0px" y="0px"
	 viewBox="0 0 32 32" style="enable-background:new 0 0 32 32;" xml:space="preserve">
<style type="text/css">
	.st0{fill:#FFFFFF;}
	.st1{fill:#FF4501;}
</style>
<g>
	<path class="st0" d="M8.5,0.9h15.1c4.2,0,7.5,3.4,7.5,7.5v15.1c0,4.2-3.4,7.5-7.5,7.5H8.5c-4.2,0-7.5-3.4-7.5-7.5V8.5
		C0.9,4.3,4.3,0.9,8.5,0.9z"/>
	<path class="st1" d="M19.2,20.8c0.1,0.1,0.1,0.3,0,0.4c-0.7,0.7-1.7,1-3.2,1l0,0l0,0c-1.5,0-2.5-0.3-3.2-1c-0.1-0.1-0.1-0.3,0-0.4
		c0.1-0.1,0.3-0.1,0.4,0c0.5,0.5,1.4,0.8,2.7,0.8l0,0l0,0c1.3,0,2.2-0.3,2.7-0.8C18.9,20.6,19.1,20.6,19.2,20.8z M14.3,17.3
		c0-0.7-0.6-1.3-1.3-1.3c-0.7,0-1.3,0.6-1.3,1.3c0,0.7,0.6,1.3,1.3,1.3C13.7,18.6,14.3,18,14.3,17.3z M32,16c0,14.9-1.1,16-16,16
		C1.1,32,0,30.9,0,16C0,1.1,1.1,0,16,0C30.9,0,32,1.1,32,16z M26,15.8c0-1.2-1-2.2-2.2-2.2c-0.6,0-1.1,0.2-1.5,0.6
		c-1.5-1-3.5-1.6-5.8-1.7l1.2-3.9L21,9.4l0,0c0,1,0.8,1.8,1.8,1.8c1,0,1.8-0.8,1.8-1.8c0-1-0.8-1.8-1.8-1.8c-0.8,0-1.4,0.5-1.7,1.1
		L17.5,8c-0.2,0-0.3,0.1-0.4,0.2l-1.4,4.3c-2.4,0-4.5,0.7-6.1,1.7c-0.4-0.4-0.9-0.6-1.5-0.6c-1.2,0-2.2,1-2.2,2.2
		c0,0.8,0.4,1.5,1.1,1.9c0,0.2-0.1,0.5-0.1,0.7c0,3.2,4,5.9,8.9,5.9s8.9-2.6,8.9-5.9c0-0.2,0-0.5-0.1-0.7C25.5,17.4,26,16.7,26,15.8
		z M19,16c-0.7,0-1.3,0.6-1.3,1.3c0,0.7,0.6,1.3,1.3,1.3c0.7,0,1.3-0.6,1.3-1.3C20.3,16.6,19.8,16,19,16z"/>
</g>
</svg>
