<svg width="32" height="32" viewBox="0 0 32 32" fill="none" xmlns="http://www.w3.org/2000/svg">
<mask id="mask0" mask-type="alpha" maskUnits="userSpaceOnUse" x="0" y="0" width="32" height="32">
<rect width="32" height="32" rx="8" fill="#EDEFF1"/>
</mask>
<g mask="url(#mask0)">
<path d="M16 36C27.0457 36 36 27.0457 36 16C36 4.9543 27.0457 -4 16 -4C4.9543 -4 -4 4.9543 -4 16C-4 27.0457 4.9543 36 16 36Z" fill="url(#paint0_linear)"/>
<path d="M13.0669 23.3334C12.5486 23.3334 12.6367 23.1377 12.4579 22.6441L10.9336 17.6275L22.6669 10.6667" fill="#C8DAEA"/>
<path d="M13.0664 23.3335C13.4664 23.3335 13.6431 23.1505 13.8664 22.9335L15.9997 20.8591L13.3387 19.2544" fill="#A9C9DD"/>
<path d="M13.3376 19.2547L19.7856 24.0185C20.5214 24.4245 21.0525 24.2143 21.2358 23.3354L23.8604 10.967C24.1292 9.88963 23.4498 9.40099 22.7459 9.72056L7.33386 15.6634C6.28185 16.0853 6.28798 16.6722 7.1421 16.9338L11.0972 18.1682L20.2536 12.3915C20.6858 12.1294 21.0825 12.2703 20.7569 12.5593" fill="url(#paint1_linear)"/>
</g>
<defs>
<linearGradient id="paint0_linear" x1="22.668" y1="2.668" x2="12.668" y2="26" gradientUnits="userSpaceOnUse">
<stop stop-color="#37AEE2"/>
<stop offset="1" stop-color="#1E96C8"/>
</linearGradient>
<linearGradient id="paint1_linear" x1="17.9996" y1="15.9998" x2="20.5035" y2="21.6976" gradientUnits="userSpaceOnUse">
<stop stop-color="#EFF7FC"/>
<stop offset="1" stop-color="white"/>
</linearGradient>
</defs>
</svg>
