<svg width="131" height="129" viewBox="0 0 131 129" fill="none" xmlns="http://www.w3.org/2000/svg">
<g clip-path="url(#clip0)">
<path d="M64.9004 104.4C43.1004 104.4 25.4004 86.7 25.4004 64.9C25.4004 43.1 43.1004 25.4 64.9004 25.4C86.7004 25.4 104.4 43.1 104.4 64.9C104.4 86.7 86.7004 104.4 64.9004 104.4ZM64.9004 27.4C44.2004 27.4 27.4004 44.2 27.4004 64.9C27.4004 85.6 44.2004 102.4 64.9004 102.4C85.6004 102.4 102.4 85.6 102.4 64.9C102.4 44.2 85.6004 27.4 64.9004 27.4Z" fill="#03DD99"/>
<path d="M65 31.7C75.9 37.8 83.4 50.4 83.4 65C83.4 79.5 75.9 92.1 65.1 98.3C83.4 98.3 98.3 83.4 98.3 65C98.2 46.6 83.3 31.7 65 31.7Z" fill="url(#paint0_linear)"/>
<path d="M64.8996 31.7C46.4996 31.7 31.5996 46.6 31.5996 65C31.5996 83.4 46.4996 98.3 64.8996 98.3V31.7Z" fill="url(#paint1_linear)"/>
<path d="M122.099 73.2C121.799 73.2 121.599 73.1 121.399 72.9L113.499 65C113.099 64.6 113.099 64 113.499 63.6L121.399 55.7C121.799 55.3 122.399 55.3 122.799 55.7L130.699 63.6C131.099 64 131.099 64.6 130.699 65L122.799 72.9C122.599 73.1 122.399 73.2 122.099 73.2ZM115.599 64.3L122.099 70.8L128.599 64.3L122.099 57.8L115.599 64.3Z" fill="#03DD99"/>
<path d="M102.5 34.2C102.2 34.2 102 34.1 101.8 33.9L95.8 27.9C95.4 27.5 95.4 26.9 95.8 26.5L101.8 20.5C102.2 20.1 102.8 20.1 103.2 20.5L109.2 26.5C109.6 26.9 109.6 27.5 109.2 27.9L103.2 33.9C103 34.1 102.7 34.2 102.5 34.2ZM97.9 27.1L102.5 31.7L107.1 27.1L102.5 22.5L97.9 27.1Z" fill="#03DD99"/>
<path d="M102.5 109.7C102.2 109.7 102 109.6 101.8 109.4L95.8 103.4C95.4 103 95.4 102.4 95.8 102L101.8 96C102.2 95.6 102.8 95.6 103.2 96L109.2 102C109.6 102.4 109.6 103 109.2 103.4L103.2 109.4C103 109.6 102.7 109.7 102.5 109.7ZM97.9 102.7L102.5 107.3L107.1 102.7L102.5 98.1L97.9 102.7Z" fill="#03DD99"/>
<path d="M65.9004 0H63.9004V20.2H65.9004V0Z" fill="#03DD99"/>
<path d="M65.9004 108.7H63.9004V128.9H65.9004V108.7Z" fill="#03DD99"/>
<path d="M19.7 63.9H0V65.9H19.7V63.9Z" fill="#03DD99"/>
<path d="M32.717 96.0997L18.7871 110.03L20.2013 111.444L34.1312 97.5139L32.717 96.0997Z" fill="#03DD99"/>
<path d="M19.2697 18.0603L17.8555 19.4745L31.7853 33.4044L33.1995 31.9902L19.2697 18.0603Z" fill="#03DD99"/>
</g>
<defs>
<linearGradient id="paint0_linear" x1="51.7784" y1="44.8432" x2="91.9167" y2="84.9816" gradientUnits="userSpaceOnUse">
<stop stop-color="#02C38D"/>
<stop offset="0.1486" stop-color="#0AB797"/>
<stop offset="0.4184" stop-color="#2097B3"/>
<stop offset="0.7758" stop-color="#4263E0"/>
<stop offset="1" stop-color="#5A3FFF"/>
</linearGradient>
<linearGradient id="paint1_linear" x1="37.951" y1="44.8419" x2="78.1133" y2="85.0042" gradientUnits="userSpaceOnUse">
<stop stop-color="#02C38D"/>
<stop offset="0.5493" stop-color="#8BE4CB"/>
<stop offset="1" stop-color="white"/>
</linearGradient>
<clipPath id="clip0">
<rect width="131" height="128.9" fill="white"/>
</clipPath>
</defs>
</svg>
