<svg width="32" height="32" viewBox="0 0 32 32" fill="none" xmlns="http://www.w3.org/2000/svg">
<mask id="mask0" mask-type="alpha" maskUnits="userSpaceOnUse" x="0" y="0" width="32" height="32">
<rect width="32" height="32" rx="8" fill="#EDEFF1"/>
</mask>
<g mask="url(#mask0)">
<path d="M32 0H0V32H32V0Z" fill="#1DA1F2"/>
<path d="M12.2878 24.1281C19.8318 24.1281 23.9598 17.8721 23.9598 12.4561C23.9598 12.2801 23.9598 12.1041 23.9518 11.9281C24.7518 11.3521 25.4478 10.6241 25.9998 9.80007C25.2638 10.1281 24.4718 10.3441 23.6398 10.4481C24.4878 9.94407 25.1358 9.13607 25.4478 8.17607C24.6558 8.64807 23.7758 8.98407 22.8398 9.16807C22.0878 8.36807 21.0238 7.87207 19.8478 7.87207C17.5838 7.87207 15.7438 9.71207 15.7438 11.9761C15.7438 12.2961 15.7838 12.6081 15.8478 12.9121C12.4398 12.7441 9.41581 11.1041 7.39181 8.62407C7.03981 9.23207 6.83981 9.93607 6.83981 10.6881C6.83981 12.1121 7.56781 13.3681 8.66381 14.1041C7.99181 14.0801 7.35981 13.8961 6.80781 13.5921C6.80781 13.6081 6.80781 13.6241 6.80781 13.6481C6.80781 15.6321 8.22381 17.2961 10.0958 17.6721C9.75181 17.7681 9.39181 17.8161 9.01581 17.8161C8.75181 17.8161 8.49581 17.7921 8.24781 17.7441C8.76781 19.3761 10.2878 20.5601 12.0798 20.5921C10.6718 21.6961 8.90381 22.3521 6.98381 22.3521C6.65581 22.3521 6.32781 22.3361 6.00781 22.2961C7.81581 23.4481 9.97581 24.1281 12.2878 24.1281Z" fill="white"/>
</g>
</svg>
