<?xml version="1.0" encoding="utf-8"?>
<!-- Generator: Adobe Illustrator 21.0.2, SVG Export Plug-In . SVG Version: 6.00 Build 0)  -->
<svg version="1.1" id="Слой_1" xmlns="http://www.w3.org/2000/svg" xmlns:xlink="http://www.w3.org/1999/xlink" x="0px" y="0px"
	 viewBox="0 0 132 131" enable-background="new 0 0 132 131" xml:space="preserve">
<linearGradient id="SVGID_1_" gradientUnits="userSpaceOnUse" x1="29.9" y1="105.1999" x2="104.9" y2="30.2" gradientTransform="matrix(1 0 0 -1 0 132)">
	<stop  offset="0" style="stop-color:#02C38D"/>
	<stop  offset="0.1293" style="stop-color:#06AB7F;stop-opacity:0.8707"/>
	<stop  offset="0.5479" style="stop-color:#146355;stop-opacity:0.4521"/>
	<stop  offset="0.8488" style="stop-color:#1D363A;stop-opacity:0.1512"/>
	<stop  offset="1" style="stop-color:#202530;stop-opacity:0"/>
</linearGradient>
<path fill="url(#SVGID_1_)" d="M104.9,26.8c-20.7-20.7-54.3-20.7-75,0c-20.7,20.7-20.7,54.3,0,75c20.7,20.7,54.3,20.7,75,0
	C125.6,81,125.6,47.5,104.9,26.8z M84,80.9c-9.1,9.1-24,9.1-33.2,0c-9.2-9.2-9.2-24.1,0-33.2c9.2-9.2,24.1-9.2,33.2,0
	C93.2,56.8,93.2,71.7,84,80.9z"/>
<linearGradient id="SVGID_2_" gradientUnits="userSpaceOnUse" x1="53.555" y1="81.5453" x2="81.1982" y2="53.9021" gradientTransform="matrix(1 0 0 -1 0 132)">
	<stop  offset="0" style="stop-color:#02C38D"/>
	<stop  offset="2.534120e-02" style="stop-color:#05BE91"/>
	<stop  offset="0.354" style="stop-color:#2988C0"/>
	<stop  offset="0.6376" style="stop-color:#4460E2"/>
	<stop  offset="0.8622" style="stop-color:#5448F7"/>
	<stop  offset="1" style="stop-color:#5A3FFF"/>
</linearGradient>
<path fill="url(#SVGID_2_)" d="M67.4,83.8c10.8,0,19.5-8.7,19.5-19.5c0-10.8-8.7-19.5-19.5-19.5c-10.8,0-19.5,8.7-19.5,19.5
	C47.9,75.1,56.6,83.8,67.4,83.8z"/>
<path fill="#02C38D" d="M66.7,63.5L1.3,129l1.4,1.4l65.5-65.5L66.7,63.5z"/>
<path fill="#02C38D" d="M12.8,130.9h-2v-10H0.6v-2h12.2V130.9z"/>
<path fill="#02C38D" d="M19.6,130.9h-2v-16.6h-17v-2h19V130.9z"/>
<path fill="#02C38D" d="M14.2,100.2C-3,74.8,0.3,40.6,22,18.9l1.4,1.4c-21,21-24.2,54.2-7.5,78.8L14.2,100.2z"/>
<path fill="#02C38D" d="M111.3,20.3C93.6,2.6,67.2-2.8,44,6.7l-0.8-1.9c23.9-9.7,51.2-4.2,69.5,14.1L111.3,20.3z"/>
<path fill="#02C38D" d="M67.2,128.3c-12,0-24-3.3-34.6-10.1c-0.3-0.2-0.7-0.5-1-0.7l-0.5-0.3l1.1-1.7l0.5,0.3c0.3,0.2,0.6,0.4,1,0.6
	c24.4,15.7,57,12.2,77.6-8.3c17.7-17.6,23.1-44,13.7-67.2l1.9-0.8c9.7,23.9,4.2,51.2-14.1,69.5C100.4,121.9,83.9,128.3,67.2,128.3z"
	/>
<path fill="#02C38D" d="M28.8,85.5c-9.4-17-6.3-38.6,7.4-52.3C53.4,16,81.3,16,98.4,33.2c11.3,11.3,15.6,27.9,11.2,43.3l-1.9-0.6
	c4.2-14.7,0.1-30.5-10.7-41.4c-16.4-16.4-43-16.4-59.4,0c-13.1,13.1-16.1,33.7-7.1,49.9L28.8,85.5z"/>
<path fill="#02C38D" d="M67.3,108.2c-7.3,0-14.7-1.8-21.4-5.6l1-1.7c16.3,9.1,37,6.3,50.2-7l1.4,1.4
	C90.1,103.8,78.7,108.2,67.3,108.2z"/>
<path fill="#02C38D" d="M67.4,89.8c-14.1,0-25.6-11.5-25.6-25.6s11.5-25.6,25.6-25.6C81.5,38.7,93,50.2,93,64.3
	C93,78.3,81.5,89.8,67.4,89.8z M67.4,40.7c-13,0-23.6,10.6-23.6,23.6s10.6,23.6,23.6,23.6S91,77.2,91,64.3S80.4,40.7,67.4,40.7z"/>
</svg>
