<?xml version="1.0" encoding="utf-8"?>
<!-- Generator: Adobe Illustrator 21.0.2, SVG Export Plug-In . SVG Version: 6.00 Build 0)  -->
<svg version="1.1" id="Слой_1" xmlns="http://www.w3.org/2000/svg" xmlns:xlink="http://www.w3.org/1999/xlink" x="0px" y="0px"
	 viewBox="0 0 140 140" enable-background="new 0 0 140 140" xml:space="preserve">
<path fill="#02C38D" d="M15.7,77C7.5,68.9,3,58,3,46.4C3,22.6,22.4,3.2,46.3,3.2s43.3,19.4,43.3,43.3h-2C87.5,23.7,69,5.2,46.3,5.2
	S5,23.7,5,46.4c0,11,4.3,21.4,12.1,29.2L15.7,77z"/>
<linearGradient id="SVGID_1_" gradientUnits="userSpaceOnUse" x1="22.6127" y1="119.288" x2="69.9889" y2="71.9119" gradientTransform="matrix(1 0 0 -1 0 142)">
	<stop  offset="0" style="stop-color:#02C38D"/>
	<stop  offset="0.1386" style="stop-color:#05A97F;stop-opacity:0.8614"/>
	<stop  offset="0.5527" style="stop-color:#0F6156;stop-opacity:0.4473"/>
	<stop  offset="0.8504" style="stop-color:#15343D;stop-opacity:0.1496"/>
	<stop  offset="1" style="stop-color:#172333;stop-opacity:0"/>
</linearGradient>
<path fill="url(#SVGID_1_)" d="M46.3,79.9c18.5,0,33.5-15,33.5-33.5c0-18.5-15-33.5-33.5-33.5c-18.5,0-33.5,15-33.5,33.5
	C12.8,64.9,27.8,79.9,46.3,79.9z"/>
<linearGradient id="SVGID_2_" gradientUnits="userSpaceOnUse" x1="67.3938" y1="72.9051" x2="114.2045" y2="26.0948" gradientTransform="matrix(1 0 0 -1 0 142)">
	<stop  offset="0" style="stop-color:#02C38D"/>
	<stop  offset="0.5234" style="stop-color:#317CCA"/>
	<stop  offset="1" style="stop-color:#5A3FFF"/>
</linearGradient>
<path fill="url(#SVGID_2_)" d="M90.8,125.6c18.3,0,33.1-14.8,33.1-33.1c0-18.3-14.8-33.1-33.1-33.1c-18.3,0-33.1,14.8-33.1,33.1
	C57.7,110.8,72.5,125.6,90.8,125.6z"/>
<path fill="#02C38D" d="M90.8,136c-22.6,0-41.8-17.6-43.4-40.5c-0.1-2-0.1-4.1,0-6.1l2,0.1c-0.1,1.9-0.1,3.9,0,5.8
	c1.6,22.8,21.4,40.1,44.3,38.5c22.8-1.6,40.1-21.4,38.5-44.3c-0.6-8.8-3.9-17-9.5-23.7L91.5,93.4L76.9,78.8l1.4-1.4l13.3,13.3
	L122.9,63l0.7,0.8c6.3,7.2,10,16.1,10.7,25.7c1.7,23.9-16.5,44.7-40.4,46.4C92.8,135.9,91.8,136,90.8,136z"/>
<path fill="#02C38D" d="M31.5,30.3l-1.4,1.4l30.8,30.8l1.4-1.4L31.5,30.3z"/>
<path fill="#02C38D" d="M16.4,77.7L15.7,77C7.5,68.9,3,58,3,46.4C3,22.6,22.4,3.2,46.3,3.2s43.3,19.4,43.3,43.3c0,1.5-0.1,3-0.2,4.4
	l-2-0.2c0.1-1.4,0.2-2.8,0.2-4.2C87.5,23.7,69,5.2,46.3,5.2S5,23.7,5,46.4c0,10.7,4,20.8,11.4,28.5L61,30.3l1.4,1.4L16.4,77.7z"/>
</svg>
