<?xml version="1.0" encoding="utf-8"?>
<!-- Generator: Adobe Illustrator 21.0.2, SVG Export Plug-In . SVG Version: 6.00 Build 0)  -->
<svg version="1.1" id="Слой_1" xmlns="http://www.w3.org/2000/svg" xmlns:xlink="http://www.w3.org/1999/xlink" x="0px" y="0px"
	 viewBox="0 0 1440 862" style="enable-background:new 0 0 1440 862;" xml:space="preserve">
<style type="text/css">
	.st0{fill:#191E29;}
	.st1{fill:url(#SVGID_1_);fill-opacity:5.000000e-02;}
</style>
<path class="st0" d="M1440,113.9v497.5c-12.9,0.8-30.9,7.8-46,13.9c-13.5,5.5-35.5-16-83-21c-28-2.9-44.5,16.2-78.5,7
	s-27.5,14-60.5,14c-28.5,0-33.6-21.2-48.6-40.2c-15-19.1-19.5-28.5-58-45.7c-38.5-17.3-69.9,25.5-113.4,42c-21.1,8-36.5,3.8-63-6
	c-27.2-10-70.2-28.6-110.5-45c-53-21.5-56.4,28.8-82.5,43.5c-27.5,15.5-46,20.5-74,20.5c-31,0-59.5,3.6-72.5,12s-24.5,9.5-63,9.5
	s-47-12.5-79.5-12.5s-38,13.2-61,12.5s-19-17.1-41.5-21.5s-25.5,2-56-13s-36.5-0.1-64,8c-12.8,3.8-32.5,15.8-57,14
	c-21.6-1.6-37.5,22.1-55.5,26c-37.4,8.2-50.9,26.4-72,29.5V409.1c7.6,3.6,15.6,6.8,24.9,9.3c51,13.9,112.7,8.9,148.4-39.8v-0.1v-0.1
	c77.6-105.9,146.1,2.2,220.5-21.7c18-5.8,29.7,3.8,42,13.8c11.1,9.1,33.6,27.9,50.7,26.8c30.3-1.9,54.3-1.4,78.5-21.4
	c11.3-9.3,37.2-14.9,56-18.7c22.8-4.6,48.5-9.7,70.1-26.8c42.6-33.6,47.4-65,81.6-100c62.5-56,55.5-40,79-58.5
	c18.3-17.2,17.7-14.9,31-23c7.8-4.8,17.3-16.5,28.1-15.4c110,11,59.1-17.4,185.8-46.7c14.3-6.4,20-14.9,25.7-23.4
	c7.6-11.3,15.2-23.7,43.3-30.6c30.5-2.8,32-6.3,49-19.8c11.7-8.2,19.4-12.6,33.1-12.6c5.5,0,11.9,0.7,20,2.1
	c30.7,5.5,45.3,22.2,67.4,44.4c10.5,10.6,22.7,22.9,39.2,36.7C1397.7,103.2,1420.8,110.2,1440,113.9z"/>
<linearGradient id="SVGID_1_" gradientUnits="userSpaceOnUse" x1="724.8159" y1="20.2725" x2="718.2349" y2="451.7218" gradientTransform="matrix(1 0 0 -1 0 862)">
	<stop  offset="0" style="stop-color:#7395BB"/>
	<stop  offset="1" style="stop-color:#FFFFFF"/>
</linearGradient>
<path class="st1" d="M1440,393.1v218.3c-12.9,0.8-30.9,7.8-46,13.9c-13.5,5.5-35.5-16-83-21c-28-2.9-44.5,16.2-78.5,7
	s-27.5,14-60.5,14c-28.5,0-33.6-21.2-48.6-40.2c-15-19.1-19.5-28.5-58-45.7c-38.5-17.3-69.9,25.5-113.4,42c-21.1,8-36.5,3.8-63-6
	c-27.2-10-70.2-28.6-110.5-45c-53-21.5-56.4,28.8-82.5,43.5c-27.5,15.5-46,20.5-74,20.5c-31,0-59.5,3.6-72.5,12s-24.5,9.5-63,9.5
	s-47-12.5-79.5-12.5s-38,13.2-61,12.5s-19-17.1-41.5-21.5s-25.5,2-56-13s-36.5-0.1-64,8c-12.8,3.8-32.5,15.8-57,14
	c-21.6-1.6-37.5,22.1-55.5,26c-37.4,8.2-50.9,26.4-72,29.5v-164c11.6,0.9,22.7,1.6,36.8-0.3c21.4-2.8,32.5-2.7,56,4.7
	c25.5,8,61.2-0.9,74-4.7c27.5-8.1,20.8-44.8,49.3-44.8c14.5,0,43.5,30.1,65.5,44.8c22.6,15.1,32,19.7,59,19.7s38.5,4.8,61.5-13.6
	c17.9-14.3,42.6-43.3,63.1-43.3c38.5,0,59.5-2.1,81.5-5.5c47-7.3,54.5,34.9,90.9,34.9c47,0,44-10.8,71-25.5c23.9-13,46-4.6,77.5-9.4
	s44.6-27.1,73.5-29.3c28-2.2,47.8-15.1,85.5-25.7c44.5-12.5,55.2-17.1,83.5-23.5c32.5-7.3,51.5-1.5,74.5,6.6
	c27.1,9.5,21.9-2.3,60.5,3.7c33.5,5.1,52.9,51.1,84.1,51.1c38,0,41.6-27.6,86.5-19.5c26.5,4.8,52.3-25.8,71.8-25.8
	C1421,389.5,1431.1,391.7,1440,393.1z"/>
</svg>
