<svg width="140" height="140" viewBox="0 0 140 140" fill="none" xmlns="http://www.w3.org/2000/svg">
    <path d="M125.601 9.9h-115.3v78h115.3v-78z" fill="url(#a)"/>
    <path d="M66.402 66.5h-41.3v2h41.3v-2z" fill="#03DD99"/>
    <path d="M66.402 76.8h-41.3v2h41.3v-2z" fill="#03DD99"/>
    <path d="M66.402 87h-41.3v2h41.3v-2z" fill="#03DD99"/>
    <path d="M55.402 97.2h-30.3v2h30.3v-2z" fill="#03DD99"/>
    <path d="M131.701 134.4h-48.2c-.6 0-1-.4-1-1V67.5c0-.6.4-1 1-1h47.3V5H5.301v83.5h-2V4c0-.6.4-1 1-1h127.5c.6 0 1 .4 1 1v63.6c0 .6-.4 1-1 1h-47.3v63.9h47.3v1.9h-.1z" fill="#03DD99"/>
    <path d="M125.702 72.9h-36.3v54.8h36.3V72.9z" fill="url(#b)"/>
    <path d="M131.702 98.4h-26.3v2h26.3v-2z" fill="#03DD99"/>
    <path d="M112.599 109.2l-9.1-9.1c-.4-.4-.4-1 0-1.4l9.1-9.1 1.4 1.4-8.4 8.4 8.4 8.4-1.4 1.4z" fill="#03DD99"/>
    <defs>
        <linearGradient id="a" x1="19.644" y1=".613" x2="116.316" y2="97.285" gradientUnits="userSpaceOnUse">
            <stop stop-color="#02C38D"/>
            <stop offset=".138" stop-color="#3ED1A8"/>
            <stop offset=".308" stop-color="#82E1C7"/>
            <stop offset=".462" stop-color="#B8EEDF"/>
            <stop offset=".594" stop-color="#DFF7F0"/>
            <stop offset=".7" stop-color="#F6FDFB"/>
            <stop offset=".765" stop-color="#fff"/>
        </linearGradient>
        <linearGradient id="b" x1="84.795" y1="77.497" x2="130.369" y2="123.071" gradientUnits="userSpaceOnUse">
            <stop stop-color="#00DE97"/>
            <stop offset=".125" stop-color="#03D89B"/>
            <stop offset=".294" stop-color="#0DC7A6"/>
            <stop offset=".488" stop-color="#1DABB9"/>
            <stop offset=".7" stop-color="#3383D2"/>
            <stop offset=".925" stop-color="#5051F3"/>
            <stop offset="1" stop-color="#5A3FFF"/>
        </linearGradient>
    </defs>
</svg>
