<svg width="32" height="32" viewBox="0 0 32 32" fill="none" xmlns="http://www.w3.org/2000/svg">
    <mask id="a" maskUnits="userSpaceOnUse" x="0" y="0" width="32" height="32">
        <rect width="32" height="32" rx="8" fill="#EDEFF1"/>
    </mask>
    <g mask="url(#a)">
        <path d="M30.234 0H1.766A1.766 1.766 0 0 0 0 1.766v28.468A1.766 1.766 0 0 0 1.766 32h15.328V19.625h-4.157v-4.844h4.157V11.22c0-4.133 2.524-6.384 6.211-6.384 1.766 0 3.284.131 3.726.188v4.319H24.49c-2.006 0-2.395.953-2.395 2.352v3.087h4.796l-.625 4.844h-4.171V32h8.14A1.767 1.767 0 0 0 32 30.234V1.766A1.766 1.766 0 0 0 30.234 0z" fill="#4267B2"/>
        <path d="M22.094 32V19.625h4.172l.625-4.844h-4.797v-3.085c0-1.4.389-2.352 2.395-2.352h2.542v-4.32c-.442-.06-1.96-.188-3.726-.188-3.688 0-6.211 2.25-6.211 6.383v3.563h-4.157v4.843h4.157V32h5z" fill="#fff"/>
    </g>
</svg>
