<svg width="576" height="288" viewBox="0 0 576 288" fill="none" xmlns="http://www.w3.org/2000/svg">
<path d="M0 12.8C0 8.31957 0 6.07937 0.871948 4.36808C1.63893 2.86278 2.86278 1.63893 4.36808 0.871948C6.07937 0 8.31958 0 12.8 0H563.2C567.68 0 569.921 0 571.632 0.871948C573.137 1.63893 574.361 2.86278 575.128 4.36808C576 6.07937 576 8.31958 576 12.8V275.2C576 279.68 576 281.921 575.128 283.632C574.361 285.137 573.137 286.361 571.632 287.128C569.921 288 567.68 288 563.2 288H12.8C8.31958 288 6.07937 288 4.36808 287.128C2.86278 286.361 1.63893 285.137 0.871948 283.632C0 281.921 0 279.68 0 275.2V12.8Z" fill="white"/>
<path d="M278.898 43H277.617V32.9219H278.898V43ZM285.461 33.9609C285.023 33.9609 284.596 34.0599 284.18 34.2578C283.763 34.4557 283.393 34.7344 283.07 35.0938C282.753 35.4479 282.497 35.8698 282.305 36.3594C282.117 36.849 282.023 37.3828 282.023 37.9609C282.023 38.5391 282.117 39.0729 282.305 39.5625C282.497 40.0521 282.753 40.4766 283.07 40.8359C283.393 41.1901 283.763 41.4661 284.18 41.6641C284.596 41.862 285.023 41.9609 285.461 41.9609C285.857 41.9609 286.219 41.901 286.547 41.7812C286.88 41.6562 287.172 41.4896 287.422 41.2812C287.672 41.0729 287.878 40.8281 288.039 40.5469C288.206 40.2604 288.333 39.9583 288.422 39.6406H289.781C289.641 40.1198 289.443 40.5677 289.188 40.9844C288.932 41.401 288.62 41.7682 288.25 42.0859C287.885 42.3984 287.466 42.6432 286.992 42.8203C286.523 42.9922 286.013 43.0781 285.461 43.0781C284.841 43.0781 284.245 42.9479 283.672 42.6875C283.104 42.4271 282.604 42.0651 282.172 41.6016C281.74 41.138 281.393 40.5964 281.133 39.9766C280.872 39.3568 280.742 38.6849 280.742 37.9609C280.742 37.2474 280.872 36.5781 281.133 35.9531C281.393 35.3281 281.74 34.7839 282.172 34.3203C282.604 33.8568 283.104 33.4948 283.672 33.2344C284.245 32.974 284.841 32.8438 285.461 32.8438C286.003 32.8438 286.5 32.9323 286.953 33.1094C287.406 33.2812 287.815 33.526 288.18 33.8438C288.544 34.1562 288.854 34.5208 289.109 34.9375C289.365 35.3542 289.562 35.8021 289.703 36.2812H288.336C288.253 35.9635 288.128 35.6641 287.961 35.3828C287.799 35.0964 287.594 34.849 287.344 34.6406C287.099 34.4323 286.82 34.2682 286.508 34.1484C286.195 34.0234 285.846 33.9609 285.461 33.9609ZM291.945 37.9609C291.945 38.5391 292.039 39.0729 292.227 39.5625C292.419 40.0521 292.674 40.4766 292.992 40.8359C293.315 41.1901 293.685 41.4661 294.102 41.6641C294.518 41.862 294.945 41.9609 295.383 41.9609C295.82 41.9609 296.247 41.862 296.664 41.6641C297.081 41.4661 297.448 41.1901 297.766 40.8359C298.083 40.4766 298.339 40.0521 298.531 39.5625C298.724 39.0677 298.82 38.5339 298.82 37.9609C298.82 37.3828 298.724 36.849 298.531 36.3594C298.339 35.8698 298.083 35.4479 297.766 35.0938C297.448 34.7344 297.081 34.4557 296.664 34.2578C296.247 34.0599 295.82 33.9609 295.383 33.9609C294.945 33.9609 294.518 34.0599 294.102 34.2578C293.685 34.4557 293.315 34.7344 292.992 35.0938C292.674 35.4479 292.419 35.8698 292.227 36.3594C292.039 36.849 291.945 37.3828 291.945 37.9609ZM300.102 37.9609C300.102 38.6849 299.971 39.3568 299.711 39.9766C299.451 40.5964 299.104 41.138 298.672 41.6016C298.24 42.0651 297.737 42.4271 297.164 42.6875C296.596 42.9479 296.003 43.0781 295.383 43.0781C294.763 43.0781 294.167 42.9479 293.594 42.6875C293.026 42.4271 292.526 42.0651 292.094 41.6016C291.661 41.138 291.315 40.5964 291.055 39.9766C290.794 39.3568 290.664 38.6849 290.664 37.9609C290.664 37.2474 290.794 36.5781 291.055 35.9531C291.315 35.3281 291.661 34.7839 292.094 34.3203C292.526 33.8568 293.026 33.4948 293.594 33.2344C294.167 32.974 294.763 32.8438 295.383 32.8438C296.003 32.8438 296.596 32.974 297.164 33.2344C297.737 33.4948 298.24 33.8568 298.672 34.3203C299.104 34.7839 299.451 35.3281 299.711 35.9531C299.971 36.5781 300.102 37.2474 300.102 37.9609ZM273.82 50.9219V61H272.539V56.4375H267.664V61H266.383V50.9219H267.664V55.3203H272.539V50.9219H273.82ZM276.859 57.3984C276.859 57.7839 276.917 58.1354 277.031 58.4531C277.151 58.7656 277.312 59.0339 277.516 59.2578C277.719 59.4818 277.951 59.6562 278.211 59.7812C278.477 59.901 278.747 59.9609 279.023 59.9609C279.299 59.9609 279.568 59.901 279.828 59.7812C280.089 59.6562 280.318 59.4818 280.516 59.2578C280.714 59.0339 280.872 58.7656 280.992 58.4531C281.117 58.1354 281.18 57.7839 281.18 57.3984C281.18 57.013 281.117 56.6641 280.992 56.3516C280.872 56.0391 280.714 55.7708 280.516 55.5469C280.318 55.3229 280.089 55.151 279.828 55.0312C279.568 54.9062 279.299 54.8438 279.023 54.8438C278.747 54.8438 278.477 54.9062 278.211 55.0312C277.951 55.151 277.719 55.3229 277.516 55.5469C277.312 55.7708 277.151 56.0391 277.031 56.3516C276.917 56.6641 276.859 57.013 276.859 57.3984ZM282.383 57.3984C282.383 57.9401 282.294 58.4375 282.117 58.8906C281.94 59.3385 281.701 59.7266 281.398 60.0547C281.096 60.3776 280.74 60.6302 280.328 60.8125C279.917 60.9896 279.482 61.0781 279.023 61.0781C278.565 61.0781 278.13 60.9896 277.719 60.8125C277.307 60.6302 276.948 60.3776 276.641 60.0547C276.339 59.7266 276.099 59.3385 275.922 58.8906C275.75 58.4427 275.664 57.9453 275.664 57.3984C275.664 56.8568 275.75 56.362 275.922 55.9141C276.099 55.4661 276.339 55.0807 276.641 54.7578C276.948 54.4297 277.307 54.1745 277.719 53.9922C278.13 53.8099 278.565 53.7188 279.023 53.7188C279.482 53.7188 279.917 53.8099 280.328 53.9922C280.74 54.1745 281.096 54.4297 281.398 54.7578C281.701 55.0807 281.94 55.4661 282.117 55.9141C282.294 56.362 282.383 56.8568 282.383 57.3984ZM285.266 61H284.062V50.9219H285.266V61ZM288.625 61H287.422V53.7969H288.625V61ZM287.266 51.7656C287.266 51.5417 287.336 51.3594 287.477 51.2188C287.622 51.0729 287.802 51 288.016 51C288.24 51 288.422 51.0729 288.562 51.2188C288.708 51.3594 288.781 51.5417 288.781 51.7656C288.781 51.9792 288.708 52.1589 288.562 52.3047C288.422 52.4505 288.24 52.5234 288.016 52.5234C287.802 52.5234 287.622 52.4505 287.477 52.3047C287.336 52.1589 287.266 51.9792 287.266 51.7656ZM295.422 58.9219C295.422 59.2188 295.362 59.4974 295.242 59.7578C295.128 60.0182 294.964 60.2474 294.75 60.4453C294.536 60.6432 294.279 60.7995 293.977 60.9141C293.674 61.0234 293.331 61.0781 292.945 61.0781C292.143 61.0781 291.513 60.8646 291.055 60.4375C290.596 60.0104 290.346 59.4792 290.305 58.8438H291.508C291.549 59.1615 291.688 59.4271 291.922 59.6406C292.156 59.8542 292.497 59.9609 292.945 59.9609C293.352 59.9609 293.667 59.8568 293.891 59.6484C294.115 59.4401 294.227 59.1979 294.227 58.9219C294.227 58.6562 294.133 58.4557 293.945 58.3203C293.758 58.1849 293.526 58.0781 293.25 58C292.974 57.9219 292.672 57.849 292.344 57.7812C292.021 57.7083 291.719 57.6042 291.438 57.4688C291.161 57.3281 290.93 57.1302 290.742 56.875C290.555 56.6146 290.461 56.2552 290.461 55.7969C290.461 55.5208 290.518 55.2578 290.633 55.0078C290.753 54.7578 290.917 54.5365 291.125 54.3438C291.333 54.151 291.583 54 291.875 53.8906C292.172 53.776 292.503 53.7188 292.867 53.7188C293.633 53.7188 294.227 53.9193 294.648 54.3203C295.07 54.7214 295.302 55.2422 295.344 55.8828H294.141C294.099 55.5651 293.977 55.3125 293.773 55.125C293.57 54.9375 293.268 54.8438 292.867 54.8438C292.503 54.8438 292.211 54.9427 291.992 55.1406C291.773 55.3333 291.664 55.5521 291.664 55.7969C291.664 56.0625 291.758 56.263 291.945 56.3984C292.133 56.5339 292.365 56.6432 292.641 56.7266C292.917 56.8047 293.216 56.8776 293.539 56.9453C293.867 57.013 294.169 57.1172 294.445 57.2578C294.727 57.3932 294.958 57.5938 295.141 57.8594C295.328 58.1198 295.422 58.474 295.422 58.9219ZM297.734 51.8828H298.773V53.7969H300.375V54.9219H298.773V58.6797C298.773 59.0859 298.883 59.401 299.102 59.625C299.32 59.849 299.612 59.9609 299.977 59.9609C300.081 59.9609 300.177 59.9505 300.266 59.9297C300.307 59.9193 300.344 59.9036 300.375 59.8828V60.9219C300.323 60.9531 300.266 60.9792 300.203 61C300.062 61.0521 299.88 61.0781 299.656 61.0781C299.38 61.0781 299.117 61.0208 298.867 60.9062C298.617 60.7865 298.396 60.6224 298.203 60.4141C298.01 60.2057 297.857 59.9557 297.742 59.6641C297.633 59.3724 297.578 59.0443 297.578 58.6797V54.9219H296.297V53.7969H296.859C297.448 53.7969 297.74 53.5052 297.734 52.9219V51.8828ZM303.344 61H302.141V53.7969H303.344V61ZM301.984 51.7656C301.984 51.5417 302.055 51.3594 302.195 51.2188C302.341 51.0729 302.521 51 302.734 51C302.958 51 303.141 51.0729 303.281 51.2188C303.427 51.3594 303.5 51.5417 303.5 51.7656C303.5 51.9792 303.427 52.1589 303.281 52.3047C303.141 52.4505 302.958 52.5234 302.734 52.5234C302.521 52.5234 302.341 52.4505 302.195 52.3047C302.055 52.1589 301.984 51.9792 301.984 51.7656ZM308.305 54.8438C308.029 54.8438 307.758 54.9062 307.492 55.0312C307.232 55.151 307 55.3229 306.797 55.5469C306.594 55.7708 306.432 56.0391 306.312 56.3516C306.198 56.6641 306.141 57.013 306.141 57.3984C306.141 57.7839 306.198 58.1354 306.312 58.4531C306.432 58.7656 306.594 59.0339 306.797 59.2578C307 59.4818 307.232 59.6562 307.492 59.7812C307.758 59.901 308.029 59.9609 308.305 59.9609C308.539 59.9609 308.76 59.9193 308.969 59.8359C309.177 59.7474 309.362 59.6354 309.523 59.5C309.69 59.3594 309.831 59.1979 309.945 59.0156C310.065 58.8333 310.159 58.6406 310.227 58.4375H311.422C311.339 58.8021 311.206 59.1458 311.023 59.4688C310.841 59.7865 310.615 60.0651 310.344 60.3047C310.073 60.5443 309.763 60.7344 309.414 60.875C309.07 61.0104 308.701 61.0781 308.305 61.0781C307.846 61.0781 307.411 60.9896 307 60.8125C306.589 60.6302 306.229 60.3776 305.922 60.0547C305.62 59.7266 305.38 59.3385 305.203 58.8906C305.031 58.4427 304.945 57.9453 304.945 57.3984C304.945 56.8568 305.031 56.362 305.203 55.9141C305.38 55.4661 305.62 55.0807 305.922 54.7578C306.229 54.4297 306.589 54.1745 307 53.9922C307.411 53.8099 307.846 53.7188 308.305 53.7188C308.701 53.7188 309.07 53.7891 309.414 53.9297C309.763 54.0651 310.073 54.2552 310.344 54.5C310.615 54.7396 310.841 55.0182 311.023 55.3359C311.206 55.6536 311.339 55.9948 311.422 56.3594H310.227C310.164 56.1562 310.073 55.9661 309.953 55.7891C309.833 55.6068 309.69 55.4453 309.523 55.3047C309.362 55.1641 309.177 55.0521 308.969 54.9688C308.76 54.8854 308.539 54.8438 308.305 54.8438ZM266.734 68.9219C267.172 68.9219 267.586 69.0052 267.977 69.1719C268.367 69.3333 268.706 69.5599 268.992 69.8516C269.279 70.138 269.508 70.4714 269.68 70.8516C269.852 71.2266 269.938 71.6224 269.938 72.0391C269.938 72.4557 269.852 72.8542 269.68 73.2344C269.508 73.6094 269.279 73.9427 268.992 74.2344C268.706 74.5208 268.367 74.7474 267.977 74.9141C267.586 75.0755 267.172 75.1562 266.734 75.1562H264.578V79H263.297V68.9219H266.734ZM266.734 74.0391C266.99 74.0391 267.234 73.9896 267.469 73.8906C267.703 73.7865 267.909 73.6458 268.086 73.4688C268.263 73.2865 268.401 73.0729 268.5 72.8281C268.604 72.5781 268.656 72.3151 268.656 72.0391C268.656 71.763 268.604 71.5026 268.5 71.2578C268.401 71.013 268.263 70.7995 268.086 70.6172C267.909 70.4349 267.703 70.2943 267.469 70.1953C267.234 70.0911 266.99 70.0391 266.734 70.0391H264.578V74.0391H266.734ZM272.898 79H271.695V68.9219H272.898V79ZM277.773 71.7188C278.169 71.7188 278.534 71.7865 278.867 71.9219C279.206 72.0521 279.495 72.2292 279.734 72.4531C279.974 72.6771 280.159 72.9401 280.289 73.2422C280.424 73.5391 280.492 73.8594 280.492 74.2031V79H279.617L279.297 78.2031C279.135 78.375 278.953 78.5234 278.75 78.6484C278.568 78.7682 278.344 78.8698 278.078 78.9531C277.812 79.0365 277.497 79.0781 277.133 79.0781C276.768 79.0781 276.44 79.0234 276.148 78.9141C275.857 78.7995 275.607 78.6432 275.398 78.4453C275.19 78.2474 275.026 78.0182 274.906 77.7578C274.792 77.4974 274.734 77.2188 274.734 76.9219C274.734 76.5781 274.802 76.2656 274.938 75.9844C275.078 75.7031 275.318 75.4583 275.656 75.25C276 75.0417 276.469 74.8828 277.062 74.7734C277.656 74.6589 278.401 74.6016 279.297 74.6016V74.2031C279.297 73.8385 279.154 73.5208 278.867 73.25C278.586 72.9792 278.221 72.8438 277.773 72.8438C277.326 72.8438 276.995 72.9375 276.781 73.125C276.568 73.3073 276.419 73.5599 276.336 73.8828H275.055C275.096 73.5859 275.188 73.3073 275.328 73.0469C275.469 72.7812 275.654 72.5495 275.883 72.3516C276.112 72.1536 276.383 72 276.695 71.8906C277.008 71.776 277.367 71.7188 277.773 71.7188ZM277.133 77.9609C277.451 77.9609 277.742 77.9115 278.008 77.8125C278.279 77.7083 278.508 77.5781 278.695 77.4219C278.883 77.2604 279.029 77.0807 279.133 76.8828C279.242 76.6849 279.297 76.4844 279.297 76.2812V75.7188C278.573 75.7188 277.992 75.75 277.555 75.8125C277.117 75.8698 276.776 75.9557 276.531 76.0703C276.292 76.1797 276.133 76.3125 276.055 76.4688C275.977 76.6198 275.938 76.7969 275.938 77C275.938 77.2448 276.044 77.4661 276.258 77.6641C276.477 77.862 276.768 77.9609 277.133 77.9609ZM283.055 69.8828H284.094V71.7969H285.695V72.9219H284.094V76.6797C284.094 77.0859 284.203 77.401 284.422 77.625C284.641 77.849 284.932 77.9609 285.297 77.9609C285.401 77.9609 285.497 77.9505 285.586 77.9297C285.628 77.9193 285.664 77.9036 285.695 77.8828V78.9219C285.643 78.9531 285.586 78.9792 285.523 79C285.383 79.0521 285.201 79.0781 284.977 79.0781C284.701 79.0781 284.438 79.0208 284.188 78.9062C283.938 78.7865 283.716 78.6224 283.523 78.4141C283.331 78.2057 283.177 77.9557 283.062 77.6641C282.953 77.3724 282.898 77.0443 282.898 76.6797V72.9219H281.617V71.7969H282.18C282.768 71.7969 283.06 71.5052 283.055 70.9219V69.8828ZM290.5 72.9219H288.898V79H287.703V72.9219H286.82V71.7969H287.703V71.2422C287.703 70.8776 287.758 70.5495 287.867 70.2578C287.982 69.9609 288.135 69.7109 288.328 69.5078C288.521 69.2995 288.742 69.138 288.992 69.0234C289.242 68.9036 289.505 68.8438 289.781 68.8438C289.901 68.8438 290.005 68.8516 290.094 68.8672C290.182 68.8828 290.26 68.901 290.328 68.9219C290.391 68.9531 290.448 68.9792 290.5 69V70.0391C290.469 70.0286 290.432 70.0182 290.391 70.0078C290.359 69.9974 290.315 69.987 290.258 69.9766C290.206 69.9661 290.154 69.9609 290.102 69.9609C289.737 69.9609 289.445 70.0729 289.227 70.2969C289.008 70.5208 288.898 70.8359 288.898 71.2422V71.7969H290.5V72.9219ZM292.586 75.3984C292.586 75.7839 292.643 76.1354 292.758 76.4531C292.878 76.7656 293.039 77.0339 293.242 77.2578C293.445 77.4818 293.677 77.6562 293.938 77.7812C294.203 77.901 294.474 77.9609 294.75 77.9609C295.026 77.9609 295.294 77.901 295.555 77.7812C295.815 77.6562 296.044 77.4818 296.242 77.2578C296.44 77.0339 296.599 76.7656 296.719 76.4531C296.844 76.1354 296.906 75.7839 296.906 75.3984C296.906 75.013 296.844 74.6641 296.719 74.3516C296.599 74.0391 296.44 73.7708 296.242 73.5469C296.044 73.3229 295.815 73.151 295.555 73.0312C295.294 72.9062 295.026 72.8438 294.75 72.8438C294.474 72.8438 294.203 72.9062 293.938 73.0312C293.677 73.151 293.445 73.3229 293.242 73.5469C293.039 73.7708 292.878 74.0391 292.758 74.3516C292.643 74.6641 292.586 75.013 292.586 75.3984ZM298.109 75.3984C298.109 75.9401 298.021 76.4375 297.844 76.8906C297.667 77.3385 297.427 77.7266 297.125 78.0547C296.823 78.3776 296.466 78.6302 296.055 78.8125C295.643 78.9896 295.208 79.0781 294.75 79.0781C294.292 79.0781 293.857 78.9896 293.445 78.8125C293.034 78.6302 292.674 78.3776 292.367 78.0547C292.065 77.7266 291.826 77.3385 291.648 76.8906C291.477 76.4427 291.391 75.9453 291.391 75.3984C291.391 74.8568 291.477 74.362 291.648 73.9141C291.826 73.4661 292.065 73.0807 292.367 72.7578C292.674 72.4297 293.034 72.1745 293.445 71.9922C293.857 71.8099 294.292 71.7188 294.75 71.7188C295.208 71.7188 295.643 71.8099 296.055 71.9922C296.466 72.1745 296.823 72.4297 297.125 72.7578C297.427 73.0807 297.667 73.4661 297.844 73.9141C298.021 74.362 298.109 74.8568 298.109 75.3984ZM303.148 72.9219H302.828C302.26 72.9219 301.799 73.1042 301.445 73.4688C301.091 73.8281 300.914 74.3125 300.914 74.9219V79H299.711V71.7969H300.594L300.914 72.6016C301.065 72.4401 301.24 72.2969 301.438 72.1719C301.62 72.0521 301.839 71.9479 302.094 71.8594C302.349 71.7656 302.648 71.7188 302.992 71.7188H303.148V72.9219ZM311.625 71.7188C311.943 71.7188 312.247 71.7865 312.539 71.9219C312.831 72.0521 313.089 72.2474 313.312 72.5078C313.536 72.763 313.711 73.0755 313.836 73.4453C313.966 73.8099 314.031 74.2214 314.031 74.6797V79H312.828V74.6797C312.828 74.0703 312.69 73.612 312.414 73.3047C312.138 72.9974 311.797 72.8438 311.391 72.8438C310.984 72.8438 310.628 73.0078 310.32 73.3359C310.018 73.6641 309.867 74.112 309.867 74.6797V79H308.672V74.6797C308.672 74.0703 308.531 73.612 308.25 73.3047C307.974 72.9974 307.633 72.8438 307.227 72.8438C307.034 72.8438 306.844 72.888 306.656 72.9766C306.474 73.0651 306.312 73.1927 306.172 73.3594C306.031 73.526 305.919 73.7214 305.836 73.9453C305.753 74.1693 305.711 74.4141 305.711 74.6797V79H304.508V71.7969H305.391L305.711 72.6016C305.831 72.4401 305.974 72.2969 306.141 72.1719C306.292 72.0521 306.474 71.9479 306.688 71.8594C306.901 71.7656 307.161 71.7188 307.469 71.7188C307.833 71.7188 308.141 71.7865 308.391 71.9219C308.641 72.0521 308.846 72.1979 309.008 72.3594C309.201 72.5521 309.354 72.7656 309.469 73C309.609 72.7656 309.781 72.5521 309.984 72.3594C310.167 72.1979 310.388 72.0521 310.648 71.9219C310.914 71.7865 311.24 71.7188 311.625 71.7188Z" fill="#696E79"/>
<path d="M287.496 151.165C287.496 151.441 287.72 151.665 287.996 151.665C288.272 151.665 288.496 151.441 288.496 151.165L287.496 151.165ZM287.496 95.0002L287.496 151.165L288.496 151.165L288.496 95.0002L287.496 95.0002Z" fill="url(#paint0_linear)"/>
<path d="M479.496 151.164C479.496 151.441 479.72 151.664 479.996 151.664C480.272 151.664 480.496 151.441 480.496 151.164L479.496 151.164ZM479.496 126L479.496 151.164L480.496 151.164L480.496 126L479.496 126Z" fill="url(#paint1_linear)"/>
<path d="M83.5 151.164C83.5 151.441 83.7239 151.664 84 151.664C84.2761 151.664 84.5 151.441 84.5 151.164L83.5 151.164ZM83.5 126L83.5 151.164L84.5 151.164L84.5 126L83.5 126Z" fill="url(#paint2_linear)"/>
<rect x="464" y="172" width="56" height="56" fill="white"/>
<path d="M472 196L492 200" stroke="#01C38D" stroke-linecap="round"/>
<path d="M472 196L496 180" stroke="#01C38D" stroke-linecap="round"/>
<path d="M472 196V180" stroke="#01C38D" stroke-linecap="round"/>
<circle cx="472" cy="196" r="7.5" fill="white" stroke="#01C38D"/>
<path d="M477 201L476.589 199.355C476.532 199.126 476.392 198.928 476.196 198.797V198.797C473.655 197.103 470.345 197.103 467.804 198.797V198.797C467.608 198.928 467.468 199.126 467.411 199.355L467 201" stroke="#01C38D" stroke-linecap="square"/>
<path d="M474.5 193.8C474.5 194.715 474.321 195.668 473.911 196.374C473.517 197.054 472.918 197.5 471.999 197.5C471.079 197.5 470.481 197.054 470.088 196.374C469.679 195.668 469.5 194.715 469.5 193.8C469.5 192.959 469.786 192.407 470.201 192.057C470.628 191.696 471.251 191.5 471.999 191.5C472.746 191.5 473.37 191.696 473.798 192.057C474.213 192.408 474.5 192.959 474.5 193.8Z" fill="white" stroke="#01C38D"/>
<circle cx="472" cy="180" r="2.5" fill="white" stroke="#01C38D"/>
<circle cx="492" cy="200" r="2.5" fill="white" stroke="#01C38D"/>
<path d="M496 180L512 187" stroke="#01C38D" stroke-linecap="round"/>
<path d="M496 180L512 204" stroke="#01C38D" stroke-linecap="round"/>
<circle cx="512" cy="187" r="2.5" fill="white" stroke="#01C38D"/>
<circle cx="496" cy="180" r="7.5" fill="white" stroke="#01C38D"/>
<path d="M501 185L500.589 183.355C500.532 183.126 500.392 182.928 500.196 182.797V182.797C497.655 181.103 494.345 181.103 491.804 182.797V182.797C491.608 182.928 491.468 183.126 491.411 183.355L491 185" stroke="#01C38D" stroke-linecap="square"/>
<path d="M498.5 177.8C498.5 178.715 498.321 179.668 497.911 180.374C497.517 181.054 496.918 181.5 495.999 181.5C495.079 181.5 494.481 181.054 494.088 180.374C493.679 179.668 493.5 178.715 493.5 177.8C493.5 176.959 493.786 176.407 494.201 176.057C494.628 175.696 495.251 175.5 495.999 175.5C496.746 175.5 497.37 175.696 497.798 176.057C498.213 176.408 498.5 176.959 498.5 177.8Z" fill="white" stroke="#01C38D"/>
<path d="M488 220L472 220" stroke="#01C38D" stroke-linecap="round"/>
<path d="M503 219L512 204" stroke="#01C38D" stroke-linecap="round"/>
<path d="M512 204L488 220" stroke="#01C38D" stroke-linecap="round"/>
<circle cx="472" cy="220" r="2.5" fill="white" stroke="#01C38D"/>
<circle cx="488" cy="220" r="7.5" fill="white" stroke="#01C38D"/>
<path d="M493 225L492.589 223.355C492.532 223.126 492.392 222.928 492.196 222.797V222.797C489.655 221.103 486.345 221.103 483.804 222.797V222.797C483.608 222.928 483.468 223.126 483.411 223.355L483 225" stroke="#01C38D" stroke-linecap="square"/>
<path d="M490.5 217.8C490.5 218.715 490.321 219.668 489.911 220.374C489.517 221.054 488.918 221.5 487.999 221.5C487.079 221.5 486.481 221.054 486.088 220.374C485.679 219.668 485.5 218.715 485.5 217.8C485.5 216.959 485.786 216.407 486.201 216.057C486.628 215.696 487.251 215.5 487.999 215.5C488.746 215.5 489.37 215.696 489.798 216.057C490.213 216.408 490.5 216.959 490.5 217.8Z" fill="white" stroke="#01C38D"/>
<circle cx="503" cy="219" r="2.5" fill="white" stroke="#01C38D"/>
<circle cx="512" cy="204" r="7.5" fill="white" stroke="#01C38D"/>
<path d="M517 209L516.589 207.355C516.532 207.126 516.392 206.928 516.196 206.797V206.797C513.655 205.103 510.345 205.103 507.804 206.797V206.797C507.608 206.928 507.468 207.126 507.411 207.355L507 209" stroke="#01C38D" stroke-linecap="square"/>
<path d="M514.5 201.8C514.5 202.715 514.321 203.668 513.912 204.374C513.518 205.054 512.92 205.5 512 205.5C511.08 205.5 510.482 205.054 510.088 204.374C509.679 203.668 509.5 202.715 509.5 201.8C509.5 200.959 509.786 200.407 510.201 200.057C510.628 199.696 511.251 199.5 511.999 199.5C512.746 199.5 513.37 199.696 513.798 200.057C514.213 200.408 514.5 200.959 514.5 201.8Z" fill="white" stroke="#01C38D"/>
<path d="M478.812 249.883C479.271 249.883 479.714 249.784 480.141 249.586C480.568 249.388 480.943 249.115 481.266 248.766C481.594 248.411 481.854 247.997 482.047 247.523C482.24 247.044 482.336 246.523 482.336 245.961C482.336 245.409 482.24 244.893 482.047 244.414C481.854 243.93 481.594 243.513 481.266 243.164C480.943 242.81 480.568 242.534 480.141 242.336C479.714 242.138 479.271 242.039 478.812 242.039H477.297V249.883H478.812ZM483.617 245.961C483.617 246.685 483.49 247.354 483.234 247.969C482.984 248.583 482.641 249.115 482.203 249.562C481.766 250.01 481.255 250.362 480.672 250.617C480.094 250.872 479.474 251 478.812 251H476.016V240.922H478.812C479.474 240.922 480.094 241.049 480.672 241.305C481.255 241.56 481.766 241.911 482.203 242.359C482.641 242.807 482.984 243.341 483.234 243.961C483.49 244.581 483.617 245.247 483.617 245.961ZM490.398 248.523H486.242L485.281 251H483.922L487.766 240.922H488.883L492.719 251H491.359L490.398 248.523ZM486.641 247.398H490L488.32 243L486.641 247.398ZM494.234 245.961C494.234 246.539 494.328 247.073 494.516 247.562C494.708 248.052 494.964 248.477 495.281 248.836C495.604 249.19 495.974 249.466 496.391 249.664C496.807 249.862 497.234 249.961 497.672 249.961C498.109 249.961 498.536 249.862 498.953 249.664C499.37 249.466 499.737 249.19 500.055 248.836C500.372 248.477 500.628 248.052 500.82 247.562C501.013 247.068 501.109 246.534 501.109 245.961C501.109 245.383 501.013 244.849 500.82 244.359C500.628 243.87 500.372 243.448 500.055 243.094C499.737 242.734 499.37 242.456 498.953 242.258C498.536 242.06 498.109 241.961 497.672 241.961C497.234 241.961 496.807 242.06 496.391 242.258C495.974 242.456 495.604 242.734 495.281 243.094C494.964 243.448 494.708 243.87 494.516 244.359C494.328 244.849 494.234 245.383 494.234 245.961ZM502.391 245.961C502.391 246.685 502.26 247.357 502 247.977C501.74 248.596 501.393 249.138 500.961 249.602C500.529 250.065 500.026 250.427 499.453 250.688C498.885 250.948 498.292 251.078 497.672 251.078C497.052 251.078 496.456 250.948 495.883 250.688C495.315 250.427 494.815 250.065 494.383 249.602C493.951 249.138 493.604 248.596 493.344 247.977C493.083 247.357 492.953 246.685 492.953 245.961C492.953 245.247 493.083 244.578 493.344 243.953C493.604 243.328 493.951 242.784 494.383 242.32C494.815 241.857 495.315 241.495 495.883 241.234C496.456 240.974 497.052 240.844 497.672 240.844C498.292 240.844 498.885 240.974 499.453 241.234C500.026 241.495 500.529 241.857 500.961 242.32C501.393 242.784 501.74 243.328 502 243.953C502.26 244.578 502.391 245.247 502.391 245.961ZM508.711 248.922C508.711 249.219 508.651 249.497 508.531 249.758C508.417 250.018 508.253 250.247 508.039 250.445C507.826 250.643 507.568 250.799 507.266 250.914C506.964 251.023 506.62 251.078 506.234 251.078C505.432 251.078 504.802 250.865 504.344 250.438C503.885 250.01 503.635 249.479 503.594 248.844H504.797C504.839 249.161 504.977 249.427 505.211 249.641C505.445 249.854 505.786 249.961 506.234 249.961C506.641 249.961 506.956 249.857 507.18 249.648C507.404 249.44 507.516 249.198 507.516 248.922C507.516 248.656 507.422 248.456 507.234 248.32C507.047 248.185 506.815 248.078 506.539 248C506.263 247.922 505.961 247.849 505.633 247.781C505.31 247.708 505.008 247.604 504.727 247.469C504.451 247.328 504.219 247.13 504.031 246.875C503.844 246.615 503.75 246.255 503.75 245.797C503.75 245.521 503.807 245.258 503.922 245.008C504.042 244.758 504.206 244.536 504.414 244.344C504.622 244.151 504.872 244 505.164 243.891C505.461 243.776 505.792 243.719 506.156 243.719C506.922 243.719 507.516 243.919 507.938 244.32C508.359 244.721 508.591 245.242 508.633 245.883H507.43C507.388 245.565 507.266 245.312 507.062 245.125C506.859 244.938 506.557 244.844 506.156 244.844C505.792 244.844 505.5 244.943 505.281 245.141C505.062 245.333 504.953 245.552 504.953 245.797C504.953 246.062 505.047 246.263 505.234 246.398C505.422 246.534 505.654 246.643 505.93 246.727C506.206 246.805 506.505 246.878 506.828 246.945C507.156 247.013 507.458 247.117 507.734 247.258C508.016 247.393 508.247 247.594 508.43 247.859C508.617 248.12 508.711 248.474 508.711 248.922Z" fill="#696E79"/>
<rect x="56" y="172" width="56" height="56" fill="white"/>
<rect x="56.5" y="176.5" width="55" height="47" rx="7.5" fill="white" stroke="#01C38D"/>
<path d="M82.2128 200.935C82.5 201.096 82.7553 201.257 83.0426 201.451C83.1064 201.483 83.0745 201.612 83.0745 201.709C83.0745 204.094 83.0745 206.512 83.0745 208.897C83.0745 209.51 83.0745 210.122 83.0745 210.735C83.0745 210.928 83.0106 211.025 82.8511 211.089C82.3723 211.347 81.8617 211.637 81.383 211.927C81.2234 212.024 81.0638 212.024 80.8723 211.927C79.2447 210.993 77.617 210.058 75.9894 209.123C75.7021 208.962 75.383 208.768 75.0957 208.607C74.9362 208.543 74.9362 208.414 74.9362 208.285C74.9362 207.35 74.9362 206.447 74.9362 205.512C74.9362 205.319 74.8723 205.19 74.6809 205.093C73.8511 204.642 73.0213 204.126 72.1915 203.675C72.0638 203.61 72 203.514 72 203.353C72 201.128 72 198.904 72 196.68C72 196.518 72.0638 196.422 72.1915 196.357C73.0532 195.874 73.883 195.39 74.7447 194.907C74.9043 194.81 74.9362 194.681 74.9362 194.52C74.9362 193.617 74.9362 192.682 74.9362 191.78C74.9362 191.586 75 191.49 75.1596 191.393C76.5957 190.587 78.0319 189.749 79.4681 188.911C79.9149 188.653 80.3936 188.395 80.8404 188.105C81 188.008 81.1596 187.976 81.3191 188.105C81.8298 188.395 82.3085 188.685 82.8191 188.975C82.9787 189.072 83.0106 189.169 83.0106 189.362C83.0106 192.424 83.0106 195.487 83.0106 198.549C83.0106 198.807 83.0745 198.968 83.3298 199.097C84.7979 199.936 86.2979 200.774 87.766 201.612C89.1064 202.385 90.4149 203.159 91.7553 203.901C91.9468 204.03 92.1702 204.158 92.3617 204.255C92.4574 204.287 92.617 204.32 92.6808 204.255C93.3511 203.868 94.0213 203.482 94.7234 203.095C94.8511 202.998 94.9149 202.901 94.9149 202.74C94.9149 200.903 94.9149 199.097 94.9149 197.26C94.9149 197.099 94.883 197.002 94.7234 196.905C94.0532 196.518 93.3511 196.099 92.6808 195.745C92.617 195.713 92.4574 195.713 92.3617 195.745C91.6277 196.164 90.8936 196.583 90.1596 197.002C90.0638 197.066 89.9681 197.195 89.9681 197.324C89.8723 197.776 89.4255 198.163 88.9468 198.13C88.4362 198.098 88.0532 197.808 87.9894 197.26C87.8936 196.776 88.1809 196.261 88.6277 196.132C88.8511 196.067 89.0745 196.132 89.3298 196.099C89.4894 196.099 89.6489 196.099 89.7766 196.035C90.4787 195.648 91.1808 195.261 91.883 194.842C91.9787 194.778 92.0426 194.649 92.0745 194.552C92.0745 193.778 92.0745 193.037 92.0745 192.263C92.0745 192.167 91.9787 192.005 91.883 191.973C90.7021 191.296 89.5213 190.619 88.3404 189.942C87.9255 189.717 87.5106 189.459 87.0957 189.233C86.9362 189.136 86.7766 189.104 86.5851 189.233C86.4574 189.33 86.3298 189.394 86.2021 189.459C85.9468 189.555 85.883 189.717 85.883 189.974C85.883 190.684 85.883 190.684 86.5213 191.038C87.4468 191.554 88.3723 192.102 89.266 192.618C89.7447 192.908 90.2553 193.166 90.734 193.456C90.9574 193.585 90.9574 194.004 90.766 194.133C90.5106 194.326 90.2872 194.359 89.9681 194.165C88.7234 193.424 87.4468 192.715 86.2021 192.005C85.9468 191.844 85.9468 191.876 85.9468 192.199C85.9468 194.391 86.0106 196.583 86.0106 198.775C86.0106 198.872 86.0106 198.936 86.0106 199.097C85.6915 199.001 85.6277 198.904 85.5 198.872C85.117 198.711 84.9574 198.453 84.9574 198.001C84.9894 195.1 84.9574 192.231 84.9574 189.33C84.9574 189.136 84.9894 189.007 85.1808 188.911C85.6596 188.653 86.1383 188.363 86.617 188.073C86.7766 187.976 86.9362 187.976 87.1277 188.073C88.7234 189.007 90.3191 189.91 91.9149 190.845C92.234 191.006 92.5213 191.199 92.8404 191.361C93 191.457 93.0638 191.554 93.0638 191.747C93.0638 192.65 93.0638 193.553 93.0638 194.455C93.0638 194.681 93.1277 194.81 93.3191 194.907C94.1489 195.358 94.9787 195.842 95.8085 196.325C95.9362 196.39 96 196.486 96 196.647C96 198.872 96 201.096 96 203.32C96 203.482 95.9362 203.578 95.8085 203.643C94.9468 204.126 94.117 204.61 93.2553 205.093C93.0957 205.19 93.0319 205.319 93.0638 205.48C93.0638 206.383 93.0638 207.318 93.0638 208.22C93.0638 208.414 93 208.543 92.8404 208.639C91.4043 209.445 89.9681 210.283 88.5319 211.089C88.0532 211.347 87.5745 211.637 87.1277 211.895C86.9681 211.992 86.8404 211.992 86.6809 211.895C86.2021 211.605 85.7234 211.315 85.2128 211.057C85.0213 210.96 84.9894 210.831 84.9894 210.638C84.9894 207.576 84.9894 204.513 84.9894 201.451C84.9894 201.193 84.9255 201.032 84.6702 200.903C83.2021 200.064 81.7021 199.226 80.234 198.388C78.9255 197.647 77.5851 196.873 76.2766 196.099C76.0532 195.97 75.8298 195.842 75.6064 195.713C75.5106 195.68 75.383 195.648 75.2872 195.713C74.5851 196.099 73.883 196.518 73.2128 196.938C73.1489 196.97 73.0532 197.131 73.0532 197.228C73.0532 199.065 73.0532 200.903 73.0532 202.74C73.0532 202.901 73.117 202.998 73.2447 203.095C73.9149 203.482 74.617 203.901 75.2872 204.255C75.3511 204.287 75.5106 204.287 75.6064 204.223C76.3404 203.804 77.0745 203.385 77.8085 202.966C77.9043 202.901 77.9681 202.772 78 202.643C78.0957 202.128 78.5106 201.837 79.0213 201.837C79.5319 201.837 79.883 202.16 79.9787 202.708C80.0426 203.191 79.7872 203.707 79.3404 203.836C79.117 203.901 78.8936 203.836 78.6383 203.836C78.4787 203.836 78.3191 203.836 78.1915 203.901C77.4894 204.287 76.7872 204.707 76.0851 205.093C75.9894 205.158 75.8936 205.287 75.8936 205.416C75.8617 206.157 75.8617 206.931 75.8936 207.672C75.8936 207.769 75.9894 207.93 76.0851 207.995C77.5532 208.833 79.0213 209.639 80.4574 210.541C80.9681 210.831 81.3191 210.896 81.7979 210.541C81.9894 210.412 82.0851 210.283 82.0851 210.058C82.0532 209.123 82.1809 209.413 81.4149 208.962C80.5213 208.414 79.5957 207.93 78.7021 207.414C78.2234 207.124 77.7128 206.866 77.234 206.576C77.0106 206.447 76.9787 206.06 77.2021 205.899C77.4574 205.706 77.7128 205.706 78 205.867C79.2447 206.608 80.5213 207.318 81.766 208.027C82.0213 208.188 82.117 208.156 82.117 207.833C82.117 205.641 82.1809 203.449 82.1809 201.257C82.1809 201.161 82.1809 201.064 82.1809 200.967C82.1809 200.967 82.1809 200.935 82.2128 200.935ZM82.1809 195.1C82.1809 194.745 82.1809 194.359 82.1809 194.004C82.1809 193.392 82.117 192.779 82.117 192.167C82.117 191.941 82.0213 191.909 81.8298 192.005C81.6702 192.102 81.4787 192.199 81.3191 192.296C80.3298 192.876 79.3085 193.424 78.3191 194.004C77.7766 194.326 77.2021 194.649 76.6596 194.971C76.5 195.068 76.5 195.132 76.6596 195.261C77.0106 195.487 77.3936 195.68 77.7447 195.906C79.0851 196.68 80.4255 197.421 81.734 198.195C82.0213 198.356 82.117 198.324 82.117 198.001C82.117 197.034 82.1809 196.067 82.1809 195.1ZM85.883 204.932C85.883 205.899 85.883 206.899 85.883 207.866C85.883 208.124 85.9468 208.156 86.1702 208.027C86.5532 207.833 86.9043 207.608 87.2872 207.382C88.2447 206.834 89.2021 206.286 90.1596 205.738C90.5426 205.512 90.9255 205.287 91.3085 205.093C91.4681 204.997 91.4681 204.932 91.3085 204.803C91.1489 204.707 90.9894 204.61 90.8617 204.513C89.3298 203.643 87.766 202.74 86.234 201.87C85.9468 201.709 85.9149 201.741 85.9149 202.063C85.883 203.03 85.883 203.997 85.883 204.932ZM75.8936 193.134C75.8936 193.392 75.8936 193.682 75.8936 193.94C75.8936 194.165 75.9574 194.197 76.1489 194.101C76.2447 194.036 76.3404 193.972 76.4362 193.94C77.2021 193.52 77.9362 193.069 78.7021 192.65C79.5957 192.134 80.4894 191.651 81.383 191.103C82.1809 190.651 82.0532 190.909 82.0532 189.974C82.0532 189.749 81.9574 189.62 81.766 189.491C81.2872 189.136 80.9362 189.201 80.4255 189.491C78.9894 190.361 77.5213 191.167 76.0532 192.005C75.9574 192.07 75.8617 192.199 75.8617 192.328C75.8617 192.618 75.8936 192.876 75.8936 193.134ZM92.0745 206.899C92.0745 206.641 92.0745 206.383 92.0745 206.125C92.0745 205.867 91.9787 205.835 91.7872 205.964C90.9574 206.447 90.0957 206.931 89.266 207.414C88.3723 207.93 87.4468 208.446 86.5851 208.962C85.8191 209.413 85.9468 209.123 85.9149 210.058C85.9149 210.283 86.0106 210.412 86.2021 210.541C86.6809 210.896 87.0319 210.864 87.5426 210.541C88.9787 209.671 90.4468 208.865 91.9149 208.027C92.0106 207.962 92.1064 207.801 92.1064 207.705C92.1064 207.447 92.0745 207.189 92.0745 206.899Z" fill="#01C38D"/>
<rect x="101.5" y="197.5" width="5" height="5" rx="2.5" fill="white" stroke="#01C38D"/>
<path d="M70.8047 237.961C70.3672 237.961 69.9401 238.06 69.5234 238.258C69.1068 238.456 68.737 238.734 68.4141 239.094C68.0964 239.448 67.8411 239.87 67.6484 240.359C67.4609 240.849 67.3672 241.383 67.3672 241.961C67.3672 242.539 67.4609 243.073 67.6484 243.562C67.8411 244.052 68.0964 244.477 68.4141 244.836C68.737 245.19 69.1068 245.466 69.5234 245.664C69.9401 245.862 70.3672 245.961 70.8047 245.961C71.2005 245.961 71.5625 245.901 71.8906 245.781C72.224 245.656 72.5156 245.49 72.7656 245.281C73.0156 245.073 73.2214 244.828 73.3828 244.547C73.5495 244.26 73.6771 243.958 73.7656 243.641H75.125C74.9844 244.12 74.7865 244.568 74.5312 244.984C74.276 245.401 73.9635 245.768 73.5938 246.086C73.2292 246.398 72.8099 246.643 72.3359 246.82C71.8672 246.992 71.3568 247.078 70.8047 247.078C70.1849 247.078 69.5885 246.948 69.0156 246.688C68.4479 246.427 67.9479 246.065 67.5156 245.602C67.0833 245.138 66.737 244.596 66.4766 243.977C66.2161 243.357 66.0859 242.685 66.0859 241.961C66.0859 241.247 66.2161 240.578 66.4766 239.953C66.737 239.328 67.0833 238.784 67.5156 238.32C67.9479 237.857 68.4479 237.495 69.0156 237.234C69.5885 236.974 70.1849 236.844 70.8047 236.844C71.3464 236.844 71.8438 236.932 72.2969 237.109C72.75 237.281 73.1589 237.526 73.5234 237.844C73.888 238.156 74.1979 238.521 74.4531 238.938C74.7083 239.354 74.9062 239.802 75.0469 240.281H73.6797C73.5964 239.964 73.4714 239.664 73.3047 239.383C73.1432 239.096 72.9375 238.849 72.6875 238.641C72.4427 238.432 72.1641 238.268 71.8516 238.148C71.5391 238.023 71.1901 237.961 70.8047 237.961ZM84.3203 236.922V247H83.0391V242.438H78.1641V247H76.8828V236.922H78.1641V241.32H83.0391V236.922H84.3203ZM86.3203 239.562C86.3203 239.219 86.401 238.885 86.5625 238.562C86.724 238.234 86.9505 237.943 87.2422 237.688C87.5339 237.432 87.8802 237.229 88.2812 237.078C88.6823 236.922 89.1224 236.844 89.6016 236.844C90.0391 236.844 90.4453 236.924 90.8203 237.086C91.2005 237.242 91.5312 237.456 91.8125 237.727C92.099 237.997 92.3203 238.32 92.4766 238.695C92.638 239.07 92.7188 239.466 92.7188 239.883H91.4453C91.4453 239.315 91.2682 238.854 90.9141 238.5C90.5599 238.141 90.1224 237.961 89.6016 237.961C89.3047 237.961 89.0312 238.008 88.7812 238.102C88.5365 238.19 88.3255 238.31 88.1484 238.461C87.9766 238.607 87.8411 238.776 87.7422 238.969C87.6484 239.161 87.6016 239.359 87.6016 239.562C87.6016 239.979 87.7344 240.302 88 240.531C88.2656 240.76 88.5964 240.953 88.9922 241.109C89.388 241.26 89.8177 241.404 90.2812 241.539C90.7448 241.669 91.1745 241.844 91.5703 242.062C91.9661 242.281 92.2969 242.57 92.5625 242.93C92.8281 243.284 92.9609 243.76 92.9609 244.359C92.9609 244.724 92.8828 245.07 92.7266 245.398C92.5755 245.721 92.3542 246.008 92.0625 246.258C91.776 246.508 91.4245 246.708 91.0078 246.859C90.5911 247.005 90.1224 247.078 89.6016 247.078C89.0807 247.078 88.612 247.005 88.1953 246.859C87.7786 246.708 87.4245 246.497 87.1328 246.227C86.8464 245.951 86.625 245.628 86.4688 245.258C86.3177 244.883 86.2422 244.477 86.2422 244.039H87.5234C87.5234 244.648 87.6979 245.122 88.0469 245.461C88.401 245.794 88.9193 245.961 89.6016 245.961C90.2839 245.961 90.7995 245.807 91.1484 245.5C91.5026 245.188 91.6797 244.807 91.6797 244.359C91.6797 243.943 91.5469 243.62 91.2812 243.391C91.0156 243.161 90.6849 242.971 90.2891 242.82C89.8932 242.664 89.4635 242.521 89 242.391C88.5365 242.255 88.1068 242.078 87.7109 241.859C87.3203 241.641 86.9896 241.354 86.7188 241C86.4531 240.641 86.3203 240.161 86.3203 239.562ZM100.32 241.641C100.596 241.781 100.849 241.964 101.078 242.188C101.271 242.38 101.445 242.635 101.602 242.953C101.763 243.271 101.844 243.659 101.844 244.117C101.844 244.492 101.763 244.854 101.602 245.203C101.445 245.547 101.221 245.854 100.93 246.125C100.643 246.391 100.305 246.604 99.9141 246.766C99.5234 246.922 99.099 247 98.6406 247H94.8047V236.922H98.5625C98.9792 236.922 99.362 236.992 99.7109 237.133C100.065 237.268 100.37 237.458 100.625 237.703C100.88 237.948 101.081 238.237 101.227 238.57C101.372 238.898 101.445 239.255 101.445 239.641C101.445 240.005 101.385 240.312 101.266 240.562C101.151 240.812 101.023 241.018 100.883 241.18C100.711 241.367 100.523 241.521 100.32 241.641ZM96.0859 241.156H98.5625C98.7969 241.156 99.0182 241.115 99.2266 241.031C99.4349 240.948 99.612 240.836 99.7578 240.695C99.9089 240.555 100.026 240.396 100.109 240.219C100.198 240.036 100.242 239.844 100.242 239.641C100.242 239.417 100.198 239.208 100.109 239.016C100.026 238.823 99.9089 238.656 99.7578 238.516C99.612 238.37 99.4349 238.255 99.2266 238.172C99.0182 238.083 98.7969 238.039 98.5625 238.039H96.0859V241.156ZM98.6406 245.883C99.2083 245.883 99.6693 245.706 100.023 245.352C100.383 244.997 100.562 244.56 100.562 244.039C100.562 243.805 100.513 243.581 100.414 243.367C100.32 243.154 100.188 242.969 100.016 242.812C99.849 242.651 99.6484 242.523 99.4141 242.43C99.1797 242.331 98.9219 242.281 98.6406 242.281H96.0859V245.883H98.6406ZM68.5625 254.922V265H67.2812V260.438H62.4062V265H61.125V254.922H62.4062V259.32H67.2812V254.922H68.5625ZM71.6016 261.398C71.6016 261.784 71.6589 262.135 71.7734 262.453C71.8932 262.766 72.0547 263.034 72.2578 263.258C72.4609 263.482 72.6927 263.656 72.9531 263.781C73.2188 263.901 73.4896 263.961 73.7656 263.961C74.0417 263.961 74.3099 263.901 74.5703 263.781C74.8307 263.656 75.0599 263.482 75.2578 263.258C75.4557 263.034 75.6146 262.766 75.7344 262.453C75.8594 262.135 75.9219 261.784 75.9219 261.398C75.9219 261.013 75.8594 260.664 75.7344 260.352C75.6146 260.039 75.4557 259.771 75.2578 259.547C75.0599 259.323 74.8307 259.151 74.5703 259.031C74.3099 258.906 74.0417 258.844 73.7656 258.844C73.4896 258.844 73.2188 258.906 72.9531 259.031C72.6927 259.151 72.4609 259.323 72.2578 259.547C72.0547 259.771 71.8932 260.039 71.7734 260.352C71.6589 260.664 71.6016 261.013 71.6016 261.398ZM77.125 261.398C77.125 261.94 77.0365 262.438 76.8594 262.891C76.6823 263.339 76.4427 263.727 76.1406 264.055C75.8385 264.378 75.4818 264.63 75.0703 264.812C74.6589 264.99 74.224 265.078 73.7656 265.078C73.3073 265.078 72.8724 264.99 72.4609 264.812C72.0495 264.63 71.6901 264.378 71.3828 264.055C71.0807 263.727 70.8411 263.339 70.6641 262.891C70.4922 262.443 70.4062 261.945 70.4062 261.398C70.4062 260.857 70.4922 260.362 70.6641 259.914C70.8411 259.466 71.0807 259.081 71.3828 258.758C71.6901 258.43 72.0495 258.174 72.4609 257.992C72.8724 257.81 73.3073 257.719 73.7656 257.719C74.224 257.719 74.6589 257.81 75.0703 257.992C75.4818 258.174 75.8385 258.43 76.1406 258.758C76.4427 259.081 76.6823 259.466 76.8594 259.914C77.0365 260.362 77.125 260.857 77.125 261.398ZM80.0078 265H78.8047V254.922H80.0078V265ZM87.3672 261.398C87.3672 261.013 87.3047 260.664 87.1797 260.352C87.0599 260.039 86.8984 259.771 86.6953 259.547C86.4922 259.323 86.2526 259.151 85.9766 259.031C85.7057 258.906 85.4219 258.844 85.125 258.844C84.8281 258.844 84.5417 258.906 84.2656 259.031C83.9948 259.151 83.7578 259.323 83.5547 259.547C83.3516 259.771 83.1875 260.039 83.0625 260.352C82.9427 260.664 82.8828 261.013 82.8828 261.398C82.8828 261.784 82.9427 262.135 83.0625 262.453C83.1875 262.766 83.3516 263.034 83.5547 263.258C83.7578 263.482 83.9948 263.656 84.2656 263.781C84.5417 263.901 84.8281 263.961 85.125 263.961C85.4219 263.961 85.7057 263.901 85.9766 263.781C86.2526 263.656 86.4922 263.482 86.6953 263.258C86.8984 263.034 87.0599 262.766 87.1797 262.453C87.3047 262.135 87.3672 261.784 87.3672 261.398ZM87.2031 264.203C87.0417 264.375 86.862 264.523 86.6641 264.648C86.4818 264.768 86.2552 264.87 85.9844 264.953C85.7188 265.036 85.4062 265.078 85.0469 265.078C84.5885 265.078 84.1536 264.99 83.7422 264.812C83.3307 264.63 82.9714 264.378 82.6641 264.055C82.362 263.727 82.1224 263.339 81.9453 262.891C81.7734 262.443 81.6875 261.945 81.6875 261.398C81.6875 260.857 81.7734 260.362 81.9453 259.914C82.1224 259.466 82.362 259.081 82.6641 258.758C82.9714 258.43 83.3307 258.174 83.7422 257.992C84.1536 257.81 84.5885 257.719 85.0469 257.719C85.4115 257.719 85.7266 257.771 85.9922 257.875C86.2578 257.974 86.4818 258.083 86.6641 258.203C86.8672 258.344 87.0469 258.503 87.2031 258.68V254.922H88.4062V265H87.5234L87.2031 264.203ZM96.4141 263.078C96.2943 263.333 96.1432 263.586 95.9609 263.836C95.7786 264.081 95.5651 264.294 95.3203 264.477C95.0755 264.654 94.7969 264.799 94.4844 264.914C94.1771 265.023 93.8333 265.078 93.4531 265.078C92.9948 265.078 92.5599 264.99 92.1484 264.812C91.737 264.63 91.3776 264.378 91.0703 264.055C90.7682 263.727 90.5286 263.339 90.3516 262.891C90.1797 262.443 90.0938 261.945 90.0938 261.398C90.0938 260.857 90.1797 260.362 90.3516 259.914C90.5286 259.466 90.7656 259.081 91.0625 258.758C91.3646 258.43 91.7161 258.174 92.1172 257.992C92.5182 257.81 92.9375 257.719 93.375 257.719C93.8125 257.719 94.224 257.805 94.6094 257.977C95 258.148 95.3385 258.393 95.625 258.711C95.9167 259.023 96.1458 259.401 96.3125 259.844C96.4844 260.286 96.5703 260.779 96.5703 261.32C96.5703 261.424 96.5651 261.516 96.5547 261.594C96.5443 261.667 96.5339 261.729 96.5234 261.781C96.513 261.844 96.5026 261.904 96.4922 261.961H91.375C91.3958 262.216 91.4661 262.466 91.5859 262.711C91.7109 262.956 91.8646 263.169 92.0469 263.352C92.2344 263.534 92.4505 263.682 92.6953 263.797C92.9453 263.906 93.1979 263.961 93.4531 263.961C93.6771 263.961 93.875 263.93 94.0469 263.867C94.224 263.799 94.3854 263.724 94.5312 263.641C94.6771 263.557 94.7969 263.466 94.8906 263.367C94.9896 263.263 95.0703 263.167 95.1328 263.078H96.4141ZM93.375 258.844C93.1302 258.844 92.8958 258.896 92.6719 259C92.4531 259.104 92.2526 259.247 92.0703 259.43C91.8932 259.612 91.7422 259.831 91.6172 260.086C91.4974 260.341 91.4167 260.62 91.375 260.922H95.2891C95.2057 260.281 94.9844 259.776 94.625 259.406C94.2708 259.031 93.8542 258.844 93.375 258.844ZM101.602 258.922H101.281C100.714 258.922 100.253 259.104 99.8984 259.469C99.5443 259.828 99.3672 260.312 99.3672 260.922V265H98.1641V257.797H99.0469L99.3672 258.602C99.5182 258.44 99.6927 258.297 99.8906 258.172C100.073 258.052 100.292 257.948 100.547 257.859C100.802 257.766 101.102 257.719 101.445 257.719H101.602V258.922ZM107.602 262.922C107.602 263.219 107.542 263.497 107.422 263.758C107.307 264.018 107.143 264.247 106.93 264.445C106.716 264.643 106.458 264.799 106.156 264.914C105.854 265.023 105.51 265.078 105.125 265.078C104.323 265.078 103.693 264.865 103.234 264.438C102.776 264.01 102.526 263.479 102.484 262.844H103.688C103.729 263.161 103.867 263.427 104.102 263.641C104.336 263.854 104.677 263.961 105.125 263.961C105.531 263.961 105.846 263.857 106.07 263.648C106.294 263.44 106.406 263.198 106.406 262.922C106.406 262.656 106.312 262.456 106.125 262.32C105.938 262.185 105.706 262.078 105.43 262C105.154 261.922 104.852 261.849 104.523 261.781C104.201 261.708 103.898 261.604 103.617 261.469C103.341 261.328 103.109 261.13 102.922 260.875C102.734 260.615 102.641 260.255 102.641 259.797C102.641 259.521 102.698 259.258 102.812 259.008C102.932 258.758 103.096 258.536 103.305 258.344C103.513 258.151 103.763 258 104.055 257.891C104.352 257.776 104.682 257.719 105.047 257.719C105.812 257.719 106.406 257.919 106.828 258.32C107.25 258.721 107.482 259.242 107.523 259.883H106.32C106.279 259.565 106.156 259.312 105.953 259.125C105.75 258.938 105.448 258.844 105.047 258.844C104.682 258.844 104.391 258.943 104.172 259.141C103.953 259.333 103.844 259.552 103.844 259.797C103.844 260.062 103.938 260.263 104.125 260.398C104.312 260.534 104.544 260.643 104.82 260.727C105.096 260.805 105.396 260.878 105.719 260.945C106.047 261.013 106.349 261.117 106.625 261.258C106.906 261.393 107.138 261.594 107.32 261.859C107.508 262.12 107.602 262.474 107.602 262.922Z" fill="#696E79"/>
<path d="M284.426 197.612C285 197.931 285.511 198.25 286.085 198.633C286.213 198.697 286.149 198.952 286.149 199.144C286.149 203.867 286.149 208.654 286.149 213.378C286.149 214.59 286.149 215.803 286.149 217.016C286.149 217.399 286.021 217.59 285.702 217.718C284.745 218.229 283.723 218.803 282.766 219.378C282.447 219.569 282.128 219.569 281.745 219.378C278.489 217.527 275.234 215.676 271.979 213.824C271.404 213.505 270.766 213.122 270.191 212.803C269.872 212.676 269.872 212.42 269.872 212.165C269.872 210.314 269.872 208.527 269.872 206.676C269.872 206.293 269.745 206.037 269.362 205.846C267.702 204.952 266.043 203.931 264.383 203.037C264.128 202.91 264 202.718 264 202.399C264 197.995 264 193.59 264 189.186C264 188.867 264.128 188.676 264.383 188.548C266.106 187.59 267.766 186.633 269.489 185.676C269.809 185.484 269.872 185.229 269.872 184.91C269.872 183.122 269.872 181.271 269.872 179.484C269.872 179.101 270 178.91 270.319 178.718C273.191 177.122 276.064 175.463 278.936 173.803C279.83 173.293 280.787 172.782 281.681 172.207C282 172.016 282.319 171.952 282.638 172.207C283.66 172.782 284.617 173.356 285.638 173.931C285.957 174.122 286.021 174.314 286.021 174.697C286.021 180.761 286.021 186.824 286.021 192.888C286.021 193.399 286.149 193.718 286.66 193.973C289.596 195.633 292.596 197.293 295.532 198.952C298.213 200.484 300.83 202.016 303.511 203.484C303.894 203.739 304.34 203.995 304.723 204.186C304.915 204.25 305.234 204.314 305.362 204.186C306.702 203.42 308.043 202.654 309.447 201.888C309.702 201.697 309.83 201.505 309.83 201.186C309.83 197.548 309.83 193.973 309.83 190.335C309.83 190.016 309.766 189.824 309.447 189.633C308.106 188.867 306.702 188.037 305.362 187.335C305.234 187.271 304.915 187.271 304.723 187.335C303.255 188.165 301.787 188.995 300.319 189.824C300.128 189.952 299.936 190.207 299.936 190.463C299.745 191.356 298.851 192.122 297.894 192.059C296.872 191.995 296.106 191.42 295.979 190.335C295.787 189.378 296.362 188.356 297.255 188.101C297.702 187.973 298.149 188.101 298.66 188.037C298.979 188.037 299.298 188.037 299.553 187.91C300.957 187.144 302.362 186.378 303.766 185.548C303.957 185.42 304.085 185.165 304.149 184.973C304.149 183.441 304.149 181.973 304.149 180.441C304.149 180.25 303.957 179.931 303.766 179.867C301.404 178.527 299.043 177.186 296.681 175.846C295.851 175.399 295.021 174.888 294.191 174.441C293.872 174.25 293.553 174.186 293.17 174.441C292.915 174.633 292.66 174.761 292.404 174.888C291.894 175.08 291.766 175.399 291.766 175.91C291.766 177.314 291.766 177.314 293.043 178.016C294.894 179.037 296.745 180.122 298.532 181.144C299.489 181.718 300.511 182.229 301.468 182.803C301.915 183.059 301.915 183.888 301.532 184.144C301.021 184.527 300.574 184.59 299.936 184.207C297.447 182.739 294.894 181.335 292.404 179.931C291.894 179.612 291.894 179.676 291.894 180.314C291.894 184.654 292.021 188.995 292.021 193.335C292.021 193.527 292.021 193.654 292.021 193.973C291.383 193.782 291.255 193.59 291 193.527C290.234 193.207 289.915 192.697 289.915 191.803C289.979 186.059 289.915 180.378 289.915 174.633C289.915 174.25 289.979 173.995 290.362 173.803C291.319 173.293 292.277 172.718 293.234 172.144C293.553 171.952 293.872 171.952 294.255 172.144C297.447 173.995 300.638 175.782 303.83 177.633C304.468 177.952 305.043 178.335 305.681 178.654C306 178.846 306.128 179.037 306.128 179.42C306.128 181.207 306.128 182.995 306.128 184.782C306.128 185.229 306.255 185.484 306.638 185.676C308.298 186.569 309.957 187.527 311.617 188.484C311.872 188.612 312 188.803 312 189.122C312 193.527 312 197.931 312 202.335C312 202.654 311.872 202.846 311.617 202.973C309.894 203.931 308.234 204.888 306.511 205.846C306.191 206.037 306.064 206.293 306.128 206.612C306.128 208.399 306.128 210.25 306.128 212.037C306.128 212.42 306 212.676 305.681 212.867C302.809 214.463 299.936 216.122 297.064 217.718C296.106 218.229 295.149 218.803 294.255 219.314C293.936 219.505 293.681 219.505 293.362 219.314C292.404 218.739 291.447 218.165 290.426 217.654C290.043 217.463 289.979 217.207 289.979 216.824C289.979 210.761 289.979 204.697 289.979 198.633C289.979 198.122 289.851 197.803 289.34 197.548C286.404 195.888 283.404 194.229 280.468 192.569C277.851 191.101 275.17 189.569 272.553 188.037C272.106 187.782 271.66 187.527 271.213 187.271C271.021 187.207 270.766 187.144 270.574 187.271C269.17 188.037 267.766 188.867 266.426 189.697C266.298 189.761 266.106 190.08 266.106 190.271C266.106 193.91 266.106 197.548 266.106 201.186C266.106 201.505 266.234 201.697 266.489 201.888C267.83 202.654 269.234 203.484 270.574 204.186C270.702 204.25 271.021 204.25 271.213 204.122C272.681 203.293 274.149 202.463 275.617 201.633C275.809 201.505 275.936 201.25 276 200.995C276.191 199.973 277.021 199.399 278.043 199.399C279.064 199.399 279.766 200.037 279.957 201.122C280.085 202.08 279.574 203.101 278.681 203.356C278.234 203.484 277.787 203.356 277.277 203.356C276.957 203.356 276.638 203.356 276.383 203.484C274.979 204.25 273.574 205.08 272.17 205.846C271.979 205.973 271.787 206.229 271.787 206.484C271.723 207.952 271.723 209.484 271.787 210.952C271.787 211.144 271.979 211.463 272.17 211.59C275.106 213.25 278.043 214.846 280.915 216.633C281.936 217.207 282.638 217.335 283.596 216.633C283.979 216.378 284.17 216.122 284.17 215.676C284.106 213.824 284.362 214.399 282.83 213.505C281.043 212.42 279.191 211.463 277.404 210.441C276.447 209.867 275.426 209.356 274.468 208.782C274.021 208.527 273.957 207.761 274.404 207.441C274.915 207.059 275.426 207.059 276 207.378C278.489 208.846 281.043 210.25 283.532 211.654C284.043 211.973 284.234 211.91 284.234 211.271C284.234 206.931 284.362 202.59 284.362 198.25C284.362 198.059 284.362 197.867 284.362 197.676C284.362 197.676 284.362 197.612 284.426 197.612ZM284.362 186.059C284.362 185.356 284.362 184.59 284.362 183.888C284.362 182.676 284.234 181.463 284.234 180.25C284.234 179.803 284.043 179.739 283.66 179.931C283.34 180.122 282.957 180.314 282.638 180.505C280.66 181.654 278.617 182.739 276.638 183.888C275.553 184.527 274.404 185.165 273.319 185.803C273 185.995 273 186.122 273.319 186.378C274.021 186.824 274.787 187.207 275.489 187.654C278.17 189.186 280.851 190.654 283.468 192.186C284.043 192.505 284.234 192.441 284.234 191.803C284.234 189.888 284.362 187.973 284.362 186.059ZM291.766 205.527C291.766 207.441 291.766 209.42 291.766 211.335C291.766 211.846 291.894 211.91 292.34 211.654C293.106 211.271 293.809 210.824 294.574 210.378C296.489 209.293 298.404 208.207 300.319 207.122C301.085 206.676 301.851 206.229 302.617 205.846C302.936 205.654 302.936 205.527 302.617 205.271C302.298 205.08 301.979 204.888 301.723 204.697C298.66 202.973 295.532 201.186 292.468 199.463C291.894 199.144 291.83 199.207 291.83 199.846C291.766 201.761 291.766 203.676 291.766 205.527ZM271.787 182.165C271.787 182.676 271.787 183.25 271.787 183.761C271.787 184.207 271.915 184.271 272.298 184.08C272.489 183.952 272.681 183.824 272.872 183.761C274.404 182.931 275.872 182.037 277.404 181.207C279.191 180.186 280.979 179.229 282.766 178.144C284.362 177.25 284.106 177.761 284.106 175.91C284.106 175.463 283.915 175.207 283.532 174.952C282.574 174.25 281.872 174.378 280.851 174.952C277.979 176.676 275.043 178.271 272.106 179.931C271.915 180.059 271.723 180.314 271.723 180.569C271.723 181.144 271.787 181.654 271.787 182.165ZM304.149 209.42C304.149 208.91 304.149 208.399 304.149 207.888C304.149 207.378 303.957 207.314 303.574 207.569C301.915 208.527 300.191 209.484 298.532 210.441C296.745 211.463 294.894 212.484 293.17 213.505C291.638 214.399 291.894 213.824 291.83 215.676C291.83 216.122 292.021 216.378 292.404 216.633C293.362 217.335 294.064 217.271 295.085 216.633C297.957 214.91 300.894 213.314 303.83 211.654C304.021 211.527 304.213 211.207 304.213 211.016C304.213 210.505 304.149 209.995 304.149 209.42Z" fill="#01C38D"/>
<path d="M257.391 235.562C257.391 235.219 257.471 234.885 257.633 234.562C257.794 234.234 258.021 233.943 258.312 233.688C258.604 233.432 258.951 233.229 259.352 233.078C259.753 232.922 260.193 232.844 260.672 232.844C261.109 232.844 261.516 232.924 261.891 233.086C262.271 233.242 262.602 233.456 262.883 233.727C263.169 233.997 263.391 234.32 263.547 234.695C263.708 235.07 263.789 235.466 263.789 235.883H262.516C262.516 235.315 262.339 234.854 261.984 234.5C261.63 234.141 261.193 233.961 260.672 233.961C260.375 233.961 260.102 234.008 259.852 234.102C259.607 234.19 259.396 234.31 259.219 234.461C259.047 234.607 258.911 234.776 258.812 234.969C258.719 235.161 258.672 235.359 258.672 235.562C258.672 235.979 258.805 236.302 259.07 236.531C259.336 236.76 259.667 236.953 260.062 237.109C260.458 237.26 260.888 237.404 261.352 237.539C261.815 237.669 262.245 237.844 262.641 238.062C263.036 238.281 263.367 238.57 263.633 238.93C263.898 239.284 264.031 239.76 264.031 240.359C264.031 240.724 263.953 241.07 263.797 241.398C263.646 241.721 263.424 242.008 263.133 242.258C262.846 242.508 262.495 242.708 262.078 242.859C261.661 243.005 261.193 243.078 260.672 243.078C260.151 243.078 259.682 243.005 259.266 242.859C258.849 242.708 258.495 242.497 258.203 242.227C257.917 241.951 257.695 241.628 257.539 241.258C257.388 240.883 257.312 240.477 257.312 240.039H258.594C258.594 240.648 258.768 241.122 259.117 241.461C259.471 241.794 259.99 241.961 260.672 241.961C261.354 241.961 261.87 241.807 262.219 241.5C262.573 241.188 262.75 240.807 262.75 240.359C262.75 239.943 262.617 239.62 262.352 239.391C262.086 239.161 261.755 238.971 261.359 238.82C260.964 238.664 260.534 238.521 260.07 238.391C259.607 238.255 259.177 238.078 258.781 237.859C258.391 237.641 258.06 237.354 257.789 237C257.523 236.641 257.391 236.161 257.391 235.562ZM268.117 243H267.156L264.75 235.797H266.031L267.711 240.922L269.312 235.797H270.117L271.711 240.922L273.391 235.797H274.672L272.273 243H271.312L269.711 237.883L268.117 243ZM277.07 243H275.867V235.797H277.07V243ZM275.711 233.766C275.711 233.542 275.781 233.359 275.922 233.219C276.068 233.073 276.247 233 276.461 233C276.685 233 276.867 233.073 277.008 233.219C277.154 233.359 277.227 233.542 277.227 233.766C277.227 233.979 277.154 234.159 277.008 234.305C276.867 234.451 276.685 234.523 276.461 234.523C276.247 234.523 276.068 234.451 275.922 234.305C275.781 234.159 275.711 233.979 275.711 233.766ZM283.867 240.922C283.867 241.219 283.807 241.497 283.688 241.758C283.573 242.018 283.409 242.247 283.195 242.445C282.982 242.643 282.724 242.799 282.422 242.914C282.12 243.023 281.776 243.078 281.391 243.078C280.589 243.078 279.958 242.865 279.5 242.438C279.042 242.01 278.792 241.479 278.75 240.844H279.953C279.995 241.161 280.133 241.427 280.367 241.641C280.602 241.854 280.943 241.961 281.391 241.961C281.797 241.961 282.112 241.857 282.336 241.648C282.56 241.44 282.672 241.198 282.672 240.922C282.672 240.656 282.578 240.456 282.391 240.32C282.203 240.185 281.971 240.078 281.695 240C281.419 239.922 281.117 239.849 280.789 239.781C280.466 239.708 280.164 239.604 279.883 239.469C279.607 239.328 279.375 239.13 279.188 238.875C279 238.615 278.906 238.255 278.906 237.797C278.906 237.521 278.964 237.258 279.078 237.008C279.198 236.758 279.362 236.536 279.57 236.344C279.779 236.151 280.029 236 280.32 235.891C280.617 235.776 280.948 235.719 281.312 235.719C282.078 235.719 282.672 235.919 283.094 236.32C283.516 236.721 283.747 237.242 283.789 237.883H282.586C282.544 237.565 282.422 237.312 282.219 237.125C282.016 236.938 281.714 236.844 281.312 236.844C280.948 236.844 280.656 236.943 280.438 237.141C280.219 237.333 280.109 237.552 280.109 237.797C280.109 238.062 280.203 238.263 280.391 238.398C280.578 238.534 280.81 238.643 281.086 238.727C281.362 238.805 281.661 238.878 281.984 238.945C282.312 239.013 282.615 239.117 282.891 239.258C283.172 239.393 283.404 239.594 283.586 239.859C283.773 240.12 283.867 240.474 283.867 240.922ZM290.18 240.922C290.18 241.219 290.12 241.497 290 241.758C289.885 242.018 289.721 242.247 289.508 242.445C289.294 242.643 289.036 242.799 288.734 242.914C288.432 243.023 288.089 243.078 287.703 243.078C286.901 243.078 286.271 242.865 285.812 242.438C285.354 242.01 285.104 241.479 285.062 240.844H286.266C286.307 241.161 286.445 241.427 286.68 241.641C286.914 241.854 287.255 241.961 287.703 241.961C288.109 241.961 288.424 241.857 288.648 241.648C288.872 241.44 288.984 241.198 288.984 240.922C288.984 240.656 288.891 240.456 288.703 240.32C288.516 240.185 288.284 240.078 288.008 240C287.732 239.922 287.43 239.849 287.102 239.781C286.779 239.708 286.477 239.604 286.195 239.469C285.919 239.328 285.688 239.13 285.5 238.875C285.312 238.615 285.219 238.255 285.219 237.797C285.219 237.521 285.276 237.258 285.391 237.008C285.51 236.758 285.674 236.536 285.883 236.344C286.091 236.151 286.341 236 286.633 235.891C286.93 235.776 287.26 235.719 287.625 235.719C288.391 235.719 288.984 235.919 289.406 236.32C289.828 236.721 290.06 237.242 290.102 237.883H288.898C288.857 237.565 288.734 237.312 288.531 237.125C288.328 236.938 288.026 236.844 287.625 236.844C287.26 236.844 286.969 236.943 286.75 237.141C286.531 237.333 286.422 237.552 286.422 237.797C286.422 238.062 286.516 238.263 286.703 238.398C286.891 238.534 287.122 238.643 287.398 238.727C287.674 238.805 287.974 238.878 288.297 238.945C288.625 239.013 288.927 239.117 289.203 239.258C289.484 239.393 289.716 239.594 289.898 239.859C290.086 240.12 290.18 240.474 290.18 240.922ZM297.531 237.641C297.807 237.781 298.06 237.964 298.289 238.188C298.482 238.38 298.656 238.635 298.812 238.953C298.974 239.271 299.055 239.659 299.055 240.117C299.055 240.492 298.974 240.854 298.812 241.203C298.656 241.547 298.432 241.854 298.141 242.125C297.854 242.391 297.516 242.604 297.125 242.766C296.734 242.922 296.31 243 295.852 243H292.016V232.922H295.773C296.19 232.922 296.573 232.992 296.922 233.133C297.276 233.268 297.581 233.458 297.836 233.703C298.091 233.948 298.292 234.237 298.438 234.57C298.583 234.898 298.656 235.255 298.656 235.641C298.656 236.005 298.596 236.312 298.477 236.562C298.362 236.812 298.234 237.018 298.094 237.18C297.922 237.367 297.734 237.521 297.531 237.641ZM293.297 237.156H295.773C296.008 237.156 296.229 237.115 296.438 237.031C296.646 236.948 296.823 236.836 296.969 236.695C297.12 236.555 297.237 236.396 297.32 236.219C297.409 236.036 297.453 235.844 297.453 235.641C297.453 235.417 297.409 235.208 297.32 235.016C297.237 234.823 297.12 234.656 296.969 234.516C296.823 234.37 296.646 234.255 296.438 234.172C296.229 234.083 296.008 234.039 295.773 234.039H293.297V237.156ZM295.852 241.883C296.419 241.883 296.88 241.706 297.234 241.352C297.594 240.997 297.773 240.56 297.773 240.039C297.773 239.805 297.724 239.581 297.625 239.367C297.531 239.154 297.398 238.969 297.227 238.812C297.06 238.651 296.859 238.523 296.625 238.43C296.391 238.331 296.133 238.281 295.852 238.281H293.297V241.883H295.852ZM301.445 239.398C301.445 239.784 301.503 240.135 301.617 240.453C301.737 240.766 301.898 241.034 302.102 241.258C302.305 241.482 302.536 241.656 302.797 241.781C303.062 241.901 303.333 241.961 303.609 241.961C303.885 241.961 304.154 241.901 304.414 241.781C304.674 241.656 304.904 241.482 305.102 241.258C305.299 241.034 305.458 240.766 305.578 240.453C305.703 240.135 305.766 239.784 305.766 239.398C305.766 239.013 305.703 238.664 305.578 238.352C305.458 238.039 305.299 237.771 305.102 237.547C304.904 237.323 304.674 237.151 304.414 237.031C304.154 236.906 303.885 236.844 303.609 236.844C303.333 236.844 303.062 236.906 302.797 237.031C302.536 237.151 302.305 237.323 302.102 237.547C301.898 237.771 301.737 238.039 301.617 238.352C301.503 238.664 301.445 239.013 301.445 239.398ZM306.969 239.398C306.969 239.94 306.88 240.438 306.703 240.891C306.526 241.339 306.286 241.727 305.984 242.055C305.682 242.378 305.326 242.63 304.914 242.812C304.503 242.99 304.068 243.078 303.609 243.078C303.151 243.078 302.716 242.99 302.305 242.812C301.893 242.63 301.534 242.378 301.227 242.055C300.924 241.727 300.685 241.339 300.508 240.891C300.336 240.443 300.25 239.945 300.25 239.398C300.25 238.857 300.336 238.362 300.508 237.914C300.685 237.466 300.924 237.081 301.227 236.758C301.534 236.43 301.893 236.174 302.305 235.992C302.716 235.81 303.151 235.719 303.609 235.719C304.068 235.719 304.503 235.81 304.914 235.992C305.326 236.174 305.682 236.43 305.984 236.758C306.286 237.081 306.526 237.466 306.703 237.914C306.88 238.362 306.969 238.857 306.969 239.398ZM312.008 236.922H311.688C311.12 236.922 310.659 237.104 310.305 237.469C309.951 237.828 309.773 238.312 309.773 238.922V243H308.57V235.797H309.453L309.773 236.602C309.924 236.44 310.099 236.297 310.297 236.172C310.479 236.052 310.698 235.948 310.953 235.859C311.208 235.766 311.508 235.719 311.852 235.719H312.008V236.922ZM318.172 241.797C318.031 241.979 317.865 242.141 317.672 242.281C317.5 242.401 317.284 242.51 317.023 242.609C316.763 242.708 316.453 242.758 316.094 242.758C315.635 242.758 315.206 242.674 314.805 242.508C314.404 242.336 314.055 242.096 313.758 241.789C313.466 241.477 313.234 241.104 313.062 240.672C312.896 240.24 312.812 239.763 312.812 239.242C312.812 238.721 312.896 238.245 313.062 237.812C313.234 237.375 313.466 237.003 313.758 236.695C314.055 236.388 314.401 236.148 314.797 235.977C315.198 235.805 315.63 235.719 316.094 235.719C316.458 235.719 316.771 235.766 317.031 235.859C317.292 235.948 317.505 236.052 317.672 236.172C317.865 236.302 318.031 236.445 318.172 236.602L318.492 235.797H319.367V242.758C319.367 243.174 319.289 243.562 319.133 243.922C318.982 244.286 318.766 244.602 318.484 244.867C318.208 245.138 317.872 245.346 317.477 245.492C317.086 245.643 316.651 245.719 316.172 245.719C315.755 245.719 315.38 245.661 315.047 245.547C314.719 245.438 314.432 245.284 314.188 245.086C313.943 244.888 313.737 244.659 313.57 244.398C313.404 244.138 313.284 243.859 313.211 243.562H314.406C314.526 243.839 314.719 244.081 314.984 244.289C315.25 244.497 315.646 244.602 316.172 244.602C316.781 244.602 317.266 244.424 317.625 244.07C317.99 243.721 318.172 243.284 318.172 242.758V241.797ZM314.008 239.242C314.008 239.607 314.062 239.935 314.172 240.227C314.286 240.518 314.443 240.768 314.641 240.977C314.839 241.185 315.068 241.349 315.328 241.469C315.589 241.583 315.87 241.641 316.172 241.641C316.469 241.641 316.747 241.583 317.008 241.469C317.268 241.349 317.497 241.185 317.695 240.977C317.893 240.768 318.047 240.518 318.156 240.227C318.271 239.93 318.328 239.602 318.328 239.242C318.328 238.878 318.271 238.549 318.156 238.258C318.047 237.961 317.893 237.711 317.695 237.508C317.497 237.299 317.268 237.138 317.008 237.023C316.747 236.904 316.469 236.844 316.172 236.844C315.875 236.844 315.594 236.904 315.328 237.023C315.068 237.138 314.839 237.299 314.641 237.508C314.443 237.711 314.286 237.961 314.172 238.258C314.062 238.549 314.008 238.878 314.008 239.242Z" fill="#696E79"/>
<path d="M480 133V125C480 119.477 475.523 115 470 115H94C88.4772 115 84 119.477 84 125V133" stroke="#01C38D"/>
<defs>
<linearGradient id="paint0_linear" x1="12094.5" y1="129" x2="12094.5" y2="172.294" gradientUnits="userSpaceOnUse">
<stop stop-color="#01C38D"/>
<stop offset="0.302047" stop-color="#01C38D" stop-opacity="0"/>
</linearGradient>
<linearGradient id="paint1_linear" x1="270017" y1="128.997" x2="270017" y2="172.291" gradientUnits="userSpaceOnUse">
<stop stop-color="#01C38D"/>
<stop offset="0.302047" stop-color="#01C38D" stop-opacity="0"/>
</linearGradient>
<linearGradient id="paint2_linear" x1="269621" y1="128.997" x2="269621" y2="172.291" gradientUnits="userSpaceOnUse">
<stop stop-color="#01C38D"/>
<stop offset="0.302047" stop-color="#01C38D" stop-opacity="0"/>
</linearGradient>
</defs>
</svg>
