<svg width="53" height="53" viewBox="0 0 53 53" fill="none" xmlns="http://www.w3.org/2000/svg">
    <path d="M46.053 15.033V7.707L32.62 0l-4.527 2.462v20.864l2.482 1.495V8.938l9.374 5.333 1.46-.82v-1.143L30.547 6.037v-2.08l1.986-1.232 11.185 6.389v5.949l-5.228 2.871a2.553 2.553 0 0 0-1.168-.293 2.484 2.484 0 0 0-2.482 2.491c0 1.378 1.11 2.491 2.482 2.491a2.485 2.485 0 0 0 2.482-2.49v-.089l5.17-2.96 5.139 2.755v12.953l-5.023 2.843-20.822-11.81V2.462L19.945 0 6.308 7.736v7.122L0 18.49v15.825l6.25 3.428v7.15l13.754 7.737 4.263-2.461V29.334l-2.394-1.377v15.766L12.265 38.3l-1.226.733.029 1.319 10.746 6.124-.058 2.403-1.752 1.055-11.448-6.623v-5.304l5.607-3.223c.35.176.73.293 1.14.293a2.485 2.485 0 0 0 2.482-2.491c0-1.378-1.11-2.491-2.483-2.491a2.484 2.484 0 0 0-2.482 2.49v.03l-5.402 3.077-5.082-2.813V19.986l5.14-3.107 20.792 12.074v21.012l4.352 2.725 13.433-7.737v-7.15l6.454-3.517V18.55l-6.454-3.517zm-24.18 7.59L9.9 15.59l12.002-6.857v13.89h-.03zm0-16.616L8.644 13.568V9.26l11.272-6.535 1.986 1.114v2.168h-.03zm8.673 24.089l12.12 6.945-12.12 6.77V30.095zM43.833 43.43L32.62 49.847l-2.045-1.29v-1.845l13.287-7.649v4.367h-.029z" fill="#01C38D"/>
</svg>
