<svg width="300" height="54" viewBox="0 0 300 54" fill="none" xmlns="http://www.w3.org/2000/svg">
    <g clip-path="url(#a)">
        <path d="M46.053 14.981v-7.3L32.62 0l-4.527 2.453v20.792l2.482 1.49V8.907l9.374 5.315 1.46-.818v-1.139l-10.863-6.25V3.943l1.986-1.226 11.185 6.366v5.928l-5.228 2.862a2.561 2.561 0 0 0-1.168-.292 2.48 2.48 0 0 0-2.482 2.482 2.48 2.48 0 0 0 2.482 2.482 2.48 2.48 0 0 0 2.482-2.482v-.087l5.17-2.95 5.139 2.745v12.908l-5.023 2.833-20.822-11.77V2.454L19.945 0 6.308 7.71v7.096L0 18.426v15.77l6.25 3.417v7.126l13.754 7.71 4.263-2.454V29.232l-2.394-1.373v15.712l-9.608-5.403-1.226.73.029 1.314 10.746 6.104-.058 2.394-1.752 1.051-11.448-6.6v-5.285l5.607-3.212c.35.175.73.292 1.14.292a2.48 2.48 0 0 0 2.482-2.483 2.48 2.48 0 0 0-2.483-2.482 2.48 2.48 0 0 0-2.482 2.483v.029l-5.402 3.066-5.082-2.803v-12.85l5.14-3.095 20.792 12.031v20.939l4.352 2.716 13.433-7.71v-7.125l6.454-3.505V18.485l-6.454-3.504zm-24.18 7.563L9.9 15.537l12.002-6.834v13.842h-.03zm0-16.557L8.644 13.52V9.228l11.272-6.512 1.986 1.11v2.16h-.03zm8.673 24.004l12.12 6.921-12.12 6.746V29.991zM43.833 43.28L32.62 49.674l-2.045-1.285v-1.84l13.287-7.622v4.352h-.029z" fill="#01C38D"/>
        <path d="M65.355 16.792c0-1.431.292-2.775.905-4.06.613-1.284 1.49-2.394 2.628-3.387 1.139-.964 2.54-1.752 4.176-2.336 1.635-.584 3.504-.876 5.607-.876 2.015 0 3.826.292 5.432.876 1.606.584 2.95 1.43 4.088 2.482 1.139 1.051 1.986 2.307 2.6 3.767.612 1.431.904 3.008.904 4.702l-8.293.584c0-1.49-.409-2.658-1.256-3.505-.847-.846-1.986-1.255-3.504-1.255-1.343 0-2.424.38-3.242 1.11-.817.73-1.226 1.547-1.226 2.452 0 .906.467 1.607 1.372 2.074.906.467 2.044.905 3.417 1.343 1.373.409 2.833.847 4.41 1.343a17.236 17.236 0 0 1 4.41 2.015 11 11 0 0 1 3.416 3.446c.905 1.431 1.373 3.271 1.373 5.52 0 1.49-.293 2.92-.906 4.234s-1.518 2.482-2.686 3.475c-1.198.993-2.658 1.782-4.38 2.366-1.753.584-3.71.876-5.929.876-2.132 0-4.06-.292-5.753-.876-1.694-.584-3.125-1.431-4.293-2.512a10.736 10.736 0 0 1-2.657-3.855c-.614-1.489-.906-3.095-.906-4.876l8.294-.584c0 3.358 1.782 5.022 5.344 5.022 1.665 0 2.92-.38 3.767-1.168.847-.759 1.285-1.664 1.285-2.686 0-.935-.467-1.665-1.372-2.19-.905-.526-2.044-.993-3.417-1.431-1.372-.439-2.833-.877-4.41-1.373a18.208 18.208 0 0 1-4.41-1.986 10.713 10.713 0 0 1-3.416-3.358c-.905-1.373-1.373-3.183-1.373-5.373z" fill="#fff"/>
        <path d="M112.869 28.619l-4.731 15.097h-6.804l-9.17-27.246h8.294l4.73 16.003 5.023-16.003h5.344l5.023 16.003 4.731-16.003h8.294l-9.17 27.246h-6.804l-4.76-15.097z" fill="#fff"/>
        <path d="M134.301 9.082c0-1.197.438-2.22 1.343-3.095.905-.877 1.927-1.344 3.096-1.344 1.168 0 2.219.438 3.095 1.344.876.905 1.343 1.927 1.343 3.095 0 1.168-.438 2.22-1.343 3.095-.876.877-1.927 1.344-3.095 1.344-1.169 0-2.22-.438-3.096-1.344-.905-.876-1.343-1.927-1.343-3.095zm8.293 34.635h-8.001V16.47h8.001v27.247z" fill="#fff"/>
        <path d="M153.374 34.839c.146.905.525 1.635 1.138 2.16.585.526 1.402.79 2.424.79s1.84-.234 2.395-.73c.584-.497.847-1.023.847-1.636 0-.467-.351-.847-1.022-1.168a23.558 23.558 0 0 0-2.57-.876c-1.022-.292-2.132-.643-3.358-1.022-1.198-.41-2.307-.906-3.359-1.577a8.305 8.305 0 0 1-2.57-2.57c-.7-1.08-1.022-2.395-1.022-4.03 0-1.11.234-2.161.701-3.183a7.72 7.72 0 0 1 2.044-2.628c.876-.76 1.986-1.344 3.271-1.811 1.285-.467 2.745-.672 4.351-.672 3.563 0 6.25.789 8.119 2.366 1.869 1.577 3.008 3.562 3.446 5.928l-7.71.584c-.146-.584-.526-1.139-1.08-1.636-.555-.496-1.285-.73-2.191-.73-.905 0-1.577.205-2.015.585-.438.408-.642.876-.642 1.489 0 .525.35.905 1.022 1.197.701.263 1.548.555 2.57.847 1.022.292 2.132.643 3.358 1.022 1.197.409 2.307.905 3.358 1.577a8.284 8.284 0 0 1 2.57 2.57c.701 1.08 1.022 2.395 1.022 4.03 0 1.11-.233 2.16-.73 3.212a8.402 8.402 0 0 1-2.161 2.745c-.934.818-2.102 1.46-3.475 1.928-1.372.467-2.891.7-4.585.7-3.708 0-6.512-.817-8.381-2.423-1.869-1.607-3.037-3.768-3.475-6.454l7.71-.584z" fill="#fff"/>
        <path d="M177.493 34.839c.146.905.525 1.635 1.139 2.16.584.526 1.401.79 2.424.79 1.022 0 1.839-.234 2.394-.73.584-.497.847-1.023.847-1.636 0-.467-.35-.847-1.022-1.168a23.558 23.558 0 0 0-2.57-.876c-1.022-.292-2.132-.643-3.358-1.022-1.198-.41-2.307-.906-3.359-1.577a8.291 8.291 0 0 1-2.569-2.57c-.701-1.08-1.022-2.395-1.022-4.03 0-1.11.233-2.161.7-3.183.468-1.022 1.169-1.898 2.045-2.628.876-.76 1.985-1.344 3.27-1.811 1.285-.467 2.745-.672 4.352-.672 3.562 0 6.249.789 8.118 2.366 1.869 1.577 3.008 3.562 3.446 5.928l-7.71.584c-.146-.584-.525-1.139-1.08-1.636-.555-.496-1.285-.73-2.19-.73-.906 0-1.577.205-2.015.585-.438.408-.643.876-.643 1.489 0 .525.351.905 1.022 1.197.701.263 1.548.555 2.57.847 1.022.292 2.132.643 3.358 1.022 1.198.409 2.307.905 3.359 1.577a8.305 8.305 0 0 1 2.57 2.57c.7 1.08 1.051 2.395 1.051 4.03 0 1.11-.234 2.16-.73 3.212a8.428 8.428 0 0 1-2.161 2.745c-.935.818-2.103 1.46-3.475 1.928-1.373.467-2.891.7-4.585.7-3.709 0-6.512-.817-8.381-2.423-1.869-1.607-3.037-3.768-3.476-6.454l7.681-.584z" fill="#fff"/>
        <path d="M218.787 23.888a10.99 10.99 0 0 1 2.949 2.015c.76.7 1.431 1.606 2.045 2.716.613 1.11.905 2.482.905 4.147 0 1.489-.292 2.92-.876 4.234a10.482 10.482 0 0 1-2.512 3.475c-1.08.993-2.365 1.781-3.854 2.365-1.49.584-3.096.877-4.877.877h-16.879V6.425h16.003c1.693 0 3.27.262 4.672.817a11.486 11.486 0 0 1 3.65 2.249 9.79 9.79 0 0 1 2.366 3.3c.584 1.255.847 2.57.847 4 0 1.256-.234 2.337-.701 3.271-.467.905-.993 1.636-1.548 2.19a10.722 10.722 0 0 1-2.19 1.636zm-14.514-2.658h6.512c1.198 0 2.161-.38 2.95-1.168.788-.759 1.197-1.664 1.197-2.686 0-1.023-.409-1.928-1.197-2.687-.789-.76-1.782-1.168-2.95-1.168h-6.512v7.71zm7.388 15.39c1.344 0 2.453-.438 3.388-1.343.905-.876 1.372-1.928 1.372-3.096 0-1.197-.467-2.219-1.372-3.095-.905-.876-2.044-1.343-3.388-1.343h-7.417v8.877h7.417z" fill="#fff"/>
        <path d="M225.996 30.108c0-2.015.351-3.884 1.11-5.607a14.397 14.397 0 0 1 2.978-4.497c1.256-1.285 2.746-2.278 4.41-3.008 1.665-.73 3.475-1.11 5.432-1.11 1.927 0 3.738.38 5.432 1.11a14.422 14.422 0 0 1 4.409 3.008 14.382 14.382 0 0 1 2.979 4.497c.73 1.723 1.11 3.592 1.11 5.607s-.38 3.884-1.11 5.607a14.38 14.38 0 0 1-2.979 4.497c-1.256 1.285-2.745 2.278-4.409 3.008-1.665.73-3.476 1.11-5.432 1.11-1.928 0-3.738-.38-5.432-1.11-1.664-.73-3.154-1.723-4.41-3.008a14.395 14.395 0 0 1-2.978-4.497c-.73-1.723-1.11-3.592-1.11-5.607zm19.858 0c0-2.103-.584-3.738-1.723-4.965-1.139-1.226-2.541-1.84-4.205-1.84-1.665 0-3.066.614-4.205 1.84-1.139 1.227-1.723 2.892-1.723 4.965 0 2.103.584 3.738 1.723 4.964 1.139 1.227 2.54 1.84 4.205 1.84 1.664 0 3.066-.613 4.205-1.84 1.139-1.226 1.723-2.861 1.723-4.964z" fill="#fff"/>
        <path d="M269.948 16.178c.351 0 .672.03.964.059.292.029.555.087.73.117.234.029.467.087.642.116v8.294c-.233-.088-.525-.175-.817-.292a6.449 6.449 0 0 0-.935-.205 7.417 7.417 0 0 0-1.197-.087c-1.489 0-2.716.496-3.65 1.49-.935.992-1.402 2.365-1.402 4.146v13.93h-8.002V16.47h5.958l1.197 2.95a8.25 8.25 0 0 1 1.723-1.606c.555-.438 1.226-.818 2.044-1.169a8.071 8.071 0 0 1 2.745-.467z" fill="#fff"/>
        <path d="M285.165 16.178c1.198 0 2.249.146 3.213.467.934.322 1.752.643 2.423.993.76.438 1.431.935 2.074 1.49l1.197-2.658H300v24.881c0 1.781-.321 3.417-.963 4.935a11.7 11.7 0 0 1-2.745 3.943c-1.198 1.11-2.629 1.986-4.293 2.599-1.665.642-3.534.934-5.607.934-2.541 0-4.614-.467-6.25-1.43-1.635-.935-2.92-1.986-3.884-3.155a14.098 14.098 0 0 1-2.599-4.614l8.002-.584c.234.526.584.964.993 1.373.35.321.847.613 1.46.876s1.373.409 2.278.409c1.664 0 3.008-.526 4.059-1.548 1.051-1.022 1.577-2.278 1.577-3.796v-1.49c-.438.438-.993.818-1.665 1.198-.554.32-1.255.584-2.102.817-.847.234-1.869.35-3.037.35-1.694 0-3.3-.32-4.819-.992a12.567 12.567 0 0 1-3.971-2.745c-1.139-1.168-2.015-2.54-2.658-4.118-.642-1.577-.964-3.3-.964-5.14 0-1.868.322-3.562.964-5.14a13.151 13.151 0 0 1 2.658-4.117 12.567 12.567 0 0 1 3.971-2.745 11.774 11.774 0 0 1 4.76-.993zm-4.439 13.025c0 1.664.526 3.008 1.577 4.059 1.052 1.051 2.395 1.577 4.06 1.577 1.664 0 3.007-.526 4.059-1.577 1.051-1.051 1.577-2.395 1.577-4.06 0-1.664-.526-3.007-1.577-4.059-1.052-1.05-2.395-1.576-4.059-1.576-1.665 0-3.008.525-4.06 1.576-1.051 1.052-1.577 2.424-1.577 4.06z" fill="#fff"/>
    </g>
    <defs>
        <clipPath id="a">
            <path fill="#fff" d="M0 0h300v53.791H0z"/>
        </clipPath>
    </defs>
</svg>
