<svg width="300" height="54" viewBox="0 0 300 54" fill="none" xmlns="http://www.w3.org/2000/svg">
    <g clip-path="url(#a)">
        <path d="M46.053 15.033V7.707L32.62 0l-4.527 2.462v20.864l2.482 1.495V8.938l9.374 5.333 1.46-.82v-1.143L30.547 6.037v-2.08l1.986-1.232 11.185 6.389v5.949l-5.228 2.871a2.553 2.553 0 0 0-1.168-.293 2.484 2.484 0 0 0-2.482 2.491c0 1.378 1.11 2.491 2.482 2.491a2.485 2.485 0 0 0 2.482-2.49v-.089l5.17-2.96 5.139 2.755v12.953l-5.023 2.843-20.822-11.81V2.462L19.945 0 6.308 7.736v7.122L0 18.49v15.825l6.25 3.428v7.15l13.754 7.737 4.263-2.461V29.334l-2.394-1.377v15.766L12.265 38.3l-1.226.733.029 1.319 10.746 6.124-.058 2.403-1.752 1.055-11.448-6.623v-5.304l5.607-3.223c.35.176.73.293 1.14.293a2.485 2.485 0 0 0 2.482-2.491c0-1.378-1.11-2.491-2.483-2.491a2.484 2.484 0 0 0-2.482 2.49v.03l-5.402 3.077-5.082-2.813V19.986l5.14-3.107 20.792 12.074v21.012l4.352 2.725 13.433-7.737v-7.15l6.454-3.517V18.55l-6.454-3.517zm-24.18 7.59L9.9 15.59l12.002-6.857v13.89h-.03zm0-16.616L8.644 13.568V9.26l11.272-6.535 1.986 1.114v2.168h-.03zm8.673 24.089l12.12 6.945-12.12 6.77V30.095zM43.833 43.43L32.62 49.847l-2.045-1.29v-1.845l13.287-7.649v4.367h-.029z" fill="#01C38D"/>
        <path d="M65.355 16.85c0-1.436.292-2.784.905-4.073.613-1.29 1.49-2.403 2.628-3.4 1.139-.967 2.54-1.758 4.176-2.344 1.635-.586 3.504-.88 5.607-.88 2.015 0 3.826.294 5.432.88a11.985 11.985 0 0 1 4.088 2.491c1.139 1.055 1.986 2.315 2.6 3.78.612 1.436.904 3.019.904 4.718l-8.293.586c0-1.494-.409-2.666-1.256-3.516-.847-.85-1.986-1.26-3.504-1.26-1.343 0-2.424.38-3.242 1.113-.817.733-1.226 1.553-1.226 2.462 0 .908.467 1.612 1.372 2.08.906.47 2.044.909 3.417 1.349 1.373.41 2.833.85 4.41 1.348a17.211 17.211 0 0 1 4.41 2.022 11.02 11.02 0 0 1 3.416 3.458c.905 1.435 1.373 3.282 1.373 5.538 0 1.495-.293 2.93-.906 4.25-.613 1.318-1.518 2.49-2.686 3.487-1.198.996-2.658 1.787-4.38 2.373-1.753.586-3.71.88-5.929.88-2.132 0-4.06-.294-5.753-.88-1.694-.586-3.125-1.436-4.293-2.52-1.168-1.084-2.044-2.374-2.657-3.868-.614-1.495-.906-3.106-.906-4.894l8.294-.586c0 3.37 1.782 5.04 5.344 5.04 1.665 0 2.92-.38 3.767-1.172.847-.762 1.285-1.67 1.285-2.696 0-.938-.467-1.67-1.372-2.198-.905-.527-2.044-.996-3.417-1.436-1.372-.44-2.833-.879-4.41-1.377a18.175 18.175 0 0 1-4.41-1.993 10.73 10.73 0 0 1-3.416-3.37c-.905-1.377-1.373-3.194-1.373-5.392z" fill="#132D46"/>
        <path d="M112.865 28.719l-4.731 15.15h-6.804l-9.17-27.341h8.294l4.731 16.059 5.022-16.06h5.345l5.022 16.06 4.731-16.06h8.294l-9.17 27.342h-6.804l-4.76-15.15z" fill="#132D46"/>
        <path d="M134.301 9.114c0-1.202.438-2.227 1.343-3.107.905-.879 1.927-1.348 3.096-1.348 1.168 0 2.219.44 3.095 1.348.876.909 1.343 1.935 1.343 3.107 0 1.172-.438 2.227-1.343 3.106-.876.88-1.927 1.348-3.095 1.348-1.169 0-2.22-.44-3.096-1.348-.905-.88-1.343-1.934-1.343-3.106zm8.293 34.755h-8.001V16.528h8.001v27.341z" fill="#132D46"/>
        <path d="M153.374 34.96c.146.909.525 1.642 1.138 2.17.585.526 1.402.79 2.424.79s1.84-.234 2.395-.732c.584-.498.847-1.026.847-1.641 0-.47-.351-.85-1.022-1.173a23.524 23.524 0 0 0-2.57-.879c-1.022-.293-2.132-.644-3.358-1.025-1.198-.41-2.307-.909-3.359-1.583a8.32 8.32 0 0 1-2.57-2.579c-.7-1.084-1.022-2.403-1.022-4.044 0-1.113.234-2.168.701-3.194a7.744 7.744 0 0 1 2.044-2.637c.876-.762 1.986-1.348 3.271-1.817 1.285-.47 2.745-.674 4.351-.674 3.563 0 6.25.791 8.119 2.373 1.869 1.583 3.008 3.576 3.446 5.95l-7.71.585c-.146-.586-.526-1.143-1.08-1.64-.555-.499-1.285-.733-2.191-.733-.905 0-1.577.205-2.015.586-.438.41-.642.879-.642 1.494 0 .528.35.909 1.022 1.202.701.264 1.548.557 2.57.85 1.022.293 2.132.644 3.358 1.025 1.197.41 2.307.909 3.358 1.583a8.298 8.298 0 0 1 2.57 2.579c.701 1.084 1.022 2.403 1.022 4.044a7.41 7.41 0 0 1-.73 3.223 8.426 8.426 0 0 1-2.161 2.755c-.934.82-2.102 1.465-3.475 1.934-1.372.469-2.891.703-4.585.703-3.708 0-6.512-.82-8.381-2.432-1.869-1.612-3.037-3.78-3.475-6.476l7.71-.586z" fill="#132D46"/>
        <path d="M177.493 34.96c.146.909.525 1.642 1.139 2.17.584.526 1.401.79 2.424.79 1.022 0 1.839-.234 2.394-.732.584-.498.847-1.026.847-1.641 0-.47-.35-.85-1.022-1.173a23.524 23.524 0 0 0-2.57-.879c-1.022-.293-2.132-.644-3.358-1.025-1.198-.41-2.307-.909-3.359-1.583a8.306 8.306 0 0 1-2.569-2.579c-.701-1.084-1.022-2.403-1.022-4.044 0-1.113.233-2.168.7-3.194.468-1.026 1.169-1.905 2.045-2.637.876-.762 1.985-1.348 3.27-1.817 1.285-.47 2.745-.674 4.352-.674 3.562 0 6.249.791 8.118 2.373 1.869 1.583 3.008 3.576 3.446 5.95l-7.71.585c-.146-.586-.525-1.143-1.08-1.64-.555-.499-1.285-.733-2.19-.733-.906 0-1.577.205-2.015.586-.438.41-.643.879-.643 1.494 0 .528.351.909 1.022 1.202.701.264 1.548.557 2.57.85 1.022.293 2.132.644 3.358 1.025 1.198.41 2.307.909 3.359 1.583a8.32 8.32 0 0 1 2.57 2.579c.7 1.084 1.051 2.403 1.051 4.044a7.423 7.423 0 0 1-.73 3.223 8.453 8.453 0 0 1-2.161 2.755c-.935.82-2.103 1.465-3.475 1.934-1.373.469-2.891.703-4.585.703-3.709 0-6.512-.82-8.381-2.432-1.869-1.612-3.037-3.78-3.476-6.476l7.681-.586z" fill="#132D46"/>
        <path d="M218.787 23.971a10.989 10.989 0 0 1 2.949 2.022c.76.704 1.431 1.612 2.045 2.726.613 1.113.905 2.49.905 4.16 0 1.495-.292 2.931-.876 4.25a10.517 10.517 0 0 1-2.512 3.487c-1.08.997-2.365 1.788-3.854 2.374-1.49.586-3.096.88-4.877.88h-16.879V6.446h16.003c1.693 0 3.27.264 4.672.82a11.48 11.48 0 0 1 3.65 2.257 9.824 9.824 0 0 1 2.366 3.311c.584 1.26.847 2.58.847 4.015 0 1.26-.234 2.345-.701 3.282-.467.909-.993 1.641-1.548 2.198a10.722 10.722 0 0 1-2.19 1.641zm-14.514-2.666h6.512c1.198 0 2.161-.381 2.95-1.173.788-.762 1.197-1.67 1.197-2.696 0-1.025-.409-1.934-1.197-2.696-.789-.762-1.782-1.172-2.95-1.172h-6.512v7.737zm7.388 15.443c1.344 0 2.453-.44 3.388-1.348.905-.88 1.372-1.934 1.372-3.106 0-1.202-.467-2.227-1.372-3.106-.905-.88-2.044-1.349-3.388-1.349h-7.417v8.91h7.417z" fill="#132D46"/>
        <path d="M225.996 30.213c0-2.022.351-3.897 1.11-5.626a14.45 14.45 0 0 1 2.978-4.513c1.256-1.29 2.746-2.286 4.41-3.019 1.665-.732 3.475-1.113 5.432-1.113 1.927 0 3.738.38 5.432 1.113a14.419 14.419 0 0 1 4.409 3.019 14.436 14.436 0 0 1 2.979 4.513c.73 1.729 1.109 3.604 1.109 5.626 0 2.022-.379 3.898-1.109 5.627a14.437 14.437 0 0 1-2.979 4.513c-1.256 1.289-2.745 2.285-4.409 3.018-1.665.733-3.476 1.113-5.432 1.113-1.928 0-3.738-.38-5.432-1.113-1.664-.733-3.154-1.729-4.41-3.018a14.451 14.451 0 0 1-2.978-4.513c-.73-1.73-1.11-3.605-1.11-5.627zm19.858 0c0-2.11-.584-3.75-1.723-4.982-1.139-1.23-2.541-1.846-4.205-1.846-1.665 0-3.066.616-4.205 1.846-1.139 1.231-1.723 2.901-1.723 4.982 0 2.11.584 3.751 1.723 4.982 1.139 1.23 2.54 1.846 4.205 1.846 1.664 0 3.066-.615 4.205-1.846 1.139-1.23 1.723-2.872 1.723-4.982z" fill="#132D46"/>
        <path d="M269.948 16.235c.351 0 .672.029.964.058.292.03.555.088.73.118.234.029.467.087.642.117v8.322c-.233-.088-.525-.176-.817-.293a6.417 6.417 0 0 0-.935-.205 7.392 7.392 0 0 0-1.197-.088c-1.489 0-2.716.498-3.65 1.495-.935.996-1.402 2.373-1.402 4.161v13.978h-8.002v-27.37h5.958l1.197 2.96a8.262 8.262 0 0 1 1.723-1.612c.555-.44 1.226-.82 2.044-1.172a8.046 8.046 0 0 1 2.745-.47z" fill="#132D46"/>
        <path d="M285.165 16.235c1.198 0 2.249.146 3.213.469.934.322 1.752.644 2.423.996.76.44 1.431.938 2.074 1.495l1.197-2.667H300v24.967c0 1.788-.321 3.429-.963 4.953a11.743 11.743 0 0 1-2.745 3.956c-1.198 1.114-2.629 1.993-4.293 2.608-1.665.645-3.534.938-5.607.938-2.541 0-4.614-.469-6.25-1.436-1.635-.938-2.92-1.993-3.884-3.165a14.16 14.16 0 0 1-2.599-4.63l8.002-.586c.234.527.584.967.993 1.377.35.323.847.616 1.46.88.613.263 1.373.41 2.278.41 1.664 0 3.008-.528 4.059-1.554 1.051-1.025 1.577-2.285 1.577-3.81v-1.494c-.438.44-.993.82-1.665 1.202-.554.322-1.255.586-2.102.82-.847.235-1.869.352-3.037.352-1.694 0-3.3-.322-4.819-.996a12.568 12.568 0 0 1-3.971-2.755c-1.139-1.172-2.015-2.55-2.658-4.132-.642-1.583-.964-3.311-.964-5.158 0-1.875.322-3.575.964-5.157a13.203 13.203 0 0 1 2.658-4.132 12.568 12.568 0 0 1 3.971-2.755 11.74 11.74 0 0 1 4.76-.996zm-4.439 13.07c0 1.67.526 3.018 1.577 4.073 1.052 1.055 2.395 1.582 4.06 1.582 1.664 0 3.008-.527 4.059-1.582 1.051-1.055 1.577-2.403 1.577-4.073 0-1.67-.526-3.019-1.577-4.074-1.051-1.055-2.395-1.582-4.059-1.582-1.665 0-3.008.527-4.06 1.582-1.051 1.055-1.577 2.433-1.577 4.074z" fill="#132D46"/>
    </g>
    <defs>
        <clipPath id="a">
            <path fill="#fff" d="M0 0h300v53.979H0z"/>
        </clipPath>
    </defs>
</svg>
