<svg width="307" height="608" viewBox="0 0 307 608" fill="none" xmlns="http://www.w3.org/2000/svg">
    <rect x="4.002" y="1" width="298" height="606" rx="45" stroke="#2D95FF" stroke-width="2"/>
    <path fill="#FDFDFD" d="M20.002 16.944h266v48.839h-266z"/>
    <path d="M21.002 46.944c0-16.016 12.984-29 29-29h24.017a4.983 4.983 0 0 1 4.983 4.983v4.986c0 6.06 4.912 10.973 10.972 10.973H216.03c6.06 0 10.972-4.913 10.972-10.973v-4.986a4.983 4.983 0 0 1 4.983-4.983h24.017c16.016 0 29 12.984 29 29v514.112c0 16.016-12.984 29-29 29h-206c-16.016 0-29-12.984-29-29V46.944z" stroke="#2D95FF" stroke-width="2"/>
    <path d="M4.002 102.533a4.002 4.002 0 0 1-3-3.874V83.741a4.002 4.002 0 0 1 3-3.874v22.666z" stroke="#2D95FF" stroke-width="2"/>
    <path d="M4.002 166.323a4.002 4.002 0 0 1-3-3.874V126.6a4.002 4.002 0 0 1 3-3.874v43.597z" stroke="#2D95FF" stroke-width="2"/>
    <path d="M4.002 222.14a4.002 4.002 0 0 1-3-3.874v-35.85a4.003 4.003 0 0 1 3-3.874v43.598z" stroke="#2D95FF" stroke-width="2"/>
    <path d="M302.059 138.674c1.725.444 3 2.01 3 3.874v59.77a4.002 4.002 0 0 1-3 3.874v-67.518z" stroke="#2D95FF" stroke-width="2"/>
</svg>
