<svg width="265" height="159" viewBox="0 0 265 159" fill="none" xmlns="http://www.w3.org/2000/svg">
    <path fill="url(#a)" d="M.002 0h264v159h-264z"/>
    <mask id="c" maskUnits="userSpaceOnUse" x="0" y="0" width="265" height="159">
        <path fill="url(#b)" d="M.002 0h264v159h-264z"/>
    </mask>
    <g mask="url(#c)">
        <path d="M435.002-20.5a.5.5 0 0 1 .5.5v706a.5.5 0 0 1-.5.5H-1005a.49.49 0 0 1-.35-.147.476.476 0 0 1-.15-.353V421c0-.155.07-.302.2-.396a.493.493 0 0 1 .43-.088c4.86 1.279 8.857 1.147 12.363.241 3.515-.909 6.562-2.6 9.521-4.479a167.28 167.28 0 0 0 2.467-1.606c5.028-3.313 10.124-6.672 17.021-6.672 6.331 0 10.924 1.443 14.503 3.71 3.571 2.261 6.096 5.318 8.325 8.479.701.994 1.372 1.995 2.035 2.985 3.592 5.358 6.973 10.402 13.775 12.345 5.398 1.543 9.176 5.077 12.159 9.449 2.639 3.867 4.68 8.428 6.675 12.885.253.566.505 1.131.758 1.691 2.258 5.007 4.545 9.751 7.671 13.248 3.103 3.471 7.027 5.708 12.599 5.708 11.56 0 16.658 7.957 21.321 15.916l.588 1.006c4.486 7.686 8.785 15.05 18.146 16.081 8.091.891 13.782-2.751 19.626-6.731l.657-.449c5.616-3.833 11.463-7.823 19.662-7.823 2.674 0 4.439-1.261 5.774-3.219 1.358-1.992 2.245-4.668 3.125-7.433l.127-.401c.826-2.6 1.667-5.25 2.924-7.273 1.342-2.16 3.2-3.674 6.05-3.674 5.401 0 8.897 2.062 12.059 4.202.325.22.646.441.965.66 2.787 1.913 5.387 3.698 9.036 4.142 4.946.6 8.16-.934 10.702-3.569 2.174-2.254 3.85-5.301 5.662-8.595.345-.627.695-1.263 1.054-1.903 2.226-3.975 4.787-8.095 8.71-11.214 3.938-3.13 9.21-5.223 16.812-5.223 7.385 0 12.458-2.211 16.365-5.507 3.929-3.315 6.703-7.745 9.458-12.254l.299-.489c2.64-4.324 5.305-8.688 8.981-11.997 3.841-3.456 8.772-5.753 15.897-5.753 7.07 0 12.648 1.358 17.616 3.866 4.959 2.504 9.284 6.14 13.86 10.653 2.412 2.379 4.896 5.003 7.583 7.842 7.523 7.947 16.64 17.579 30.249 28.245 9.183 7.198 17.201 9.831 24.377 9.792 7.184-.038 13.592-2.754 19.555-6.388 2.981-1.816 5.841-3.856 8.628-5.899.608-.445 1.212-.89 1.813-1.334 2.153-1.587 4.267-3.145 6.351-4.558 5.319-3.606 10.556-6.345 15.972-6.219 30.183-.126 48.29-6.6 59.625-16.305 11.337-9.707 15.984-22.714 19.096-36.11.778-3.348 1.458-6.715 2.125-10.06l.219-1.1c.591-2.971 1.177-5.92 1.816-8.808 1.435-6.488 3.141-12.701 5.777-18.234 2.639-5.539 6.215-10.404 11.393-14.189 5.176-3.785 11.925-6.469 20.877-7.689 16.388-2.235 27.235-8.744 35.082-17.235 7.863-8.508 12.734-19.029 17.126-29.341.49-1.151.975-2.3 1.457-3.444 3.822-9.067 7.499-17.79 12.78-24.467 5.981-7.564 14.025-12.518 26.623-12.518 24.804 0 43.332 3.696 58.338 7.437 3.352.835 6.522 1.671 9.544 2.467 10.534 2.777 19.255 5.076 27.539 5.221 10.59.185 20.465-3.161 32.399-13.734 11.958-10.593 25.957-28.42 44.762-57.165 8.8-13.452 18.749-21.205 29.12-25.839 10.36-4.628 21.116-6.134 31.5-7.135 1.843-.177 3.673-.339 5.487-.5 18.697-1.655 35.647-3.155 46.896-20.029 12.522-18.784 23.327-29.234 34.054-34.976 10.735-5.746 21.335-6.747 33.361-6.747 12.17 0 20.206 5.464 27.857 10.841l.514.361C77.851 118.961 85.015 124 95.502 124c15.903 0 24.353-8.708 32.566-17.172.565-.582 1.129-1.163 1.694-1.74 4.376-4.469 8.843-8.705 14.471-11.209 5.651-2.513 12.428-3.263 21.398-.862 8.767 2.346 14.533 1.03 18.692-2.156 4.198-3.217 6.844-8.4 9.219-13.994.506-1.193 1-2.405 1.495-3.618 1.806-4.43 3.619-8.876 6.052-12.445 3.128-4.589 7.33-7.804 13.913-7.804 8.585 0 15.285-4.108 21.117-10.065 4.794-4.895 8.961-10.996 13.087-17.037a613.227 613.227 0 0 1 2.724-3.965c5.022-7.226 10.18-13.965 16.475-17.695 3.161-1.873 6.612-2.992 10.476-3.037 3.86-.046 8.102.98 12.845 3.352 5.596 2.798 11.154.683 16.967-4.349 5.812-5.032 11.717-12.85 17.916-21.098l.261-.347c6.103-8.12 12.482-16.609 19.279-23.093 6.889-6.573 14.288-11.166 22.353-11.166 7.977 0 13.487 2.222 17.926 5.57 3.725 2.81 6.691 6.413 9.713 10.084.555.674 1.111 1.351 1.675 2.025 3.649 4.365 7.619 8.682 13.328 11.917 5.704 3.232 13.18 5.404 23.858 5.404z" fill="url(#d)" stroke="#2D95FF" stroke-linecap="round" stroke-linejoin="round"/>
    </g>
    <defs>
        <linearGradient id="a" x1="132.002" x2="132.002" y2="159" gradientUnits="userSpaceOnUse">
            <stop stop-color="#FBFDFD"/>
            <stop offset="1" stop-color="#EFF8F7"/>
        </linearGradient>
        <linearGradient id="b" x1="132.002" y1="97" x2="132.002" y2="165.5" gradientUnits="userSpaceOnUse">
            <stop stop-color="#fff"/>
            <stop offset=".713" stop-color="#FBFDFD" stop-opacity="0"/>
        </linearGradient>
        <linearGradient id="d" x1="-285.001" y1="-55" x2="-285.001" y2="1476.09" gradientUnits="userSpaceOnUse">
            <stop stop-color="#0057AF" stop-opacity=".08"/>
            <stop offset="1" stop-color="#152C5D" stop-opacity="0"/>
        </linearGradient>
    </defs>
</svg>
