<svg id="Layer_1" xmlns="http://www.w3.org/2000/svg" viewBox="0 0 32 32">
    <style>
        .st0{fill:#fff}.st1{fill:#ff4501}
    </style>
    <path class="st0" d="M8.5.9h15.1c4.2 0 7.5 3.4 7.5 7.5v15.1c0 4.2-3.4 7.5-7.5 7.5H8.5C4.3 31 1 27.6 1 23.5v-15C.9 4.3 4.3.9 8.5.9z"/>
    <path class="st1" d="M19.2 20.8c.1.1.1.3 0 .4-.7.7-1.7 1-3.2 1-1.5 0-2.5-.3-3.2-1-.1-.1-.1-.3 0-.4.1-.1.3-.1.4 0 .5.5 1.4.8 2.7.8 1.3 0 2.2-.3 2.7-.8.3-.2.5-.2.6 0zm-4.9-3.5c0-.7-.6-1.3-1.3-1.3-.7 0-1.3.6-1.3 1.3 0 .7.6 1.3 1.3 1.3.7 0 1.3-.6 1.3-1.3zM32 16c0 14.9-1.1 16-16 16S0 30.9 0 16 1.1 0 16 0s16 1.1 16 16zm-6-.2c0-1.2-1-2.2-2.2-2.2-.6 0-1.1.2-1.5.6-1.5-1-3.5-1.6-5.8-1.7l1.2-3.9 3.3.8c0 1 .8 1.8 1.8 1.8s1.8-.8 1.8-1.8-.8-1.8-1.8-1.8c-.8 0-1.4.5-1.7 1.1L17.5 8c-.2 0-.3.1-.4.2l-1.4 4.3c-2.4 0-4.5.7-6.1 1.7-.4-.4-.9-.6-1.5-.6-1.2 0-2.2 1-2.2 2.2 0 .8.4 1.5 1.1 1.9 0 .2-.1.5-.1.7 0 3.2 4 5.9 8.9 5.9s8.9-2.6 8.9-5.9c0-.2 0-.5-.1-.7.9-.3 1.4-1 1.4-1.9zm-7 .2c-.7 0-1.3.6-1.3 1.3 0 .7.6 1.3 1.3 1.3.7 0 1.3-.6 1.3-1.3 0-.7-.5-1.3-1.3-1.3z"/>
</svg>
