<?xml version="1.0" encoding="UTF-8"?><!DOCTYPE svg PUBLIC "-//W3C//DTD SVG 1.1//EN" "http://www.w3.org/Graphics/SVG/1.1/DTD/svg11.dtd"><svg xmlns="http://www.w3.org/2000/svg"><defs>
        <filter id="Adobe_OpacityMaskFilter" filterUnits="userSpaceOnUse" x="-248.2" y="396.8" width="22.5" height="22.4">
            <feColorMatrix values="1 0 0 0 0 0 1 0 0 0 0 0 1 0 0 0 0 0 1 0"/>
        </filter>
    </defs><symbol id="icon-app-store" viewBox="0 0 110 26">
    <path d="M18.164 13.495a5.723 5.723 0 0 1 .759-2.773 5.793 5.793 0 0 1 2.014-2.066A5.942 5.942 0 0 0 18.89 6.85a6.007 6.007 0 0 0-2.648-.707c-1.976-.206-3.892 1.17-4.899 1.17-1.026 0-2.576-1.15-4.246-1.116a6.3 6.3 0 0 0-3.055.903 6.221 6.221 0 0 0-2.208 2.276c-2.276 3.902-.579 9.636 1.601 12.79 1.091 1.544 2.366 3.27 4.034 3.209 1.632-.067 2.242-1.031 4.212-1.031 1.952 0 2.524 1.03 4.225.992 1.752-.029 2.855-1.552 3.908-3.11A12.72 12.72 0 0 0 21.6 18.62a5.615 5.615 0 0 1-2.497-2.051 5.534 5.534 0 0 1-.939-3.075z"/>
    <path d="M14.953 4.068A5.641 5.641 0 0 0 16.265 0a5.852 5.852 0 0 0-3.775 1.934 5.355 5.355 0 0 0-1.346 3.917c.73.007 1.452-.15 2.112-.458a4.815 4.815 0 0 0 1.697-1.325z"/>
    <path d="M37.893 16.748h-5.027l-1.207 3.53h-2.13l4.762-13.06h2.213l4.761 13.06H39.1l-1.207-3.53zm-4.506-1.629h3.985L35.407 9.39h-.055l-1.965 5.73z"/>
    <path d="M51.55 15.518c0 2.96-1.6 4.86-4.013 4.86a3.286 3.286 0 0 1-1.754-.402 3.243 3.243 0 0 1-1.271-1.264h-.046v4.717h-1.974V10.756h1.91v1.584h.037a3.395 3.395 0 0 1 1.296-1.26 3.437 3.437 0 0 1 1.766-.423c2.44 0 4.05 1.91 4.05 4.861zm-2.029 0c0-1.928-1.006-3.195-2.54-3.195-1.509 0-2.523 1.294-2.523 3.195 0 1.919 1.014 3.204 2.522 3.204 1.535 0 2.541-1.259 2.541-3.204z"/>
    <path d="M62.134 15.518c0 2.96-1.6 4.86-4.013 4.86a3.286 3.286 0 0 1-1.754-.402 3.243 3.243 0 0 1-1.271-1.264h-.046v4.717h-1.974V10.756h1.91v1.584h.037a3.395 3.395 0 0 1 1.296-1.26 3.437 3.437 0 0 1 1.766-.423c2.44 0 4.05 1.91 4.05 4.861zm-2.029 0c0-1.928-1.006-3.195-2.54-3.195-1.509 0-2.523 1.294-2.523 3.195 0 1.919 1.014 3.204 2.522 3.204 1.535 0 2.541-1.259 2.541-3.204z"/>
    <path d="M69.128 16.64c.146 1.295 1.417 2.145 3.153 2.145 1.664 0 2.86-.85 2.86-2.018 0-1.014-.721-1.62-2.43-2.037L71 14.322c-2.422-.579-3.546-1.7-3.546-3.52 0-2.254 1.983-3.802 4.8-3.802 2.786 0 4.697 1.548 4.761 3.801h-1.993c-.119-1.303-1.207-2.09-2.797-2.09s-2.678.796-2.678 1.955c0 .923.695 1.466 2.395 1.883l1.453.353c2.706.634 3.83 1.71 3.83 3.62 0 2.444-1.965 3.974-5.091 3.974-2.925 0-4.9-1.494-5.028-3.856h2.02z"/>
    <path d="M81.49 8.503v2.253h1.83v1.548h-1.83v5.25c0 .815.367 1.195 1.17 1.195.218-.003.434-.019.65-.045v1.539a5.468 5.468 0 0 1-1.096.09c-1.947 0-2.707-.724-2.707-2.57v-5.459H78.11v-1.548h1.398V8.503h1.984z"/>
    <path d="M84.373 15.518c0-2.996 1.782-4.879 4.56-4.879 2.789 0 4.562 1.883 4.562 4.879 0 3.004-1.764 4.879-4.561 4.879-2.797 0-4.561-1.875-4.561-4.88zm7.111 0c0-2.055-.95-3.268-2.55-3.268-1.6 0-2.55 1.222-2.55 3.268 0 2.063.95 3.267 2.55 3.267 1.6 0 2.55-1.204 2.55-3.267z"/>
    <path d="M95.123 10.756h1.883v1.621h.045a2.27 2.27 0 0 1 .848-1.267 2.309 2.309 0 0 1 1.465-.453c.228-.001.455.023.677.073v1.828a2.788 2.788 0 0 0-.887-.118 2.007 2.007 0 0 0-1.538.627 1.966 1.966 0 0 0-.52 1.564v5.648h-1.973v-9.523z"/>
    <path d="M109.143 17.482c-.266 1.728-1.966 2.915-4.141 2.915-2.797 0-4.533-1.856-4.533-4.834 0-2.987 1.745-4.924 4.45-4.924 2.661 0 4.334 1.81 4.334 4.697v.67h-6.792v.118a2.463 2.463 0 0 0 .679 1.927 2.508 2.508 0 0 0 1.908.77c.466.043.935-.064 1.335-.305.4-.241.711-.604.886-1.034h1.874zm-6.672-2.842h4.807a2.291 2.291 0 0 0-1.429-2.245 2.33 2.33 0 0 0-.93-.172 2.452 2.452 0 0 0-1.733.703 2.403 2.403 0 0 0-.715 1.714z"/>
</symbol><symbol id="icon-arrow-next" viewBox="0 0 36 36">
    <mask id="a" maskUnits="userSpaceOnUse" x="0" y="0" width="36" height="36">
        <path transform="rotate(180 36 36)" d="M36 36h36v36H36z"/>
    </mask>
    <g mask="url(#a)">
        <path d="M12 34l16-16L12 2" stroke-width="2"/>
    </g>
</symbol><symbol id="icon-arrow-prev" viewBox="0 0 36 36">
    <mask id="a" maskUnits="userSpaceOnUse" x="0" y="0" width="36" height="36">
        <path d="M0 0h36v36H0z"/>
    </mask>
    <g mask="url(#a)">
        <path d="M24 2L8 18l16 16" stroke-width="2"/>
    </g>
</symbol><symbol id="icon-arrow" viewBox="0 0 12 18">
    <path d="M.984 2.831c0-1.783 2.153-2.676 3.413-1.415l6.161 6.168c.78.782.78 2.049 0 2.83l-6.161 6.169c-1.26 1.26-3.413.368-3.413-1.415V2.832z"/>
</symbol><symbol id="icon-bank" viewBox="-275 369 60 56">
    <style>
        .st0{fill:#01c38d}
    </style>
    <path class="st0" d="M-220 422h-50c-.6 0-1-.4-1-1v-2c0-.6.4-1 1-1h50c.6 0 1 .4 1 1v2c0 .6-.4 1-1 1zm-50-3v2h50v-2h-50z"/>
    <path class="st0" d="M-218 425h-54c-.6 0-1-.4-1-1v-2c0-.6.4-1 1-1h54c.6 0 1 .4 1 1v2c0 .6-.4 1-1 1zm-54-3v2h54v-2h-54z"/>
    <path class="st0" d="M-242 416h-6c-.6 0-1-.4-1-1v-2c0-.6.4-1 1-1h6c.6 0 1 .4 1 1v2c0 .6-.4 1-1 1zm-6-3v2h6v-2h-6z"/>
    <path class="st0" d="M-242 399h-6c-.6 0-1-.4-1-1v-2c0-.6.4-1 1-1h6c.6 0 1 .4 1 1v2c0 .6-.4 1-1 1zm-6-3v2h6v-2h-6z"/>
    <path class="st0" d="M-244 413h-2c-.6 0-1-.4-1-1v-13c0-.6.4-1 1-1h2c.6 0 1 .4 1 1v13c0 .6-.4 1-1 1zm-2-14v13h2v-13h-2z"/>
    <path class="st0" d="M-241 419h-8c-.6 0-1-.4-1-1v-2c0-.6.4-1 1-1h8c.6 0 1 .4 1 1v2c0 .6-.4 1-1 1zm-8-3v2h8v-2h-8z"/>
    <path class="st0" d="M-241 396h-8c-.6 0-1-.4-1-1v-2c0-.6.4-1 1-1h8c.6 0 1 .4 1 1v2c0 .6-.4 1-1 1zm-8-3v2h8v-2h-8z"/>
    <path class="st0" d="M-260 416h-6c-.6 0-1-.4-1-1v-2c0-.6.4-1 1-1h6c.6 0 1 .4 1 1v2c0 .6-.4 1-1 1zm-6-3v2h6v-2h-6z"/>
    <path class="st0" d="M-259 419h-8c-.6 0-1-.4-1-1v-2c0-.6.4-1 1-1h8c.6 0 1 .4 1 1v2c0 .6-.4 1-1 1zm-8-3v2h8v-2h-8z"/>
    <path class="st0" d="M-259 396h-8c-.6 0-1-.4-1-1v-2c0-.6.4-1 1-1h8c.6 0 1 .4 1 1v2c0 .6-.4 1-1 1zm-8-3v2h8v-2h-8z"/>
    <path class="st0" d="M-260 399h-6c-.6 0-1-.4-1-1v-2c0-.6.4-1 1-1h6c.6 0 1 .4 1 1v2c0 .6-.4 1-1 1zm-6-3v2h6v-2h-6z"/>
    <path class="st0" d="M-262 413h-2c-.6 0-1-.4-1-1v-13c0-.6.4-1 1-1h2c.6 0 1 .4 1 1v13c0 .6-.4 1-1 1zm-2-14v13h2v-13h-2z"/>
    <path class="st0" d="M-224 416h-6c-.6 0-1-.4-1-1v-2c0-.6.4-1 1-1h6c.6 0 1 .4 1 1v2c0 .6-.4 1-1 1zm-6-3v2h6v-2h-6z"/>
    <path class="st0" d="M-224 399h-6c-.6 0-1-.4-1-1v-2c0-.6.4-1 1-1h6c.6 0 1 .4 1 1v2c0 .6-.4 1-1 1zm-6-3v2h6v-2h-6z"/>
    <path class="st0" d="M-226 413h-2c-.6 0-1-.4-1-1v-13c0-.6.4-1 1-1h2c.6 0 1 .4 1 1v13c0 .6-.4 1-1 1zm-2-14v13h2v-13h-2z"/>
    <path class="st0" d="M-223 419h-8c-.6 0-1-.4-1-1v-2c0-.6.4-1 1-1h8c.6 0 1 .4 1 1v2c0 .6-.4 1-1 1zm-8-3v2h8v-2h-8z"/>
    <path class="st0" d="M-223 396h-8c-.6 0-1-.4-1-1v-2c0-.6.4-1 1-1h8c.6 0 1 .4 1 1v2c0 .6-.4 1-1 1zm-8-3v2h8v-2h-8z"/>
    <path class="st0" d="M-220 393h-50c-.6 0-1-.4-1-1v-2c0-.6.4-1 1-1h50c.6 0 1 .4 1 1v2c0 .6-.4 1-1 1zm-50-3v2h50v-2h-50z"/>
    <path class="st0" d="M-218.2 390h-53.6c-.4 0-.8-.3-1-.7-.1-.4 0-.9.4-1.1l26.9-18.8c.3-.2.7-.2 1 0l26.9 18.8c.4.3.5.7.4 1.1s-.6.7-1 .7zm-26.8-19.8l-26.8 18.8h53.6l-26.8-18.8z"/>
    <path class="st0" d="M-245.5 385c-.4 0-.7-.1-1-.3-.3-.2-.6-.3-.8-.6-.2-.2-.4-.5-.5-.8-.1-.3-.2-.6-.2-1h1.1c0 .5.2.9.5 1.2.3.3.8.4 1.4.4s1-.1 1.4-.4c.3-.3.5-.6.5-1s-.1-.6-.3-.8c-.2-.2-.5-.4-.9-.5-.3-.1-.7-.3-1.1-.4-.4-.1-.8-.3-1.1-.5-.3-.2-.6-.4-.9-.8-.2-.3-.3-.7-.3-1.3 0-.3.1-.5.2-.8.1-.3.3-.5.5-.7.2-.2.5-.4.8-.5.3-.2.6-.2 1-.3v-1h1v1.2l.9.3c.3.2.5.4.7.6.2.2.4.5.5.8.1.3.2.6.2.9h-1.1c0-.5-.2-.9-.5-1.2-.3-.3-.7-.5-1.1-.5-.3 0-.5 0-.7.1l-.6.3c-.2.1-.3.3-.4.4-.1.2-.1.3-.1.5 0 .4.1.6.3.8.2.2.5.4.9.5.3.1.7.3 1.1.4.4.1.8.3 1.1.5s.6.4.9.8c.2.3.3.7.3 1.3 0 .3-.1.6-.2.8-.1.3-.3.5-.5.7-.2.2-.5.4-.8.5s-.6.2-1 .3v1.2h-1V385h-.2z"/>
</symbol><symbol id="icon-close" viewBox="0 0 48 48">
    <path d="M1 47L47 1" stroke-linecap="round" stroke-linejoin="round" stroke-width="2"/>
    <path d="M1 1l46 46" stroke-linecap="round" stroke-linejoin="round" stroke-width="2"/>
</symbol><symbol id="icon-exchanges" viewBox="-277 369 56 56">
    <style>
        .st0{fill:#01c38d}
    </style>
    <path class="st0" d="M-249.4 372.6c-.2.2-.2.5 0 .7l3.2 3.2c.2.2.5.2.7 0 .2-.2.2-.5 0-.7l-2.8-2.8 2.8-2.8c.2-.2.2-.5 0-.7-.2-.2-.5-.2-.7 0l-3.2 3.1zm23.9 24.4c0 .3.2.5.5.5s.5-.2.5-.5h-1zm-23.5-23.5c13 0 23.5 10.5 23.5 23.5h1c0-13.5-11-24.5-24.5-24.5v1z"/>
    <path class="st0" d="M-248.6 421.4c.2-.2.2-.5 0-.7l-3.2-3.2c-.2-.2-.5-.2-.7 0-.2.2-.2.5 0 .7l2.8 2.8-2.8 2.8c-.2.2-.2.5 0 .7.2.2.5.2.7 0l3.2-3.1zm-23.9-24.4c0-.3-.2-.5-.5-.5s-.5.2-.5.5h1zm23.5 23.5c-13 0-23.5-10.5-23.5-23.5h-1c0 13.5 11 24.5 24.5 24.5v-1z"/>
    <path class="st0" d="M-263 397c-7.7 0-14-6.3-14-14s6.3-14 14-14 14 6.3 14 14-6.3 14-14 14zm0-27c-7.2 0-13 5.8-13 13s5.8 13 13 13 13-5.8 13-13-5.8-13-13-13z"/>
    <path class="st0" d="M-263 394c-6.1 0-11-4.9-11-11s4.9-11 11-11 11 4.9 11 11-4.9 11-11 11zm0-21c-5.5 0-10 4.5-10 10s4.5 10 10 10 10-4.5 10-10-4.5-10-10-10z"/>
    <path class="st0" d="M-263.5 387c-.4 0-.7-.1-1-.3-.3-.2-.6-.3-.8-.6-.2-.2-.4-.5-.5-.8-.1-.3-.2-.6-.2-1h1.1c0 .5.2.9.5 1.2.3.3.8.4 1.4.4.6 0 1-.1 1.4-.4.3-.3.5-.6.5-1s-.1-.6-.3-.8c-.2-.2-.5-.4-.9-.5-.3-.1-.7-.3-1.1-.4-.4-.1-.8-.3-1.1-.5-.3-.2-.6-.4-.9-.8-.2-.3-.3-.7-.3-1.3 0-.3.1-.5.2-.8.1-.3.3-.5.5-.7.2-.2.5-.4.8-.5.3-.2.6-.2 1-.3v-1.2h1v1.2l.9.3c.3.2.5.4.7.6.2.2.4.5.5.8.1.3.2.6.2.9h-1.1c0-.5-.2-.9-.5-1.2-.3-.3-.7-.5-1.1-.5-.3 0-.5 0-.7.1l-.6.3c-.2.1-.3.3-.4.4-.1.2-.1.3-.1.5 0 .4.1.6.3.8.2.2.5.4.9.5.3.1.7.3 1.1.4.4.1.8.3 1.1.5.3.2.6.4.9.8.2.3.3.7.3 1.3 0 .3-.1.6-.2.8-.1.3-.3.5-.5.7-.2.2-.5.4-.8.5-.3.1-.6.2-1 .3v1.2h-1v-.9z"/>
    <path class="st0" d="M-235 425c-7.7 0-14-6.3-14-14s6.3-14 14-14 14 6.3 14 14-6.3 14-14 14zm0-27c-7.2 0-13 5.8-13 13s5.8 13 13 13 13-5.8 13-13-5.8-13-13-13z"/>
    <path class="st0" d="M-235 422c-6.1 0-11-4.9-11-11s4.9-11 11-11 11 4.9 11 11-4.9 11-11 11zm0-21c-5.5 0-10 4.5-10 10s4.5 10 10 10 10-4.5 10-10-4.5-10-10-10z"/>
</symbol><symbol id="icon-folder" viewBox="-277 368 57 57">
    <style>
        .st0{fill:#01c38d}.st1{fill:#fff;filter:url(#Adobe_OpacityMaskFilter)}.st2{mask:url(#path-4-inside-1_1_)}
    </style>
    <path class="st0" d="M-276 410v-41h13.4l3.4 5.9c.4.6 1 1 1.7 1h24.4v23.6c.4.2.7.4 1 .7v-24.3c0-.6-.4-1-1-1h-24.4c-.4 0-.7-.2-.9-.5l-3.4-5.9c-.2-.3-.5-.5-.9-.5H-276c-.6 0-1 .4-1 1v41c0 .6.4 1 1 1h30.1c-.1-.3-.2-.7-.2-1H-276z"/>
    <path class="st0" d="M-277 379h45v1h-45z"/>
    <path class="st0" d="M-258 388h-14c-.6 0-1-.4-1-1v-3c0-.6.4-1 1-1h14c.6 0 1 .4 1 1v3c0 .6-.4 1-1 1zm-14-4v3h14v-3h-14z"/>
    
    <mask maskUnits="userSpaceOnUse" x="-248.2" y="396.8" width="22.5" height="22.4" id="path-4-inside-1_1_">
        <path class="st1" d="M-227 408c0-2.6-1-5.1-2.8-7-1.8-1.9-4.3-2.9-6.9-3-2.6-.1-5.1.9-7.1 2.7-1.9 1.8-3.1 4.2-3.2 6.8-.1 2.6.8 5.2 2.5 7.1 1.7 2 4.2 3.2 6.8 3.3 2.6.2 5.2-.7 7.2-2.3 2-1.7 3.2-4.1 3.5-6.7l-10-1h10z"/>
    </mask>
    <g class="st2">
        <path class="st0" d="M-237 419.2h-.8c-2.9-.2-5.6-1.5-7.6-3.7s-2.9-5-2.8-8c.1-2.9 1.4-5.7 3.6-7.7s5-3 7.9-3c2.9.1 5.7 1.3 7.7 3.4 2 2.1 3.2 4.8 3.2 7.7h.1l-.1.7v.7h-.1c-.3 2.9-1.7 5.5-3.9 7.4-2 1.6-4.5 2.5-7.2 2.5zm0-20c-2.2 0-4.4.8-6 2.4-1.7 1.6-2.7 3.7-2.8 6-.1 2.3.7 4.5 2.2 6.3 1.5 1.7 3.6 2.8 6 2.9 2.3.2 4.5-.6 6.3-2.1 1.5-1.2 2.5-2.9 2.9-4.7l-8.7-.8.1-2.4h8.7c-.3-1.9-1.1-3.6-2.4-4.9-1.6-1.7-3.8-2.6-6.1-2.6-.1-.1-.1-.1-.2-.1z"/>
    </g>
    <path class="st0" d="M-221.5 424c-.1 0-.3 0-.4-.1l-8.5-8.5c-.2-.2-.2-.5 0-.7s.5-.2.7 0l8.5 8.5c.2.2.2.5 0 .7 0 .1-.2.1-.3.1z"/>
</symbol><symbol id="icon-google-play" viewBox="0 0 124 28">
    <path d="M61.54 11.029c-2.57 0-4.606 1.928-4.606 4.607a4.573 4.573 0 0 0 4.607 4.608c2.57 0 4.606-1.93 4.606-4.608 0-2.786-2.035-4.607-4.607-4.607zm0 7.286c-1.392 0-2.57-1.179-2.57-2.786s1.178-2.786 2.57-2.786c1.393 0 2.572 1.072 2.572 2.786 0 1.607-1.179 2.786-2.571 2.786zm-9.963-7.286c-2.572 0-4.607 1.928-4.607 4.607a4.573 4.573 0 0 0 4.607 4.608c2.571 0 4.607-1.93 4.607-4.608 0-2.786-2.036-4.607-4.607-4.607zm0 7.286c-1.393 0-2.572-1.179-2.572-2.786s1.179-2.786 2.572-2.786c1.392 0 2.571 1.072 2.571 2.786 0 1.607-1.179 2.786-2.571 2.786zM39.684 12.42v1.93h4.607c-.107 1.07-.535 1.928-1.071 2.464-.643.643-1.714 1.393-3.536 1.393-2.892 0-5.035-2.25-5.035-5.144 0-2.893 2.25-5.143 5.035-5.143 1.5 0 2.679.643 3.536 1.393l1.393-1.393c-1.179-1.071-2.679-1.929-4.822-1.929-3.856 0-7.178 3.215-7.178 7.072 0 3.858 3.322 7.072 7.178 7.072 2.143 0 3.643-.642 4.929-2.035 1.285-1.286 1.714-3.108 1.714-4.5 0-.43 0-.858-.107-1.18h-6.643zm48.64 1.5c-.428-1.07-1.499-2.892-3.856-2.892-2.357 0-4.286 1.821-4.286 4.607 0 2.572 1.929 4.608 4.5 4.608 2.036 0 3.322-1.286 3.75-2.036l-1.5-1.072c-.536.75-1.178 1.286-2.25 1.286-1.071 0-1.714-.429-2.25-1.393l6.107-2.572-.214-.535zm-6.213 1.5c0-1.714 1.393-2.678 2.357-2.678.75 0 1.5.429 1.714.964l-4.071 1.715zm-5.036 4.394h2.036V6.421h-2.036v13.394zm-3.214-7.822c-.535-.536-1.392-1.072-2.464-1.072-2.25 0-4.393 2.036-4.393 4.608 0 2.572 2.036 4.5 4.393 4.5 1.072 0 1.929-.535 2.357-1.071h.107v.643c0 1.714-.964 2.678-2.464 2.678-1.178 0-2.035-.857-2.25-1.607l-1.714.75c.536 1.179 1.821 2.679 4.071 2.679 2.357 0 4.286-1.393 4.286-4.715v-8.143H73.86v.75zm-2.357 6.322c-1.392 0-2.571-1.179-2.571-2.786s1.178-2.786 2.571-2.786c1.393 0 2.464 1.179 2.464 2.786s-1.07 2.786-2.464 2.786zM97.646 6.42h-4.821v13.394h2.035v-5.036h2.786c2.25 0 4.393-1.607 4.393-4.18 0-2.57-2.143-4.178-4.393-4.178zm.107 6.43H94.86V8.242h2.893c1.5 0 2.357 1.285 2.357 2.25-.107 1.178-.964 2.357-2.357 2.357zm12.321-1.93c-1.5 0-3 .643-3.536 2.036l1.822.75c.428-.75 1.071-.964 1.821-.964 1.071 0 2.036.643 2.143 1.714v.107c-.322-.214-1.179-.535-2.036-.535-1.928 0-3.857 1.071-3.857 3 0 1.822 1.607 3 3.321 3 1.393 0 2.036-.643 2.572-1.285h.107v1.071h1.928v-5.143c-.214-2.358-2.035-3.75-4.285-3.75zm-.214 7.394c-.643 0-1.607-.322-1.607-1.179 0-1.071 1.178-1.393 2.142-1.393.857 0 1.286.214 1.822.429-.215 1.286-1.286 2.143-2.357 2.143zm11.249-7.072l-2.25 5.786h-.107l-2.357-5.786h-2.143l3.536 8.143-2.036 4.5h2.036l5.464-12.643h-2.143zm-17.999 8.572h2.036V6.421h-2.036v13.394z"/>
    <path d="M.752 1.988v23.858c0 .155.016.3.045.433l11.985-12.306L.767 1.735c-.01.08-.015.166-.015.253z"/>
    <path d="M18.139 17.71l4.754-2.636c.994-.583.994-1.298 0-1.88L18.1 10.38l-3.55 3.644 3.589 3.684z"/>
    <path d="M13.695 15.013L1.898 27.125c.146-.035.309-.093.491-.175l14.557-8.6-3.251-3.337z"/>
    <path d="M2.399 1.107a2.139 2.139 0 0 0-.544-.232l11.838 12.057 3.25-3.336-14.544-8.49z"/>
</symbol><symbol id="icon-graph" viewBox="-277 369 56 56">
    <style>
        .st0{fill:#01c38d}
    </style>
    <path class="st0" d="M-223 378h-29.1c-.3.2-.6.4-.9.5.3.1.7.3 1 .5h29c.6 0 1 .4 1 1v37c0 .6-.4 1-1 1h-52c-.6 0-1-.4-1-1v-37c0-.6.4-1 1-1h17.3c.3-.2.6-.4.9-.5-.3-.1-.7-.3-.9-.5H-275c-1.1 0-2 .9-2 2v37c0 1.1.9 2 2 2h52c1.1 0 2-.9 2-2v-37c0-1.1-.9-2-2-2z"/>
    <path class="st0" d="M-221.5 412h-55c-.3 0-.5-.2-.5-.5s.2-.5.5-.5h55c.3 0 .5.2.5.5s-.2.5-.5.5zm-55-.5h55-55z"/>
    <path class="st0" d="M-264 412h-6c-.6 0-1-.4-1-1v-11c0-.6.4-1 1-1h6c.6 0 1 .4 1 1v11c0 .6-.4 1-1 1zm-6-12v11h6v-11h-6z"/>
    <path class="st0" d="M-252 412h-6c-.6 0-1-.4-1-1v-19c0-.6.4-1 1-1h6c.6 0 1 .4 1 1v19c0 .6-.4 1-1 1zm-6-20v19h6v-19h-6z"/>
    <path class="st0" d="M-240 412h-6c-.6 0-1-.4-1-1v-7c0-.6.4-1 1-1h6c.6 0 1 .4 1 1v7c0 .6-.4 1-1 1zm-6-8v7h6v-7h-6z"/>
    <path class="st0" d="M-228 412h-6c-.6 0-1-.4-1-1v-23c0-.6.4-1 1-1h6c.6 0 1 .4 1 1v23c0 .6-.4 1-1 1zm-6-24v23h6v-23h-6z"/>
    <path class="st0" d="M-239.5 425h-19c-.3 0-.5-.2-.5-.5s.2-.5.5-.5h19c.3 0 .5.2.5.5s-.2.5-.5.5zm-19-.5h19-19z"/>
    <path class="st0" d="M-241.9 425h-14.2c-.3 0-.6-.2-.8-.4s-.2-.6-.1-.9l1.8-5 .2-.5h.1c.2-.2.4-.2.6-.2h10.6c.4 0 .8.3.9.7l1.8 5c.1.3.1.6-.1.9-.2.2-.5.4-.8.4zm-12.5-5.6l-1.7 4.6h14.2l-1.8-5h-10.6l-.1.4z"/>
    <path class="st0" d="M-265.2 388.7c-.1 0-.3 0-.4-.1-.2-.2-.2-.5 0-.7l8.2-8.2c.2-.2.5-.2.7 0s.2.5 0 .7l-8.2 8.2s-.1.1-.3.1z"/>
    <path class="st0" d="M-245.5 383.3c-.1 0-.2 0-.2-.1l-6.8-3.4c-.2-.1-.3-.4-.2-.7.1-.2.4-.3.7-.2l6.8 3.4c.2.1.3.4.2.7-.1.2-.3.3-.5.3z"/>
    <path class="st0" d="M-240.9 382.4c-.1 0-.3 0-.4-.1-.2-.2-.2-.5 0-.7l7.9-7.9c.2-.2.5-.2.7 0s.2.5 0 .7l-7.9 7.9s-.1.1-.3.1z"/>
    <path class="st0" d="M-267 393c-1.7 0-3-1.3-3-3s1.3-3 3-3 3 1.3 3 3-1.3 3-3 3zm0-5c-1.1 0-2 .9-2 2s.9 2 2 2 2-.9 2-2-.9-2-2-2z"/>
    <path class="st0" d="M-255 381c-1.7 0-3-1.3-3-3s1.3-3 3-3 3 1.3 3 3-1.3 3-3 3zm0-5c-1.1 0-2 .9-2 2s.9 2 2 2 2-.9 2-2-.9-2-2-2z"/>
    <path class="st0" d="M-243 387c-1.7 0-3-1.3-3-3s1.3-3 3-3 3 1.3 3 3-1.3 3-3 3zm0-5c-1.1 0-2 .9-2 2s.9 2 2 2 2-.9 2-2-.9-2-2-2z"/>
    <path class="st0" d="M-231 375c-1.7 0-3-1.3-3-3s1.3-3 3-3 3 1.3 3 3-1.3 3-3 3zm0-5c-1.1 0-2 .9-2 2s.9 2 2 2 2-.9 2-2-.9-2-2-2z"/>
</symbol><symbol id="icon-guidelines" viewBox="-277 369 56 56">
    <style>
        .st0{fill:#01c38d}
    </style>
    <path class="st0" d="M-231 371h-30c-.6 0-1 .4-1 1v6.6c.3-.1.7-.1 1-.1V372h30v45h-7.1c0 .3 0 .7-.1 1h7.1c.6 0 1-.4 1-1v-45c.1-.6-.3-1-.9-1z"/>
    <path class="st0" d="M-238 425h-30c-.6 0-1-.4-1-1v-45c0-.6.4-1 1-1h23.6c.3 0 .5.1.7.3l6.4 6.4c.2.2.3.4.3.7V424c0 .6-.4 1-1 1zm-30-46v45h30v-38.6l-6.4-6.4H-268z"/>
    <path class="st0" d="M-237.5 386h-6.5c-.6 0-1-.4-1-1v-7h.6c.3 0 .5.1.7.3l6.4 6.4c.2.2.3.4.3.7v.5l-.5.1zm-6.5-6.6v5.6h5.5l-2.7-2.8-2.8-2.8z"/>
    <path class="st0" d="M-261.5 386h6c.3 0 .5.2.5.5s-.2.5-.5.5h-6c-.3 0-.5-.2-.5-.5s.2-.5.5-.5z"/>
    <path class="st0" d="M-261.5 411h17c.3 0 .5.2.5.5s-.2.5-.5.5h-17c-.3 0-.5-.2-.5-.5s.2-.5.5-.5z"/>
    <path class="st0" d="M-238 407h-30c-.6 0-1-.4-1-1v-14c0-.6.4-1 1-1h30c.6 0 1 .4 1 1v14c0 .6-.4 1-1 1zm-30-15v14h30v-14h-30z"/>
    <path class="st0" d="M-253 403c-2.2 0-4-1.8-4-4s1.8-4 4-4 4 1.8 4 4-1.8 4-4 4zm0-7c-1.7 0-3 1.3-3 3s1.3 3 3 3 3-1.3 3-3-1.3-3-3-3z"/>
    <path class="st0" d="M-255.5 416h11c.3 0 .5.2.5.5s-.2.5-.5.5h-11c-.3 0-.5-.2-.5-.5s.2-.5.5-.5z"/>
    <path class="st0" d="M-261.5 416h3c.3 0 .5.2.5.5s-.2.5-.5.5h-3c-.3 0-.5-.2-.5-.5s.2-.5.5-.5z"/>
</symbol><symbol id="icon-headshot" viewBox="-550 738 48 56">
    <style>
        .st0{fill:#01c38d}
    </style>
    <path class="st0" d="M-503 794h-46c-.6 0-1-.4-1-1v-54c0-.6.4-1 1-1h46c.6 0 1 .4 1 1v54c0 .6-.4 1-1 1zm-46-55v54h46v-54h-46z"/>
    <path class="st0" d="M-507 790h-38c-.6 0-1-.4-1-1v-46c0-.6.4-1 1-1h38c.6 0 1 .4 1 1v46c0 .6-.4 1-1 1zm-38-47v46h38v-46h-38z"/>
    <path class="st0" d="M-528 778h1v11h-1z"/>
    <circle class="st0" cx="-525" cy="782" r="1"/>
    <circle class="st0" cx="-525" cy="786" r="1"/>
    <path class="st0" d="M-518 788c-1.7 0-3-1.3-3-3v-3.2c0-.4.3-.8.8-.8h4.4c.4 0 .8.3.8.8v3.2c0 1.7-1.3 3-3 3zm-2-6v3c0 1.1.9 2 2 2s2-.9 2-2v-3h-4z"/>
    <path class="st0" d="M-526 778.5c-4.1 0-5.5-3-5.5-5.5h1c0 2.2 1.2 4.5 4.5 4.5s4.5-2.3 4.5-4.5h1c0 2.5-1.4 5.5-5.5 5.5z"/>
    <path class="st0" d="M-520.3 754.3c-1.4-1.5-3.4-2.3-5.7-2.3s-4.3.8-5.7 2.3c-1.5 1.7-2.3 4-2.3 6.9 0 2.5.3 6.2 1.7 9.3 1.4 2.9 3.6 4.5 6.3 4.5 2.7 0 4.9-1.6 6.3-4.5 1.5-3.3 1.7-7.2 1.7-9.3 0-2.9-.8-5.3-2.3-6.9zm-.4 15.8c-.3.7-.7 1.2-1 1.7-.8 1.3-2.1 2.3-4.1 2.3-1 0-1.9-.3-2.6-.7-.1 0-.2-.1-.2-.1-.1 0-.1-.1-.2-.1s-.1-.1-.2-.1c-1.1-.8-1.8-1.9-2.3-2.9-1.1-2.3-1.7-5.5-1.7-8.9 0-2.7.7-4.8 2.1-6.3 1.2-1.3 2.9-1.9 4.9-1.9s3.8.7 4.9 1.9c1.4 1.5 2.1 3.6 2.1 6.3 0 3.3-.6 6.5-1.7 8.8z"/>
    <path class="st0" d="M-523.5 757.6c.1-.3 0-.6-.3-.6-.3-.1-.5 0-.6.3l.9.3zm-1-.3c-.3.9-1 1.6-1.9 2.1-.9.5-2 .8-3 1-1.1.2-2.1.3-2.8.3h-1.1-.1v1h1.3c.8 0 1.9-.1 3-.3 1.1-.2 2.3-.6 3.4-1.2 1-.6 1.9-1.4 2.4-2.6l-1.2-.3z"/>
    <path class="st0" d="M-524.4 757.7c-.1-.2-.1-.6.2-.7.2-.1.5 0 .7.2l-.9.5zm5.8 3.1c.3 0 .5.1.6.4.1.3-.1.5-.4.6l-.2-1zm-5-3.6c1.2 2.1 2.5 3 3.4 3.3.5.2.9.2 1.2.3h.4l.1.5.1.5h-.5c-.4 0-.9-.1-1.5-.3-1.2-.5-2.6-1.5-4-3.8l.8-.5z"/>
    <path class="st0" d="M-509.2 780.8c-.5-3.4-3.1-6.2-6.5-6.8l-6.7-1.3c-.3.3-.6.5-1 .8l7.5 1.4c2.9.6 5.2 3 5.6 6l1.1 8.1h-33.7l1.1-8.1c.4-3 2.7-5.4 5.7-6l7.7-1.5c-.4-.2-.7-.4-1-.7l-6.8 1.3c-3.4.6-6 3.4-6.5 6.8l-1.1 8.1c-.1.3 0 .6.2.8.2.2.5.3.8.3h33.7c.2 0 .5-.1.8-.3.2-.2.2-.5.2-.8l-1.1-8.1z"/>
</symbol><symbol id="icon-like" viewBox="0 0 18 16">
    <path d="M17.543 2.065C20.39 6.708 9 16 9 16S-2.39 6.71.457 2.065c2.848-4.646 8.543 0 8.543 0s5.696-4.644 8.543 0z"/>
</symbol><symbol id="icon-logo" viewBox="0 0 53 53">
    <path d="M46.053 15.033V7.707L32.62 0l-4.527 2.462v20.864l2.482 1.495V8.938l9.374 5.333 1.46-.82v-1.143L30.547 6.037v-2.08l1.986-1.232 11.185 6.389v5.949l-5.228 2.871a2.553 2.553 0 0 0-1.168-.293 2.484 2.484 0 0 0-2.482 2.491c0 1.378 1.11 2.491 2.482 2.491a2.485 2.485 0 0 0 2.482-2.49v-.089l5.17-2.96 5.139 2.755v12.953l-5.023 2.843-20.822-11.81V2.462L19.945 0 6.308 7.736v7.122L0 18.49v15.825l6.25 3.428v7.15l13.754 7.737 4.263-2.461V29.334l-2.394-1.377v15.766L12.265 38.3l-1.226.733.029 1.319 10.746 6.124-.058 2.403-1.752 1.055-11.448-6.623v-5.304l5.607-3.223c.35.176.73.293 1.14.293a2.485 2.485 0 0 0 2.482-2.491c0-1.378-1.11-2.491-2.483-2.491a2.484 2.484 0 0 0-2.482 2.49v.03l-5.402 3.077-5.082-2.813V19.986l5.14-3.107 20.792 12.074v21.012l4.352 2.725 13.433-7.737v-7.15l6.454-3.517V18.55l-6.454-3.517zm-24.18 7.59L9.9 15.59l12.002-6.857v13.89h-.03zm0-16.616L8.644 13.568V9.26l11.272-6.535 1.986 1.114v2.168h-.03zm8.673 24.089l12.12 6.945-12.12 6.77V30.095zM43.833 43.43L32.62 49.847l-2.045-1.29v-1.845l13.287-7.649v4.367h-.029z"/>
</symbol><symbol id="icon-more" viewBox="0 0 16 14">
    <path d="M15.75.656v3.5a.633.633 0 0 1-.191.465.633.633 0 0 1-.465.191.633.633 0 0 1-.465-.19l-.984-.985L7 10.309a.633.633 0 0 1-.465.191.633.633 0 0 1-.465-.191l-.629-.63a.633.633 0 0 1-.191-.464c0-.182.064-.337.191-.465l6.672-6.645-.984-.984a.633.633 0 0 1-.191-.465c0-.182.063-.337.19-.465A.633.633 0 0 1 11.595 0h3.5c.182 0 .337.064.465.191a.633.633 0 0 1 .191.465zM11.129 7.41l-.438.438a.633.633 0 0 0-.191.465v3.937H1.75V3.5h7.219a.633.633 0 0 0 .465-.191l.437-.438a.633.633 0 0 0 .191-.465.633.633 0 0 0-.19-.465.633.633 0 0 0-.466-.191H1.312c-.364 0-.674.128-.93.383a1.266 1.266 0 0 0-.382.93v9.624c0 .365.128.675.383.93s.565.383.93.383h9.624c.365 0 .675-.128.93-.383s.383-.565.383-.93V7.875c0-.2-.064-.355-.191-.465a.633.633 0 0 0-.465-.191.52.52 0 0 0-.465.191z"/>
</symbol><symbol id="icon-owerview" viewBox="-277 369 56 56">
    <style>
        .st0{fill:#01c38d}
    </style>
    <path class="st0" d="M-230.5 370h-30c-.6 0-1 .4-1 1v6.8h1V371h30v45h-6.9c0 .3.1.7.1 1h6.8c.6 0 1-.4 1-1v-45c0-.6-.4-1-1-1z"/>
    <path class="st0" d="M-237.5 424h-30c-.6 0-1-.4-1-1v-45c0-.6.4-1 1-1h23.6c.1 0 .3 0 .4.1h.2l.2.2 6.4 6.4c.2.2.2.5.2.8V423c0 .6-.4 1-1 1zm-30-46v45h30v-38.6-.1l-6.2-6.2h-.1l-23.7-.1z"/>
    <path class="st0" d="M-236.6 385h-7c-.6 0-1-.4-1-1v-7h.6c.2 0 .4.1.5.1h.2l.1.1 6.4 6.4c.2.2.2.5.2.8v.6zm-7-6.7v5.7h5.7l-5.7-5.7z"/>
    <path class="st0" d="M-261 385h6c.3 0 .5.2.5.5s-.2.5-.5.5h-6c-.3 0-.5-.2-.5-.5s.2-.5.5-.5z"/>
    <path class="st0" d="M-261 390h17c.3 0 .5.2.5.5s-.2.5-.5.5h-17c-.3 0-.5-.2-.5-.5s.2-.5.5-.5z"/>
    <path class="st0" d="M-261 400h17c.3 0 .5.2.5.5s-.2.5-.5.5h-17c-.3 0-.5-.2-.5-.5s.2-.5.5-.5z"/>
    <path class="st0" d="M-261 410h17c.3 0 .5.2.5.5s-.2.5-.5.5h-17c-.3 0-.5-.2-.5-.5s.2-.5.5-.5z"/>
    <path class="st0" d="M-261 395h10c.3 0 .5.2.5.5s-.2.5-.5.5h-10c-.3 0-.5-.2-.5-.5s.2-.5.5-.5z"/>
    <path class="st0" d="M-248 395h4c.3 0 .5.2.5.5s-.2.5-.5.5h-4c-.3 0-.5-.2-.5-.5s.2-.5.5-.5z"/>
    <path class="st0" d="M-254 405h10c.3 0 .5.2.5.5s-.2.5-.5.5h-10c-.3 0-.5-.2-.5-.5s.2-.5.5-.5z"/>
    <path class="st0" d="M-261 405h4c.3 0 .5.2.5.5s-.2.5-.5.5h-4c-.3 0-.5-.2-.5-.5s.2-.5.5-.5z"/>
    <path class="st0" d="M-255 415h11c.3 0 .5.2.5.5s-.2.5-.5.5h-11c-.3 0-.5-.2-.5-.5s.2-.5.5-.5z"/>
    <path class="st0" d="M-261 415h3c.3 0 .5.2.5.5s-.2.5-.5.5h-3c-.3 0-.5-.2-.5-.5s.2-.5.5-.5z"/>
</symbol><symbol id="icon-payment" viewBox="-277 369 56 56">
    <style>
        .st0{fill:#01c38d}
    </style>
    <path class="st0" d="M-268.2 407h-7.8v-30h46v16.8c.3 0 .7 0 1 .1V377c0-.6-.4-1-1-1h-46c-.6 0-1 .4-1 1v30c0 .6.4 1 1 1h7.9c-.1-.3-.1-.7-.1-1z"/>
    <path class="st0" d="M-240.3 388.2c-.6.5-1.4.8-2.2.8-1.9 0-3.5-1.6-3.5-3.5s1.6-3.5 3.5-3.5c.8 0 1.6.3 2.1.8.2-.3.3-.6.6-.8-.8-.6-1.7-.9-2.7-.9-2.5 0-4.5 2-4.5 4.5s2 4.5 4.5 4.5c1.1 0 2-.4 2.8-1-.2-.4-.4-.6-.6-.9z"/>
    <path class="st0" d="M-237.5 390c-2.5 0-4.5-2-4.5-4.5s2-4.5 4.5-4.5 4.5 2 4.5 4.5-2 4.5-4.5 4.5zm0-8c-1.9 0-3.5 1.6-3.5 3.5s1.6 3.5 3.5 3.5 3.5-1.6 3.5-3.5-1.6-3.5-3.5-3.5z"/>
    <path class="st0" d="M-265 390h-7c-.6 0-1-.4-1-1v-7c0-.6.4-1 1-1h7c.6 0 1 .4 1 1v7c0 .6-.4 1-1 1zm-7-8v7h7v-7h-7z"/>
    <path class="st0" d="M-272.5 384h3c.3 0 .5.2.5.5s-.2.5-.5.5h-3c-.3 0-.5-.2-.5-.5s.2-.5.5-.5z"/>
    <path class="st0" d="M-272.5 386h3c.3 0 .5.2.5.5s-.2.5-.5.5h-3c-.3 0-.5-.2-.5-.5s.2-.5.5-.5z"/>
    <path class="st0" d="M-267.5 384h3c.3 0 .5.2.5.5s-.2.5-.5.5h-3c-.3 0-.5-.2-.5-.5s.2-.5.5-.5z"/>
    <path class="st0" d="M-267.5 386h3c.3 0 .5.2.5.5s-.2.5-.5.5h-3c-.3 0-.5-.2-.5-.5s.2-.5.5-.5z"/>
    <path class="st0" d="M-268.2 397h-4.3c-.3 0-.5.2-.5.5s.2.5.5.5h4.2c0-.3 0-.7.1-1z"/>
    <path class="st0" d="M-272.5 402h4c.3 0 .5.2.5.5s-.2.5-.5.5h-4c-.3 0-.5-.2-.5-.5s.2-.5.5-.5z"/>
    <path class="st0" d="M-222 425h-46c-.6 0-1-.4-1-1v-30c0-.6.4-1 1-1h46c.6 0 1 .4 1 1v30c0 .6-.4 1-1 1zm-46-31v30h46v-30h-46z"/>
    <path class="st0" d="M-232.2 405.1c-.6.6-1.4.9-2.3.9-1.9 0-3.5-1.6-3.5-3.5s1.6-3.5 3.5-3.5c.9 0 1.7.3 2.3.9.2-.3.3-.6.6-.8-.8-.6-1.8-1-2.8-1-2.5 0-4.5 2-4.5 4.5s2 4.5 4.5 4.5c1.1 0 2.1-.4 2.9-1.1-.3-.3-.5-.6-.7-.9z"/>
    <path class="st0" d="M-229.5 407c-2.5 0-4.5-2-4.5-4.5s2-4.5 4.5-4.5 4.5 2 4.5 4.5-2 4.5-4.5 4.5zm0-8c-1.9 0-3.5 1.6-3.5 3.5s1.6 3.5 3.5 3.5 3.5-1.6 3.5-3.5-1.6-3.5-3.5-3.5z"/>
    <path class="st0" d="M-257 407h-7c-.6 0-1-.4-1-1v-7c0-.6.4-1 1-1h7c.6 0 1 .4 1 1v7c0 .6-.4 1-1 1zm-7-8v7h7v-7h-7z"/>
    <path class="st0" d="M-264.5 401h3c.3 0 .5.2.5.5s-.2.5-.5.5h-3c-.3 0-.5-.2-.5-.5s.2-.5.5-.5z"/>
    <path class="st0" d="M-264.5 403h3c.3 0 .5.2.5.5s-.2.5-.5.5h-3c-.3 0-.5-.2-.5-.5s.2-.5.5-.5z"/>
    <path class="st0" d="M-259.5 401h3c.3 0 .5.2.5.5s-.2.5-.5.5h-3c-.3 0-.5-.2-.5-.5s.2-.5.5-.5z"/>
    <path class="st0" d="M-259.5 403h3c.3 0 .5.2.5.5s-.2.5-.5.5h-3c-.3 0-.5-.2-.5-.5s.2-.5.5-.5z"/>
    <path class="st0" d="M-264.5 414h5c.3 0 .5.2.5.5s-.2.5-.5.5h-5c-.3 0-.5-.2-.5-.5s.2-.5.5-.5z"/>
    <path class="st0" d="M-264.5 419h4c.3 0 .5.2.5.5s-.2.5-.5.5h-4c-.3 0-.5-.2-.5-.5s.2-.5.5-.5z"/>
    <path class="st0" d="M-255.5 419h20c.3 0 .5.2.5.5s-.2.5-.5.5h-20c-.3 0-.5-.2-.5-.5s.2-.5.5-.5z"/>
    <path class="st0" d="M-253.5 414h5c.3 0 .5.2.5.5s-.2.5-.5.5h-5c-.3 0-.5-.2-.5-.5s.2-.5.5-.5z"/>
    <path class="st0" d="M-242.5 414h5c.3 0 .5.2.5.5s-.2.5-.5.5h-5c-.3 0-.5-.2-.5-.5s.2-.5.5-.5z"/>
    <path class="st0" d="M-231.5 414h5c.3 0 .5.2.5.5s-.2.5-.5.5h-5c-.3 0-.5-.2-.5-.5s.2-.5.5-.5z"/>
</symbol><symbol id="icon-play" viewBox="0 0 16 26">
    <path d="M1 3.595C1 1.812 3.152.919 4.411 2.18l9.26 9.27c.78.782.78 2.049 0 2.83l-9.26 9.271c-1.26 1.26-3.413.368-3.413-1.415V3.594z" stroke-width="2"/>
</symbol><symbol id="icon-scroll-down" viewBox="0 0 24 28">
    <path d="M4.504 7.5L12 14.997 19.5 7.5" stroke-width="1.5"/>
    <path d="M4.504 17.5L12 24.997 19.5 17.5" stroke-width="1.5"/>
</symbol><symbol id="icon-search" viewBox="0 0 24 24">
    <circle cx="9" cy="9" r="8.5"/>
    <rect x="15.363" y="15.008" width="11.717" height=".5" rx=".25" transform="rotate(45 15.363 15.008)" stroke-width=".5"/>
</symbol><symbol id="icon-time" viewBox="-277 369 56 56">
    <style>
        .st0{fill:#01c38d}
    </style>
    <path class="st0" d="M-234.4 382.4c-.2-.2-.6-.2-.8 0l-13.3 13.3c.4.1.8.3 1.1.6l13-13c.2-.3.2-.6 0-.9z"/>
    <path class="st0" d="M-249.8 395.9l.3-.3-7.5-7.5c-.2-.2-.6-.2-.8 0s-.2.6 0 .8l7.3 7.3c.1-.1.4-.2.7-.3z"/>
    <path class="st0" d="M-249 399c-1.1 0-2-.9-2-2s.9-2 2-2 2 .9 2 2-.9 2-2 2zm0-3c-.6 0-1 .4-1 1s.4 1 1 1 1-.4 1-1-.4-1-1-1z"/>
    <path class="st0" d="M-242 412.9v1.1h-6.2v-1l4-4.4c.2-.2.3-.4.5-.6l.3-.6c.1-.2.1-.5.1-.8 0-.5-.2-.9-.5-1.2-.3-.3-.8-.5-1.3-.5-.6 0-1 .2-1.4.5-.4.4-.5.8-.5 1.4h-1.3c0-.4.1-.8.2-1.2.2-.4.4-.7.7-1 .3-.3.6-.5 1-.6.4-.2.8-.2 1.3-.2s.9.1 1.3.2.7.3 1 .6c.3.3.5.6.6.9.2.3.2.7.2 1.1 0 .4-.1.7-.2 1-.1.3-.3.6-.5.9-.2.3-.4.6-.7.8l-3.2 3.5h4.6zm8-1.1h-1.1v2.2h-1.3v-2.2h-4.5v-1l4.2-6.9h1.5v6.8h1.1v1.1zm-2.4-1.1v-5l-3 5h3zm3.9 6.2h-1.1l4.2-13h1.1l-4.2 13zm10.8-13v.9l-4.2 9.2h-1.4l4.2-9h-4.6v-1.1h6z"/>
    <path class="st0" d="M-249 421.1c.3 0 .6-.3.6-.6s-.3-.6-.6-.6v1.2zm23.1-23.7c.2.2.6.2.8 0l3.8-3.8c.2-.2.2-.6 0-.8-.2-.2-.6-.2-.8 0l-3.4 3.4-3.4-3.4c-.2-.2-.6-.2-.8 0-.2.2-.2.6 0 .8l3.8 3.8zm-23.1 22.5c-12.9 0-22.9-10-22.9-22.9h-1.2c0 13.6 10.5 24.1 24.1 24.1v-1.2zm-22.9-22.9c0-12.9 10-22.9 22.9-22.9v-1.2c-13.6 0-24.1 10.5-24.1 24.1h1.2zm22.9-22.9c12.9 0 22.9 10 22.9 22.9h1.2c0-13.6-10.5-24.1-24.1-24.1v1.2z"/>
</symbol></svg>