<svg width="32" height="32" viewBox="0 0 32 32" fill="none" xmlns="http://www.w3.org/2000/svg">
    <mask id="a" maskUnits="userSpaceOnUse" x="0" y="0" width="32" height="32">
        <rect width="32" height="32" rx="8" fill="#EDEFF1"/>
    </mask>
    <g mask="url(#a)">
        <path d="M16 36c11.046 0 20-8.954 20-20S27.046-4 16-4-4 4.954-4 16s8.954 20 20 20z" fill="url(#b)"/>
        <path d="M13.067 23.333c-.518 0-.43-.195-.61-.689l-1.523-5.016 11.733-6.961" fill="#C8DAEA"/>
        <path d="M13.066 23.334c.4 0 .577-.183.8-.4L16 20.858l-2.661-1.605" fill="#A9C9DD"/>
        <path d="M13.338 19.255l6.448 4.764c.735.405 1.266.195 1.45-.684l2.624-12.368c.27-1.077-.41-1.566-1.114-1.246L7.334 15.663c-1.052.422-1.046 1.01-.192 1.27l3.955 1.235 9.157-5.776c.432-.263.828-.122.503.167" fill="url(#c)"/>
    </g>
    <defs>
        <linearGradient id="b" x1="22.668" y1="2.668" x2="12.668" y2="26" gradientUnits="userSpaceOnUse">
            <stop stop-color="#37AEE2"/>
            <stop offset="1" stop-color="#1E96C8"/>
        </linearGradient>
        <linearGradient id="c" x1="18" y1="16" x2="20.503" y2="21.698" gradientUnits="userSpaceOnUse">
            <stop stop-color="#EFF7FC"/>
            <stop offset="1" stop-color="#fff"/>
        </linearGradient>
    </defs>
</svg>
