<?xml version="1.0" encoding="utf-8"?>
<!-- Generator: Adobe Illustrator 21.0.2, SVG Export Plug-In . SVG Version: 6.00 Build 0)  -->
<svg version="1.1" id="Слой_1" xmlns="http://www.w3.org/2000/svg" xmlns:xlink="http://www.w3.org/1999/xlink" x="0px" y="0px"
	 viewBox="0 0 116 128" enable-background="new 0 0 116 128" xml:space="preserve">
<linearGradient id="SVGID_1_" gradientUnits="userSpaceOnUse" x1="28.3" y1="95.7" x2="87.7" y2="36.3" gradientTransform="matrix(1 0 0 -1 0 130)">
	<stop  offset="0" style="stop-color:#02C38D"/>
	<stop  offset="0.1293" style="stop-color:#06AB7F;stop-opacity:0.8707"/>
	<stop  offset="0.5479" style="stop-color:#146355;stop-opacity:0.4521"/>
	<stop  offset="0.8488" style="stop-color:#1D363A;stop-opacity:0.1512"/>
	<stop  offset="1" style="stop-color:#202530;stop-opacity:0"/>
</linearGradient>
<path fill="url(#SVGID_1_)" d="M87.7,34.3c-16.4-16.4-43-16.4-59.4,0s-16.4,43,0,59.4s43,16.4,59.4,0S104.1,50.7,87.7,34.3z
	 M70.9,76.9c-7.1,7.1-18.7,7.1-25.8,0s-7.1-18.7,0-25.8s18.7-7.1,25.8,0S78,69.8,70.9,76.9z"/>
<path fill="#02C38D" d="M90.2,24.1c-6.3-5.2-13.9-8.8-22-10.4l0.4-2c8.3,1.7,16.2,5.5,22.8,10.9L90.2,24.1z"/>
<path fill="#02C38D" d="M18.9,30.4l-1.5-1.3c0.9-1,1.8-2,2.7-2.9c5.4-5.4,11.6-9.4,18.7-12.1l0.7,1.9c-6.8,2.6-12.8,6.5-18,11.7
	C20.6,28.5,19.7,29.4,18.9,30.4z"/>
<path fill="#02C38D" d="M7.5,81.6c-2.9-8.3-3.8-17.4-2.4-26.2l2,0.3c-1.3,8.4-0.6,17.1,2.3,25.2L7.5,81.6z"/>
<path fill="#02C38D" d="M46.9,116.1c-8.3-1.7-16.2-5.5-22.8-10.8l1.3-1.6c6.3,5.2,13.9,8.8,21.9,10.4L46.9,116.1z"/>
<path fill="#02C38D" d="M76.8,113.7l-0.7-1.9c6.8-2.6,12.8-6.5,18-11.7c0.4-0.4,0.8-0.8,1.2-1.2l1.5,1.4c-0.4,0.4-0.8,0.8-1.2,1.3
	C90.1,106.9,83.8,111,76.8,113.7z"/>
<path fill="#02C38D" d="M110.1,74l-2-0.4c1.6-8.1,1.1-16.6-1.2-24.5l1.9-0.6C111.3,56.8,111.7,65.6,110.1,74z"/>
<path fill="#02C38D" d="M12.4,50.7c-3,0-6.1-1.2-8.4-3.5c-4.6-4.6-4.6-12.1,0-16.7s12.1-4.6,16.7,0s4.6,12.1,0,16.7
	C18.5,49.6,15.4,50.7,12.4,50.7z M5.5,32c-3.8,3.8-3.8,10.1,0,13.9s10.1,3.8,13.9,0s3.8-10.1,0-13.9C15.5,28.1,9.3,28.2,5.5,32z"/>
<linearGradient id="SVGID_2_" gradientUnits="userSpaceOnUse" x1="8.1202" y1="95.1801" x2="16.6055" y2="86.6948" gradientTransform="matrix(1 0 0 -1 0 130)">
	<stop  offset="0" style="stop-color:#02C38D"/>
	<stop  offset="2.534120e-02" style="stop-color:#05BE91"/>
	<stop  offset="0.354" style="stop-color:#2988C0"/>
	<stop  offset="0.6376" style="stop-color:#4460E2"/>
	<stop  offset="0.8622" style="stop-color:#5448F7"/>
	<stop  offset="1" style="stop-color:#5A3FFF"/>
</linearGradient>
<path fill="url(#SVGID_2_)" d="M12.4,45.1c3.3,0,6-2.7,6-6c0-3.3-2.7-6-6-6c-3.3,0-6,2.7-6,6C6.4,42.4,9.1,45.1,12.4,45.1z"/>
<path fill="#02C38D" d="M103.4,50.7c-3,0-6.1-1.2-8.4-3.5c-4.6-4.6-4.6-12.1,0-16.7s12.1-4.6,16.7,0c4.6,4.6,4.6,12.1,0,16.7
	C109.5,49.6,106.4,50.7,103.4,50.7z M96.5,32c-3.8,3.8-3.8,10.1,0,13.9c3.8,3.8,10.1,3.8,13.9,0c3.8-3.8,3.8-10.1,0-13.9
	C106.5,28.1,100.3,28.1,96.5,32z"/>
<linearGradient id="SVGID_3_" gradientUnits="userSpaceOnUse" x1="99.1198" y1="95.1806" x2="107.6047" y2="86.6953" gradientTransform="matrix(1 0 0 -1 0 130)">
	<stop  offset="0" style="stop-color:#02C38D"/>
	<stop  offset="2.534120e-02" style="stop-color:#05BE91"/>
	<stop  offset="0.354" style="stop-color:#2988C0"/>
	<stop  offset="0.6376" style="stop-color:#4460E2"/>
	<stop  offset="0.8622" style="stop-color:#5448F7"/>
	<stop  offset="1" style="stop-color:#5A3FFF"/>
</linearGradient>
<path fill="url(#SVGID_3_)" d="M103.4,45.1c3.3,0,6-2.7,6-6c0-3.3-2.7-6-6-6c-3.3,0-6,2.7-6,6C97.4,42.4,100.1,45.1,103.4,45.1z"/>
<path fill="#02C38D" d="M13.4,102.7c-3,0-6.1-1.2-8.4-3.5C2.8,97,1.5,94,1.5,90.8c0-3.2,1.2-6.1,3.5-8.4c4.6-4.6,12.1-4.6,16.7,0
	c2.2,2.2,3.5,5.2,3.5,8.4c0,3.2-1.2,6.1-3.5,8.4C19.5,101.6,16.4,102.7,13.4,102.7z M13.4,81.1c-2.5,0-5,1-6.9,2.9s-2.9,4.3-2.9,6.9
	s1,5.1,2.9,6.9c3.8,3.8,10.1,3.8,13.9,0c1.9-1.9,2.9-4.3,2.9-6.9s-1-5.1-2.9-6.9C18.4,82.1,15.9,81.1,13.4,81.1z"/>
<linearGradient id="SVGID_4_" gradientUnits="userSpaceOnUse" x1="9.1199" y1="43.1804" x2="17.6052" y2="34.6951" gradientTransform="matrix(1 0 0 -1 0 130)">
	<stop  offset="0" style="stop-color:#02C38D"/>
	<stop  offset="2.534120e-02" style="stop-color:#05BE91"/>
	<stop  offset="0.354" style="stop-color:#2988C0"/>
	<stop  offset="0.6376" style="stop-color:#4460E2"/>
	<stop  offset="0.8622" style="stop-color:#5448F7"/>
	<stop  offset="1" style="stop-color:#5A3FFF"/>
</linearGradient>
<path fill="url(#SVGID_4_)" d="M13.4,97.1c3.3,0,6-2.7,6-6c0-3.3-2.7-6-6-6s-6,2.7-6,6C7.4,94.4,10.1,97.1,13.4,97.1z"/>
<path fill="#02C38D" d="M102.4,102.7c-3,0-6.1-1.2-8.4-3.5c-2.2-2.2-3.5-5.2-3.5-8.4c0-3.2,1.2-6.1,3.5-8.4c4.6-4.6,12.1-4.6,16.7,0
	c2.2,2.2,3.5,5.2,3.5,8.4c0,3.2-1.2,6.1-3.5,8.4C108.5,101.6,105.4,102.7,102.4,102.7z M102.4,81.1c-2.5,0-5,1-6.9,2.9
	c-3.8,3.8-3.8,10.1,0,13.9c3.8,3.8,10.1,3.8,13.9,0c1.9-1.9,2.9-4.3,2.9-6.9s-1-5.1-2.9-6.9C107.4,82.1,104.9,81.1,102.4,81.1z"/>
<linearGradient id="SVGID_5_" gradientUnits="userSpaceOnUse" x1="98.1195" y1="43.1807" x2="106.6046" y2="34.6954" gradientTransform="matrix(1 0 0 -1 0 130)">
	<stop  offset="0" style="stop-color:#02C38D"/>
	<stop  offset="2.534120e-02" style="stop-color:#05BE91"/>
	<stop  offset="0.354" style="stop-color:#2988C0"/>
	<stop  offset="0.6376" style="stop-color:#4460E2"/>
	<stop  offset="0.8622" style="stop-color:#5448F7"/>
	<stop  offset="1" style="stop-color:#5A3FFF"/>
</linearGradient>
<path fill="url(#SVGID_5_)" d="M102.4,97.1c3.3,0,6-2.7,6-6c0-3.3-2.7-6-6-6c-3.3,0-6,2.7-6,6C96.4,94.4,99.1,97.1,102.4,97.1z"/>
<path fill="#02C38D" d="M57.9,23.8c-3.2,0-6.1-1.2-8.4-3.5c-4.6-4.6-4.6-12.1,0-16.7c2.2-2.2,5.2-3.5,8.4-3.5c3.2,0,6.1,1.2,8.4,3.5
	c4.6,4.6,4.6,12.1,0,16.7C64,22.5,61.1,23.8,57.9,23.8z M57.9,2.1c-2.6,0-5.1,1-6.9,2.9c-3.8,3.8-3.8,10.1,0,13.9
	c1.9,1.9,4.3,2.9,6.9,2.9c2.6,0,5.1-1,6.9-2.9c3.8-3.8,3.8-10.1,0-13.9C63,3.1,60.5,2.1,57.9,2.1z"/>
<linearGradient id="SVGID_6_" gradientUnits="userSpaceOnUse" x1="53.5413" y1="122.1594" x2="62.0265" y2="113.6742" gradientTransform="matrix(1 0 0 -1 0 130)">
	<stop  offset="0" style="stop-color:#02C38D"/>
	<stop  offset="2.534120e-02" style="stop-color:#05BE91"/>
	<stop  offset="0.354" style="stop-color:#2988C0"/>
	<stop  offset="0.6376" style="stop-color:#4460E2"/>
	<stop  offset="0.8622" style="stop-color:#5448F7"/>
	<stop  offset="1" style="stop-color:#5A3FFF"/>
</linearGradient>
<path fill="url(#SVGID_6_)" d="M57.8,18.1c3.3,0,6-2.7,6-6c0-3.3-2.7-6-6-6c-3.3,0-6,2.7-6,6C51.8,15.4,54.5,18.1,57.8,18.1z"/>
<path fill="#02C38D" d="M57.9,127.8c-3.2,0-6.1-1.2-8.4-3.5c-2.2-2.2-3.5-5.2-3.5-8.4c0-3.2,1.2-6.1,3.5-8.4
	c2.2-2.2,5.2-3.5,8.4-3.5c3.2,0,6.1,1.2,8.4,3.5c2.2,2.2,3.5,5.2,3.5,8.4c0,3.2-1.2,6.1-3.5,8.4C64,126.5,61.1,127.8,57.9,127.8z
	 M57.9,106.1c-2.6,0-5.1,1-6.9,2.9c-1.9,1.9-2.9,4.3-2.9,6.9s1,5.1,2.9,6.9c1.9,1.8,4.3,2.9,6.9,2.9c2.6,0,5.1-1,6.9-2.9
	c1.8-1.9,2.9-4.3,2.9-6.9s-1-5.1-2.9-6.9C62.9,107.2,60.5,106.1,57.9,106.1z"/>
<linearGradient id="SVGID_7_" gradientUnits="userSpaceOnUse" x1="53.4394" y1="18.1602" x2="61.9244" y2="9.6744" gradientTransform="matrix(1 0 0 -1 0 130)">
	<stop  offset="0" style="stop-color:#02C38D"/>
	<stop  offset="2.534120e-02" style="stop-color:#05BE91"/>
	<stop  offset="0.354" style="stop-color:#2988C0"/>
	<stop  offset="0.6376" style="stop-color:#4460E2"/>
	<stop  offset="0.8622" style="stop-color:#5448F7"/>
	<stop  offset="1" style="stop-color:#5A3FFF"/>
</linearGradient>
<path fill="url(#SVGID_7_)" d="M57.7,122.1c3.3,0,6-2.7,6-6c0-3.3-2.7-6-6-6c-3.3,0-6,2.7-6,6C51.7,119.4,54.4,122.1,57.7,122.1z"/>
<path fill="#02C38D" d="M58,82.7c-5,0-9.7-1.9-13.2-5.5c-7.3-7.3-7.3-19.2,0-26.5c3.5-3.5,8.2-5.5,13.2-5.5s9.7,1.9,13.2,5.5
	c7.3,7.3,7.3,19.2,0,26.5C67.7,80.8,63,82.7,58,82.7z M58,47.2c-4.5,0-8.7,1.7-11.8,4.9c-6.5,6.5-6.5,17.1,0,23.7
	c3.2,3.2,7.4,4.9,11.8,4.9c4.5,0,8.7-1.7,11.8-4.9c6.5-6.5,6.5-17.1,0-23.7C66.7,49,62.5,47.2,58,47.2z"/>
<path fill="#02C38D" d="M59,46.2h-2v35.5h2V46.2z"/>
<path fill="#02C38D" d="M75.8,63H40.3v2h35.5V63z"/>
<path fill="#02C38D" d="M58,82.7c-2.9,0-5.6-2.1-7.4-5.8c-3.4-7.1-3.4-18.8,0-25.9c1.7-3.7,4.4-5.8,7.4-5.8c2.9,0,5.6,2.1,7.4,5.8
	c3.4,7.1,3.4,18.8,0,25.9C63.6,80.6,60.9,82.7,58,82.7z M58,47.2c-2.1,0-4.2,1.7-5.6,4.6c-3.2,6.7-3.2,17.5,0,24.2
	c1.4,2.9,3.4,4.6,5.6,4.6c2.1,0,4.2-1.7,5.6-4.6c3.2-6.7,3.2-17.5,0-24.2C62.2,48.9,60.1,47.2,58,47.2z"/>
</svg>
