<?xml version="1.0" encoding="utf-8"?>
<!-- Generator: Adobe Illustrator 21.0.2, SVG Export Plug-In . SVG Version: 6.00 Build 0)  -->
<svg version="1.1" id="Слой_1" xmlns="http://www.w3.org/2000/svg" xmlns:xlink="http://www.w3.org/1999/xlink" x="0px" y="0px"
	 viewBox="0 0 140 140" enable-background="new 0 0 140 140" xml:space="preserve">
<path fill="#02C38D" d="M28,26.9l-1.7-1c4.7-8.1,13.4-13.1,22.8-13.1c4.4,0,8.7,1.1,12.6,3.2l-1,1.8c-3.5-1.9-7.6-2.9-11.6-2.9
	C40.4,14.7,32.4,19.4,28,26.9z"/>
<linearGradient id="SVGID_1_" gradientUnits="userSpaceOnUse" x1="109.9174" y1="61.8823" x2="125.6884" y2="46.1117" gradientTransform="matrix(1 0 0 -1 0 142)">
	<stop  offset="0" style="stop-color:#02C38D"/>
	<stop  offset="2.534120e-02" style="stop-color:#05BE91"/>
	<stop  offset="0.354" style="stop-color:#2988C0"/>
	<stop  offset="0.6376" style="stop-color:#4460E2"/>
	<stop  offset="0.8622" style="stop-color:#5448F7"/>
	<stop  offset="1" style="stop-color:#5A3FFF"/>
</linearGradient>
<path fill="url(#SVGID_1_)" d="M117.8,99.2c6.2,0,11.2-5,11.2-11.2s-5-11.2-11.2-11.2c-6.2,0-11.2,5-11.2,11.2
	S111.6,99.2,117.8,99.2z"/>
<path fill="#02C38D" d="M117.8,105c-9.4,0-17-7.6-17-17s7.6-17,17-17s17,7.6,17,17S127.2,105,117.8,105z M117.8,73
	c-8.3,0-15,6.7-15,15s6.7,15,15,15s15-6.7,15-15S126.1,73,117.8,73z"/>
<path fill="#02C38D" d="M69,99.5h-2V87h34.3v2H69V99.5z"/>
<path fill="#02C38D" d="M82,88h-2v8.3h2V88z"/>
<path fill="#02C38D" d="M49.3,136.1c-25.3,0-45.8-20.6-45.8-45.8c0-10.1,3.3-19.4,8.8-27h-0.2V41.1c0-20.4,16.6-37,37-37
	s37,16.6,37,37v22c0,0.4-0.3,0.8-0.7,0.9s-0.9,0-1.1-0.3c-8.4-11-21.1-17.3-34.9-17.3c-24.2,0-43.8,19.7-43.8,43.8
	c0,24.2,19.7,43.8,43.8,43.8c13.9,0,26.7-6.4,35-17.5l1.6,1.2C77.2,129.4,63.8,136.1,49.3,136.1z M49,6.2c-19.3,0-35,15.7-35,35V61
	c8.4-10.1,21.1-16.6,35.2-16.6c13.5,0,26,5.8,34.7,15.9V41.1C84,21.9,68.3,6.2,49,6.2z"/>
<linearGradient id="SVGID_2_" gradientUnits="userSpaceOnUse" x1="23.6" y1="77.0751" x2="74.6" y2="26.075" gradientTransform="matrix(1 0 0 -1 0 142)">
	<stop  offset="0" style="stop-color:#02C38D"/>
	<stop  offset="6.322900e-02" style="stop-color:#05B887;stop-opacity:0.9368"/>
	<stop  offset="0.5137" style="stop-color:#1B705F;stop-opacity:0.4863"/>
	<stop  offset="0.8373" style="stop-color:#294347;stop-opacity:0.1627"/>
	<stop  offset="1" style="stop-color:#2E323D;stop-opacity:0"/>
</linearGradient>
<path fill="url(#SVGID_2_)" d="M49.1,54.4c-19.9,0-36.1,16.1-36.1,36s16.2,36.1,36.1,36.1s36.1-16.2,36.1-36.1S69,54.4,49.1,54.4z
	 M52,90.7v10.6h-5.8V90.7c-1.8-1-3-2.9-3-5.2c0-3.3,2.6-5.9,5.9-5.9c3.3,0,5.9,2.6,5.9,5.9C55,87.7,53.8,89.7,52,90.7z"/>
</svg>
