<?xml version="1.0" encoding="utf-8"?>
<!-- Generator: Adobe Illustrator 21.0.2, SVG Export Plug-In . SVG Version: 6.00 Build 0)  -->
<svg version="1.1" id="Слой_1" xmlns="http://www.w3.org/2000/svg" xmlns:xlink="http://www.w3.org/1999/xlink" x="0px" y="0px"
	 viewBox="0 0 1440 862" style="enable-background:new 0 0 1440 862;" xml:space="preserve">
<style type="text/css">
	.st0{fill:#191E29;}
	.st1{fill:url(#SVGID_1_);fill-opacity:5.000000e-02;}
	.st2{fill:url(#SVGID_2_);fill-opacity:5.000000e-02;}
</style>
<path class="st0" d="M1440,113.9V862H0V409.1c7.6,3.6,15.6,6.8,24.9,9.3c51,13.9,112.7,8.9,148.4-39.8l0-0.1l0-0.1
	c77.6-105.9,146.1,2.2,220.5-21.7c18-5.8,29.7,3.8,42,13.8c11.1,9.1,33.6,27.9,50.7,26.8c30.3-1.9,54.3-1.4,78.5-21.4
	c11.3-9.3,37.2-14.9,56-18.7c22.8-4.6,48.5-9.7,70.1-26.8c42.6-33.6,47.4-65,81.6-100c62.5-56,55.5-40,79-58.5
	c18.3-17.2,17.7-14.9,31-23c7.8-4.8,17.3-16.5,28.1-15.4c110,11,59.1-17.4,185.8-46.7c14.3-6.4,20-14.9,25.7-23.4
	c7.6-11.3,15.2-23.7,43.3-30.6c30.5-2.8,32-6.3,49-19.8c11.7-8.2,19.4-12.6,33.1-12.6c5.5,0,11.9,0.7,20,2.1
	c30.7,5.5,45.3,22.2,67.4,44.4c10.5,10.6,22.7,22.9,39.2,36.7C1397.7,103.2,1420.8,110.2,1440,113.9z"/>
<linearGradient id="SVGID_1_" gradientUnits="userSpaceOnUse" x1="729.1429" y1="1226.9637" x2="717.1285" y2="439.3028">
	<stop  offset="0" style="stop-color:#7395BB"/>
	<stop  offset="1" style="stop-color:#FFFFFF"/>
</linearGradient>
<path class="st1" d="M1440,393.1V862H0V494.8c11.6,0.9,22.7,1.6,36.8-0.3c21.4-2.8,32.5-2.7,56,4.7c25.5,8,61.2-0.9,74-4.7
	c27.5-8.1,20.8-44.8,49.3-44.8c14.5,0,43.5,30.1,65.5,44.8c22.6,15.1,32,19.7,59,19.7s38.5,4.8,61.5-13.6
	c17.9-14.3,42.6-43.3,63.1-43.3c38.5,0,59.5-2.1,81.5-5.5c47-7.3,54.5,34.9,90.9,34.9c47,0,44-10.8,71-25.5c23.9-13,46-4.6,77.5-9.4
	c31.5-4.8,44.6-27.1,73.5-29.3c28-2.2,47.8-15.1,85.5-25.7c44.5-12.5,55.2-17.1,83.5-23.5c32.5-7.3,51.5-1.5,74.5,6.6
	c27.1,9.5,21.9-2.3,60.5,3.7c33.5,5.1,52.9,51.1,84.1,51.1c38,0,41.6-27.6,86.5-19.5c26.5,4.8,52.3-25.8,71.8-25.8
	C1421,389.5,1431.1,391.7,1440,393.1z"/>
<linearGradient id="SVGID_2_" gradientUnits="userSpaceOnUse" x1="719.5553" y1="1597.0367" x2="720.0412" y2="682.9363">
	<stop  offset="0" style="stop-color:#7395BB;stop-opacity:0"/>
	<stop  offset="1" style="stop-color:#FFFFFF"/>
</linearGradient>
<path class="st2" d="M1440,862H0V658.8c21.1-3.1,34.6-21.3,72-29.5c18-3.9,33.9-27.6,55.5-26c24.5,1.8,44.2-10.3,57-14
	c27.5-8.1,33.5-23,64-8c30.5,15,33.5,8.6,56,13C327,598.7,323,615,346,615.8c23,0.7,28.5-12.5,61-12.5s41,12.5,79.5,12.5
	s50-1.1,63-9.5c13-8.4,41.5-12,72.5-12c28,0,46.5-5,74-20.5c26.1-14.7,29.5-65,82.5-43.5c40.3,16.4,83.3,35,110.5,45
	c26.5,9.8,41.9,14,63,6c43.5-16.5,74.9-59.2,113.4-42c38.5,17.2,43,26.6,58,45.7c15,19.1,20.1,40.2,48.6,40.2
	c33,0,26.5-23.2,60.5-14c34,9.2,50.5-9.9,78.5-7c47.5,5,69.5,26.5,83,21c15.1-6.2,33.1-13.1,46-13.9V862z"/>
</svg>
