<?xml version="1.0" encoding="utf-8"?>
<!-- Generator: Adobe Illustrator 21.0.2, SVG Export Plug-In . SVG Version: 6.00 Build 0)  -->
<svg version="1.1" id="Слой_1" xmlns="http://www.w3.org/2000/svg" xmlns:xlink="http://www.w3.org/1999/xlink" x="0px" y="0px"
	 viewBox="0 0 133 133" enable-background="new 0 0 133 133" xml:space="preserve">
<linearGradient id="SVGID_1_" gradientUnits="userSpaceOnUse" x1="32.6311" y1="101.2688" x2="100.3683" y2="33.5309" gradientTransform="matrix(1 0 0 -1 0 134)">
	<stop  offset="0" style="stop-color:#02C38D"/>
	<stop  offset="6.322900e-02" style="stop-color:#05B887;stop-opacity:0.9368"/>
	<stop  offset="0.5137" style="stop-color:#1B705F;stop-opacity:0.4863"/>
	<stop  offset="0.8373" style="stop-color:#294347;stop-opacity:0.1627"/>
	<stop  offset="1" style="stop-color:#2E323D;stop-opacity:0"/>
</linearGradient>
<path fill="url(#SVGID_1_)" d="M66.5,18.7c-26.5,0-47.9,21.5-47.9,47.9c0,26.5,21.5,47.9,47.9,47.9c26.5,0,47.9-21.5,47.9-47.9
	S93,18.7,66.5,18.7z M92.9,66.7c0,14.6-11.8,26.5-26.5,26.5C51.9,93.1,40,81.3,40,66.7s11.8-26.5,26.5-26.5
	C81.1,40.2,92.9,52.1,92.9,66.7z"/>
<linearGradient id="SVGID_2_" gradientUnits="userSpaceOnUse" x1="51.3675" y1="82.432" x2="81.5939" y2="52.2057" gradientTransform="matrix(1 0 0 -1 0 134)">
	<stop  offset="0" style="stop-color:#02C38D"/>
	<stop  offset="0.5001" style="stop-color:#2D83C4"/>
	<stop  offset="1" style="stop-color:#5A3FFF"/>
</linearGradient>
<path fill="url(#SVGID_2_)" d="M66.5,88.1c11.8,0,21.4-9.6,21.4-21.4c0-11.8-9.6-21.4-21.4-21.4s-21.4,9.6-21.4,21.4
	C45.1,78.5,54.7,88.1,66.5,88.1z"/>
<path fill="#02C38D" d="M12.8,57.8c-2.8,0-5-2.2-5-5s2.2-5,5-5c2.8,0,5,2.2,5,5S15.5,57.8,12.8,57.8z M12.8,49.8c-1.7,0-3,1.3-3,3
	s1.3,3,3,3s3-1.3,3-3S14.4,49.8,12.8,49.8z"/>
<path fill="#02C38D" d="M40.7,61.7H21.2l-6-5.4l1.3-1.5l5.4,4.9h18.8V61.7z"/>
<path fill="#02C38D" d="M16.6,90.4c-2.8,0-5-2.2-5-5s2.2-5,5-5s5,2.2,5,5S19.3,90.4,16.6,90.4z M16.6,82.4c-1.7,0-3,1.3-3,3
	s1.3,3,3,3s3-1.3,3-3C19.6,83.8,18.2,82.4,16.6,82.4z"/>
<path fill="#02C38D" d="M17.6,80.6h-2V72h23.9v2H17.6V80.6z"/>
<path fill="#02C38D" d="M5.6,71.8c-2.8,0-5-2.2-5-5c0-2.8,2.2-5,5-5s5,2.2,5,5C10.6,69.6,8.4,71.8,5.6,71.8z M5.6,63.8
	c-1.7,0-3,1.3-3,3c0,1.7,1.3,3,3,3s3-1.3,3-3C8.6,65.1,7.3,63.8,5.6,63.8z"/>
<path fill="#02C38D" d="M39.9,65.8H9.6v2h30.3V65.8z"/>
<path fill="#02C38D" d="M120.5,85.7c-2.8,0-5-2.2-5-5c0-2.8,2.2-5,5-5s5,2.2,5,5C125.5,83.5,123.2,85.7,120.5,85.7z M120.5,77.7
	c-1.7,0-3,1.3-3,3c0,1.7,1.3,3,3,3s3-1.3,3-3C123.5,79.1,122.1,77.7,120.5,77.7z"/>
<path fill="#02C38D" d="M116.7,78.7l-5.4-4.9H92.6v-2h19.5l6,5.4L116.7,78.7z"/>
<path fill="#02C38D" d="M116.7,53c-2.8,0-5-2.2-5-5s2.2-5,5-5c2.8,0,5,2.2,5,5S119.4,53,116.7,53z M116.7,45.1c-1.7,0-3,1.3-3,3
	c0,1.7,1.3,3,3,3c1.7,0,3-1.3,3-3C119.7,46.4,118.3,45.1,116.7,45.1z"/>
<path fill="#02C38D" d="M117.7,61.5H93.2v-2h22.5v-6.6h2V61.5z"/>
<path fill="#02C38D" d="M127.6,71.7c-2.8,0-5-2.2-5-5c0-2.8,2.2-5,5-5s5,2.2,5,5C132.6,69.4,130.4,71.7,127.6,71.7z M127.6,63.7
	c-1.7,0-3,1.3-3,3c0,1.7,1.3,3,3,3c1.7,0,3-1.3,3-3C130.6,65,129.3,63.7,127.6,63.7z"/>
<path fill="#02C38D" d="M123.7,65.7H93.4v2h30.3V65.7z"/>
<path fill="#02C38D" d="M66.5,94.7c-15.4,0-28-12.5-28-28s12.5-28,28-28c15.4,0,28,12.5,28,28S81.9,94.7,66.5,94.7z M66.5,40.7
	c-14.3,0-26,11.6-26,26c0,14.3,11.6,26,26,26c14.3,0,26-11.6,26-26C92.5,52.4,80.8,40.7,66.5,40.7z"/>
<path fill="#02C38D" d="M68.5,132.6c-19.7,0-38.2-8.7-50.8-23.8l1.5-1.3c12.2,14.7,30.2,23.1,49.2,23.1c17.1,0,33.2-6.7,45.3-18.7
	l1.4,1.4C102.7,125.8,86.1,132.6,68.5,132.6z"/>
<path fill="#02C38D" d="M19.9,24.2l-1.5-1.3C31,8.8,49,0.6,67.9,0.6c17.6,0,34.2,6.9,46.7,19.3l-1.4,1.4C101,9.3,85,2.6,67.9,2.6
	C49.5,2.6,32.1,10.5,19.9,24.2z"/>
</svg>
