<?xml version="1.0" encoding="utf-8"?>
<!-- Generator: Adobe Illustrator 21.0.2, SVG Export Plug-In . SVG Version: 6.00 Build 0)  -->
<svg version="1.1" id="Слой_1" xmlns="http://www.w3.org/2000/svg" xmlns:xlink="http://www.w3.org/1999/xlink" x="0px" y="0px"
	 viewBox="0 0 132 132" enable-background="new 0 0 132 132" xml:space="preserve">
<linearGradient id="SVGID_1_" gradientUnits="userSpaceOnUse" x1="0.6992" y1="90" x2="54.3992" y2="90" gradientTransform="matrix(1 0 0 -1 0 134)">
	<stop  offset="0" style="stop-color:#02C38D"/>
	<stop  offset="1" style="stop-color:#202530;stop-opacity:0"/>
</linearGradient>
<path fill="url(#SVGID_1_)" d="M54.4,39H0.7v10h53.7V39z"/>
<linearGradient id="SVGID_2_" gradientUnits="userSpaceOnUse" x1="0.6992" y1="77.1001" x2="54.3992" y2="77.1001" gradientTransform="matrix(1 0 0 -1 0 134)">
	<stop  offset="0" style="stop-color:#02C38D"/>
	<stop  offset="1" style="stop-color:#202530;stop-opacity:0"/>
</linearGradient>
<path fill="url(#SVGID_2_)" d="M54.4,51.9H0.7v10h53.7V51.9z"/>
<linearGradient id="SVGID_3_" gradientUnits="userSpaceOnUse" x1="0.6992" y1="64.3" x2="54.3992" y2="64.3" gradientTransform="matrix(1 0 0 -1 0 134)">
	<stop  offset="0" style="stop-color:#02C38D"/>
	<stop  offset="1" style="stop-color:#202530;stop-opacity:0"/>
</linearGradient>
<path fill="url(#SVGID_3_)" d="M54.4,64.7H0.7v10h53.7V64.7z"/>
<linearGradient id="SVGID_4_" gradientUnits="userSpaceOnUse" x1="0.6992" y1="51.3999" x2="54.3992" y2="51.3999" gradientTransform="matrix(1 0 0 -1 0 134)">
	<stop  offset="0" style="stop-color:#02C38D"/>
	<stop  offset="1" style="stop-color:#202530;stop-opacity:0"/>
</linearGradient>
<path fill="url(#SVGID_4_)" d="M54.4,77.6H0.7v10h53.7V77.6z"/>
<linearGradient id="SVGID_5_" gradientUnits="userSpaceOnUse" x1="0.6992" y1="38.5" x2="54.3992" y2="38.5" gradientTransform="matrix(1 0 0 -1 0 134)">
	<stop  offset="0" style="stop-color:#02C38D"/>
	<stop  offset="1" style="stop-color:#202530;stop-opacity:0"/>
</linearGradient>
<path fill="url(#SVGID_5_)" d="M54.4,90.5H0.7v10h53.7V90.5z"/>
<linearGradient id="SVGID_6_" gradientUnits="userSpaceOnUse" x1="0.6992" y1="25.6" x2="54.3992" y2="25.6" gradientTransform="matrix(1 0 0 -1 0 134)">
	<stop  offset="0" style="stop-color:#02C38D"/>
	<stop  offset="1" style="stop-color:#202530;stop-opacity:0"/>
</linearGradient>
<path fill="url(#SVGID_6_)" d="M54.4,103.4H0.7v10h53.7V103.4z"/>
<path fill="#02C38D" d="M53.4,124.5H0.7v2h52.7V124.5z"/>
<path fill="#02C38D" d="M54.4,24.7H0.7v2h53.7V24.7z"/>
<linearGradient id="SVGID_7_" gradientUnits="userSpaceOnUse" x1="55" y1="114.6001" x2="108.7" y2="114.6001" gradientTransform="matrix(1 0 0 -1 0 134)">
	<stop  offset="0" style="stop-color:#02C38D"/>
	<stop  offset="1" style="stop-color:#202530;stop-opacity:0"/>
</linearGradient>
<path fill="url(#SVGID_7_)" d="M108.7,14.4H55v10h53.7V14.4z"/>
<linearGradient id="SVGID_8_" gradientUnits="userSpaceOnUse" x1="55" y1="101.7" x2="108.7" y2="101.7" gradientTransform="matrix(1 0 0 -1 0 134)">
	<stop  offset="0" style="stop-color:#02C38D"/>
	<stop  offset="1" style="stop-color:#202530;stop-opacity:0"/>
</linearGradient>
<path fill="url(#SVGID_8_)" d="M108.7,27.3H55v10h53.7V27.3z"/>
<linearGradient id="SVGID_9_" gradientUnits="userSpaceOnUse" x1="55" y1="88.8999" x2="108.7" y2="88.8999" gradientTransform="matrix(1 0 0 -1 0 134)">
	<stop  offset="0" style="stop-color:#02C38D"/>
	<stop  offset="1" style="stop-color:#202530;stop-opacity:0"/>
</linearGradient>
<path fill="url(#SVGID_9_)" d="M108.7,40.1H55v10h53.7V40.1z"/>
<linearGradient id="SVGID_10_" gradientUnits="userSpaceOnUse" x1="55" y1="76" x2="108.7" y2="76" gradientTransform="matrix(1 0 0 -1 0 134)">
	<stop  offset="0" style="stop-color:#02C38D"/>
	<stop  offset="1" style="stop-color:#202530;stop-opacity:0"/>
</linearGradient>
<path fill="url(#SVGID_10_)" d="M108.7,53H55v10h53.7V53z"/>
<linearGradient id="SVGID_11_" gradientUnits="userSpaceOnUse" x1="55" y1="63.1001" x2="108.7" y2="63.1001" gradientTransform="matrix(1 0 0 -1 0 134)">
	<stop  offset="0" style="stop-color:#02C38D"/>
	<stop  offset="1" style="stop-color:#202530;stop-opacity:0"/>
</linearGradient>
<path fill="url(#SVGID_11_)" d="M108.7,65.9H55v10h53.7V65.9z"/>
<linearGradient id="SVGID_12_" gradientUnits="userSpaceOnUse" x1="55" y1="50.2" x2="108.7" y2="50.2" gradientTransform="matrix(1 0 0 -1 0 134)">
	<stop  offset="0" style="stop-color:#02C38D"/>
	<stop  offset="1" style="stop-color:#202530;stop-opacity:0"/>
</linearGradient>
<path fill="url(#SVGID_12_)" d="M108.7,78.8H55v10h53.7V78.8z"/>
<path fill="#02C38D" d="M107.7,0H55v2h52.7V0z"/>
<path fill="#02C38D" d="M103.1,132c-7.6,0-14.8-3-20.2-8.4s-8.4-12.6-8.4-20.2s3-14.8,8.4-20.2c5.4-5.4,12.6-8.4,20.2-8.4
	s14.8,3,20.2,8.4c5.4,5.4,8.4,12.6,8.4,20.2s-3,14.8-8.4,20.2C117.9,129,110.7,132,103.1,132z M103.1,76.8c-7.1,0-13.8,2.8-18.8,7.8
	s-7.8,11.7-7.8,18.8s2.8,13.8,7.8,18.8S96,130,103.1,130s13.8-2.8,18.8-7.8s7.8-11.7,7.8-18.8s-2.8-13.8-7.8-18.8
	S110.2,76.8,103.1,76.8z"/>
<linearGradient id="SVGID_13_" gradientUnits="userSpaceOnUse" x1="87.5435" y1="46.1567" x2="118.656" y2="15.0435" gradientTransform="matrix(1 0 0 -1 0 134)">
	<stop  offset="0" style="stop-color:#02C38D"/>
	<stop  offset="0.2701" style="stop-color:#1C9CAF"/>
	<stop  offset="0.7667" style="stop-color:#4859E8"/>
	<stop  offset="1" style="stop-color:#5A3FFF"/>
</linearGradient>
<path fill="url(#SVGID_13_)" d="M103.1,125.4c12.2,0,22-9.8,22-22c0-12.2-9.8-22-22-22c-12.2,0-22,9.8-22,22
	C81.1,115.6,90.9,125.4,103.1,125.4z"/>
</svg>
