<?xml version="1.0" encoding="utf-8"?>
<!-- Generator: Adobe Illustrator 20.1.0, SVG Export Plug-In . SVG Version: 6.00 Build 0)  -->
<svg version="1.1" id="Layer_1" xmlns="http://www.w3.org/2000/svg" xmlns:xlink="http://www.w3.org/1999/xlink" x="0px" y="0px"
	 viewBox="0 0 1438 683" style="enable-background:new 0 0 1438 683;" xml:space="preserve">
<style type="text/css">
	.st0{fill:url(#SVGID_1_);fill-opacity:0.3;}
	.st1{fill:url(#SVGID_2_);fill-opacity:0.6;}
	.st2{fill:url(#SVGID_3_);}
	.st3{fill:url(#SVGID_4_);}
	.st4{fill:none;}
</style>
<linearGradient id="SVGID_1_" gradientUnits="userSpaceOnUse" x1="720.1044" y1="418.4185" x2="720.1044" y2="1623.463">
	<stop  offset="0" style="stop-color:#7395BB"/>
	<stop  offset="1" style="stop-color:#FFFFFF;stop-opacity:0"/>
</linearGradient>
<path class="st0" d="M-2,684.5l1444.1,0.5V412.3c-3.7-0.1-7.6-0.1-11.9-0.1c-57.9,0-75.3,0.7-94.9,5.9c-19.6,5.2-62.5,7.4-109.3,7.4
	c-42.2,0-70.1,3.1-111.5,12.7c-12.7,2.9-21.8,8.2-31,13.5c-19.4,11.1-39.2,22.5-93.2,13.5c-21.7-3.6-43.9-7.4-65.4-11.1l-1.1-0.2
	h-0.1l-0.5-0.1c-38-6.5-73.4-12.6-99.4-16.5c-40-6.1-63.2-8.7-94.9-3.7c-22.6,3.5-43.1,9-62.6,14.2l0,0l0,0
	c-37,9.9-70.3,18.8-108.3,11.8c-52.3-9.7-63-15.3-81-25.1c-2-1.1-4-2.2-6.2-3.3c-5.2-2.8-9.7-5.6-14-8.3l0,0
	c-14.1-8.9-26.3-16.6-59.3-16.6c-22.7,0-32.9,3-42.3,5.7l0,0c-11.1,3.2-21,6.1-48.8,3c-29.1-3.2-49.7-0.8-69.7,1.6l0,0l0,0l0,0
	c-15.3,1.8-30.2,3.6-48.5,2.8c-38.2-1.6-65.4-6.2-85.6-9.6l0,0l0,0c-17.8-3.1-30-5.1-39.6-3.5c-21.2,3.5-46.2,7.5-65.3,8.4V684.5z"
	/>
<linearGradient id="SVGID_2_" gradientUnits="userSpaceOnUse" x1="720.1044" y1="447.8975" x2="720.1044" y2="1519.688">
	<stop  offset="0" style="stop-color:#7395BB"/>
	<stop  offset="1" style="stop-color:#FFFFFF;stop-opacity:0"/>
</linearGradient>
<path class="st1" d="M-2,684.5l1443.9,0.5l0,0l0,0l0.3-248.4h-5.7c-36.1,0-53,12.6-67.5,23.5l0,0c-8.8,6.6-16.7,12.5-27.5,14.6
	c-36.8,7-68-1.9-96.3-9.9l0,0c-18.3-5.2-35.4-10-51.9-10c-50.5,0-61.8,3.9-81.6,10.8c-7.1,2.5-15.3,5.3-26.8,8.5
	c-19.8,5.5-50.1,4.6-80,3.8l0,0c-20.1-0.5-40-1.1-56.2,0.3c-30.8,2.6-42.6,5-51.4,6.8c-9.4,1.9-15.6,3.2-38.2,3.2
	c-29.1,0-56,3.9-87.6,8.4c-15.8,2.3-32.7,4.7-51.7,6.9c-39.2,4.5-59.1,9.1-76.9,13.1c-12.7,2.9-24.4,5.6-41.3,7.8
	c-41.9,5.6-66.8,1.3-92.6-3.3l0,0l0,0c-6.6-1.2-13.3-2.3-20.3-3.3c-21.2-3.1-27.2-6.1-35-10c-7.3-3.7-16.3-8.1-40.4-14.2
	c-15.6-3.9-30.1-10.5-44.8-17.2l0,0c-23.6-10.7-47.5-21.6-76.4-21.6c-52,0-61.8-0.5-114.5-3.4l-17.7-1.1
	C99.5,447,77.3,463.5,60,476.5l0,0l0,0c-6.2,4.7-11.9,8.9-18.5,11.5c-13.3,5.4-28.8,10.7-43.5,14.3V684.5z"/>
<linearGradient id="SVGID_3_" gradientUnits="userSpaceOnUse" x1="720.1044" y1="477.2068" x2="720.1044" y2="1416.5065">
	<stop  offset="0" style="stop-color:#7395BB"/>
	<stop  offset="1" style="stop-color:#FFFFFF;stop-opacity:0"/>
</linearGradient>
<path class="st2" d="M-2,684.5l1443.9,0.5l0.3-162.9c-2.4,0.1-4.9,0.1-7.5,0.1c-32.1,0-54-11.5-72.8-21.3l0,0l0,0
	c-15.1-7.9-28-14.7-42.6-13.5c-30.7,2.5-48.7-4.1-65.9-10.4l0,0c-13.5-4.9-26.5-9.7-44.7-9.7c-70.8,0-82.1,2.9-110,10.9
	c-17.3,4.9-42.3,6.3-71.8,8c-12.6,0.7-25.8,1.5-39.7,2.5c-22.1,1.7-42.5,6.1-62.6,10.3c-22.3,4.8-44.1,9.4-67,10.1
	c-27.7,0.9-46.3,3.4-71.9,6.9l0,0l0,0l0,0c-13.3,1.8-28.4,3.9-47.8,6.1c-36,4.1-49.2,7.3-60.5,10c-9.6,2.3-17.8,4.3-37.5,6.1
	c-27.1,2.5-36.3,2.5-47.9,2.4l0,0l0,0c-9.4-0.1-20.5-0.2-43.9,1.1c-23.1,1.2-46.3,6.7-71.3,12.7c-23.4,5.5-48.3,11.5-76.3,14.6
	c-32.1,3.7-38.5,1-50.9-4.1l0,0l0,0c-6.2-2.6-14.1-5.8-27.4-9.2c-55-14-86.6-17.4-152.8-8.4c-35.4,4.8-97.2-2.6-140.9-9
	c-10.8-1.6-21-1.6-30.4-1L-2,684.5L-2,684.5z"/>
<linearGradient id="SVGID_4_" gradientUnits="userSpaceOnUse" x1="704.1052" y1="842.0662" x2="749.1349" y2="248.0705">
	<stop  offset="7.378510e-02" style="stop-color:#191F29"/>
	<stop  offset="1" style="stop-color:#191F29"/>
</linearGradient>
<path class="st3" d="M-2,580.3v104.1l1443.9,0.5l0.3-89.6c-33-1-72.4-31.2-105.2-56.4l0,0l0,0l0,0c-24.4-18.7-45.3-34.7-57.4-34
	c-21.1,1.2-29.8-4.9-39-11.2l0,0c-8.7-6.1-17.8-12.4-38.5-12.4c-42.1,0-73.1,0.5-97.6,8.6c-14.7,4.9-35,6.2-58.2,7.7l0,0
	c-24.3,1.6-51.5,3.3-78.4,9.6c-20.9,4.9-38.5,12.2-55.1,19.1c-23.4,9.7-44.8,18.6-70.2,18.6c-12.2,0-25.6-0.7-39.8-1.4l0,0
	c-36.8-1.8-77.8-3.9-110.4,5c-24.4,6.6-46.8,10.1-66.6,13.1l0,0l0,0l0,0l0,0c-29.9,4.6-54.1,8.3-70.8,20.7
	c-6.6,5-11.9,9.5-16.6,13.6l0,0c-13.3,11.7-22.7,19.9-51,24.8c-16.8,2.9-24,7-31.2,11.1c-9.7,5.5-19.5,11.1-52.1,13.8
	c-18.3,1.5-32.4,4.6-45.7,7.6l0,0l0,0c-21.4,4.7-40.7,9-72.2,5.5c-29.1-3.2-40.6-12.5-55.2-24.3c-11-8.9-24-19.3-47.6-29.6
	c-31.3-13.7-69.1-14.8-97-15.5c-14.3-0.4-25.9-0.7-32.8-2.6C35.5,582,15.3,580.7-2,580.3z"/>
<line class="st4" x1="-2" y1="684.5" x2="1441.9" y2="685"/>
</svg>
