<?xml version="1.0" encoding="utf-8"?>
<!-- Generator: Adobe Illustrator 20.1.0, SVG Export Plug-In . SVG Version: 6.00 Build 0)  -->
<svg version="1.1" id="Layer_1" xmlns="http://www.w3.org/2000/svg" xmlns:xlink="http://www.w3.org/1999/xlink" x="0px" y="0px"
	 viewBox="0 0 1440 746" style="enable-background:new 0 0 1440 746;" xml:space="preserve">
<style type="text/css">
	.st0{opacity:0.35;fill:url(#SVGID_1_);enable-background:new    ;}
	.st1{opacity:0.4;fill:url(#SVGID_2_);enable-background:new    ;}
	.st2{fill:url(#SVGID_3_);}
	.st3{fill:url(#SVGID_4_);}
	.st4{fill:url(#SVGID_5_);}
</style>
<linearGradient id="SVGID_1_" gradientUnits="userSpaceOnUse" x1="669.4293" y1="-1321.5806" x2="745.4462" y2="-337.5824" gradientTransform="matrix(1 0 0 1 0 1144.4692)">
	<stop  offset="0" style="stop-color:#7395BB"/>
	<stop  offset="1" style="stop-color:#FFFFFF;stop-opacity:0"/>
</linearGradient>
<path class="st0" d="M0,747.2h609l0,0h831V207.8c-2.2-2.1-4.3-4.2-6.3-6.2c-2.7-2.7-5.3-5.3-7.8-7.8l0,0l-1.9-1.9l-2.6-2.6
	c-19.7-20-34.4-34.8-62.9-39.9c-28.2-5-36.7-1.1-53.1,10.4c-1,0.8-1.9,1.5-2.8,2.2l-1.6,1.3c-13.1,10.6-17,13.7-44.6,16.3
	c-27.3,6.8-35.3,18.7-42.7,29.7l-0.6,0.9c-5.7,8.5-11.3,16.9-25.7,23.4c-55.2,12.7-76.7,25.3-92.5,34.6
	c-20.4,12-31.3,18.3-93.3,12.1c-7.7-0.8-14.8,5-21,10.1c-2.5,2-4.9,4-7.1,5.3c-3,1.8-5.3,3.1-7.3,4.3c-6.7,3.8-9.6,5.5-23.7,18.7
	c-8,6.3-12.5,8.6-17.4,11.1c-9.4,4.8-20.5,10.5-61.6,47.4c-14.6,15-23.9,29.3-33,43.3c-12.2,18.9-24.2,37.4-48.6,56.6
	c-21.7,17.1-47.3,22.3-70.1,26.9c-18.8,3.8-44.7,9.4-56,18.7c-22,18.2-44,19.5-70.6,20.9l0,0c-2.6,0.1-5.2,0.3-7.9,0.5
	c-16.6,1-38.4-16.7-49.8-26l-0.9-0.8c-12.3-10-24-19.6-42-13.8c-28.4,9.1-55.9-1-83.4-11.1c-44.6-16.4-89.1-32.7-137.1,32.8v0.1v0.1
	c-35.7,48.8-97.4,53.7-148.4,39.8c-21.5-5.9-36.5-15.1-53.9-25.8l-3.7-2.3c-2.1-1.3-4.1-2.5-6.3-3.8c-9.6-5.8-17.3-10.4-23.3-10.5
	C17,522.7,8.4,530.1,0,540V747.2z"/>
<linearGradient id="SVGID_2_" gradientUnits="userSpaceOnUse" x1="719.6778" y1="-937.0892" x2="720.0343" y2="-490.203" gradientTransform="matrix(1 0 0 1 0 1144.4692)">
	<stop  offset="0" style="stop-color:#7395BB;stop-opacity:0.96"/>
	<stop  offset="1" style="stop-color:#FFFFFF;stop-opacity:0"/>
</linearGradient>
<path class="st1" d="M1440,349.9c-43,12-69.8,5.7-112.7-14.7c-12.1-5.7-19.2-11.5-25-16c-11.5-9.2-17.4-13.8-44.9-5.1
	c-39.7,12.5-78.3,13.8-116.9,15c-40.5,1.3-81,2.6-123,17c0,0-29.6,10.1-40.9,14.2c-21.9,8-37.7,13.8-61.8,17
	c-11.5,1.5-38.5,30.6-62.9,56.9l-0.1,0.1c-17.9,19.2-34.3,37-42.3,41.3c-16.9,9.2-34.2,18.6-53.2,23c-4.7,1.1-9.2,2.1-13.8,3
	c-7.1,1.4-13.9,2.7-20.5,4c-25.5,4.8-47.1,8.8-61.5,19.1c-2.8,2-5.4,3.9-7.8,5.6l-0.2,0.1c-28,20.2-30.8,22.2-73,24.9
	c-15.9,1-41.3-11.4-53.6-20c-15.7-11-32.2-22.6-58.7-16.2c-22.2,5.3-41.3,3.6-62,1.6c-15.4-1.4-31.7-2.9-51.1-1.8
	c-32.9,2-52.4,19.1-72.1,36.4c-20.5,18-41.4,36.3-78.1,38.6c-48.2,3-79.2,4.9-110.8-13.3l-3-1.8c-9.7-5.6-15.3-8.8-24.9-16
	c-16.8-12.6-31.7-23.8-43.4-24.3c-9.6-0.4-16.1,6-21.9,15.1v193.7h1440L1440,349.9L1440,349.9z"/>
<linearGradient id="SVGID_3_" gradientUnits="userSpaceOnUse" x1="719.6551" y1="-829.5972" x2="719.9308" y2="-471.614" gradientTransform="matrix(1 0 0 1 0 1144.4692)">
	<stop  offset="0" style="stop-color:#7395BB;stop-opacity:0.96"/>
	<stop  offset="1" style="stop-color:#FFFFFF;stop-opacity:0"/>
</linearGradient>
<path class="st2" d="M0,747.2h1440V518.5c-25.9-1.3-38.9-1.1-74.2,1.1c-25.2,1.6-47.4-17.8-69.3-36.9
	c-13.6-11.9-27.1-23.7-41.2-30.3c-21.8-10.3-30.1-18.3-37-24.8c-7.4-7.1-13-12.5-31.8-17.1c-6.2-1.6-12.2-3.4-18.1-5.3
	c-23.1-7.2-45.3-14.2-81.1-1.2c-14.4,5.2-24.3,10.9-35,17.1c-15.1,8.7-31.8,18.4-65.4,29.1c-16.2,5.2-30.7,10.7-44.2,15.9
	c-26.9,10.3-49.9,19.1-75.2,20.7c-19.7,1.2-24.8,3.9-32.9,8.1c-7.5,3.9-17.4,9.2-43.9,15.7c-14.1,3.5-31.4,3.5-49,3.6
	c-26.2,0.1-52.7,0.1-69.3,11.6c-2.8,1.9-5.3,3.8-7.6,5.5c-5.8,4.4-10.4,8.4-14.6,12l0,0c-16.5,14.2-25.8,22.2-69.8,24.9
	c-14.4,0.9-29.9-7.4-46.5-16.3c-25.7-13.8-54-29-85.1-13.7c-9.1,4.5-15.3,16.2-22.2,29.2c-11.3,21.4-24.4,46.3-55.9,48.3l-87.3,5.4
	c-16.8,1-32.4,5.5-46.8,9.7c-17.7,5.1-33.6,9.7-47.6,6.7c-21.7-4.6-34.6-11.7-53.3-21.9l-0.1-0.1l-0.5-0.3l-0.3-0.2
	c-5.5-3-11.5-6.3-18.4-9.8c-30-15.5-66.7-32.6-85.7-31.5c-15.5,1-23.8,8-30.9,16.8v156.7H0z"/>
<linearGradient id="SVGID_4_" gradientUnits="userSpaceOnUse" x1="720" y1="-625.9968" x2="720" y2="408.0914" gradientTransform="matrix(1 0 0 1 0 1144.4692)">
	<stop  offset="0" style="stop-color:#7395BB"/>
	<stop  offset="1" style="stop-color:#FFFFFF;stop-opacity:0"/>
</linearGradient>
<path class="st3" d="M1440,569.3c-7.9,1.5-15.3,3.9-22.8,6.3c-17.2,5.6-34.8,11.3-60.5,6.7c-24.7-4.4-32.9,1.6-42.2,8.3
	c-7.8,5.7-16.4,11.9-36.1,13.1c-28.7,1.8-40.3-12.3-53.7-28.6l-0.3-0.4l-0.3-0.3c-1.3-1.6-2.7-3.2-4-4.9c-1.2-1.5-2.5-2.9-3.8-4.4
	c-1.5-1.7-3.1-3.4-4.7-5l-1.6-1.6c-1.5-1.5-2.9-3-4.3-4.4c-17-17.5-27-27.8-73.8-43.3c-33.9-11.3-61.9,7.5-92.8,28.3
	c-16.3,11-33.5,22.5-52.7,30.4c-27.1,11.2-47.6,7.4-83.1-2c-23.2-6.1-55-15.8-89-26.2l-0.3-0.1l-0.3-0.1
	c-19.3-5.9-39.4-12-58.9-17.8c-48.2-14.3-64,8.5-79.5,30.7c-7.4,10.6-14.7,21.1-25.4,27.4c-34.9,20.5-58.8,27.9-95.5,30.2
	c-40.7,2.5-77.8,9-94.2,20.1c-16.4,11-31.4,13.2-81.9,16.3c-26.3,1.6-42.2-1.4-57.5-4.3c-14-2.7-27.4-5.2-47.8-4
	c-22.7,1.4-35.1,6.6-46.3,11.4c-9.8,4.1-18.7,7.9-32.8,8.4c-15.9,0.5-22.3-4.7-29.2-10.2c-6.2-5-12.8-10.2-26.9-11.8
	c-9.8-1.1-16.8-1-23.2-0.9c-13,0.2-23.7,0.4-51.3-9.9c-29.2-10.7-41-4.7-58.1,3.9c-1.7,0.8-3.4,1.7-5.2,2.6v114h1440V569.3z"/>
<linearGradient id="SVGID_5_" gradientUnits="userSpaceOnUse" x1="760.4738" y1="-655.1775" x2="696.8087" y2="-326.4865" gradientTransform="matrix(1 0 0 1 0 1144.4692)">
	<stop  offset="0" style="stop-color:#191F29"/>
	<stop  offset="1" style="stop-color:#191F29"/>
</linearGradient>
<path class="st4" d="M0,747.2h1440V598.9c-7.2,1.5-14,3.7-20.8,6c-17.2,5.6-34.8,11.3-60.6,6.7c-7.8-1.4-12.7,0.4-18.8,2.5
	c-40.6,14.5-98.3,2.5-125.6-30.6c-4-4.9-8.3-10-13.2-15c-2.1-2.1-4-4.1-5.9-6c-10-10.2-13.3-10.8-23.7-12.6
	c-7.4-1.3-18.3-3.2-37.7-9.7c-33.9-11.3-61.9,7.5-92.8,28.3c-16.3,11-33.4,22.5-52.7,30.4c-27.1,11.2-47.6,7.4-83.1-2
	c-23.2-6.1-45.5-19.1-68.2-32.4c-22.4-13.1-45.2-26.4-69.9-33.7c-48.2-14.3-64,8.5-79.5,30.7l-1.8,2.6
	c-26.1,37.5-51.3,73.8-103.9,77c-14.6,0.9-27.9-2.4-41.1-5.8c-23.6-6-47.4-12-79.6,5.8c-3.4,2.3-6.8,5.1-10.4,8.1l0,0
	c-13.5,11.4-30.6,25.8-70.5,28.2c-17.1,1.1-32.5-6.5-48.5-14.3c-17.2-8.5-35.2-17.3-56.8-16c-18.7,1.2-33.8,13.3-47.4,24.2
	c-11.2,9-21.4,17.2-31.7,17.5c-15.9,0.5-22.3-4.7-29.2-10.2c-6.2-5-12.8-10.2-26.9-11.8c-9.8-1.1-16.8-1-23.2-0.9
	c-13,0.2-23.7,0.4-51.3-9.9c-5.1-1.9-9.7-3.7-13.9-5.4h-0.1c-19.5-7.7-30-11.9-44.1-4.8c-2.3,1.1-4.6,2.3-7.1,3.5L0,747.2L0,747.2z"
	/>
</svg>
