<?xml version="1.0" encoding="utf-8"?>
<!-- Generator: Adobe Illustrator 20.1.0, SVG Export Plug-In . SVG Version: 6.00 Build 0)  -->
<svg version="1.1" id="Layer_1" xmlns="http://www.w3.org/2000/svg" xmlns:xlink="http://www.w3.org/1999/xlink" x="0px" y="0px"
	 viewBox="0 0 1443.2 271.9" style="enable-background:new 0 0 1443.2 271.9;" xml:space="preserve">
<linearGradient id="SVGID_1_" gradientUnits="userSpaceOnUse" x1="1564.9969" y1="637.4739" x2="1575.2683" y2="1453.5159" gradientTransform="matrix(-1 0 0 1 2287.4873 -626.2625)">
	<stop  offset="0" style="stop-color:#7395BB"/>
	<stop  offset="1" style="stop-color:#FFFFFF;stop-opacity:0"/>
</linearGradient>
<path style="fill:url(#SVGID_1_);fill-opacity:0.3;" d="M1443.2,118.8c-9.2,1-19.9,2-34.9,2.1c-10,0-21.3-4.1-33.5-8.5
	c-16.2-5.9-34-12.3-52-10.3c-29.7,3.3-44.3-1.5-59.1-6.4c-11.9-3.9-23.9-7.9-43.9-7.9c-19.1,0-34.5,8.8-50.3,18
	c-15.1,8.6-30.5,17.6-49.9,19.4c-22.1,2-32.1,1.1-40.2,0.4c-8.7-0.8-15.1-1.4-31.8,2.2c-27.3,5.9-49.9,10.2-88.6,4.8
	c-20.3-2.8-33-5.2-51.5-8.6h-0.1c-12.2-2.3-26.9-5-47.8-8.6c-17.8-3-32.3-6.4-45.3-9.4c-19.8-4.6-36.3-8.4-56.4-9.4
	c-17.4-0.8-30-5.5-43.1-10.3c-12.7-4.6-25.9-9.5-44.3-11.2c-14.3-1.3-27-1.3-38.8-1.2c-19.1,0.1-35.8,0.2-53.4-5.7
	c-8.8-2.9-15-5.7-20.4-8.1c-14.3-6.4-23.6-10.6-64.1-10.6c-19.4,0-31.9,6.1-44.8,12.5c-16,7.9-32.5,16.1-63.5,13.1
	c-26.2-2.5-51.2-4-97-4c-18.2,0-39.2-11.8-57.6-22.2c-6.2-3.5-12.1-6.8-17.5-9.5c-22.3-11-35.5-10.7-57.1-10.2
	c-4.9,0.1-10.2,0.2-16.1,0.2c-32.1,0-43.3,3.4-70.2,14.5c-9.1,3.7-19.2,8.8-29.2,13.9C26.3,65.1,11,72.2,0,75.2V45.1
	c6.7,0.3,15.4-0.4,24.8-3.3c17.3-5.2,27.7-11.4,36.8-16.8c10-5.9,18.3-10.8,32.3-12.5c12.6-1.5,17.9-4.2,22.9-6.7
	c5.6-2.8,10.7-5.4,25.3-5.7c12.7-0.3,19.9,2.4,27.8,5.3c9.2,3.4,19.3,7.1,40.1,7.1c18.5,0,34.2-2.3,50.5-4.8
	c17.8-2.7,36.3-5.5,60.2-5.5c38.3,0,60.3,10,75.6,16.9h0.1c3,1.3,5.8,2.6,8.3,3.6c15.5,6.2,32.7,12.8,63.1,12.8h2.1
	c32.8,0,69.7,0,86.6,10.3c3.5,2.1,6.5,4.6,9.6,7c12.2,9.6,24.8,19.6,66.6,13.2c50.3-7.8,115.5-12.5,150-12.5s66,7.4,99.9,28.6
	c45.5,28.5,58.4,29.1,104.2,16.5c45.8-12.7,64.3-23.8,82.1-37.8c12.6-10,25.9-13.4,44.7-18.2c4.3-1.1,8.9-2.2,13.9-3.6
	c3.9-1.1,7.9-2.2,12.2-3.5c7.3-2.2,12.8-3.9,17.2-5.3c16.8-5.3,18.6-5.9,50.6-11.2c27.3-4.5,45.6-4.9,64.9-5.4
	c9.3-0.3,18.8-0.5,29.7-1.2c39.2-2.5,57.8,14.9,70.9,27.1c5.8,5.4,10.5,9.8,15.4,11c18,4.5,39.4,9.6,54.8,10.2V118.8L1443.2,118.8z"
	/>
<linearGradient id="SVGID_2_" gradientUnits="userSpaceOnUse" x1="1564.483" y1="663.9936" x2="1569.4061" y2="1080.3745" gradientTransform="matrix(-1 0 0 1 2287.4873 -626.2625)">
	<stop  offset="0" style="stop-color:#7395BB"/>
	<stop  offset="1" style="stop-color:#FFFFFF;stop-opacity:0"/>
</linearGradient>
<path style="fill:url(#SVGID_2_);fill-opacity:0.6;" d="M0,75.2C11,72.3,26.3,65,40.8,57.7c10-5.1,20.1-10.2,29.2-13.9
	c26.9-11.1,38.1-14.5,70.2-14.5c5.9,0,11.2-0.1,16.1-0.2c21.6-0.5,34.8-0.8,57.1,10.2c5.4,2.7,11.3,6,17.5,9.5
	C249.3,59.1,270.3,71,288.5,71c45.8,0,70.8,1.5,97,4c31,2.9,47.5-5.2,63.5-13.1c12.9-6.3,25.4-12.5,44.8-12.5
	c40.5,0,49.8,4.2,64.1,10.6c5.4,2.4,11.5,5.1,20.4,8.1c17.6,5.9,34.3,5.8,53.4,5.7h1.2c11.4,0,23.3-0.1,37.1,1.2
	c18.4,1.7,32.1,6.6,44.8,11.3c13.1,4.8,25.7,9.5,43.1,10.3c20.1,1,36.6,4.8,56.4,9.4c13.1,3,27.5,6.3,45.3,9.4
	c21,3.6,35.6,6.3,47.8,8.6h0.1c18.5,3.4,31.2,5.8,51.5,8.6c38.6,5.4,61.2,1.1,88.6-4.8c16.7-3.6,23.1-3,31.8-2.2
	c8.1,0.8,18.1,1.7,40.2-0.4c19.4-1.8,34.9-10.7,49.9-19.4c15.9-9.1,31.2-18,50.3-18c20.1,0,32.1,4,43.9,7.9
	c14.8,4.9,29.4,9.7,59.1,6.4c18-2,35.8,4.4,52,10.3c12.2,4.4,23.6,8.5,33.5,8.5c14.8,0,25.5-1.1,34.7-2.1l-0.2,152.8L0.1,272.1
	L0,98.7"/>
<linearGradient id="SVGID_3_" gradientUnits="userSpaceOnUse" x1="1564.6656" y1="688.5101" x2="1568.8131" y2="1061.739" gradientTransform="matrix(-1 0 0 1 2287.4873 -626.2625)">
	<stop  offset="0" style="stop-color:#7395BB"/>
	<stop  offset="1" style="stop-color:#FFFFFF;stop-opacity:0"/>
</linearGradient>
<path style="fill:url(#SVGID_3_);" d="M0,90.7c0.8-0.2,2.6-0.6,3.4-0.9c3-1.2,6.2-2.7,9.7-4.4c12-5.7,27.4-13,47.4-15.8
	c15.3-2.1,26.6,2.4,38.4,7.1c10.7,4.3,21.9,8.8,37.2,8.8c18.7,0,36.3,21.9,53.1,43c12.1,15.1,23.9,29.8,35.3,35.4
	c21.3,10.5,41,11.3,65.4,11.3c33.8,0,65.1-27.4,97.8-55.9c35.5-31,72.5-63.3,115.8-63.3c41.7,0,45.6,2.4,54,7.5
	c2.9,1.7,6.3,3.8,11.9,6.2c13.8,6,34.3,7.8,58.4,9.9l9.9,0.9c2.4,0.2,5,0.5,7.5,0.7c4.2,0.4,8.5,0.9,12.8,1.4
	c17.8,2.1,34.8,9.4,51.4,16.6c17.7,7.6,35,15.1,52.7,16c3.7,0.2,7.3,0.3,10.7,0.5c27.3,1.2,47.1,2.1,86.9,9c28.8,5,38.5,9.8,46.8,14
	c7,3.5,12.9,6.5,28.2,8.6c22,3.1,29.5,3.1,39.6,3.2c7.6,0,16.7,0.1,34.7,1.5c16.8,1.3,25.4,13.6,34.8,26.9
	c10.4,14.6,21.6,30.6,45.6,34.7c14.5,2.5,25.9,5.6,36.5,8.4c17.2,4.6,32.3,8.7,55.3,8.7c21,0,38-14.5,55.5-29.4
	c20.3-17.3,41.3-35.1,69.9-31.8c53.2,6.2,69.6,2.6,99.9-4.1l6.3-1.4c10.5-2.3,20.8-2.6,30.4-2.2l-0.2,109.8L0.3,272L0,98.7"/>
<path style="fill:#FFFFFF;" d="M1443.2,179.3c-15.5,0-24,0.3-43.6,8.6c-5.2,2.1-12.8,3.2-21.9,4.6c-19.3,2.9-45.5,6.8-70.9,23.4
	c-14,9.2-24.3,17.3-33.2,24.2c-18.6,14.6-31,24.2-58.4,28.8c-25.1,4.2-40.7-0.7-58-6.2c-10.5-3.3-21.7-6.8-36-8.6
	c-25.7-3.3-33.3-10-40.8-16.7c-5.6-5.1-11.3-10.1-24.6-13.5c-30.4-7.8-44.1-23-64.3-45.5c-12.6-14.1-26.3-16.4-44.9-19.6
	c-13.8-2.3-30.3-5.1-50.9-13.5c-27.1-11.1-63.5-9.4-94.6-7.9c-9.9,0.5-19.1,0.9-27.4,0.9c-22.2,0-41.7-13.2-62.4-27.1
	c-11.6-7.8-23.5-15.8-36.4-21.9c-20.5-9.7-44-11.9-64.9-13.9c-17.2-1.6-32.7-3.1-43.4-8.4c-66.6-33.1-119,16.4-169.5,64.3
	c-30.7,29-63.7,58.3-95.9,67.2c-11.9,3.3-18.3,6.1-24.5,8.7c-1.2,0.5-2.3,0.9-3.4,1.4c-14.8,6.1-21.2,8.8-40,0.8
	c-13.4-5.7-21.1-12.6-27.9-18.7c-8.9-8-16-14.3-31.5-14c-15.8,0.3-25.1-10.8-34.3-21.7c-6.8-8.1-13.6-16.1-22.8-19.4
	c-30.9-11-51.3-16.7-91-25c-9.7-2-20-4.7-25.8-7.4l0.3,169l1442.7-0.4L1443.2,179.3L1443.2,179.3z"/>
</svg>
