<?xml version="1.0" encoding="utf-8"?>
<!-- Generator: Adobe Illustrator 20.1.0, SVG Export Plug-In . SVG Version: 6.00 Build 0)  -->
<svg version="1.1" id="Layer_1" xmlns="http://www.w3.org/2000/svg" xmlns:xlink="http://www.w3.org/1999/xlink" x="0px" y="0px"
	 viewBox="0 0 1440 970" style="enable-background:new 0 0 1440 970;" xml:space="preserve">
<style type="text/css">
	.st0{fill:url(#SVGID_1_);}
	.st1{fill:url(#SVGID_2_);}
	.st2{fill:url(#SVGID_3_);}
	.st3{fill:url(#SVGID_4_);}
	.st4{fill:#FFFFFF;}
</style>
<linearGradient id="SVGID_1_" gradientUnits="userSpaceOnUse" x1="720" y1="454.4537" x2="720" y2="-977.5016" gradientTransform="matrix(1 0 0 -1 0 1109.0084)">
	<stop  offset="0" style="stop-color:#7395BB"/>
	<stop  offset="1" style="stop-color:#FFFFFF;stop-opacity:0"/>
</linearGradient>
<path class="st0" d="M1440,694.7c-32.2,8.4-72.4,6.4-108.5,4.6c-14.1-0.7-27.6-1.4-39.7-1.4c-25.4,0-46.7,8.9-70,18.6
	c-16.6,6.9-34.2,14.3-55,19.1c-26.8,6.3-54,8-78.2,9.6c-23.1,1.5-43.4,2.8-58,7.7c-24.5,8.2-55.4,8.7-97.3,8.7
	c-20.6,0-29.6-6.3-38.4-12.4c-9-6.3-17.8-12.5-38.8-11.2c-12,0.7-32.9-15.3-57.2-34c-33.4-25.7-73.5-56.5-106.8-56.5
	c-27.7,0-38.2-3.3-45.6-5.7c-8-2.5-12.3-3.9-30.7,1.4c-16.3,4.7-26.8,10.3-36.1,15.3c-12.9,6.9-23.3,12.6-43.3,12.3
	c-19.9-0.3-36.6,12.5-52.5,24.6c-11.6,8.9-22.8,17.3-34.3,20.1c-13.9,3.3-23.2,7.7-31.5,11.7c-15.1,7.1-26.9,12.7-56.9,7.9
	c-7.3-1.2-13.4-2.5-18.9-3.6c-15.2-3.2-25.6-5.4-41-1.3c-4.2,1.1-8.9,2.8-14.2,4.7c-16.1,5.8-37.6,13.5-65.2,12.7
	c-1.9-0.1-3.9-0.1-6-0.2c-3.9-0.1-8.3-0.2-13-0.3c-37.1-0.8-87.6-2.4-110.6-8.9c-47.5-15.5-62.3-19.4-92-21.5v254.8h1440V694.7z"/>
<linearGradient id="SVGID_2_" gradientUnits="userSpaceOnUse" x1="719.941" y1="455.5057" x2="720.023" y2="192.8753" gradientTransform="matrix(1 0 0 -1 0 1109.0084)">
	<stop  offset="0" style="stop-color:#7395BB;stop-opacity:0.96"/>
	<stop  offset="1" style="stop-color:#FFFFFF;stop-opacity:0"/>
</linearGradient>
<path class="st1" d="M1440,713.6c-9.6,1.9-22.9,4-44,6.5c-19.3,2.2-34.4,4.3-47.6,6.1c-25.5,3.5-43.9,6-71.5,6.9
	c-22.8,0.7-44.4,5.4-66.6,10.1c-19.9,4.3-40.2,8.6-62.2,10.3c-13.8,1.1-27,1.8-39.5,2.5c-29.4,1.7-54.2,3.1-71.4,8
	c-27.7,8-39,10.9-109.4,10.9c-18.1,0-31-4.8-44.5-9.7c-17.1-6.3-35-12.9-65.5-10.4c-14.4,1.2-27.3-5.6-42.3-13.5
	c-18.6-9.8-40.4-21.3-72.4-21.3c-45.9,0-71.7,15-92.4,26.9c-8.7,5-16.5,9.5-24.4,12.2c-10.3,3.4-18.7,6.9-26.5,10.2
	c-18,7.6-32.6,13.7-60.4,13.7l-5.1,0c-38.3,0-79.9,0-106.5-8.1c-12.8-3.9-24.9-8.7-36.3-13.2c-18.2-7.2-34.3-13.5-47.6-14.1
	c-16.5-0.8-26.2,6.8-37,15.3c-10.8,8.4-22.6,17.6-43.1,20.1c-19.1,2.3-56.8,3.6-98.1,2.5c-19.5-0.5-37.5-3.2-54.6-5.7
	c-18.4-2.7-35.7-5.2-52.5-4.8c-7.3,0.2-13.3,0.4-18.6,0.8v195.6h1440V713.6z"/>
<linearGradient id="SVGID_3_" gradientUnits="userSpaceOnUse" x1="723.6453" y1="583.4515" x2="718.9392" y2="110.7854" gradientTransform="matrix(1 0 0 -1 0 1109.0084)">
	<stop  offset="0" style="stop-color:#7395BB"/>
	<stop  offset="1" style="stop-color:#FFFFFF"/>
</linearGradient>
<path class="st2" d="M1440,741.9c-8,1.2-17.1,2.4-27.6,3.6c-18.8,2.2-35.7,4.6-51.4,6.9c-31.4,4.5-58.2,8.4-87.1,8.4
	c-22.5,0-28.5,1.2-38,3.2c-8.8,1.8-20.5,4.2-51.1,6.8c-16.2,1.4-36,0.8-56,0.3c-29.7-0.8-59.9-1.6-79.6,3.8
	c-11.4,3.2-19.6,6-26.7,8.5c-19.8,6.9-31,10.8-81.2,10.8c-16.5,0-33.5-4.8-51.7-10c-28.2-8-59.3-16.9-95.8-9.9
	c-10.7,2.1-18.6,8-27.4,14.6c-14.4,10.8-31.2,23.5-67.1,23.5h-99.6c-19.2,0-37.3,1.8-54,3.5c-20.5,2.1-38.9,4-54.6,2
	c-24.3-3.1-38.5-7.2-59-13.2c-6.3-1.8-13.2-3.8-21.1-6c-32.9-9.1-73.4-19.2-95.1-19.2c-22.8,0-32.9,5.7-43.7,11.8
	c-9.4,5.3-19.2,10.9-38.4,13.2c-19.1,2.3-78.6,5.2-113.1-1.9c-23.7-4.8-46.5-1.4-71.7,2.3c-3.5,0.5-7.1,1.1-10.7,1.6
	c-10.5,1.5-19.1,2.8-26.4,3.9l-0.4,0.1c-4.2,0.6-8,1.2-11.6,1.7v159.3h1440V741.9z"/>
<linearGradient id="SVGID_4_" gradientUnits="userSpaceOnUse" x1="719.9028" y1="505.8282" x2="719.9902" y2="246.6891" gradientTransform="matrix(1 0 0 -1 0 1109.0084)">
	<stop  offset="0" style="stop-color:#7395BB"/>
	<stop  offset="1" style="stop-color:#FFFFFF;stop-opacity:0.41"/>
</linearGradient>
<path class="st3" d="M1440,811.6c-11.8,2.9-24.2,5.6-37.3,7.7c-31.6,5-54.7,2.3-94.4-3.7c-25.9-4-61.5-10.1-99.5-16.6l-0.2,0
	c-21.6-3.7-43.9-7.6-65.8-11.2c-53.8-9-73.4,2.4-92.7,13.5c-9.2,5.3-18.3,10.6-30.9,13.5c-41.2,9.6-68.9,12.7-110.9,12.7
	c-46.4,0-89.1,2.2-108.6,7.4c-19.5,5.2-36.7,5.9-94.4,5.9c-30,0-47.9-2.1-65-4.1c-15.7-1.9-30.8-3.6-54.1-3.6
	c-26,0-40.4,2.3-53.5,4.4c-11.4,1.8-21.8,3.5-37.9,3.3c-18.1-0.2-25-3.2-32.4-6.3c-6.7-2.8-13.7-5.8-29.7-7.1
	c-11.1-0.9-19-1.1-26.3-1.2c-14.8-0.3-27-0.6-57.6-6.8c-32.4-6.6-46.3-3.9-66.4,0.1c-8.2,1.6-17.5,3.4-29.5,4.9
	c-4.9,0.6-10.6,1.5-16.9,2.6c-18,3-41.3,6.9-68.5,6.1c-18.8-0.6-34.7,4.1-50.1,8.7c-11.1,3.3-21.8,6.4-33.1,7.5
	c-30.7,2.8-50.7,7.4-67.6,11.4c-5.9,1.4-11.4,2.7-16.9,3.8v107.1h1440V811.6z"/>
<path class="st4" d="M1440,878c-44.6-1.8-76.8-12-104-20.7c-21.4-6.8-39.7-12.6-58.6-12.6c-25,0-44.8-2.7-69.3-6.1
	c-18.1-2.5-38.9-5.3-66.3-7.7c-38.6-3.3-53.7,3.1-68.5,9.5c-9.9,4.3-19.7,8.5-36.4,9.7c-31.1,2.3-49.2,0.7-67.8-0.8
	c-12.3-1-24.8-2.1-41.5-2.1c-41.9,0-68.9,7.6-88.4,14.3c-19.5,6.7-56.9,7.3-114.6,7.3c-30.1,0-45.1-3.8-59.4-7.5
	c-13.2-3.4-25.9-6.6-49.2-6.6c-26,0-44.7,4.2-61.8,8c-14.9,3.3-28.5,6.3-44.6,6.1c-19.2-0.3-27.5-2.6-36.9-5.1
	c-7.5-2-15.7-4.2-30.7-5.8c-29.6-3.1-29.9-3-59.2,6.3l-4.6,1.5c-2.9,0.9-6.1,1.9-9.6,3c-4.7,1.5-9.2,2.9-13.4,4.2
	c-34.7,11.1-54.3,17.3-81,6.1c-2.2-0.9-4.2-1.8-6.1-2.7c-3.1-1.4-5.7-2.7-8.2-3.9c-12.9-6.3-20.6-10-48.6-11.1
	c-32.4-1.3-80.2,7.7-100.4,17.7C73.1,898.1,33.5,898,0,897.2v74.1h1440V878z"/>
</svg>
